<svg version="1.1" xmlns="http://www.w3.org/2000/svg" viewBox="0 0 880.4921264648438 312.9194634280987" width="2641.4763793945312" height="938.7583902842962">
  <!-- svg-source:excalidraw -->
  
  <defs>
    <style>
      @font-face {
        font-family: "Virgil";
        src: url("https://excalidraw.com/Virgil.woff2");
      }
      @font-face {
        font-family: "Cascadia";
        src: url("https://excalidraw.com/Cascadia.woff2");
      }
    </style>
  </defs>
  <g stroke-linecap="round" transform="translate(10 68.51731872558588) rotate(0 73.5 21)"><path d="M0 0 C40.65 0, 81.3 0, 147 0 M0 0 C35.99 0, 71.98 0, 147 0 M147 0 C147 15.92, 147 31.85, 147 42 M147 0 C147 16.31, 147 32.62, 147 42 M147 42 C98.94 42, 50.88 42, 0 42 M147 42 C117.15 42, 87.3 42, 0 42 M0 42 C0 25.51, 0 9.02, 0 0 M0 42 C0 27.36, 0 12.72, 0 0" stroke="#495057" stroke-width="1" fill="none"></path></g><g transform="translate(15 80.51731872558588) rotate(0 68.5 9)"><text x="68.5" y="14" font-family="Helvetica, Segoe UI Emoji" font-size="16px" fill="#495057" text-anchor="middle" style="white-space: pre;" direction="ltr">WEB</text></g><g stroke-linecap="round" transform="translate(11.81634521484375 149.97602844238276) rotate(0 73.5 21)"><path d="M0 0 C36.46 0, 72.91 0, 147 0 M0 0 C50.12 0, 100.25 0, 147 0 M147 0 C147 12.71, 147 25.43, 147 42 M147 0 C147 16.58, 147 33.16, 147 42 M147 42 C102 42, 56.99 42, 0 42 M147 42 C95.62 42, 44.23 42, 0 42 M0 42 C0 25.33, 0 8.66, 0 0 M0 42 C0 29.04, 0 16.08, 0 0" stroke="#495057" stroke-width="1" fill="none"></path></g><g transform="translate(16.81634521484375 161.97602844238276) rotate(0 68.5 9)"><text x="68.5" y="14" font-family="Helvetica, Segoe UI Emoji" font-size="16px" fill="#495057" text-anchor="middle" style="white-space: pre;" direction="ltr">APP. IOS</text></g><g stroke-linecap="round" transform="translate(14.02105712890625 230.56846618652338) rotate(0 73.5 21)"><path d="M0 0 C36.07 0, 72.15 0, 147 0 M0 0 C38.85 0, 77.71 0, 147 0 M147 0 C147 9.43, 147 18.86, 147 42 M147 0 C147 16.64, 147 33.28, 147 42 M147 42 C110.4 42, 73.81 42, 0 42 M147 42 C93.57 42, 40.13 42, 0 42 M0 42 C0 26.17, 0 10.35, 0 0 M0 42 C0 29.94, 0 17.88, 0 0" stroke="#495057" stroke-width="1" fill="none"></path></g><g transform="translate(19.02105712890625 242.56846618652338) rotate(0 68.5 9)"><text x="68.5" y="14" font-family="Helvetica, Segoe UI Emoji" font-size="16px" fill="#495057" text-anchor="middle" style="white-space: pre;" direction="ltr">APP. ANDROID</text></g><g stroke-linecap="round" transform="translate(295.70599365234375 125.86296081542963) rotate(0 82.7142333984375 40.52618408203125)"><path d="M165.43 40.53 C165.43 42.15, 165.23 43.79, 164.83 45.41 C164.42 47.03, 163.82 48.64, 163.02 50.22 C162.23 51.81, 161.23 53.37, 160.05 54.9 C158.87 56.42, 157.5 57.92, 155.95 59.36 C154.41 60.8, 152.67 62.21, 150.79 63.55 C148.9 64.89, 146.83 66.18, 144.63 67.4 C142.42 68.62, 140.05 69.78, 137.56 70.86 C135.08 71.94, 132.44 72.95, 129.7 73.88 C126.97 74.8, 124.1 75.65, 121.15 76.41 C118.21 77.17, 115.15 77.84, 112.05 78.42 C108.94 79, 105.74 79.49, 102.51 79.87 C99.28 80.26, 95.98 80.56, 92.68 80.76 C89.39 80.95, 86.04 81.05, 82.71 81.05 C79.39 81.05, 76.04 80.95, 72.74 80.76 C69.44 80.56, 66.15 80.26, 62.92 79.87 C59.69 79.49, 56.49 79, 53.38 78.42 C50.28 77.84, 47.22 77.17, 44.28 76.41 C41.33 75.65, 38.46 74.8, 35.73 73.88 C32.99 72.95, 30.35 71.94, 27.86 70.86 C25.38 69.78, 23.01 68.62, 20.8 67.4 C18.6 66.18, 16.53 64.89, 14.64 63.55 C12.75 62.21, 11.02 60.8, 9.47 59.36 C7.93 57.92, 6.55 56.42, 5.38 54.9 C4.2 53.37, 3.2 51.81, 2.4 50.22 C1.61 48.64, 1 47.03, 0.6 45.41 C0.2 43.79, 0 42.15, 0 40.53 C0 38.9, 0.2 37.26, 0.6 35.64 C1 34.02, 1.61 32.41, 2.4 30.83 C3.2 29.25, 4.2 27.68, 5.38 26.16 C6.55 24.63, 7.93 23.13, 9.47 21.69 C11.02 20.25, 12.75 18.84, 14.64 17.5 C16.53 16.16, 18.6 14.87, 20.8 13.65 C23.01 12.43, 25.38 11.27, 27.86 10.19 C30.35 9.11, 32.99 8.1, 35.73 7.17 C38.46 6.25, 41.33 5.4, 44.28 4.64 C47.22 3.89, 50.28 3.21, 53.38 2.63 C56.49 2.06, 59.69 1.57, 62.92 1.18 C66.15 0.79, 69.44 0.49, 72.74 0.3 C76.04 0.1, 79.39 0, 82.71 0 C86.04 0, 89.39 0.1, 92.68 0.3 C95.98 0.49, 99.28 0.79, 102.51 1.18 C105.74 1.57, 108.94 2.06, 112.05 2.63 C115.15 3.21, 118.21 3.89, 121.15 4.64 C124.1 5.4, 126.97 6.25, 129.7 7.17 C132.44 8.1, 135.08 9.11, 137.56 10.19 C140.05 11.27, 142.42 12.43, 144.63 13.65 C146.83 14.87, 148.9 16.16, 150.79 17.5 C152.67 18.84, 154.41 20.25, 155.95 21.69 C157.5 23.13, 158.87 24.63, 160.05 26.16 C161.23 27.68, 162.23 29.25, 163.02 30.83 C163.82 32.41, 164.42 34.02, 164.83 35.64 C165.23 37.26, 165.43 38.9, 165.43 40.53" stroke="#495057" stroke-width="1" fill="none"></path></g><g transform="translate(341.35107421875 149.57279968261713) rotate(0 39.5 18)"><text x="39.5" y="14" font-family="Helvetica, Segoe UI Emoji" font-size="16px" fill="#495057" text-anchor="middle" style="white-space: pre;" direction="ltr">GATEWAY</text><text x="39.5" y="32" font-family="Helvetica, Segoe UI Emoji" font-size="16px" fill="#495057" text-anchor="middle" style="white-space: pre;" direction="ltr">GRAPHQL</text></g><g stroke-linecap="round"><g transform="translate(168.50276700101182 91.25368572237281) rotate(0 62.16766037528689 25.65624721145644)"><path d="M0 0 C20.72 8.55, 103.61 42.76, 124.34 51.31 M0 0 C20.72 8.55, 103.61 42.76, 124.34 51.31" stroke="#495057" stroke-width="1" fill="none"></path></g><g transform="translate(168.50276700101182 91.25368572237281) rotate(0 62.16766037528689 25.65624721145644)"><path d="M124.34 51.31 L109.35 51.99 L114.19 40.27 L124.34 51.31" stroke="none" stroke-width="0" fill="#495057" fill-rule="evenodd"></path><path d="M124.34 51.31 C119.19 51.54, 114.05 51.77, 109.35 51.99 M124.34 51.31 C119.02 51.55, 113.7 51.79, 109.35 51.99 M109.35 51.99 C110.89 48.26, 112.43 44.53, 114.19 40.27 M109.35 51.99 C111.09 47.77, 112.83 43.55, 114.19 40.27 M114.19 40.27 C116.49 42.78, 118.8 45.29, 124.34 51.31 M114.19 40.27 C117.14 43.48, 120.09 46.69, 124.34 51.31 M124.34 51.31 C124.34 51.31, 124.34 51.31, 124.34 51.31 M124.34 51.31 C124.34 51.31, 124.34 51.31, 124.34 51.31" stroke="#495057" stroke-width="1" fill="none"></path></g></g><g stroke-linecap="round"><g transform="translate(177.31103515625 169.68757629394526) rotate(0 53.8274515294196 -0.890254009398566)"><path d="M0 0 C26.07 -0.43, 52.14 -0.86, 107.65 -1.78 M0 0 C37.41 -0.62, 74.81 -1.24, 107.65 -1.78" stroke="#495057" stroke-width="1" fill="none"></path></g><g transform="translate(177.31103515625 169.68757629394526) rotate(0 53.8274515294196 -0.890254009398566)"><path d="M107.65 -1.78 L94.17 4.78 L93.96 -7.89 L107.65 -1.78" stroke="none" stroke-width="0" fill="#495057" fill-rule="evenodd"></path><path d="M107.65 -1.78 C104.39 -0.19, 101.12 1.4, 94.17 4.78 M107.65 -1.78 C102.97 0.5, 98.28 2.78, 94.17 4.78 M94.17 4.78 C94.09 0.29, 94.02 -4.2, 93.96 -7.89 M94.17 4.78 C94.11 1.62, 94.06 -1.55, 93.96 -7.89 M93.96 -7.89 C97.72 -6.21, 101.49 -4.53, 107.65 -1.78 M93.96 -7.89 C99.11 -5.59, 104.27 -3.29, 107.65 -1.78 M107.65 -1.78 C107.65 -1.78, 107.65 -1.78, 107.65 -1.78 M107.65 -1.78 C107.65 -1.78, 107.65 -1.78, 107.65 -1.78" stroke="#495057" stroke-width="1" fill="none"></path></g></g><g stroke-linecap="round"><g transform="translate(174.37640710285683 247.7470455720942) rotate(0 62.638137423012054 -25.964801193094598)"><path d="M0 0 C40.08 -16.61, 80.15 -33.22, 125.28 -51.93 M0 0 C32.27 -13.37, 64.53 -26.75, 125.28 -51.93" stroke="#495057" stroke-width="1" fill="none"></path></g><g transform="translate(174.37640710285683 247.7470455720942) rotate(0 62.638137423012054 -25.964801193094598)"><path d="M125.28 -51.93 L115.15 -40.87 L110.29 -52.58 L125.28 -51.93" stroke="none" stroke-width="0" fill="#495057" fill-rule="evenodd"></path><path d="M125.28 -51.93 C122.04 -48.39, 118.79 -44.85, 115.15 -40.87 M125.28 -51.93 C122.67 -49.08, 120.06 -46.23, 115.15 -40.87 M115.15 -40.87 C113.36 -45.17, 111.58 -49.47, 110.29 -52.58 M115.15 -40.87 C113.57 -44.67, 111.99 -48.47, 110.29 -52.58 M110.29 -52.58 C115.65 -52.35, 121.01 -52.11, 125.28 -51.93 M110.29 -52.58 C114.88 -52.38, 119.47 -52.18, 125.28 -51.93 M125.28 -51.93 C125.28 -51.93, 125.28 -51.93, 125.28 -51.93 M125.28 -51.93 C125.28 -51.93, 125.28 -51.93, 125.28 -51.93" stroke="#495057" stroke-width="1" fill="none"></path></g></g><g stroke-linecap="round" transform="translate(560.1953735351562 146.81037902832026) rotate(0 71.27020263671875 17.796127319335938)"><path d="M8.9 0 M8.9 0 C38.08 0, 67.27 0, 133.64 0 M8.9 0 C46.7 0, 84.5 0, 133.64 0 M133.64 0 C139.57 0, 142.54 2.97, 142.54 8.9 M133.64 0 C139.57 0, 142.54 2.97, 142.54 8.9 M142.54 8.9 C142.54 15.44, 142.54 21.98, 142.54 26.69 M142.54 8.9 C142.54 15.94, 142.54 22.99, 142.54 26.69 M142.54 26.69 C142.54 32.63, 139.57 35.59, 133.64 35.59 M142.54 26.69 C142.54 32.63, 139.57 35.59, 133.64 35.59 M133.64 35.59 C90.05 35.59, 46.46 35.59, 8.9 35.59 M133.64 35.59 C101.2 35.59, 68.75 35.59, 8.9 35.59 M8.9 35.59 C2.97 35.59, 0 32.63, 0 26.69 M8.9 35.59 C2.97 35.59, 0 32.63, 0 26.69 M0 26.69 C0 20.42, 0 14.16, 0 8.9 M0 26.69 C0 21.77, 0 16.84, 0 8.9 M0 8.9 C0 2.97, 2.97 0, 8.9 0 M0 8.9 C0 2.97, 2.97 0, 8.9 0" stroke="#495057" stroke-width="1" fill="none"></path></g><g transform="translate(585.4240112304688 157.257827758789) rotate(0 45 9)"><text x="45" y="14" font-family="Helvetica, Segoe UI Emoji" font-size="16px" fill="#495057" text-anchor="middle" style="white-space: pre;" direction="ltr">PURCHASE</text></g><g stroke-linecap="round"><g transform="translate(473.6370416539518 163.6525569893706) rotate(0 37.822330576023546 -0.0030631866654116102)"><path d="M0 0 C12.61 0, 63.04 -0.01, 75.64 -0.01 M0 0 C12.61 0, 63.04 -0.01, 75.64 -0.01" stroke="#495057" stroke-width="1" fill="none"></path></g><g transform="translate(473.6370416539518 163.6525569893706) rotate(0 37.822330576023546 -0.0030631866654116102)"><path d="M75.64 -0.01 L62.05 6.33 L62.05 -6.34 L75.64 -0.01" stroke="none" stroke-width="0" fill="#495057" fill-rule="evenodd"></path><path d="M75.64 -0.01 C71.59 1.88, 67.54 3.77, 62.05 6.33 M75.64 -0.01 C70.51 2.39, 65.37 4.79, 62.05 6.33 M62.05 6.33 C62.05 3.48, 62.05 0.62, 62.05 -6.34 M62.05 6.33 C62.05 2.93, 62.05 -0.48, 62.05 -6.34 M62.05 -6.34 C66.15 -4.43, 70.24 -2.53, 75.64 -0.01 M62.05 -6.34 C65.26 -4.85, 68.47 -3.35, 75.64 -0.01 M75.64 -0.01 C75.64 -0.01, 75.64 -0.01, 75.64 -0.01 M75.64 -0.01 C75.64 -0.01, 75.64 -0.01, 75.64 -0.01" stroke="#495057" stroke-width="1" fill="none"></path></g></g><g stroke-linecap="round" transform="translate(593.8895721435549 10) rotate(0 36.48582458496088 36.48582458496088)"><path d="M0 0 C0 0, 0 0, 0 0 M0 0 C0 0, 0 0, 0 0 M0.13 12.04 C3.58 8.07, 7.03 4.1, 10.63 -0.03 M0.13 12.04 C3.83 7.79, 7.52 3.54, 10.63 -0.03 M0.27 24.08 C7.33 15.96, 14.39 7.83, 21.26 -0.07 M0.27 24.08 C7.05 16.28, 13.83 8.48, 21.26 -0.07 M-0.26 36.88 C8.39 26.93, 17.04 16.98, 31.89 -0.1 M-0.26 36.88 C6.53 29.07, 13.32 21.26, 31.89 -0.1 M-0.12 48.92 C11.26 35.82, 22.64 22.73, 42.52 -0.14 M-0.12 48.92 C11.4 35.66, 22.93 22.4, 42.52 -0.14 M0.01 60.96 C13.71 45.19, 27.42 29.43, 53.15 -0.17 M0.01 60.96 C15.41 43.24, 30.81 25.53, 53.15 -0.17 M0.14 73 C23.21 46.46, 46.29 19.92, 63.78 -0.21 M0.14 73 C18.43 51.97, 36.71 30.94, 63.78 -0.21 M10.77 72.97 C29.74 51.15, 48.7 29.33, 73.75 0.51 M10.77 72.97 C23.57 58.25, 36.36 43.53, 73.75 0.51 M21.4 72.93 C42.37 48.81, 63.34 24.69, 73.89 12.55 M21.4 72.93 C42.07 49.16, 62.74 25.38, 73.89 12.55 M32.03 72.9 C48.37 54.1, 64.71 35.3, 73.36 25.35 M32.03 72.9 C45.49 57.41, 58.95 41.93, 73.36 25.35 M42.66 72.86 C50.2 64.19, 57.75 55.51, 73.5 37.39 M42.66 72.86 C50.96 63.32, 59.25 53.78, 73.5 37.39 M53.29 72.83 C59.96 65.16, 66.62 57.5, 73.63 49.43 M53.29 72.83 C61.25 63.67, 69.21 54.51, 73.63 49.43 M63.92 72.79 C66.44 69.9, 68.95 67.01, 73.76 61.47 M63.92 72.79 C66.4 69.94, 68.88 67.1, 73.76 61.47 M0.1 73.05 C0.1 73.05, 0.1 73.05, 0.1 73.05 M0.1 73.05 C0.1 73.05, 0.1 73.05, 0.1 73.05 M12.14 72.92 C8.76 69.98, 5.38 67.05, 0.06 62.42 M12.14 72.92 C8.04 69.36, 3.93 65.79, 0.06 62.42 M24.18 72.79 C19.15 68.42, 14.12 64.05, 0.03 51.79 M24.18 72.79 C17.3 66.81, 10.42 60.83, 0.03 51.79 M36.22 72.66 C26.91 64.57, 17.61 56.48, -0.01 41.16 M36.22 72.66 C22.08 60.36, 7.93 48.07, -0.01 41.16 M49.01 73.18 C35.09 61.07, 21.16 48.96, -0.04 30.53 M49.01 73.18 C30.5 57.09, 11.99 40.99, -0.04 30.53 M61.05 73.04 C47.87 61.59, 34.69 50.13, -0.08 19.9 M61.05 73.04 C41.45 56.01, 21.85 38.97, -0.08 19.9 M73.1 72.91 C54.6 56.83, 36.11 40.76, -0.11 9.27 M73.1 72.91 C48.02 51.12, 22.95 29.32, -0.11 9.27 M73.06 62.28 C53.05 44.89, 33.04 27.49, 0.61 -0.7 M73.06 62.28 C50.85 42.98, 28.65 23.67, 0.61 -0.7 M73.03 51.65 C57.65 38.29, 42.28 24.93, 12.65 -0.83 M73.03 51.65 C54.24 35.32, 35.46 19, 12.65 -0.83 M72.99 41.02 C60.96 30.56, 48.92 20.1, 24.69 -0.97 M72.99 41.02 C54.47 24.92, 35.95 8.82, 24.69 -0.97 M72.96 30.39 C65.13 23.58, 57.3 16.78, 37.49 -0.44 M72.96 30.39 C59.71 18.88, 46.47 7.37, 37.49 -0.44 M72.92 19.76 C67.41 14.97, 61.89 10.17, 49.53 -0.58 M72.92 19.76 C67.16 14.75, 61.39 9.74, 49.53 -0.58 M72.89 9.13 C69.8 6.45, 66.72 3.77, 61.57 -0.71 M72.89 9.13 C68.6 5.4, 64.31 1.68, 61.57 -0.71" stroke="#ced4da" stroke-width="1" fill="none"></path><path d="M0 0 C24.29 0, 48.59 0, 72.97 0 M0 0 C28.51 0, 57.02 0, 72.97 0 M72.97 0 C72.97 23.56, 72.97 47.12, 72.97 72.97 M72.97 0 C72.97 16.63, 72.97 33.27, 72.97 72.97 M72.97 72.97 C49.68 72.97, 26.4 72.97, 0 72.97 M72.97 72.97 C54.39 72.97, 35.81 72.97, 0 72.97 M0 72.97 C0 56.81, 0 40.65, 0 0 M0 72.97 C0 54.27, 0 35.57, 0 0" stroke="#343a40" stroke-width="2" fill="none"></path></g><g stroke-linecap="round"><g transform="translate(634.4010970328177 27.132901172151236) rotate(0 7.672246138791479 16.539605705590944)"><path d="M0 0 C3.54 -0.02, 7.08 -0.05, 12.66 -0.09 M0 0 C4.38 -0.03, 8.76 -0.06, 12.66 -0.09 M12.66 -0.09 C11.73 4.33, 10.8 8.74, 10 12.54 M12.66 -0.09 C12.07 2.73, 11.47 5.55, 10 12.54 M10 12.54 C13.08 12.52, 16.16 12.5, 19.11 12.48 M10 12.54 C12.01 12.53, 14.02 12.51, 19.11 12.48 M19.11 12.48 C12.46 20.1, 5.82 27.72, 1.07 33.17 M19.11 12.48 C13.08 19.39, 7.06 26.3, 1.07 33.17 M1.07 33.17 C1.96 28.94, 2.85 24.72, 5.05 14.34 M1.07 33.17 C1.97 28.91, 2.87 24.65, 5.05 14.34 M5.05 14.34 C2.91 14.37, 0.77 14.41, -3.76 14.47 M5.05 14.34 C2.97 14.37, 0.89 14.4, -3.76 14.47 M-3.76 14.47 C-2.97 11.44, -2.18 8.4, 0 0 M-3.76 14.47 C-2.32 8.95, -0.89 3.42, 0 0" stroke="#343a40" stroke-width="2" fill="none"></path></g></g><g stroke-linecap="round"><g transform="translate(641.3708489606096 23.73472759293807) rotate(0 -16.91191032543111 5.444012383541349)"><path d="M0 0 C-0.88 -0.25, -3.18 -1.09, -5.28 -1.48 C-7.38 -1.86, -9.87 -2.29, -12.6 -2.32 C-15.33 -2.34, -18.92 -2.08, -21.67 -1.62 C-24.41 -1.16, -27.37 -0.19, -29.07 0.43 C-30.76 1.05, -31.13 1.55, -31.85 2.12 C-32.56 2.69, -33.03 3.15, -33.35 3.84 C-33.67 4.52, -33.93 5.49, -33.78 6.25 C-33.62 7.01, -33.16 7.67, -32.4 8.41 C-31.64 9.15, -30.48 10.05, -29.2 10.67 C-27.92 11.29, -26.25 11.75, -24.72 12.12 C-23.19 12.49, -21.69 12.7, -20.03 12.88 C-18.36 13.06, -16.33 13.2, -14.74 13.2 C-13.15 13.21, -11.21 12.98, -10.5 12.94 M0 0 C-0.88 -0.25, -3.18 -1.09, -5.28 -1.48 C-7.38 -1.86, -9.87 -2.29, -12.6 -2.32 C-15.33 -2.34, -18.92 -2.08, -21.67 -1.62 C-24.41 -1.16, -27.37 -0.19, -29.07 0.43 C-30.76 1.05, -31.13 1.55, -31.85 2.12 C-32.56 2.69, -33.03 3.15, -33.35 3.84 C-33.67 4.52, -33.93 5.49, -33.78 6.25 C-33.62 7.01, -33.16 7.67, -32.4 8.41 C-31.64 9.15, -30.48 10.05, -29.2 10.67 C-27.92 11.29, -26.25 11.75, -24.72 12.12 C-23.19 12.49, -21.69 12.7, -20.03 12.88 C-18.36 13.06, -16.33 13.2, -14.74 13.2 C-13.15 13.21, -11.21 12.98, -10.5 12.94" stroke="#343a40" stroke-width="2" fill="none"></path></g></g><g stroke-linecap="round"><g transform="translate(607.7863575709498 28.91597028236987) rotate(0 -0.08510266925821952 17.631614187323677)"><path d="M0 0 C-0.03 5.88, -0.14 29.39, -0.17 35.26 M0 0 C-0.03 5.88, -0.14 29.39, -0.17 35.26" stroke="#343a40" stroke-width="2" fill="none"></path></g></g><g stroke-linecap="round"><g transform="translate(607.4234467868819 63.79208943789898) rotate(0 20.36795207619616 3.8806648225509477)"><path d="M0 0 C0.08 0.29, 0.11 1.14, 0.48 1.72 C0.84 2.3, 1.38 2.88, 2.17 3.48 C2.96 4.07, 3.99 4.74, 5.22 5.28 C6.45 5.81, 8.08 6.31, 9.56 6.69 C11.05 7.06, 12.43 7.35, 14.12 7.53 C15.82 7.7, 17.77 7.75, 19.73 7.76 C21.69 7.77, 23.97 7.75, 25.88 7.56 C27.78 7.38, 29.46 7.09, 31.15 6.66 C32.85 6.22, 34.7 5.57, 36.05 4.95 C37.41 4.33, 38.5 3.71, 39.28 2.92 C40.07 2.13, 40.49 0.67, 40.74 0.22 M0 0 C0.08 0.29, 0.11 1.14, 0.48 1.72 C0.84 2.3, 1.38 2.88, 2.17 3.48 C2.96 4.07, 3.99 4.74, 5.22 5.28 C6.45 5.81, 8.08 6.31, 9.56 6.69 C11.05 7.06, 12.43 7.35, 14.12 7.53 C15.82 7.7, 17.77 7.75, 19.73 7.76 C21.69 7.77, 23.97 7.75, 25.88 7.56 C27.78 7.38, 29.46 7.09, 31.15 6.66 C32.85 6.22, 34.7 5.57, 36.05 4.95 C37.41 4.33, 38.5 3.71, 39.28 2.92 C40.07 2.13, 40.49 0.67, 40.74 0.22" stroke="#343a40" stroke-width="2" fill="none"></path></g></g><g stroke-linecap="round"><g transform="translate(648.1991137288679 64.12978279009916) rotate(0 -0.04494542929023737 -8.183908543540603)"><path d="M0 0 C-0.01 -2.73, -0.07 -13.64, -0.09 -16.37 M0 0 C-0.01 -2.73, -0.07 -13.64, -0.09 -16.37" stroke="#343a40" stroke-width="2" fill="none"></path></g></g><g stroke-linecap="round"><g transform="translate(607.5687634021831 38.33910495463124) rotate(0 11.958075511053892 3.627574138143572)"><path d="M0 0 C0.11 0.31, 0.17 1.24, 0.65 1.87 C1.12 2.51, 1.87 3.17, 2.83 3.82 C3.79 4.46, 5.19 5.32, 6.4 5.76 C7.6 6.2, 8.68 6.23, 10.04 6.47 C11.4 6.71, 12.96 7.1, 14.57 7.22 C16.18 7.33, 18.17 7.17, 19.72 7.15 C21.28 7.13, 23.22 7.11, 23.92 7.11 M0 0 C0.11 0.31, 0.17 1.24, 0.65 1.87 C1.12 2.51, 1.87 3.17, 2.83 3.82 C3.79 4.46, 5.19 5.32, 6.4 5.76 C7.6 6.2, 8.68 6.23, 10.04 6.47 C11.4 6.71, 12.96 7.1, 14.57 7.22 C16.18 7.33, 18.17 7.17, 19.72 7.15 C21.28 7.13, 23.22 7.11, 23.92 7.11" stroke="#343a40" stroke-width="2" fill="none"></path></g></g><g stroke-linecap="round"><g transform="translate(607.4406272922774 42.109261676625295) rotate(0 13.47116251155336 3.836402559403126)"><path d="M0 0 C0.09 0.33, 0.08 1.3, 0.52 1.95 C0.95 2.6, 1.59 3.26, 2.61 3.91 C3.63 4.56, 5.12 5.33, 6.63 5.85 C8.14 6.38, 9.86 6.77, 11.67 7.07 C13.48 7.37, 15.59 7.59, 17.48 7.66 C19.36 7.72, 21.42 7.59, 23 7.46 C24.57 7.34, 26.28 6.99, 26.94 6.9 M0 0 C0.09 0.33, 0.08 1.3, 0.52 1.95 C0.95 2.6, 1.59 3.26, 2.61 3.91 C3.63 4.56, 5.12 5.33, 6.63 5.85 C8.14 6.38, 9.86 6.77, 11.67 7.07 C13.48 7.37, 15.59 7.59, 17.48 7.66 C19.36 7.72, 21.42 7.59, 23 7.46 C24.57 7.34, 26.28 6.99, 26.94 6.9" stroke="#343a40" stroke-width="2" fill="none"></path></g></g><g stroke-linecap="round"><g transform="translate(607.4984033158371 51.36748321962045) rotate(0 13.36889577233336 3.6550896817444567)"><path d="M0 0 C0.1 0.32, 0.2 1.27, 0.6 1.89 C1 2.52, 1.38 3.06, 2.38 3.72 C3.38 4.39, 4.98 5.36, 6.6 5.89 C8.22 6.41, 10.36 6.66, 12.11 6.89 C13.85 7.13, 15.24 7.24, 17.07 7.29 C18.9 7.34, 21.48 7.3, 23.09 7.19 C24.7 7.08, 26.13 6.73, 26.74 6.64 M0 0 C0.1 0.32, 0.2 1.27, 0.6 1.89 C1 2.52, 1.38 3.06, 2.38 3.72 C3.38 4.39, 4.98 5.36, 6.6 5.89 C8.22 6.41, 10.36 6.66, 12.11 6.89 C13.85 7.13, 15.24 7.24, 17.07 7.29 C18.9 7.34, 21.48 7.3, 23.09 7.19 C24.7 7.08, 26.13 6.73, 26.74 6.64" stroke="#343a40" stroke-width="2" fill="none"></path></g></g><g stroke-linecap="round"><g transform="translate(607.2446895450105 55.85224158785522) rotate(0 20.553357450495866 3.0828728189244146)"><path d="M0 0 C0.21 0.32, 0.53 1.28, 1.23 1.94 C1.94 2.6, 3.13 3.42, 4.22 3.96 C5.32 4.5, 6.04 4.71, 7.81 5.18 C9.58 5.65, 12.53 6.5, 14.83 6.79 C17.12 7.07, 19.45 6.96, 21.57 6.89 C23.69 6.81, 25.69 6.59, 27.55 6.33 C29.41 6.08, 31.05 5.81, 32.72 5.33 C34.4 4.85, 36.36 4.12, 37.6 3.46 C38.83 2.8, 39.53 2.07, 40.11 1.36 C40.7 0.65, 40.94 -0.44, 41.11 -0.81 M0 0 C0.21 0.32, 0.53 1.28, 1.23 1.94 C1.94 2.6, 3.13 3.42, 4.22 3.96 C5.32 4.5, 6.04 4.71, 7.81 5.18 C9.58 5.65, 12.53 6.5, 14.83 6.79 C17.12 7.07, 19.45 6.96, 21.57 6.89 C23.69 6.81, 25.69 6.59, 27.55 6.33 C29.41 6.08, 31.05 5.81, 32.72 5.33 C34.4 4.85, 36.36 4.12, 37.6 3.46 C38.83 2.8, 39.53 2.07, 40.11 1.36 C40.7 0.65, 40.94 -0.44, 41.11 -0.81" stroke="#343a40" stroke-width="2" fill="none"></path></g></g><g stroke-linecap="round"><g transform="translate(641.855584648516 56.07407609819404) rotate(0 3.0376294974209372 -1.9828527486789724)"><path d="M0 0 C0.73 -0.4, 3.39 -1.76, 4.4 -2.42 C5.42 -3.08, 5.8 -3.71, 6.08 -3.97 M0 0 C0.73 -0.4, 3.39 -1.76, 4.4 -2.42 C5.42 -3.08, 5.8 -3.71, 6.08 -3.97" stroke="#343a40" stroke-width="2" fill="none"></path></g></g><g stroke-linecap="round"><g transform="translate(611.1781862099206 36.355545482356575) rotate(0 2.3519213414380147 2.557147847279957)"><path d="M0 0 C1.9 0.75, 3.81 1.5, 4.87 1.92 M0 0 C1.57 0.62, 3.15 1.24, 4.87 1.92 M4.87 1.92 C4.84 2.65, 4.81 3.38, 4.74 5.11 M4.87 1.92 C4.83 2.94, 4.79 3.96, 4.74 5.11 M4.74 5.11 C3.49 4.63, 2.24 4.14, -0.17 3.21 M4.74 5.11 C3.65 4.69, 2.56 4.27, -0.17 3.21 M-0.17 3.21 C-0.12 2.38, -0.08 1.56, 0 0 M-0.17 3.21 C-0.12 2.29, -0.07 1.38, 0 0" stroke="#343a40" stroke-width="2" fill="none"></path></g></g><g stroke-linecap="round"><g transform="translate(611.241090088409 49.59977302103209) rotate(0 2.3519213414380147 2.557147847279957)"><path d="M0 0 C1.68 0.67, 3.37 1.33, 4.87 1.92 M0 0 C1.7 0.67, 3.41 1.35, 4.87 1.92 M4.87 1.92 C4.84 2.64, 4.81 3.35, 4.74 5.11 M4.87 1.92 C4.83 3, 4.78 4.08, 4.74 5.11 M4.74 5.11 C3.65 4.69, 2.57 4.27, -0.17 3.21 M4.74 5.11 C2.93 4.41, 1.12 3.71, -0.17 3.21 M-0.17 3.21 C-0.11 2.14, -0.06 1.06, 0 0 M-0.17 3.21 C-0.13 2.49, -0.09 1.77, 0 0" stroke="#343a40" stroke-width="2" fill="none"></path></g></g><g stroke-linecap="round"><g transform="translate(611.4142483262892 62.34012581070404) rotate(0 2.3519213414380147 2.557147847279957)"><path d="M0 0 C1 0.39, 1.99 0.79, 4.87 1.92 M0 0 C1.66 0.66, 3.33 1.31, 4.87 1.92 M4.87 1.92 C4.84 2.67, 4.81 3.42, 4.74 5.11 M4.87 1.92 C4.84 2.72, 4.8 3.52, 4.74 5.11 M4.74 5.11 C3.62 4.68, 2.5 4.24, -0.17 3.21 M4.74 5.11 C3.74 4.72, 2.73 4.34, -0.17 3.21 M-0.17 3.21 C-0.1 1.95, -0.04 0.69, 0 0 M-0.17 3.21 C-0.11 2.19, -0.06 1.17, 0 0" stroke="#343a40" stroke-width="2" fill="none"></path></g></g><g transform="translate(583.5333862304688 90.751968383789) rotate(0 46.35455322265625 6.22673102990905)"><text x="46.35455322265625" y="9.453462059818099" font-family="Helvetica, Segoe UI Emoji" font-size="11.069744053171641px" fill="#343a40" text-anchor="middle" style="white-space: pre;" direction="ltr">AWS DYNAMODB</text></g><g stroke-linecap="round" transform="translate(588.1567517392218 243.693454928435) rotate(4.336080977176833 43.022042935370166 21.010765154483124)"><path d="M-0.26 22.3 C-0.26 22.3, -0.26 22.3, -0.26 22.3 M-0.26 22.3 C-0.26 22.3, -0.26 22.3, -0.26 22.3 M7.75 25.28 C11.48 20.99, 15.21 16.7, 18.9 12.45 M7.75 25.28 C11.55 20.91, 15.35 16.54, 18.9 12.45 M15.1 29.02 C22.8 20.15, 30.51 11.29, 37.4 3.36 M15.1 29.02 C19.66 23.78, 24.21 18.53, 37.4 3.36 M23.1 32.01 C32.54 21.14, 41.99 10.28, 48.03 3.33 M23.1 32.01 C32.63 21.05, 42.15 10.09, 48.03 3.33 M30.45 35.75 C35.66 29.76, 40.87 23.77, 55.38 7.07 M30.45 35.75 C39.79 25.01, 49.12 14.27, 55.38 7.07 M37.8 39.49 C44.24 32.08, 50.67 24.68, 62.73 10.81 M37.8 39.49 C46.85 29.08, 55.89 18.67, 62.73 10.81 M45.15 43.22 C52.39 34.9, 59.62 26.58, 70.08 14.55 M45.15 43.22 C50.52 37.05, 55.89 30.87, 70.08 14.55 M63.65 34.13 C67.64 29.55, 71.62 24.97, 76.77 19.04 M63.65 34.13 C67.5 29.7, 71.35 25.28, 76.77 19.04 M81.5 25.8 C82.09 25.12, 82.68 24.44, 84.12 22.78 M81.5 25.8 C82.18 25.02, 82.85 24.24, 84.12 22.78 M-0.33 21.72 C-0.33 21.72, -0.33 21.72, -0.33 21.72 M-0.33 21.72 C-0.33 21.72, -0.33 21.72, -0.33 21.72 M25.3 33.39 C19.94 28.73, 14.58 24.07, 7.94 18.3 M25.3 33.39 C21.42 30.02, 17.54 26.65, 7.94 18.3 M45.64 40.48 C39.23 34.91, 32.83 29.34, 15.45 14.23 M45.64 40.48 C36.59 32.61, 27.55 24.74, 15.45 14.23 M53.15 36.41 C44.25 28.66, 35.34 20.92, 22.97 10.16 M53.15 36.41 C46.37 30.51, 39.59 24.62, 22.97 10.16 M61.42 32.99 C51.34 24.23, 41.25 15.46, 31.23 6.75 M61.42 32.99 C53.88 26.44, 46.34 19.88, 31.23 6.75 M68.93 28.92 C56.93 18.49, 44.93 8.05, 38.75 2.68 M68.93 28.92 C57.95 19.38, 46.97 9.83, 38.75 2.68 M77.2 25.51 C66.46 16.17, 55.72 6.84, 45.5 -2.05 M77.2 25.51 C67.74 17.29, 58.29 9.07, 45.5 -2.05 M84.71 21.44 C82.31 19.35, 79.91 17.26, 76.41 14.22 M84.71 21.44 C81.94 19.03, 79.16 16.61, 76.41 14.22" stroke="#868e96" stroke-width="1" fill="none"></path><path d="M44 0 C52.42 4.4, 60.84 8.81, 86.04 22 M44 0 C55.31 5.92, 66.62 11.84, 86.04 22 M86.04 22 C76.58 26.51, 67.12 31.01, 44 42.02 M86.04 22 C74 27.74, 61.95 33.47, 44 42.02 M44 42.02 C33.95 37.45, 23.91 32.88, 0 22 M44 42.02 C30.54 35.89, 17.07 29.77, 0 22 M0 22 C15.57 14.21, 31.15 6.43, 44 0 M0 22 C14.02 14.99, 28.04 7.98, 44 0" stroke="#495057" stroke-width="2" fill="none"></path></g><g stroke-linecap="round" transform="translate(589.1785734815894 235.60321418322783) rotate(4.336080977176833 43.022042935370166 21.010765154483124)"><path d="M-0.26 22.3 C-0.26 22.3, -0.26 22.3, -0.26 22.3 M-0.26 22.3 C-0.26 22.3, -0.26 22.3, -0.26 22.3 M7.75 25.28 C11.24 21.26, 14.73 17.25, 18.9 12.45 M7.75 25.28 C11.75 20.68, 15.76 16.07, 18.9 12.45 M15.1 29.02 C19.61 23.83, 24.12 18.64, 37.4 3.36 M15.1 29.02 C22.58 20.41, 30.06 11.8, 37.4 3.36 M23.1 32.01 C31.31 22.56, 39.52 13.11, 48.03 3.33 M23.1 32.01 C28.69 25.58, 34.27 19.16, 48.03 3.33 M30.45 35.75 C36.35 28.96, 42.25 22.17, 55.38 7.07 M30.45 35.75 C38.98 25.93, 47.51 16.12, 55.38 7.07 M37.8 39.49 C47.65 28.15, 57.51 16.82, 62.73 10.81 M37.8 39.49 C45.45 30.68, 53.11 21.88, 62.73 10.81 M45.15 43.22 C52.59 34.67, 60.03 26.11, 70.08 14.55 M45.15 43.22 C51.16 36.31, 57.18 29.39, 70.08 14.55 M63.65 34.13 C68.32 28.76, 72.99 23.4, 76.77 19.04 M63.65 34.13 C68.63 28.41, 73.61 22.68, 76.77 19.04 M81.5 25.8 C82.52 24.63, 83.53 23.46, 84.12 22.78 M81.5 25.8 C82.22 24.97, 82.94 24.14, 84.12 22.78 M-0.33 21.72 C-0.33 21.72, -0.33 21.72, -0.33 21.72 M-0.33 21.72 C-0.33 21.72, -0.33 21.72, -0.33 21.72 M25.3 33.39 C20.77 29.45, 16.24 25.52, 7.94 18.3 M25.3 33.39 C18.79 27.73, 12.28 22.08, 7.94 18.3 M45.64 40.48 C38.5 34.26, 31.35 28.05, 15.45 14.23 M45.64 40.48 C35.6 31.75, 25.56 23.02, 15.45 14.23 M53.15 36.41 C45.94 30.13, 38.72 23.86, 22.97 10.16 M53.15 36.41 C42.13 26.83, 31.11 17.25, 22.97 10.16 M61.42 32.99 C51.04 23.97, 40.66 14.94, 31.23 6.75 M61.42 32.99 C52.08 24.87, 42.74 16.75, 31.23 6.75 M68.93 28.92 C56.89 18.45, 44.84 7.98, 38.75 2.68 M68.93 28.92 C58.1 19.5, 47.27 10.09, 38.75 2.68 M77.2 25.51 C67.09 16.72, 56.98 7.94, 45.5 -2.05 M77.2 25.51 C68.7 18.12, 60.19 10.73, 45.5 -2.05 M84.71 21.44 C81.58 18.71, 78.44 15.99, 76.41 14.22 M84.71 21.44 C81.72 18.84, 78.72 16.23, 76.41 14.22" stroke="#868e96" stroke-width="1" fill="none"></path><path d="M44 0 C54.83 5.66, 65.65 11.33, 86.04 22 M44 0 C52.9 4.66, 61.81 9.32, 86.04 22 M86.04 22 C71.43 28.96, 56.82 35.91, 44 42.02 M86.04 22 C71.3 29.02, 56.57 36.04, 44 42.02 M44 42.02 C34.59 37.74, 25.19 33.46, 0 22 M44 42.02 C31.43 36.3, 18.86 30.58, 0 22 M0 22 C15.9 14.05, 31.8 6.1, 44 0 M0 22 C14.58 14.71, 29.16 7.42, 44 0" stroke="#495057" stroke-width="2" fill="none"></path></g><g stroke-linecap="round" transform="translate(590.160490515038 226.09619083406034) rotate(4.336080977176833 43.022042935370166 21.010765154483124)"><path d="M-0.26 22.3 C-0.26 22.3, -0.26 22.3, -0.26 22.3 M-0.26 22.3 C-0.26 22.3, -0.26 22.3, -0.26 22.3 M7.75 25.28 C10.76 21.81, 13.78 18.34, 18.9 12.45 M7.75 25.28 C11.85 20.56, 15.96 15.83, 18.9 12.45 M15.1 29.02 C20.88 22.36, 26.67 15.7, 37.4 3.36 M15.1 29.02 C20.45 22.87, 25.79 16.71, 37.4 3.36 M23.1 32.01 C30.08 23.98, 37.05 15.96, 48.03 3.33 M23.1 32.01 C33.01 20.61, 42.91 9.22, 48.03 3.33 M30.45 35.75 C37.54 27.59, 44.63 19.43, 55.38 7.07 M30.45 35.75 C36.23 29.1, 42.01 22.45, 55.38 7.07 M37.8 39.49 C43.71 32.69, 49.61 25.9, 62.73 10.81 M37.8 39.49 C44.09 32.26, 50.37 25.03, 62.73 10.81 M45.15 43.22 C50.24 37.37, 55.33 31.51, 70.08 14.55 M45.15 43.22 C52.43 34.86, 59.7 26.49, 70.08 14.55 M63.65 34.13 C66.95 30.35, 70.24 26.56, 76.77 19.04 M63.65 34.13 C67.79 29.38, 71.92 24.62, 76.77 19.04 M81.5 25.8 C82.37 24.79, 83.25 23.79, 84.12 22.78 M81.5 25.8 C82.09 25.12, 82.67 24.45, 84.12 22.78 M-0.33 21.72 C-0.33 21.72, -0.33 21.72, -0.33 21.72 M-0.33 21.72 C-0.33 21.72, -0.33 21.72, -0.33 21.72 M25.3 33.39 C21.09 29.73, 16.88 26.07, 7.94 18.3 M25.3 33.39 C21.51 30.1, 17.72 26.81, 7.94 18.3 M45.64 40.48 C37.13 33.08, 28.62 25.68, 15.45 14.23 M45.64 40.48 C38.13 33.95, 30.63 27.42, 15.45 14.23 M53.15 36.41 C42.09 26.79, 31.04 17.18, 22.97 10.16 M53.15 36.41 C45.25 29.53, 37.34 22.66, 22.97 10.16 M61.42 32.99 C51.95 24.76, 42.48 16.53, 31.23 6.75 M61.42 32.99 C51.24 24.14, 41.05 15.28, 31.23 6.75 M68.93 28.92 C56.98 18.53, 45.03 8.15, 38.75 2.68 M68.93 28.92 C59.01 20.3, 49.08 11.67, 38.75 2.68 M77.2 25.51 C69.85 19.12, 62.5 12.73, 45.5 -2.05 M77.2 25.51 C68.63 18.06, 60.05 10.6, 45.5 -2.05 M84.71 21.44 C82.37 19.4, 80.03 17.37, 76.41 14.22 M84.71 21.44 C81.53 18.67, 78.34 15.9, 76.41 14.22" stroke="#868e96" stroke-width="1" fill="none"></path><path d="M44 0 C56.99 6.79, 69.97 13.59, 86.04 22 M44 0 C56.81 6.7, 69.62 13.41, 86.04 22 M86.04 22 C75.25 27.14, 64.46 32.28, 44 42.02 M86.04 22 C72.97 28.23, 59.9 34.45, 44 42.02 M44 42.02 C29.17 35.28, 14.35 28.53, 0 22 M44 42.02 C35.09 37.97, 26.18 33.91, 0 22 M0 22 C11.42 16.29, 22.83 10.58, 44 0 M0 22 C12.02 15.99, 24.05 9.98, 44 0" stroke="#495057" stroke-width="2" fill="none"></path></g><g stroke-linecap="round" transform="translate(601.3898040033106 239.45398224038206) rotate(4.336080977176833 11.649045844508919 5.164910539788039)"><path d="M23.3 5.16 C23.3 5.46, 23.24 5.77, 23.12 6.06 C23 6.36, 22.83 6.65, 22.6 6.93 C22.36 7.21, 22.07 7.49, 21.74 7.75 C21.4 8.01, 21.01 8.26, 20.57 8.48 C20.14 8.71, 19.65 8.93, 19.14 9.12 C18.62 9.31, 18.06 9.49, 17.47 9.64 C16.89 9.79, 16.27 9.92, 15.63 10.02 C15 10.12, 14.34 10.2, 13.67 10.25 C13.01 10.3, 12.32 10.33, 11.65 10.33 C10.97 10.33, 10.29 10.3, 9.63 10.25 C8.96 10.2, 8.3 10.12, 7.66 10.02 C7.03 9.92, 6.41 9.79, 5.82 9.64 C5.24 9.49, 4.68 9.31, 4.16 9.12 C3.64 8.93, 3.16 8.71, 2.73 8.48 C2.29 8.26, 1.9 8.01, 1.56 7.75 C1.22 7.49, 0.93 7.21, 0.7 6.93 C0.47 6.65, 0.29 6.36, 0.18 6.06 C0.06 5.77, 0 5.46, 0 5.16 C0 4.87, 0.06 4.56, 0.18 4.27 C0.29 3.97, 0.47 3.68, 0.7 3.4 C0.93 3.12, 1.22 2.84, 1.56 2.58 C1.9 2.32, 2.29 2.07, 2.73 1.84 C3.16 1.62, 3.64 1.4, 4.16 1.21 C4.68 1.02, 5.24 0.84, 5.82 0.69 C6.41 0.54, 7.03 0.41, 7.66 0.31 C8.3 0.21, 8.96 0.13, 9.63 0.08 C10.29 0.03, 10.97 0, 11.65 0 C12.32 0, 13.01 0.03, 13.67 0.08 C14.34 0.13, 15 0.21, 15.63 0.31 C16.27 0.41, 16.89 0.54, 17.47 0.69 C18.06 0.84, 18.62 1.02, 19.14 1.21 C19.65 1.4, 20.14 1.62, 20.57 1.84 C21.01 2.07, 21.4 2.32, 21.74 2.58 C22.07 2.84, 22.36 3.12, 22.6 3.4 C22.83 3.68, 23 3.97, 23.12 4.27 C23.24 4.56, 23.27 5.02, 23.3 5.16 C23.33 5.31, 23.33 5.02, 23.3 5.16" stroke="none" stroke-width="0" fill="#ffffff"></path><path d="M23.3 5.16 C23.3 5.46, 23.24 5.77, 23.12 6.06 C23 6.36, 22.83 6.65, 22.6 6.93 C22.36 7.21, 22.07 7.49, 21.74 7.75 C21.4 8.01, 21.01 8.26, 20.57 8.48 C20.14 8.71, 19.65 8.93, 19.14 9.12 C18.62 9.31, 18.06 9.49, 17.47 9.64 C16.89 9.79, 16.27 9.92, 15.63 10.02 C15 10.12, 14.34 10.2, 13.67 10.25 C13.01 10.3, 12.32 10.33, 11.65 10.33 C10.97 10.33, 10.29 10.3, 9.63 10.25 C8.96 10.2, 8.3 10.12, 7.66 10.02 C7.03 9.92, 6.41 9.79, 5.82 9.64 C5.24 9.49, 4.68 9.31, 4.16 9.12 C3.64 8.93, 3.16 8.71, 2.73 8.48 C2.29 8.26, 1.9 8.01, 1.56 7.75 C1.22 7.49, 0.93 7.21, 0.7 6.93 C0.47 6.65, 0.29 6.36, 0.18 6.06 C0.06 5.77, 0 5.46, 0 5.16 C0 4.87, 0.06 4.56, 0.18 4.27 C0.29 3.97, 0.47 3.68, 0.7 3.4 C0.93 3.12, 1.22 2.84, 1.56 2.58 C1.9 2.32, 2.29 2.07, 2.73 1.84 C3.16 1.62, 3.64 1.4, 4.16 1.21 C4.68 1.02, 5.24 0.84, 5.82 0.69 C6.41 0.54, 7.03 0.41, 7.66 0.31 C8.3 0.21, 8.96 0.13, 9.63 0.08 C10.29 0.03, 10.97 0, 11.65 0 C12.32 0, 13.01 0.03, 13.67 0.08 C14.34 0.13, 15 0.21, 15.63 0.31 C16.27 0.41, 16.89 0.54, 17.47 0.69 C18.06 0.84, 18.62 1.02, 19.14 1.21 C19.65 1.4, 20.14 1.62, 20.57 1.84 C21.01 2.07, 21.4 2.32, 21.74 2.58 C22.07 2.84, 22.36 3.12, 22.6 3.4 C22.83 3.68, 23 3.97, 23.12 4.27 C23.24 4.56, 23.27 5.02, 23.3 5.16 C23.33 5.31, 23.33 5.02, 23.3 5.16" stroke="#495057" stroke-width="2" fill="none"></path></g><g stroke-linecap="round" transform="translate(642.6186022949094 242.57425289129895) rotate(4.336080977176833 13.805384796018416 6.030021856350537)"><path d="M14 0 L27.61 7 L14 12.06 L0 7" stroke="none" stroke-width="0" fill="#ffffff" fill-rule="evenodd"></path><path d="M14 0 C17.69 1.9, 21.38 3.8, 27.61 7 M14 0 C18.86 2.5, 23.72 5, 27.61 7 M27.61 7 C23.44 8.55, 19.26 10.1, 14 12.06 M27.61 7 C23.8 8.42, 20 9.83, 14 12.06 M14 12.06 C8.58 10.1, 3.15 8.14, 0 7 M14 12.06 C10.85 10.92, 7.7 9.78, 0 7 M0 7 C5.09 4.45, 10.19 1.91, 14 0 M0 7 C3 5.5, 6.01 4, 14 0" stroke="#495057" stroke-width="2" fill="none"></path></g><g stroke-linecap="round"><g transform="translate(620.5564222677706 254.56655234079108) rotate(4.336080977176833 10.794312651731502 2.1137670702365625)" fill-rule="evenodd"><path d="M0 0 L16.58 9.33 L21.47 1.35 L22.99 -2.57 L22.36 -4.9 L18.21 -4.9 L-1.41 0.05 L0 0" stroke="none" stroke-width="0" fill="#ffffff" fill-rule="evenodd"></path><path d="M0 0 C2.42 1.32, 11.61 6.54, 14.52 7.9 C17.42 9.26, 16.13 10.28, 17.44 8.14 C18.75 6.01, 25.24 -3.49, 22.36 -4.9 C19.49 -6.32, 3.91 -1.15, 0.19 -0.34 C-3.54 0.48, 0.03 -0.06, 0 0 M0 0 C2.42 1.32, 11.61 6.54, 14.52 7.9 C17.42 9.26, 16.13 10.28, 17.44 8.14 C18.75 6.01, 25.24 -3.49, 22.36 -4.9 C19.49 -6.32, 3.91 -1.15, 0.19 -0.34 C-3.54 0.48, 0.03 -0.06, 0 0" stroke="#495057" stroke-width="2" fill="none"></path></g></g><g stroke-linecap="round"><g transform="translate(630.7469261827993 229.55264538783126) rotate(25.26621677657604 8.049754098272444 7.963674415499121)" fill-rule="evenodd"><path d="M0 0 L6.11 3.99 L12.05 -1.21 L12.34 4.12 L11.47 6.19 L17.7 11.28 L9.12 9.05 L8.54 9.58 L9 17.15 L5.51 9.37 L-1 11.74 L-1.54 11.19 L3.56 6.2 L0 0" stroke="none" stroke-width="0" fill="#ffffff" fill-rule="evenodd"></path><path d="M0 0 C1.02 0.66, 4.25 4.07, 6.11 3.99 C7.97 3.91, 10.1 0.33, 11.13 -0.47 C12.17 -1.26, 12.14 -1.54, 12.34 -0.78 C12.54 -0.01, 12.48 2.95, 12.34 4.12 C12.2 5.28, 10.58 5, 11.47 6.19 C12.37 7.39, 18.09 10.8, 17.7 11.28 C17.31 11.75, 10.57 9.08, 9.12 9.05 C7.67 9.03, 9.04 9.78, 9.02 11.13 C9 12.48, 9.59 17.45, 9 17.15 C8.41 16.86, 6.89 10.32, 5.51 9.37 C4.12 8.42, 1.88 11.14, 0.71 11.44 C-0.47 11.74, -1.93 12.01, -1.54 11.19 C-1.14 10.37, 2.33 7.42, 3.1 6.51 C3.86 5.61, 3.57 6.83, 3.05 5.75 C2.54 4.66, 0.51 0.96, 0 0 M0 0 C1.02 0.66, 4.25 4.07, 6.11 3.99 C7.97 3.91, 10.1 0.33, 11.13 -0.47 C12.17 -1.26, 12.14 -1.54, 12.34 -0.78 C12.54 -0.01, 12.48 2.95, 12.34 4.12 C12.2 5.28, 10.58 5, 11.47 6.19 C12.37 7.39, 18.09 10.8, 17.7 11.28 C17.31 11.75, 10.57 9.08, 9.12 9.05 C7.67 9.03, 9.04 9.78, 9.02 11.13 C9 12.48, 9.59 17.45, 9 17.15 C8.41 16.86, 6.89 10.32, 5.51 9.37 C4.12 8.42, 1.88 11.14, 0.71 11.44 C-0.47 11.74, -1.93 12.01, -1.54 11.19 C-1.14 10.37, 2.33 7.42, 3.1 6.51 C3.86 5.61, 3.57 6.83, 3.05 5.75 C2.54 4.66, 0.51 0.96, 0 0" stroke="#495057" stroke-width="2" fill="none"></path></g></g><g transform="translate(616.1296997070312 288.9194634280987) rotate(0 17.5 7)"><text x="17.5" y="11" font-family="Helvetica, Segoe UI Emoji" font-size="11.069744053171641px" fill="#343a40" text-anchor="middle" style="white-space: pre;" direction="ltr">REDIS</text></g><g stroke-linecap="round"><g transform="translate(630.9059448242188 109.3258209228515) rotate(0 -0.4967041015625 15.6549072265625)"><path d="M0 0 C-0.17 5.22, -0.83 26.09, -0.99 31.31 M0 0 C-0.17 5.22, -0.83 26.09, -0.99 31.31" stroke="#495057" stroke-width="1" fill="none"></path></g><g transform="translate(630.9059448242188 109.3258209228515) rotate(0 -0.4967041015625 15.6549072265625)"><path d="M0 0 L5.9 13.79 L-6.77 13.39 L0 0" stroke="none" stroke-width="0" fill="#495057" fill-rule="evenodd"></path><path d="M0 0 C1.81 4.22, 3.62 8.45, 5.9 13.79 M0 0 C1.41 3.3, 2.82 6.59, 5.9 13.79 M5.9 13.79 C2.67 13.69, -0.56 13.58, -6.77 13.39 M5.9 13.79 C2.08 13.67, -1.75 13.55, -6.77 13.39 M-6.77 13.39 C-5.21 10.3, -3.65 7.22, 0 0 M-6.77 13.39 C-5.21 10.32, -3.66 7.24, 0 0 M0 0 C0 0, 0 0, 0 0 M0 0 C0 0, 0 0, 0 0" stroke="#495057" stroke-width="1" fill="none"></path></g><g transform="translate(630.9059448242188 109.3258209228515) rotate(0 -0.4967041015625 15.6549072265625)"><path d="M-0.99 31.31 L-6.9 17.52 L5.77 17.92 L-0.99 31.31" stroke="none" stroke-width="0" fill="#495057" fill-rule="evenodd"></path><path d="M-0.99 31.31 C-2.8 27.08, -4.61 22.86, -6.9 17.52 M-0.99 31.31 C-2.41 28.01, -3.82 24.72, -6.9 17.52 M-6.9 17.52 C-3.67 17.62, -0.44 17.73, 5.77 17.92 M-6.9 17.52 C-3.07 17.64, 0.75 17.76, 5.77 17.92 M5.77 17.92 C4.22 21.01, 2.66 24.09, -0.99 31.31 M5.77 17.92 C4.22 20.99, 2.67 24.07, -0.99 31.31 M-0.99 31.31 C-0.99 31.31, -0.99 31.31, -0.99 31.31 M-0.99 31.31 C-0.99 31.31, -0.99 31.31, -0.99 31.31" stroke="#495057" stroke-width="1" fill="none"></path></g></g><g stroke-linecap="round"><g transform="translate(631.6607771538644 189.97126770019526) rotate(0 -0.3223137422712625 15.459934152178512)"><path d="M0 0 C-0.11 5.15, -0.54 25.77, -0.64 30.92 M0 0 C-0.11 5.15, -0.54 25.77, -0.64 30.92" stroke="#495057" stroke-width="1" fill="none"></path></g><g transform="translate(631.6607771538644 189.97126770019526) rotate(0 -0.3223137422712625 15.459934152178512)"><path d="M0 0 L6.05 13.72 L-6.62 13.46 L0 0" stroke="none" stroke-width="0" fill="#495057" fill-rule="evenodd"></path><path d="M0 0 C1.32 2.99, 2.64 5.99, 6.05 13.72 M0 0 C1.69 3.83, 3.38 7.65, 6.05 13.72 M6.05 13.72 C2.72 13.65, -0.62 13.58, -6.62 13.46 M6.05 13.72 C2.01 13.64, -2.03 13.56, -6.62 13.46 M-6.62 13.46 C-4.79 9.73, -2.95 6, 0 0 M-6.62 13.46 C-4.39 8.93, -2.17 4.4, 0 0 M0 0 C0 0, 0 0, 0 0 M0 0 C0 0, 0 0, 0 0" stroke="#495057" stroke-width="1" fill="none"></path></g><g transform="translate(631.6607771538644 189.97126770019526) rotate(0 -0.3223137422712625 15.459934152178512)"><path d="M-0.64 30.92 L-6.7 17.2 L5.98 17.46 L-0.64 30.92" stroke="none" stroke-width="0" fill="#495057" fill-rule="evenodd"></path><path d="M-0.64 30.92 C-1.97 27.93, -3.29 24.93, -6.7 17.2 M-0.64 30.92 C-2.33 27.09, -4.02 23.27, -6.7 17.2 M-6.7 17.2 C-3.36 17.27, -0.02 17.34, 5.98 17.46 M-6.7 17.2 C-2.65 17.28, 1.39 17.36, 5.98 17.46 M5.98 17.46 C4.14 21.19, 2.31 24.92, -0.64 30.92 M5.98 17.46 C3.75 21.99, 1.52 26.52, -0.64 30.92 M-0.64 30.92 C-0.64 30.92, -0.64 30.92, -0.64 30.92 M-0.64 30.92 C-0.64 30.92, -0.64 30.92, -0.64 30.92" stroke="#495057" stroke-width="1" fill="none"></path></g></g><g stroke-linecap="round" transform="translate(860.2647865500608 158.35810480484855) rotate(0 0.010510628454028392 0.01051062845404406)"><path d="M0 0 C0 0, 0.01 0, 0.02 0 M0 0 C0.01 0, 0.01 0, 0.02 0 M0.02 0 C0.02 0.01, 0.02 0.01, 0.02 0.02 M0.02 0 C0.02 0, 0.02 0.01, 0.02 0.02 M0.02 0.02 C0.01 0.02, 0.01 0.02, 0 0.02 M0.02 0.02 C0.01 0.02, 0.01 0.02, 0 0.02 M0 0.02 C0 0.01, 0 0.01, 0 0 M0 0.02 C0 0.01, 0 0.01, 0 0" stroke="#000000" stroke-width="1" fill="none"></path></g><g stroke-linecap="round" transform="translate(808.5846526786495 154.08481259395197) rotate(0 12.370175513548418 12.131267260434274)"><path d="M1.46 6.57 C1.46 6.57, 1.46 6.57, 1.46 6.57 M1.46 6.57 C1.46 6.57, 1.46 6.57, 1.46 6.57 M0.95 16.79 C3.19 8.56, 2.61 6.29, 7.9 1.21 M0.4 12.2 C4.63 9.88, 7.47 4.52, 10.26 0.25 M2.01 18 C6.33 10.98, 8.27 6.84, 16.24 -1.2 M3.73 16.84 C6.07 12.02, 8.73 10.72, 16.49 0.73 M4.65 19.54 C8.59 15.64, 14.13 15.63, 24.1 -1.13 M5.94 21.93 C7.91 14.57, 15.57 7.41, 19.81 3.07 M8.61 21.7 C11.46 18.91, 17.13 12.69, 22.84 5.39 M8.65 25.4 C11.93 14.94, 19.51 11.4, 21.62 4.79 M14.62 29.26 C12.57 17.88, 20.17 13.94, 23.97 12.16 M11.71 26.64 C16.4 20.55, 17.29 18.7, 23.32 7.94 M2.36 20.15 C2.36 20.15, 2.36 20.15, 2.36 20.15 M2.36 20.15 C2.36 20.15, 2.36 20.15, 2.36 20.15 M11.96 20.45 C10.81 22.73, 5.27 16.54, -0.83 11.52 M10.69 24.21 C9.95 21.64, 8.65 18.54, 0.07 13.73 M19.76 25.12 C16.21 22.12, 10.8 13.63, 2.56 6.02 M17.01 23.86 C13.36 20.94, 9.86 16.62, 2.73 7.67 M22.65 22.34 C18.53 17.23, 14.81 15.86, 4.36 3.67 M20.09 20.31 C14.09 14.88, 11.1 13.65, 0.73 3.2 M25.57 15.8 C16.63 14.67, 16.72 8.19, 7.38 4.37 M22.48 17.06 C17.8 12.66, 14.78 9.55, 7.14 2.17 M22.2 16.05 C18.02 7.34, 16.41 7.02, 10 -1.92 M27.13 12.67 C20.86 10.23, 15.51 6.88, 12.75 -0.34 M24.77 5.84 C23.45 6.73, 21.74 4.34, 17.57 2.25 M24.52 7.13 C21.91 5.52, 18.28 2.57, 16.3 1.33" stroke="#000000" stroke-width="0.5" fill="none"></path><path d="M1.75 6.23 C3.58 4.06, 8.17 2.28, 11.06 1.39 C13.95 0.49, 16.93 -0.3, 19.06 0.84 C21.2 1.98, 23.24 5.62, 23.89 8.22 C24.54 10.83, 23.96 13.92, 22.94 16.48 C21.92 19.04, 19.96 22.21, 17.76 23.59 C15.56 24.98, 12.26 25.34, 9.73 24.79 C7.2 24.25, 4.18 22.09, 2.58 20.35 C0.99 18.61, -0.61 17.46, 0.18 14.34 C0.96 11.21, 5.68 3.7, 7.27 1.61 C8.87 -0.49, 9.83 1.78, 9.75 1.78 M14.64 1.47 C17.76 1.26, 20.78 1.31, 22.31 2.54 C23.84 3.76, 23.33 6.42, 23.8 8.84 C24.28 11.25, 26.64 14.39, 25.16 17.01 C23.69 19.64, 17.59 23.23, 14.97 24.59 C12.35 25.95, 11.85 26.78, 9.43 25.16 C7 23.55, 2.11 17.46, 0.41 14.91 C-1.3 12.37, -1.19 12.01, -0.81 9.89 C-0.42 7.76, 0.09 3.9, 2.7 2.18 C5.31 0.45, 13.05 -0.46, 14.85 -0.46 C16.64 -0.45, 13.8 1.8, 13.46 2.19" stroke="#000000" stroke-width="1" fill="none"></path></g><g stroke-linecap="round" transform="translate(813.0437003251732 158.50080859790182) rotate(0 8.106497733962271 7.523376126176874)"><path d="M3.72 1.93 C5.21 0.6, 8.22 -1.36, 9.68 -1.23 C11.13 -1.11, 11.66 1.62, 12.45 2.66 C13.23 3.7, 13.61 3.61, 14.38 5.01 C15.16 6.4, 17.42 9.13, 17.11 11.03 C16.81 12.93, 14.56 15.58, 12.56 16.39 C10.56 17.21, 7.02 16.65, 5.12 15.92 C3.22 15.19, 2.32 13.62, 1.16 11.99 C0 10.37, -2.22 7.96, -1.84 6.17 C-1.45 4.38, 1.92 2.15, 3.49 1.26 C5.05 0.37, 7.67 0.98, 7.55 0.82 M4.17 4.76 C5.3 3.61, 3.73 0.2, 4.67 -0.23 C5.61 -0.65, 7.82 1.4, 9.81 2.2 C11.79 3, 15.82 3.4, 16.57 4.56 C17.33 5.71, 15.6 7.48, 14.34 9.13 C13.09 10.78, 10.69 13.65, 9.04 14.47 C7.39 15.28, 5.81 14.34, 4.45 14.03 C3.09 13.72, 1.73 13.95, 0.87 12.61 C0.02 11.27, -0.53 7.78, -0.7 5.98 C-0.87 4.18, -0.6 2.72, -0.14 1.81 C0.32 0.91, 1.82 -0.09, 2.07 0.56" stroke="none" stroke-width="0" fill="#ffffff"></path><path d="M5.04 2.64 C6.22 1.99, 8.61 1.03, 9.99 0.98 C11.38 0.92, 12.19 1.54, 13.34 2.33 C14.49 3.12, 16.55 4.33, 16.88 5.72 C17.22 7.12, 16.28 9.33, 15.36 10.68 C14.44 12.03, 13.02 13.33, 11.34 13.83 C9.66 14.33, 7.01 14.18, 5.25 13.68 C3.5 13.17, 1.32 11.85, 0.78 10.81 C0.24 9.77, 1.53 8.93, 2.02 7.44 C2.5 5.94, 3.02 2.82, 3.69 1.83 C4.37 0.84, 6.17 1.5, 6.07 1.49 M3.97 3.35 C4.86 1.86, 5.56 -0.98, 6.7 -0.86 C7.84 -0.75, 9.61 3.08, 10.83 4.06 C12.05 5.05, 13.14 3.55, 14.03 5.04 C14.91 6.54, 16.25 11.62, 16.13 13.05 C16.01 14.48, 15.44 13.53, 13.31 13.62 C11.18 13.7, 5.19 14.28, 3.33 13.54 C1.46 12.81, 2.66 10.09, 2.1 9.2 C1.54 8.31, -0.03 9.36, -0.04 8.2 C-0.05 7.03, 1.28 3.31, 2.04 2.23 C2.81 1.15, 4.27 1.31, 4.55 1.73" stroke="#ffffff" stroke-width="1" fill="none"></path></g><g stroke-linecap="round" transform="translate(810.4865759227146 127.42539897978574) rotate(0 9.723666002969026 9.535870441290031)"><path d="M0.36 5.61 C0.36 5.61, 0.36 5.61, 0.36 5.61 M0.36 5.61 C0.36 5.61, 0.36 5.61, 0.36 5.61 M-0.2 10.7 C-0.12 8.24, 1.34 7.38, 8.82 5.69 M-0.19 13.03 C0.78 10.52, 2.23 8.01, 7.39 3.04 M1.55 14.11 C2.86 10.81, 8.93 5.16, 12.97 4.68 M2.5 14.11 C4.46 13.43, 7.75 8.49, 13.78 -0.45 M4.41 17.84 C9.75 18.15, 15.09 7.12, 19.4 3.72 M2.4 18.72 C8.17 13.37, 11 10.64, 17.26 4.8 M9.02 19.66 C13.39 14.97, 14.8 12.57, 23.71 8.31 M7.88 18.2 C13.63 15.9, 16.23 8.73, 21.89 6.24 M3.42 18.93 C3.42 18.93, 3.42 18.93, 3.42 18.93 M3.42 18.93 C3.42 18.93, 3.42 18.93, 3.42 18.93 M11.7 20.08 C7.15 18.33, 4.09 13.69, 2.79 9.74 M10.57 19.87 C6.83 18.34, 5.73 16.28, 1.14 11.28 M17.2 20.72 C9.14 11.7, 0.46 4.79, -2.92 5.22 M14.41 18.19 C11.92 13.56, 5 10.88, 1.14 4.71 M21.48 19.23 C16.81 11.79, 9.24 4.78, 3.09 5.57 M18.14 17.4 C15.06 13.46, 10.64 7.15, 3.01 4.58 M22.23 12.71 C17.93 10.78, 11.16 2.71, 6.27 -0.4 M18.38 10.97 C15.42 9.5, 8.92 2.75, 6.7 0.29 M20.57 9.58 C19.73 4.33, 14.45 2.82, 9.54 -2.18 M20.97 7.76 C17.37 4.33, 13.78 0.81, 11.47 -2.06" stroke="#000000" stroke-width="0.5" fill="none"></path><path d="M18.81 4.9 C20.4 6.03, 20.69 7.51, 20.38 9.48 C20.06 11.45, 18.69 15.03, 16.92 16.73 C15.14 18.42, 11.99 19.32, 9.7 19.66 C7.42 19.99, 4.93 19.86, 3.22 18.75 C1.51 17.63, -0.03 15.12, -0.55 12.97 C-1.06 10.83, -0.87 7.57, 0.13 5.87 C1.14 4.17, 3.18 3.79, 5.47 2.76 C7.75 1.74, 11.53 -0.87, 13.83 -0.3 C16.14 0.28, 18.33 5.3, 19.3 6.22 C20.26 7.14, 19.87 5.6, 19.6 5.25 M12.77 -0.76 C14.38 -1.12, 14.8 -0.05, 16.34 1.36 C17.88 2.76, 22.02 5.12, 22.03 7.64 C22.04 10.16, 17.81 14.28, 16.39 16.49 C14.97 18.71, 15.57 21.12, 13.5 20.92 C11.43 20.72, 6.35 16.53, 3.99 15.29 C1.64 14.05, 0.34 15.02, -0.63 13.5 C-1.6 11.97, -3.04 8.24, -1.85 6.11 C-0.67 3.99, 4.21 1.43, 6.46 0.75 C8.71 0.08, 10.89 2.03, 11.65 2.07 C12.41 2.1, 10.7 1.5, 11.01 0.98" stroke="#000000" stroke-width="1" fill="none"></path></g><g stroke-linecap="round" transform="translate(814.1443743734894 131.35334121545944) rotate(0 5.886721134408333 5.696613018513639)"><path d="M8.3 -1.21 C9.21 -0.99, 9.13 1.85, 9.42 2.77 C9.72 3.69, 9.58 3.26, 10.1 4.29 C10.61 5.32, 12.75 7.5, 12.53 8.97 C12.31 10.44, 10.39 12.58, 8.78 13.1 C7.17 13.61, 4.27 12.84, 2.88 12.08 C1.5 11.32, 1.23 9.91, 0.47 8.54 C-0.29 7.18, -1.95 5.09, -1.7 3.88 C-1.44 2.66, -0.01 1.73, 2.01 1.24 C4.03 0.74, 9.35 1.01, 10.41 0.89 C11.47 0.76, 8.99 0.76, 8.36 0.47 M2.49 -0.22 C2.88 -0.7, 4.57 1.24, 6.19 1.79 C7.8 2.33, 11.5 2.29, 12.16 3.06 C12.83 3.83, 11.2 5.08, 10.17 6.39 C9.15 7.7, 7.22 10.23, 6.01 10.91 C4.81 11.59, 3.86 10.65, 2.96 10.47 C2.05 10.3, 1.18 10.86, 0.57 9.86 C-0.05 8.86, -0.47 5.87, -0.72 4.46 C-0.96 3.05, -1.81 2.43, -0.9 1.39 C0.02 0.35, 4.02 -2.06, 4.76 -1.78 C5.51 -1.51, 3.88 2.43, 3.57 3.03" stroke="none" stroke-width="0" fill="#ffffff"></path><path d="M4.6 1.43 C5.32 0.69, 5.82 0.32, 6.97 0.3 C8.11 0.27, 10.56 0.51, 11.46 1.3 C12.37 2.1, 12.45 3.83, 12.4 5.08 C12.35 6.33, 12.09 7.88, 11.18 8.82 C10.27 9.77, 8.38 10.47, 6.93 10.74 C5.48 11.02, 3.32 10.76, 2.48 10.47 C1.64 10.18, 2.3 10.06, 1.89 9 C1.49 7.94, -1.05 5.44, 0.06 4.11 C1.17 2.77, 7.04 1.22, 8.55 0.99 C10.06 0.77, 9.59 2.73, 9.14 2.75 M7.49 -0.33 C8.01 0.32, 8.78 4.77, 9.14 5.91 C9.49 7.04, 9.45 5.37, 9.6 6.47 C9.74 7.58, 10.39 11.86, 10.01 12.54 C9.62 13.22, 9.11 11.23, 7.31 10.56 C5.52 9.88, 0.32 9.65, -0.77 8.5 C-1.86 7.36, 0.49 4.45, 0.78 3.69 C1.08 2.93, 0.47 4.49, 0.99 3.93 C1.51 3.38, 2.36 0.99, 3.91 0.35 C5.47 -0.28, 9.47 -0.3, 10.32 0.11 C11.17 0.53, 9.71 2.94, 8.99 2.83" stroke="#ffffff" stroke-width="1" fill="none"></path></g><g stroke-linecap="round" transform="translate(811.5631645800795 185.24275881927483) rotate(0 9.723666002969026 9.53587044129003)"><path d="M5.97 1.22 C5.97 1.22, 5.97 1.22, 5.97 1.22 M5.97 1.22 C5.97 1.22, 5.97 1.22, 5.97 1.22 M0.47 9.14 C3.29 6.98, 11.43 5.48, 9.18 0.57 M2.01 10.84 C3.57 7.96, 6.22 6.22, 11.24 0.51 M0.41 15.67 C7.15 9.41, 9.63 10.74, 13.07 3.5 M2.8 17.5 C6.86 11.83, 9.48 6.72, 15.69 2.27 M7.54 22.66 C12.2 12.49, 13.86 12.25, 19.73 7.78 M5.98 18.29 C9.02 15.76, 13.63 11.46, 18.86 4.3 M11.17 19.53 C12.21 17.73, 17.31 16.88, 22.18 10.99 M10.35 21.81 C12.73 15.97, 18.53 12.36, 19.69 10.69 M4.8 18.87 C4.8 18.87, 4.8 18.87, 4.8 18.87 M4.8 18.87 C4.8 18.87, 4.8 18.87, 4.8 18.87 M12.36 21.85 C9.72 17.62, 8.93 13.73, 1.04 10.53 M11.19 20.88 C8.54 17.58, 4.49 13.12, 3.44 11.34 M15.14 16.04 C9.55 12.14, 6.44 12.22, 1.94 3.78 M16.01 16.05 C8.6 12.7, 5.95 7.96, 3.11 6.9 M21.24 14.49 C14.17 8.37, 8.3 8.95, 5.24 1.28 M19.01 15.65 C14.73 9.94, 8.87 8.43, 6.73 4.04 M22.02 12.84 C16.02 5.73, 9.63 1.47, 9.19 -1.56 M19.18 11.49 C14.06 5.68, 11.58 2.96, 7.98 0.74 M23.29 6.43 C19.57 5.85, 15.22 1.5, 14.85 -1.04 M21.42 6.59 C19.06 4.03, 16.13 0.77, 13.78 -1.8" stroke="#000000" stroke-width="0.5" fill="none"></path><path d="M17.37 2.08 C18.68 3.26, 19.59 6.93, 19.46 9.16 C19.34 11.39, 17.98 13.68, 16.61 15.46 C15.25 17.25, 13.22 19.31, 11.26 19.89 C9.3 20.47, 6.67 19.93, 4.86 18.92 C3.05 17.91, 1.12 15.49, 0.38 13.84 C-0.36 12.19, -0.48 11.11, 0.44 9.02 C1.35 6.94, 4.07 2.66, 5.88 1.32 C7.68 -0.01, 8.96 0.49, 11.24 1.04 C13.52 1.58, 18.22 3.3, 19.58 4.59 C20.93 5.89, 19.59 8.33, 19.37 8.79 M13.33 -1.03 C15.36 -0.41, 20.47 1.55, 21.29 3.92 C22.11 6.29, 18.96 10.57, 18.26 13.18 C17.57 15.78, 18.88 19, 17.11 19.56 C15.34 20.12, 10.27 16.99, 7.65 16.52 C5.02 16.05, 3.05 17.85, 1.36 16.74 C-0.32 15.63, -2.82 12.11, -2.46 9.86 C-2.09 7.61, 1.84 4.53, 3.54 3.24 C5.25 1.95, 6.08 2.39, 7.79 2.14 C9.49 1.88, 12.36 2.21, 13.78 1.71 C15.19 1.2, 16.57 -0.58, 16.29 -0.9" stroke="#000000" stroke-width="1" fill="none"></path></g><g stroke-linecap="round" transform="translate(815.247684472816 189.2195367937096) rotate(0 6.059028363623099 5.709052310462297)"><path d="M5.46 1.04 C6.12 1.02, 6.95 -0.22, 8.36 0.39 C9.77 1.01, 13.19 3.05, 13.91 4.73 C14.64 6.42, 13.77 9.24, 12.72 10.51 C11.67 11.78, 9.09 12.18, 7.61 12.36 C6.14 12.53, 5.32 12.25, 3.86 11.56 C2.4 10.87, -0.43 9.34, -1.15 8.23 C-1.87 7.12, -1.35 6, -0.47 4.89 C0.42 3.78, 2.63 2.34, 4.15 1.58 C5.67 0.82, 7.64 -0.05, 8.68 0.33 C9.72 0.7, 10.22 3.31, 10.39 3.82 M7.66 2.74 C9.1 3.43, 12.44 3.7, 12.78 4.52 C13.13 5.35, 11.06 6.54, 9.73 7.7 C8.39 8.85, 6.14 11.07, 4.79 11.45 C3.44 11.83, 2.44 10.47, 1.61 10 C0.78 9.52, 0.15 9.76, -0.19 8.6 C-0.54 7.43, -0.54 4.37, -0.45 3.01 C-0.36 1.65, -0.81 1.24, 0.35 0.44 C1.5 -0.36, 5.05 -2.5, 6.48 -1.79 C7.92 -1.08, 8.68 3.87, 8.96 4.7 C9.23 5.52, 8.02 3.54, 8.14 3.14" stroke="none" stroke-width="0" fill="#ffffff"></path><path d="M9.23 1.28 C10.18 1.58, 12.21 2.32, 12.68 3.3 C13.15 4.28, 12.59 6.04, 12.07 7.16 C11.55 8.28, 10.75 9.47, 9.55 10.02 C8.34 10.58, 6.27 10.69, 4.84 10.51 C3.41 10.32, 1.49 9.52, 0.98 8.91 C0.47 8.3, 1.7 7.94, 1.78 6.85 C1.86 5.76, 0.61 3.4, 1.46 2.38 C2.3 1.37, 5.36 0.38, 6.86 0.77 C8.36 1.17, 9.99 3.41, 10.46 4.76 C10.93 6.1, 9.39 8.7, 9.7 8.85 M6.49 3.1 C7.47 3.55, 8.54 1.5, 9.57 2.54 C10.61 3.57, 12.37 8.15, 12.69 9.32 C13.02 10.49, 13.14 9.41, 11.54 9.56 C9.94 9.71, 4.59 10.58, 3.09 10.21 C1.6 9.83, 3.09 7.71, 2.56 7.3 C2.03 6.9, 0.26 8.55, -0.07 7.77 C-0.4 6.99, -0.49 3.96, 0.59 2.63 C1.66 1.29, 4.93 -0.25, 6.37 -0.23 C7.81 -0.22, 9.22 2.83, 9.22 2.69 C9.23 2.56, 6.9 -0.74, 6.39 -1.04" stroke="#ffffff" stroke-width="1" fill="none"></path></g><g stroke-linecap="round" transform="translate(835.7578382087927 139.83514652923427) rotate(0 9.723666002969026 9.535870441290031)"><path d="M3.35 4.24 C3.35 4.24, 3.35 4.24, 3.35 4.24 M3.35 4.24 C3.35 4.24, 3.35 4.24, 3.35 4.24 M1.4 9.56 C7.06 10.05, 5.16 5.92, 9.35 1.55 M3.16 8.84 C6.41 6.35, 8.56 3.84, 11.89 0.54 M2.41 14.71 C4.43 16.89, 6.82 11, 14.8 2.78 M2.65 16.54 C4.68 12.04, 8.47 10.54, 14.13 2.81 M9.13 15.93 C10.51 15.47, 12.24 15.5, 17.57 3.06 M5.48 19.5 C8.81 16.68, 11.64 12.8, 16.74 6.01 M9.1 21.25 C14.96 19.85, 17.92 16.16, 22.49 7.19 M8.12 20.77 C12.48 18.84, 13.48 17.72, 21.43 8.02 M2.28 17.19 C2.28 17.19, 2.28 17.19, 2.28 17.19 M2.28 17.19 C2.28 17.19, 2.28 17.19, 2.28 17.19 M8.99 17.43 C7.9 14.39, 3.32 13.08, 3.6 12.67 M9.08 18.18 C6.61 15.43, 4.8 13.41, 1.06 12.36 M12.14 14.56 C7.13 12.79, 4.94 7, 5.51 7.97 M13.11 16.92 C10.95 12.81, 7.03 10.86, 3.69 8.55 M17.79 11.62 C11.12 11.7, 6.82 3.35, 5.08 2.97 M17.94 13.02 C11.2 11.06, 8.52 6.41, 4.99 4.02 M21.75 10.94 C15.19 7, 14.3 3.6, 7.55 -2.63 M18.67 10.54 C16.88 8.64, 15.36 7.92, 7.15 -0.24" stroke="#000000" stroke-width="0.5" fill="none"></path><path d="M14.91 2.12 C16.3 3.24, 17.31 5.18, 17.74 7.2 C18.18 9.23, 18.27 12.38, 17.54 14.27 C16.81 16.17, 15.09 17.8, 13.35 18.58 C11.62 19.35, 8.96 19.16, 7.11 18.93 C5.26 18.69, 3.12 18.87, 2.26 17.16 C1.39 15.46, 1.75 10.87, 1.93 8.71 C2.12 6.55, 2.19 5.9, 3.38 4.21 C4.57 2.52, 6.39 -2.19, 9.09 -1.45 C11.79 -0.7, 18.77 5.29, 19.57 8.7 C20.38 12.1, 13.92 18.6, 13.9 18.99 M9.36 -1.52 C11.24 -1.74, 10.84 0.06, 12.69 1.49 C14.55 2.93, 19.55 5.83, 20.5 7.1 C21.45 8.37, 19.42 7.32, 18.41 9.11 C17.4 10.91, 16.39 16.21, 14.46 17.85 C12.54 19.5, 8.48 19.26, 6.85 18.97 C5.23 18.67, 5.8 17.13, 4.7 16.09 C3.6 15.04, 0.86 14.55, 0.25 12.71 C-0.35 10.87, -0.37 7.46, 1.08 5.06 C2.53 2.66, 8.27 -0.6, 8.95 -1.7 C9.64 -2.81, 5.52 -2.11, 5.18 -1.55" stroke="#000000" stroke-width="1" fill="none"></path></g><g stroke-linecap="round" transform="translate(839.4709224015626 143.53918150983205) rotate(0 6.059028363623156 6.004831030130435)"><path d="M0.88 0.12 C2.27 -0.84, 6.6 -0.63, 8.41 -0.05 C10.23 0.53, 11.23 2.48, 11.77 3.6 C12.31 4.72, 11.78 5.64, 11.65 6.69 C11.53 7.75, 11.99 9.12, 11 9.93 C10.02 10.74, 7.09 11.23, 5.75 11.53 C4.41 11.83, 3.51 12.16, 2.97 11.72 C2.42 11.28, 3.25 10.32, 2.5 8.88 C1.76 7.44, -2.17 4.85, -1.53 3.1 C-0.89 1.34, 4.21 -2.05, 6.37 -1.65 C8.53 -1.26, 10.93 5.33, 11.44 5.46 M6.19 -0.88 C7.69 -1.46, 7.85 -1.3, 8.36 -0.38 C8.88 0.53, 9.05 3.26, 9.3 4.61 C9.55 5.97, 10.1 6.49, 9.88 7.74 C9.65 8.99, 8.98 11.61, 7.96 12.12 C6.95 12.63, 5.33 11.32, 3.78 10.8 C2.23 10.28, -0.64 10.17, -1.32 8.98 C-2.01 7.79, -0.57 4.38, -0.31 3.66 C-0.05 2.93, -0.37 5.03, 0.22 4.63 C0.81 4.24, 2.43 2, 3.25 1.26 C4.07 0.52, 5.09 0.5, 5.14 0.21" stroke="none" stroke-width="0" fill="#ffffff"></path><path d="M9.5 -0.56 C10.84 -0.29, 11.7 1.22, 12.29 2.44 C12.89 3.66, 13.44 5.46, 13.06 6.78 C12.68 8.11, 11.28 9.51, 10 10.4 C8.72 11.3, 6.49 11.86, 5.38 12.13 C4.27 12.4, 4.33 12.85, 3.35 12.03 C2.36 11.21, -0.35 8.71, -0.53 7.23 C-0.72 5.75, 1.63 4.31, 2.24 3.16 C2.85 2.01, 1.76 -0.12, 3.15 0.31 C4.54 0.73, 9.3 3.84, 10.57 5.71 C11.83 7.58, 10.43 11.65, 10.73 11.5 M2.35 -0.48 C3.98 -0.98, 7.37 2.15, 9.22 2.64 C11.07 3.14, 13.4 1.9, 13.45 2.49 C13.49 3.08, 9.99 5.21, 9.49 6.19 C8.99 7.16, 11.09 7.13, 10.45 8.35 C9.8 9.58, 7.13 13.17, 5.62 13.54 C4.12 13.9, 2.03 11.76, 1.42 10.55 C0.81 9.34, 1.92 7.22, 1.95 6.28 C1.99 5.33, 1.59 6.17, 1.62 4.89 C1.66 3.61, 2.07 -0.63, 2.16 -1.41 C2.25 -2.19, 1.73 -0.41, 2.16 0.22" stroke="#ffffff" stroke-width="1" fill="none"></path></g><g stroke-linecap="round" transform="translate(837.5287545812466 169.65532998655476) rotate(0 9.723666002969026 9.535870441290031)"><path d="M1.7 2.81 C1.7 2.81, 1.7 2.81, 1.7 2.81 M1.7 2.81 C1.7 2.81, 1.7 2.81, 1.7 2.81 M2.57 10.69 C1.31 7.57, 2.47 6.78, 7.75 1.87 M1.5 8.7 C2.81 7.33, 4.8 5.54, 7.04 1.68 M1.6 16.21 C3.7 11.48, 8.37 7.09, 10.97 0.95 M2.24 12.16 C6.55 9.53, 9.43 5.23, 12.36 2.65 M5.51 18.27 C8.52 16.91, 12.75 5.05, 14.57 4.9 M3.59 19.24 C6.42 15.44, 8.87 11.78, 15.9 5.24 M11.47 20.26 C13.93 17.21, 16.63 10.62, 16.22 7.62 M9.96 18.54 C12.7 15.74, 17.99 8.96, 18.15 6.96 M11.53 19.13 C15.82 18.65, 17.53 17.78, 18.09 12.25 M13.6 20.4 C15.56 17.73, 16.87 16.44, 19.79 13.06 M3.61 17.18 C3.61 17.18, 3.61 17.18, 3.61 17.18 M3.61 17.18 C3.61 17.18, 3.61 17.18, 3.61 17.18 M8.39 17.77 C7.71 13.55, 7.61 13.86, 1.98 11.91 M11.32 17.41 C8.89 16.42, 6.49 14.89, 2.14 10.82 M15.78 19.85 C12.37 11.86, 9.15 10.46, 5.9 8.14 M15.71 18.9 C12.9 13.97, 7.06 9.93, 3.15 7.55 M17.27 12.44 C15.08 7.48, 6.56 0.11, 0.54 1.17 M17.77 13.26 C13.9 10.18, 6.4 2.74, 4.01 2.24 M18.06 8.63 C19.74 7.09, 13.85 2.26, 5.7 -1.59 M20.4 8.77 C18.38 5.97, 14.51 3.1, 6.16 -0.84" stroke="#000000" stroke-width="0.5" fill="none"></path><path d="M5.87 1.01 C7.53 0.46, 10.56 1.21, 12.5 2.05 C14.44 2.89, 16.51 4.39, 17.51 6.04 C18.51 7.69, 18.83 9.78, 18.51 11.94 C18.19 14.1, 16.83 17.9, 15.57 19 C14.3 20.09, 12.88 18.77, 10.93 18.51 C8.97 18.24, 5.53 18.98, 3.85 17.39 C2.16 15.79, 1.15 11.4, 0.82 8.94 C0.48 6.49, -0.66 3.68, 1.84 2.65 C4.34 1.62, 12.78 1.49, 15.84 2.74 C18.9 3.98, 20.47 10.24, 20.21 10.12 M2.72 3.02 C4.08 2.34, 9.78 2.53, 11.85 1.98 C13.92 1.43, 14.1 -1.36, 15.14 -0.26 C16.18 0.85, 18.01 6.21, 18.1 8.61 C18.19 11.02, 16.28 12.62, 15.69 14.18 C15.11 15.75, 16.13 16.96, 14.61 18 C13.1 19.04, 8.88 20.92, 6.59 20.42 C4.31 19.91, 1.59 17.4, 0.88 14.96 C0.17 12.52, 2.16 8.24, 2.31 5.76 C2.47 3.28, 1.6 0.58, 1.79 0.07 C1.97 -0.44, 2.79 2.21, 3.42 2.7" stroke="#000000" stroke-width="1" fill="none"></path></g><g stroke-linecap="round" transform="translate(841.6076461002078 173.56115792543102) rotate(0 5.859999692444546 5.80580235895189)"><path d="M10.64 0.7 C12.24 1.7, 12.77 4.29, 12.82 5.67 C12.87 7.06, 11.61 8.08, 10.94 9.03 C10.26 9.97, 10.1 10.97, 8.76 11.34 C7.43 11.71, 4.27 11.52, 2.94 11.26 C1.62 11.01, 0.98 10.67, 0.81 9.81 C0.64 8.95, 2.11 7.64, 1.92 6.13 C1.72 4.61, -0.58 2.02, -0.37 0.69 C-0.15 -0.64, 1.52 -2.26, 3.22 -1.87 C4.91 -1.48, 8.24 2.48, 9.8 3.03 C11.36 3.57, 12.64 1.87, 12.59 1.41 M6.44 -1.2 C7.06 -0.74, 7.59 1.69, 8.18 2.85 C8.77 4.01, 9.83 4.44, 9.99 5.76 C10.16 7.07, 9.93 9.94, 9.17 10.75 C8.4 11.56, 6.96 10.73, 5.41 10.6 C3.86 10.46, 0.81 10.84, -0.12 9.95 C-1.05 9.05, -0.06 5.9, -0.19 5.24 C-0.32 4.59, -1.14 6.6, -0.89 6.01 C-0.64 5.42, -0.02 2.63, 1.33 1.68 C2.68 0.74, 6.51 0.73, 7.21 0.33 C7.91 -0.06, 5.19 -0.73, 5.55 -0.7" stroke="none" stroke-width="0" fill="#ffffff"></path><path d="M6.74 -1.21 C8.02 -1.2, 10.07 -0.41, 11 0.52 C11.93 1.46, 12.33 2.95, 12.31 4.38 C12.29 5.8, 11.37 7.58, 10.88 9.06 C10.39 10.54, 10.67 12.75, 9.38 13.26 C8.08 13.77, 4.39 12.76, 3.11 12.1 C1.83 11.43, 2.46 10.51, 1.7 9.29 C0.95 8.06, -1.26 6.02, -1.41 4.74 C-1.57 3.45, -1.09 2.09, 0.75 1.59 C2.58 1.08, 7.81 1.62, 9.6 1.69 C11.39 1.76, 11.78 2.32, 11.49 2.01 M11.08 4.18 C12.57 5.01, 14.23 4.24, 13.7 4.92 C13.17 5.61, 8.92 7.6, 7.93 8.29 C6.93 8.98, 8.55 8.36, 7.71 9.05 C6.87 9.73, 4.2 12.57, 2.89 12.4 C1.59 12.23, 0 9.52, -0.11 8.03 C-0.22 6.53, 1.64 4.29, 2.24 3.45 C2.84 2.61, 3.1 3.83, 3.5 2.99 C3.9 2.15, 3.89 -1.4, 4.66 -1.59 C5.43 -1.77, 7.14 1, 8.12 1.87 C9.1 2.73, 10.23 3.07, 10.52 3.61" stroke="#ffffff" stroke-width="1" fill="none"></path></g><g stroke-linecap="round" transform="translate(818.7149690209985 146.46740931544363) rotate(0 1.6129837224966082 3.8028793265517518)"><path d="M0 0 C0 0, 0 0, 0 0 M0 0 C0 0, 0 0, 0 0 M-0.63 5.55 C-0.22 4.82, 2.34 2.76, 4.41 0.52 M-0.87 6.65 C1.24 4.54, 3.5 2.69, 3.71 0.83 M0.01 7.61 C0.01 7.61, 0.01 7.61, 0.01 7.61 M0.01 7.61 C0.01 7.61, 0.01 7.61, 0.01 7.61 M3.67 6.42 C2.89 4.6, 2.57 4.68, -0.53 2.04 M4.43 5.57 C2.77 5.23, 2.14 4.28, 0.78 2.29" stroke="#868e96" stroke-width="0.5" fill="none"></path><path d="M0.02 0.22 C0.76 0.23, 1.9 0.41, 2.91 0.21 M0.28 0.31 C0.78 0.14, 1.9 0.12, 2.98 0.02 M3.96 0.66 C2.79 1.26, 2.19 4.72, 2.23 7.23 M3.02 -0.63 C3.03 2.67, 2.71 4.93, 3.62 7.48 M3.36 8.07 C1.78 7.24, 0.78 7.56, 0.07 7.93 M3.12 7.77 C1.99 7.41, 1.58 7.56, 0.24 7.91 M0.39 6.14 C-0.29 5.05, 0.1 4.83, 0.23 -1.31 M-0.1 8.08 C0.75 5.2, 0.05 3.39, 0.23 0.17" stroke="#495057" stroke-width="1" fill="none"></path></g><g stroke-linecap="round" transform="translate(819.4739490697054 178.1675807922299) rotate(0 1.6129837224966082 3.6348350022922453)"><path d="M0 0 C0 0, 0 0, 0 0 M0 0 C0 0, 0 0, 0 0 M-1.11 5.29 C1.23 4.74, 2.24 2.65, 3.74 1.71 M-0.01 6.41 C1.4 5.19, 3.08 1.89, 4.05 1.16 M0.17 7.42 C0.17 7.42, 0.17 7.42, 0.17 7.42 M0.17 7.42 C0.17 7.42, 0.17 7.42, 0.17 7.42 M4.92 5.68 C2.44 5.21, 2.09 1.68, -0.92 1.53 M3.91 5.32 C3.37 4.78, 2.05 4.04, -0.62 1.58" stroke="#000000" stroke-width="0.5" fill="none"></path><path d="M0.22 -0.39 C1.33 -0.4, 2.63 -0.32, 3.43 -0.21 M0.31 -0.09 C1.12 0.11, 2.08 -0.3, 3.25 -0.24 M3.85 -0.45 C2.86 1.29, 4.54 3.67, 2.87 7.65 M2.63 -0.29 C3.51 2.11, 3.3 5.78, 3.11 7.31 M3.69 6.81 C1.69 6.81, 0.85 7.35, 0.32 7.28 M3.39 7 C1.81 7.55, 0.7 7.48, 0.3 7.2 M-1.4 7.08 C-0.41 4.82, 1.4 2.21, -1.25 -1.02 M0.46 7.87 C-0.49 5.61, -0.55 4.29, 0.16 -0.22" stroke="#000000" stroke-width="1" fill="none"></path></g><g stroke-linecap="round" transform="translate(833.638513967215 169.4372550137581) rotate(303.0460002072582 1.6129837224966082 3.6348350022922453)"><path d="M0 0 C0 0, 0 0, 0 0 M0 0 C0 0, 0 0, 0 0 M-1.36 6.21 C1.35 4.06, 2.52 2.8, 4.92 2.17 M-0.25 6.42 C2.26 4.35, 2.68 2.1, 4.38 0.64 M0.17 7.42 C0.17 7.42, 0.17 7.42, 0.17 7.42 M0.17 7.42 C0.17 7.42, 0.17 7.42, 0.17 7.42 M4.27 5.45 C4.38 5.98, 1.35 3.39, -0.47 1.57 M3.91 6.03 C3.15 4.86, 2.3 3.11, -0.42 1.94" stroke="#000000" stroke-width="0.5" fill="none"></path><path d="M-0.39 0.21 C0.49 0.37, 1.44 0.18, 3.02 0.02 M-0.09 0.15 C1.16 0.06, 1.74 -0.04, 2.98 0.06 M2.78 -0.43 C2.28 3.75, 2.34 4.65, 3.6 8.32 M2.94 0.18 C2.59 2.64, 3.56 5.2, 3.27 7.73 M2.76 6.91 C1.84 7.28, 1.45 7.64, 0.01 7.85 M2.96 7.11 C2.76 7.29, 1.92 7.61, -0.07 7.47 M-0.19 6.85 C0.15 6.5, 0.18 1.69, -1.02 -1.16 M0.6 6.64 C-0.05 5.11, 0.24 4.49, -0.22 -0.28" stroke="#000000" stroke-width="1" fill="none"></path></g><g stroke-linecap="round" transform="translate(832.9078233946805 153.48730984238782) rotate(233.50826307900493 1.6129837224966082 3.6348350022922453)"><path d="M0 0 C0 0, 0 0, 0 0 M0 0 C0 0, 0 0, 0 0 M-0.45 6.64 C0.2 5.11, 1.73 4.17, 5.38 2.2 M-0.24 7.09 C0.66 4.65, 1.37 4.2, 3.85 0.69 M0.17 7.42 C0.17 7.42, 0.17 7.42, 0.17 7.42 M0.17 7.42 C0.17 7.42, 0.17 7.42, 0.17 7.42 M4.05 6.71 C4.18 3.64, 1.28 3.48, -0.43 1.44 M4.63 5.84 C3.02 4.75, 0.73 2.64, -0.06 1.25" stroke="#868e96" stroke-width="0.5" fill="none"></path><path d="M0.21 -0.39 C1.37 -0.28, 2.17 -0.17, 3.24 0.05 M0.15 0.16 C1.37 -0.23, 2.52 -0.23, 3.28 0.14 M2.8 -1.02 C4.54 1.58, 2.93 5.43, 4.27 8.23 M3.41 -0.6 C3.08 2.36, 2.99 4.01, 3.69 7.16 M2.87 6.8 C2.16 7.29, 1.48 7.23, 0.58 6.87 M3.07 7.57 C2.36 7.45, 1.81 7.15, 0.2 7.26 M-0.42 7.46 C1.53 5.12, -1.11 1.51, -1.16 -1.42 M-0.63 7.2 C-0.78 5.41, 0.07 2.89, -0.28 -0.35" stroke="#495057" stroke-width="1" fill="none"></path></g><g stroke-linecap="round"><g transform="translate(719.5052451075701 165.03658674623566) rotate(0 37.822330576023546 -0.0030631866654116102)"><path d="M0 0 C12.61 0, 63.04 -0.01, 75.64 -0.01 M0 0 C12.61 0, 63.04 -0.01, 75.64 -0.01" stroke="#495057" stroke-width="1" fill="none"></path></g><g transform="translate(719.5052451075701 165.03658674623566) rotate(0 37.822330576023546 -0.0030631866654116102)"><path d="M0 0 L13.59 -6.34 L13.6 6.34 L0 0" stroke="none" stroke-width="0" fill="#495057" fill-rule="evenodd"></path><path d="M0 0 C5.28 -2.46, 10.57 -4.93, 13.59 -6.34 M0 0 C2.81 -1.31, 5.63 -2.63, 13.59 -6.34 M13.59 -6.34 C13.59 -2.05, 13.59 2.24, 13.6 6.34 M13.59 -6.34 C13.59 -1.84, 13.59 2.66, 13.6 6.34 M13.6 6.34 C8.32 3.88, 3.04 1.42, 0 0 M13.6 6.34 C9.55 4.45, 5.5 2.57, 0 0 M0 0 C0 0, 0 0, 0 0 M0 0 C0 0, 0 0, 0 0" stroke="#495057" stroke-width="1" fill="none"></path></g><g transform="translate(719.5052451075701 165.03658674623566) rotate(0 37.822330576023546 -0.0030631866654116102)"><path d="M75.64 -0.01 L62.05 6.33 L62.05 -6.34 L75.64 -0.01" stroke="none" stroke-width="0" fill="#495057" fill-rule="evenodd"></path><path d="M75.64 -0.01 C70.36 2.46, 65.08 4.92, 62.05 6.33 M75.64 -0.01 C72.83 1.31, 70.02 2.62, 62.05 6.33 M62.05 6.33 C62.05 2.05, 62.05 -2.24, 62.05 -6.34 M62.05 6.33 C62.05 1.83, 62.05 -2.67, 62.05 -6.34 M62.05 -6.34 C67.33 -3.88, 72.6 -1.42, 75.64 -0.01 M62.05 -6.34 C66.1 -4.46, 70.14 -2.57, 75.64 -0.01 M75.64 -0.01 C75.64 -0.01, 75.64 -0.01, 75.64 -0.01 M75.64 -0.01 C75.64 -0.01, 75.64 -0.01, 75.64 -0.01" stroke="#495057" stroke-width="1" fill="none"></path></g></g><g transform="translate(785.4921264648438 214.69238212927058) rotate(0 42.5 7)"><text x="42.5" y="11" font-family="Helvetica, Segoe UI Emoji" font-size="11.069744053171641px" fill="#343a40" text-anchor="middle" style="white-space: pre;" direction="ltr">APACHE KAFKA</text></g><g transform="translate(489.4080810546875 166.8700103759765) rotate(0 15.5 7)"><text x="15.5" y="11" font-family="Helvetica, Segoe UI Emoji" font-size="11.069744053171641px" fill="#343a40" text-anchor="middle" style="white-space: pre;" direction="ltr">gRPC</text></g></svg>