<svg version="1.1" xmlns="http://www.w3.org/2000/svg" viewBox="0 0 842.58837890625 461.3570251464844" width="2527.76513671875" height="1384.0710754394531">
  <!-- svg-source:excalidraw -->
  
  <defs>
    <style>
      @font-face {
        font-family: "Virgil";
        src: url("https://excalidraw.com/Virgil.woff2");
      }
      @font-face {
        font-family: "Cascadia";
        src: url("https://excalidraw.com/Cascadia.woff2");
      }
    </style>
  </defs>
  <g stroke-linecap="round" transform="translate(685.58837890625 11.14471435546875) rotate(0 73.5 21)"><path d="M10.5 0 M10.5 0 C45.34 0, 80.18 0, 136.5 0 M10.5 0 C38.36 0, 66.21 0, 136.5 0 M136.5 0 C143.5 0, 147 3.5, 147 10.5 M136.5 0 C143.5 0, 147 3.5, 147 10.5 M147 10.5 C147 18.46, 147 26.42, 147 31.5 M147 10.5 C147 16.07, 147 21.64, 147 31.5 M147 31.5 C147 38.5, 143.5 42, 136.5 42 M147 31.5 C147 38.5, 143.5 42, 136.5 42 M136.5 42 C95.31 42, 54.11 42, 10.5 42 M136.5 42 C94.44 42, 52.38 42, 10.5 42 M10.5 42 C3.5 42, 0 38.5, 0 31.5 M10.5 42 C3.5 42, 0 38.5, 0 31.5 M0 31.5 C0 23.26, 0 15.01, 0 10.5 M0 31.5 C0 25.03, 0 18.56, 0 10.5 M0 10.5 C0 3.5, 3.5 0, 10.5 0 M0 10.5 C0 3.5, 3.5 0, 10.5 0" stroke="#495057" stroke-width="1" fill="none"></path></g><g transform="translate(690.58837890625 23.14471435546875) rotate(0 68.5 9)"><text x="68.5" y="14" font-family="Helvetica, Segoe UI Emoji" font-size="16px" fill="#495057" text-anchor="middle" style="white-space: pre;" direction="ltr">PURCHASE</text></g><g stroke-linecap="round" transform="translate(458.701904296875 10) rotate(0 73.5 21)"><path d="M10.5 0 M10.5 0 C42.78 0, 75.06 0, 136.5 0 M10.5 0 C57.78 0, 105.07 0, 136.5 0 M136.5 0 C143.5 0, 147 3.5, 147 10.5 M136.5 0 C143.5 0, 147 3.5, 147 10.5 M147 10.5 C147 15.04, 147 19.58, 147 31.5 M147 10.5 C147 18.31, 147 26.12, 147 31.5 M147 31.5 C147 38.5, 143.5 42, 136.5 42 M147 31.5 C147 38.5, 143.5 42, 136.5 42 M136.5 42 C101.2 42, 65.9 42, 10.5 42 M136.5 42 C86.6 42, 36.7 42, 10.5 42 M10.5 42 C3.5 42, 0 38.5, 0 31.5 M10.5 42 C3.5 42, 0 38.5, 0 31.5 M0 31.5 C0 25.47, 0 19.44, 0 10.5 M0 31.5 C0 24.34, 0 17.18, 0 10.5 M0 10.5 C0 3.5, 3.5 0, 10.5 0 M0 10.5 C0 3.5, 3.5 0, 10.5 0" stroke="#495057" stroke-width="1" fill="none"></path></g><g transform="translate(463.701904296875 22) rotate(0 68.5 9)"><text x="68.5" y="14" font-family="Helvetica, Segoe UI Emoji" font-size="16px" fill="#495057" text-anchor="middle" style="white-space: pre;" direction="ltr">GRAPHQL</text></g><g stroke-linecap="round" transform="translate(235.6978759765625 11.100128173828125) rotate(0 73.5 21)"><path d="M10.5 0 M10.5 0 C55.09 0, 99.68 0, 136.5 0 M10.5 0 C35.72 0, 60.94 0, 136.5 0 M136.5 0 C143.5 0, 147 3.5, 147 10.5 M136.5 0 C143.5 0, 147 3.5, 147 10.5 M147 10.5 C147 17.22, 147 23.93, 147 31.5 M147 10.5 C147 15.49, 147 20.48, 147 31.5 M147 31.5 C147 38.5, 143.5 42, 136.5 42 M147 31.5 C147 38.5, 143.5 42, 136.5 42 M136.5 42 C109.23 42, 81.96 42, 10.5 42 M136.5 42 C106.15 42, 75.81 42, 10.5 42 M10.5 42 C3.5 42, 0 38.5, 0 31.5 M10.5 42 C3.5 42, 0 38.5, 0 31.5 M0 31.5 C0 25.51, 0 19.52, 0 10.5 M0 31.5 C0 27.1, 0 22.7, 0 10.5 M0 10.5 C0 3.5, 3.5 0, 10.5 0 M0 10.5 C0 3.5, 3.5 0, 10.5 0" stroke="#495057" stroke-width="1" fill="none"></path></g><g transform="translate(240.6978759765625 23.100128173828125) rotate(0 68.5 9)"><text x="68.5" y="14" font-family="Helvetica, Segoe UI Emoji" font-size="16px" fill="#495057" text-anchor="middle" style="white-space: pre;" direction="ltr">STORE</text></g><g stroke-linecap="round" transform="translate(10 11.21038818359375) rotate(0 73.5 21)"><path d="M10.5 0 M10.5 0 C51.02 0, 91.54 0, 136.5 0 M10.5 0 C48.76 0, 87.03 0, 136.5 0 M136.5 0 C143.5 0, 147 3.5, 147 10.5 M136.5 0 C143.5 0, 147 3.5, 147 10.5 M147 10.5 C147 17.9, 147 25.3, 147 31.5 M147 10.5 C147 17.84, 147 25.18, 147 31.5 M147 31.5 C147 38.5, 143.5 42, 136.5 42 M147 31.5 C147 38.5, 143.5 42, 136.5 42 M136.5 42 C86.95 42, 37.4 42, 10.5 42 M136.5 42 C103.53 42, 70.56 42, 10.5 42 M10.5 42 C3.5 42, 0 38.5, 0 31.5 M10.5 42 C3.5 42, 0 38.5, 0 31.5 M0 31.5 C0 26.58, 0 21.67, 0 10.5 M0 31.5 C0 23.73, 0 15.96, 0 10.5 M0 10.5 C0 3.5, 3.5 0, 10.5 0 M0 10.5 C0 3.5, 3.5 0, 10.5 0" stroke="#495057" stroke-width="1" fill="none"></path></g><g transform="translate(15 23.21038818359375) rotate(0 68.5 9)"><text x="68.5" y="14" font-family="Helvetica, Segoe UI Emoji" font-size="16px" fill="#495057" text-anchor="middle" style="white-space: pre;" direction="ltr">APP</text></g><g stroke-linecap="round" transform="translate(76.94305419921875 83.26840209960938) rotate(0 6.53570556640625 183.7958068847656)"><path d="M0 0 C0 0, 0 0, 0 0 M0 0 C0 0, 0 0, 0 0 M-0.26 6.4 C0.89 5.07, 2.05 3.74, 4.99 0.36 M-0.26 6.4 C1.68 4.16, 3.63 1.92, 4.99 0.36 M0.13 12.04 C3.67 7.97, 7.2 3.91, 10.63 -0.03 M0.13 12.04 C4.2 7.36, 8.26 2.69, 10.63 -0.03 M-0.13 18.44 C5.04 12.5, 10.2 6.56, 14.96 1.08 M-0.13 18.44 C3.75 13.98, 7.63 9.52, 14.96 1.08 M0.27 24.08 C4.56 19.14, 8.86 14.2, 14.7 7.48 M0.27 24.08 C3.84 19.97, 7.41 15.87, 14.7 7.48 M0 30.48 C3.36 26.62, 6.72 22.76, 14.44 13.88 M0 30.48 C4.05 25.83, 8.1 21.17, 14.44 13.88 M-0.26 36.88 C5.03 30.8, 10.32 24.71, 14.83 19.52 M-0.26 36.88 C3.14 32.97, 6.53 29.07, 14.83 19.52 M0.14 42.52 C3.54 38.61, 6.94 34.69, 14.57 25.92 M0.14 42.52 C5.79 36.02, 11.45 29.51, 14.57 25.92 M-0.12 48.92 C3.8 44.4, 7.73 39.89, 14.97 31.56 M-0.12 48.92 C3.29 45, 6.69 41.08, 14.97 31.56 M0.27 54.56 C5.87 48.12, 11.47 41.68, 14.7 37.96 M0.27 54.56 C3.18 51.21, 6.09 47.86, 14.7 37.96 M0.01 60.96 C5.54 54.6, 11.06 48.25, 14.44 44.36 M0.01 60.96 C4.56 55.72, 9.12 50.48, 14.44 44.36 M-0.25 67.36 C2.99 63.63, 6.23 59.9, 14.84 50 M-0.25 67.36 C5.48 60.76, 11.22 54.16, 14.84 50 M0.14 73 C3.97 68.6, 7.8 64.2, 14.58 56.4 M0.14 73 C4.73 67.72, 9.32 62.44, 14.58 56.4 M-0.12 79.4 C4.91 73.61, 9.95 67.82, 14.97 62.04 M-0.12 79.4 C3.74 74.95, 7.61 70.51, 14.97 62.04 M0.28 85.04 C3.8 80.99, 7.32 76.94, 14.71 68.44 M0.28 85.04 C3.42 81.42, 6.56 77.81, 14.71 68.44 M0.01 91.44 C3.64 87.26, 7.27 83.09, 14.45 74.83 M0.01 91.44 C3.17 87.81, 6.32 84.19, 14.45 74.83 M-0.25 97.84 C3.49 93.54, 7.22 89.25, 14.84 80.48 M-0.25 97.84 C5.15 91.62, 10.55 85.41, 14.84 80.48 M0.15 103.48 C5.44 97.39, 10.74 91.3, 14.58 86.88 M0.15 103.48 C4.69 98.25, 9.24 93.02, 14.58 86.88 M-0.11 109.88 C5.83 103.04, 11.77 96.21, 14.98 92.52 M-0.11 109.88 C3.52 105.69, 7.16 101.51, 14.98 92.52 M0.28 115.52 C5.59 109.41, 10.91 103.29, 14.71 98.92 M0.28 115.52 C3.94 111.32, 7.59 107.11, 14.71 98.92 M0.02 121.92 C5.68 115.41, 11.33 108.9, 14.45 105.31 M0.02 121.92 C4.77 116.45, 9.52 110.99, 14.45 105.31 M-0.24 128.32 C3.3 124.24, 6.85 120.16, 14.85 110.96 M-0.24 128.32 C5.79 121.37, 11.83 114.43, 14.85 110.96 M0.15 133.96 C5.08 128.29, 10.02 122.61, 14.59 117.36 M0.15 133.96 C3.67 129.91, 7.19 125.86, 14.59 117.36 M-0.11 140.36 C3.47 136.24, 7.05 132.12, 14.98 123 M-0.11 140.36 C5.64 133.74, 11.39 127.13, 14.98 123 M0.29 146 C5.1 140.47, 9.91 134.93, 14.72 129.4 M0.29 146 C5.57 139.92, 10.85 133.84, 14.72 129.4 M0.02 152.4 C4.86 146.83, 9.7 141.26, 14.46 135.79 M0.02 152.4 C4.1 147.71, 8.17 143.02, 14.46 135.79 M-0.24 158.8 C3.5 154.5, 7.24 150.2, 14.85 141.44 M-0.24 158.8 C3.32 154.7, 6.88 150.61, 14.85 141.44 M0.16 164.44 C5.65 158.12, 11.14 151.8, 14.59 147.83 M0.16 164.44 C3.74 160.31, 7.33 156.19, 14.59 147.83 M-0.1 170.84 C5.27 164.65, 10.65 158.47, 14.99 153.48 M-0.1 170.84 C5.22 164.72, 10.53 158.6, 14.99 153.48 M0.29 176.48 C4.84 171.25, 9.38 166.02, 14.72 159.88 M0.29 176.48 C4.39 171.77, 8.48 167.06, 14.72 159.88 M0.03 182.88 C4.67 177.54, 9.31 172.2, 14.46 166.27 M0.03 182.88 C5.45 176.65, 10.86 170.41, 14.46 166.27 M-0.23 189.27 C5.36 182.84, 10.96 176.4, 14.86 171.92 M-0.23 189.27 C3.57 184.9, 7.37 180.53, 14.86 171.92 M0.16 194.92 C5.87 188.35, 11.59 181.78, 14.6 178.31 M0.16 194.92 C4.82 189.56, 9.47 184.21, 14.6 178.31 M-0.1 201.32 C4 196.6, 8.09 191.89, 14.99 183.96 M-0.1 201.32 C4.06 196.53, 8.22 191.75, 14.99 183.96 M0.3 206.96 C3.51 203.26, 6.73 199.56, 14.73 190.36 M0.3 206.96 C5.66 200.79, 11.02 194.62, 14.73 190.36 M0.03 213.36 C3.36 209.53, 6.68 205.71, 14.47 196.75 M0.03 213.36 C4.91 207.75, 9.78 202.15, 14.47 196.75 M-0.23 219.75 C3.34 215.65, 6.91 211.55, 14.86 202.4 M-0.23 219.75 C3.7 215.24, 7.62 210.73, 14.86 202.4 M0.17 225.4 C5.24 219.56, 10.32 213.72, 14.6 208.79 M0.17 225.4 C4.2 220.76, 8.23 216.12, 14.6 208.79 M-0.09 231.8 C3.85 227.26, 7.79 222.72, 14.99 214.44 M-0.09 231.8 C4.19 226.87, 8.47 221.94, 14.99 214.44 M0.3 237.44 C3.63 233.6, 6.97 229.77, 14.73 220.83 M0.3 237.44 C3.22 234.08, 6.14 230.72, 14.73 220.83 M0.04 243.84 C4.56 238.64, 9.07 233.44, 14.47 227.23 M0.04 243.84 C4.35 238.87, 8.67 233.91, 14.47 227.23 M-0.22 250.23 C5.11 244.1, 10.44 237.97, 14.87 232.88 M-0.22 250.23 C3.8 245.6, 7.82 240.98, 14.87 232.88 M0.17 255.88 C5.9 249.28, 11.63 242.69, 14.61 239.27 M0.17 255.88 C4.8 250.55, 9.43 245.23, 14.61 239.27 M-0.09 262.27 C4.36 257.15, 8.82 252.03, 15 244.92 M-0.09 262.27 C4.32 257.2, 8.74 252.12, 15 244.92 M0.3 267.92 C4.78 262.77, 9.26 257.61, 14.74 251.31 M0.3 267.92 C4.97 262.55, 9.64 257.18, 14.74 251.31 M0.04 274.32 C4.71 268.95, 9.38 263.58, 14.48 257.71 M0.04 274.32 C5.22 268.36, 10.4 262.4, 14.48 257.71 M-0.22 280.71 C3.4 276.55, 7.02 272.39, 14.87 263.35 M-0.22 280.71 C3.42 276.53, 7.06 272.34, 14.87 263.35 M0.18 286.36 C5.88 279.79, 11.59 273.23, 14.61 269.75 M0.18 286.36 C3.13 282.96, 6.08 279.57, 14.61 269.75 M-0.08 292.75 C5.39 286.45, 10.87 280.15, 15 275.4 M-0.08 292.75 C5.46 286.38, 11 280, 15 275.4 M0.31 298.4 C5.49 292.43, 10.68 286.47, 14.74 281.79 M0.31 298.4 C3.59 294.62, 6.87 290.85, 14.74 281.79 M0.05 304.8 C3.64 300.66, 7.23 296.53, 14.48 288.19 M0.05 304.8 C5.17 298.91, 10.28 293.02, 14.48 288.19 M-0.21 311.19 C5.12 305.06, 10.46 298.92, 14.88 293.83 M-0.21 311.19 C4.09 306.25, 8.39 301.3, 14.88 293.83 M0.18 316.84 C3.88 312.58, 7.57 308.33, 14.61 300.23 M0.18 316.84 C3.28 313.27, 6.38 309.7, 14.61 300.23 M-0.08 323.23 C3.06 319.63, 6.19 316.02, 15.01 305.88 M-0.08 323.23 C4.35 318.13, 8.79 313.03, 15.01 305.88 M0.31 328.88 C5.14 323.32, 9.97 317.77, 14.75 312.27 M0.31 328.88 C4.93 323.57, 9.54 318.27, 14.75 312.27 M0.05 335.27 C3.55 331.25, 7.04 327.23, 14.49 318.67 M0.05 335.27 C3.38 331.45, 6.7 327.63, 14.49 318.67 M-0.21 341.67 C3.17 337.78, 6.56 333.89, 14.88 324.31 M-0.21 341.67 C5.82 334.74, 11.85 327.8, 14.88 324.31 M0.19 347.32 C4.04 342.88, 7.89 338.45, 14.62 330.71 M0.19 347.32 C4.94 341.84, 9.7 336.37, 14.62 330.71 M-0.08 353.71 C3.62 349.46, 7.32 345.21, 14.36 337.11 M-0.08 353.71 C4.91 347.98, 9.89 342.25, 14.36 337.11 M0.32 359.36 C5.85 352.99, 11.39 346.62, 14.75 342.75 M0.32 359.36 C4.46 354.59, 8.6 349.83, 14.75 342.75 M0.06 365.75 C5.14 359.91, 10.22 354.07, 14.49 349.15 M0.06 365.75 C3.03 362.34, 6 358.92, 14.49 349.15 M2.42 369.13 C7.2 363.63, 11.98 358.14, 14.89 354.79 M2.42 369.13 C5.62 365.46, 8.81 361.78, 14.89 354.79 M7.41 369.49 C9.02 367.64, 10.64 365.78, 14.62 361.19 M7.41 369.49 C10.23 366.25, 13.04 363.01, 14.62 361.19" stroke="#ced4da" stroke-width="0.5" fill="none"></path><path d="M0 0 C2.77 0, 5.53 0, 13.07 0 M0 0 C3.2 0, 6.41 0, 13.07 0 M13.07 0 C13.07 130.05, 13.07 260.09, 13.07 367.59 M13.07 0 C13.07 110.56, 13.07 221.12, 13.07 367.59 M13.07 367.59 C8.07 367.59, 3.07 367.59, 0 367.59 M13.07 367.59 C7.93 367.59, 2.78 367.59, 0 367.59 M0 367.59 C0 289.68, 0 211.76, 0 0 M0 367.59 C0 246.57, 0 125.54, 0 0" stroke="#ffffff" stroke-width="1" fill="none"></path></g><g stroke-linecap="round" transform="translate(302.83917236328125 84.77932739257812) rotate(0 8.086761474609375 183.14617919921878)"><path d="M0 0 C0 0, 0 0, 0 0 M0 0 C0 0, 0 0, 0 0 M-0.26 6.4 C1.03 4.91, 2.32 3.43, 4.99 0.36 M-0.26 6.4 C0.81 5.17, 1.88 3.93, 4.99 0.36 M0.13 12.04 C3.09 8.64, 6.04 5.25, 10.63 -0.03 M0.13 12.04 C3.15 8.57, 6.16 5.11, 10.63 -0.03 M-0.13 18.44 C4.88 12.68, 9.89 6.92, 15.62 0.33 M-0.13 18.44 C4.87 12.69, 9.87 6.93, 15.62 0.33 M0.27 24.08 C4.57 19.13, 8.87 14.18, 19.29 2.2 M0.27 24.08 C4.74 18.93, 9.21 13.79, 19.29 2.2 M0 30.48 C5.8 23.81, 11.59 17.15, 19.03 8.59 M0 30.48 C7.21 22.19, 14.41 13.91, 19.03 8.59 M-0.26 36.88 C6.88 28.67, 14.01 20.46, 18.77 14.99 M-0.26 36.88 C5.31 30.47, 10.88 24.07, 18.77 14.99 M0.14 42.52 C5.37 36.5, 10.61 30.47, 19.16 20.63 M0.14 42.52 C6.48 35.22, 12.83 27.92, 19.16 20.63 M-0.12 48.92 C6.59 41.2, 13.3 33.48, 18.9 27.03 M-0.12 48.92 C5.13 42.88, 10.38 36.83, 18.9 27.03 M0.27 54.56 C7.1 46.7, 13.93 38.84, 19.3 32.67 M0.27 54.56 C6.35 47.57, 12.42 40.58, 19.3 32.67 M0.01 60.96 C6.54 53.45, 13.07 45.94, 19.04 39.07 M0.01 60.96 C5.59 54.54, 11.17 48.12, 19.04 39.07 M-0.25 67.36 C6.31 59.81, 12.87 52.26, 18.77 45.47 M-0.25 67.36 C4.77 61.57, 9.8 55.79, 18.77 45.47 M0.14 73 C5.65 66.66, 11.16 60.33, 19.17 51.11 M0.14 73 C6.65 65.51, 13.16 58.03, 19.17 51.11 M-0.12 79.4 C5.22 73.26, 10.56 67.11, 18.91 57.51 M-0.12 79.4 C5.33 73.13, 10.77 66.87, 18.91 57.51 M0.28 85.04 C5.88 78.59, 11.48 72.15, 19.3 63.15 M0.28 85.04 C6.2 78.23, 12.12 71.41, 19.3 63.15 M0.01 91.44 C5.22 85.45, 10.43 79.46, 19.04 69.55 M0.01 91.44 C5.62 84.99, 11.22 78.55, 19.04 69.55 M-0.25 97.84 C3.94 93.02, 8.14 88.19, 18.78 75.95 M-0.25 97.84 C6.99 89.51, 14.23 81.18, 18.78 75.95 M0.15 103.48 C5.68 97.12, 11.21 90.76, 19.17 81.59 M0.15 103.48 C7.54 94.97, 14.94 86.46, 19.17 81.59 M-0.11 109.88 C5.37 103.57, 10.85 97.26, 18.91 87.99 M-0.11 109.88 C4.06 105.08, 8.23 100.28, 18.91 87.99 M0.28 115.52 C7.09 107.69, 13.9 99.86, 19.31 93.63 M0.28 115.52 C5.21 109.85, 10.14 104.17, 19.31 93.63 M0.02 121.92 C5.33 115.81, 10.64 109.7, 19.05 100.03 M0.02 121.92 C7.41 113.41, 14.8 104.91, 19.05 100.03 M-0.24 128.32 C6.62 120.42, 13.48 112.53, 18.78 106.43 M-0.24 128.32 C7.12 119.85, 14.48 111.38, 18.78 106.43 M0.15 133.96 C6.49 126.67, 12.83 119.37, 19.18 112.07 M0.15 133.96 C6.61 126.53, 13.06 119.11, 19.18 112.07 M-0.11 140.36 C4.53 135.02, 9.18 129.67, 18.92 118.47 M-0.11 140.36 C4.52 135.04, 9.14 129.72, 18.92 118.47 M0.29 146 C6.95 138.34, 13.61 130.68, 19.31 124.11 M0.29 146 C4.35 141.33, 8.41 136.66, 19.31 124.11 M0.02 152.4 C4.06 147.75, 8.1 143.11, 19.05 130.51 M0.02 152.4 C5.54 146.05, 11.06 139.7, 19.05 130.51 M-0.24 158.8 C7.16 150.29, 14.55 141.79, 18.79 136.91 M-0.24 158.8 C4.4 153.47, 9.03 148.14, 18.79 136.91 M0.16 164.44 C6.41 157.24, 12.66 150.05, 19.18 142.55 M0.16 164.44 C7.4 156.1, 14.65 147.77, 19.18 142.55 M-0.1 170.84 C4.98 164.99, 10.06 159.15, 18.92 148.95 M-0.1 170.84 C6.6 163.12, 13.31 155.4, 18.92 148.95 M0.29 176.48 C6.31 169.55, 12.34 162.62, 19.32 154.59 M0.29 176.48 C7.11 168.63, 13.93 160.78, 19.32 154.59 M0.03 182.88 C6.94 174.93, 13.85 166.98, 19.05 160.99 M0.03 182.88 C6.77 175.12, 13.51 167.37, 19.05 160.99 M-0.23 189.27 C6.59 181.43, 13.4 173.59, 18.79 167.39 M-0.23 189.27 C4.66 183.64, 9.56 178.01, 18.79 167.39 M0.16 194.92 C4.23 190.23, 8.3 185.55, 19.19 173.03 M0.16 194.92 C6.88 187.19, 13.6 179.46, 19.19 173.03 M-0.1 201.32 C5.52 194.85, 11.15 188.38, 18.93 179.43 M-0.1 201.32 C5.64 194.71, 11.38 188.11, 18.93 179.43 M0.3 206.96 C6.31 200.04, 12.32 193.13, 19.32 185.07 M0.3 206.96 C6.84 199.43, 13.38 191.9, 19.32 185.07 M0.03 213.36 C4.4 208.34, 8.76 203.32, 19.06 191.47 M0.03 213.36 C5.88 206.63, 11.72 199.91, 19.06 191.47 M-0.23 219.75 C5.95 212.64, 12.14 205.53, 18.8 197.87 M-0.23 219.75 C3.81 215.11, 7.85 210.46, 18.8 197.87 M0.17 225.4 C6.26 218.39, 12.36 211.37, 19.19 203.51 M0.17 225.4 C5.49 219.28, 10.81 213.16, 19.19 203.51 M-0.09 231.8 C4.78 226.19, 9.65 220.59, 18.93 209.91 M-0.09 231.8 C6.27 224.47, 12.64 217.15, 18.93 209.91 M0.3 237.44 C7.69 228.94, 15.08 220.44, 19.33 215.55 M0.3 237.44 C4.4 232.72, 8.5 228.01, 19.33 215.55 M0.04 243.84 C5.44 237.62, 10.84 231.41, 19.06 221.95 M0.04 243.84 C7.22 235.57, 14.41 227.31, 19.06 221.95 M-0.22 250.23 C5.73 243.39, 11.67 236.55, 18.8 228.35 M-0.22 250.23 C5.52 243.63, 11.26 237.02, 18.8 228.35 M0.17 255.88 C6.69 248.38, 13.2 240.89, 19.2 233.99 M0.17 255.88 C5.86 249.34, 11.54 242.8, 19.2 233.99 M-0.09 262.27 C4.32 257.2, 8.73 252.13, 18.94 240.39 M-0.09 262.27 C5.93 255.35, 11.95 248.42, 18.94 240.39 M0.3 267.92 C6.48 260.81, 12.66 253.7, 19.33 246.03 M0.3 267.92 C6.89 260.34, 13.48 252.77, 19.33 246.03 M0.04 274.32 C6.58 266.79, 13.13 259.27, 19.07 252.43 M0.04 274.32 C4.38 269.32, 8.72 264.33, 19.07 252.43 M-0.22 280.71 C5.18 274.5, 10.58 268.29, 18.81 258.83 M-0.22 280.71 C4.7 275.06, 9.62 269.4, 18.81 258.83 M0.18 286.36 C6 279.66, 11.82 272.96, 19.2 264.47 M0.18 286.36 C7.7 277.7, 15.22 269.05, 19.2 264.47 M-0.08 292.75 C4.32 287.68, 8.73 282.61, 18.94 270.87 M-0.08 292.75 C4.96 286.95, 10 281.15, 18.94 270.87 M0.31 298.4 C4.79 293.25, 9.27 288.09, 19.34 276.51 M0.31 298.4 C7.32 290.34, 14.32 282.28, 19.34 276.51 M0.05 304.8 C6.51 297.36, 12.97 289.93, 19.07 282.91 M0.05 304.8 C5.49 298.53, 10.93 292.27, 19.07 282.91 M-0.21 311.19 C5.64 304.46, 11.5 297.72, 18.81 289.31 M-0.21 311.19 C5.24 304.92, 10.7 298.64, 18.81 289.31 M0.18 316.84 C6.62 309.43, 13.06 302.02, 19.21 294.95 M0.18 316.84 C6.5 309.57, 12.81 302.31, 19.21 294.95 M-0.08 323.23 C6.75 315.38, 13.57 307.53, 18.95 301.35 M-0.08 323.23 C5.29 317.06, 10.65 310.89, 18.95 301.35 M0.31 328.88 C6.37 321.91, 12.43 314.94, 19.34 306.99 M0.31 328.88 C6.09 322.23, 11.87 315.58, 19.34 306.99 M0.05 335.27 C5.44 329.07, 10.83 322.87, 19.08 313.39 M0.05 335.27 C5.29 329.25, 10.53 323.22, 19.08 313.39 M-0.21 341.67 C6.05 334.47, 12.32 327.26, 18.82 319.79 M-0.21 341.67 C7.28 333.06, 14.77 324.44, 18.82 319.79 M0.19 347.32 C4.67 342.16, 9.15 337, 19.21 325.43 M0.19 347.32 C7.4 339.01, 14.62 330.71, 19.21 325.43 M-0.08 353.71 C7.14 345.41, 14.37 337.1, 18.95 331.83 M-0.08 353.71 C5.33 347.5, 10.73 341.29, 18.95 331.83 M0.32 359.36 C4.68 354.34, 9.04 349.32, 19.35 337.47 M0.32 359.36 C5.95 352.87, 11.59 346.39, 19.35 337.47 M0.06 365.75 C4.58 360.55, 9.11 355.35, 19.08 343.87 M0.06 365.75 C6.67 358.14, 13.29 350.53, 19.08 343.87 M3.08 368.38 C8.39 362.27, 13.69 356.16, 18.82 350.27 M3.08 368.38 C8.11 362.59, 13.14 356.8, 18.82 350.27 M8.06 368.74 C10.65 365.77, 13.23 362.79, 19.22 355.91 M8.06 368.74 C10.84 365.55, 13.61 362.36, 19.22 355.91 M13.71 368.34 C15.24 366.58, 16.77 364.82, 18.96 362.31 M13.71 368.34 C15.46 366.33, 17.21 364.31, 18.96 362.31" stroke="#ced4da" stroke-width="0.5" fill="none"></path><path d="M0 0 C3.51 0, 7.02 0, 16.17 0 M0 0 C4.68 0, 9.37 0, 16.17 0 M16.17 0 C16.17 95.51, 16.17 191.02, 16.17 366.29 M16.17 0 C16.17 141.37, 16.17 282.73, 16.17 366.29 M16.17 366.29 C11.27 366.29, 6.37 366.29, 0 366.29 M16.17 366.29 C11.25 366.29, 6.32 366.29, 0 366.29 M0 366.29 C0 264.86, 0 163.43, 0 0 M0 366.29 C0 263.03, 0 159.77, 0 0" stroke="#ffffff" stroke-width="1" fill="none"></path></g><g stroke-linecap="round" transform="translate(524.5904541015625 84.57830810546875) rotate(0 9.34814453125 183.10345458984375)"><path d="M0 0 C0 0, 0 0, 0 0 M0 0 C0 0, 0 0, 0 0 M-0.26 6.4 C1.34 4.56, 2.93 2.72, 4.99 0.36 M-0.26 6.4 C1.36 4.54, 2.98 2.67, 4.99 0.36 M0.13 12.04 C2.42 9.41, 4.71 6.77, 10.63 -0.03 M0.13 12.04 C2.27 9.58, 4.41 7.12, 10.63 -0.03 M-0.13 18.44 C5.17 12.34, 10.47 6.25, 15.62 0.33 M-0.13 18.44 C5.64 11.8, 11.41 5.17, 15.62 0.33 M0.27 24.08 C5.92 17.58, 11.58 11.07, 19.95 1.44 M0.27 24.08 C8.02 15.16, 15.77 6.24, 19.95 1.44 M0 30.48 C5.01 24.72, 10.02 18.96, 20.34 7.08 M0 30.48 C5.39 24.29, 10.77 18.1, 20.34 7.08 M-0.26 36.88 C4.42 31.5, 9.09 26.13, 20.08 13.48 M-0.26 36.88 C6.73 28.84, 13.72 20.8, 20.08 13.48 M0.14 42.52 C7.8 33.7, 15.47 24.88, 19.82 19.88 M0.14 42.52 C7.79 33.71, 15.45 24.91, 19.82 19.88 M-0.12 48.92 C6.1 41.76, 12.32 34.61, 20.21 25.52 M-0.12 48.92 C7.17 40.53, 14.46 32.14, 20.21 25.52 M0.27 54.56 C5.81 48.19, 11.35 41.81, 19.95 31.92 M0.27 54.56 C4.52 49.68, 8.76 44.8, 19.95 31.92 M0.01 60.96 C4.8 55.45, 9.59 49.94, 20.35 37.56 M0.01 60.96 C6.83 53.11, 13.65 45.26, 20.35 37.56 M-0.25 67.36 C7.82 58.07, 15.89 48.79, 20.09 43.96 M-0.25 67.36 C6.08 60.07, 12.42 52.78, 20.09 43.96 M0.14 73 C7.97 63.99, 15.81 54.98, 19.82 50.36 M0.14 73 C7.26 64.82, 14.37 56.64, 19.82 50.36 M-0.12 79.4 C7.39 70.76, 14.9 62.12, 20.22 56 M-0.12 79.4 C6.67 71.59, 13.46 63.78, 20.22 56 M0.28 85.04 C4.84 79.79, 9.4 74.54, 19.96 62.4 M0.28 85.04 C6.46 77.93, 12.64 70.82, 19.96 62.4 M0.01 91.44 C7.99 82.26, 15.97 73.09, 20.35 68.04 M0.01 91.44 C4.71 86.04, 9.4 80.64, 20.35 68.04 M-0.25 97.84 C4.54 92.33, 9.32 86.83, 20.09 74.44 M-0.25 97.84 C5.08 91.71, 10.41 85.58, 20.09 74.44 M0.15 103.48 C4.45 98.53, 8.74 93.59, 19.83 80.84 M0.15 103.48 C4.9 98.02, 9.65 92.55, 19.83 80.84 M-0.11 109.88 C7.32 101.33, 14.75 92.78, 20.22 86.48 M-0.11 109.88 C5.26 103.7, 10.63 97.51, 20.22 86.48 M0.28 115.52 C7.36 107.37, 14.45 99.23, 19.96 92.88 M0.28 115.52 C6.08 108.85, 11.87 102.18, 19.96 92.88 M0.02 121.92 C4.88 116.32, 9.75 110.73, 20.36 98.52 M0.02 121.92 C7.55 113.25, 15.08 104.59, 20.36 98.52 M-0.24 128.32 C5.62 121.58, 11.47 114.84, 20.1 104.92 M-0.24 128.32 C4.04 123.39, 8.32 118.47, 20.1 104.92 M0.15 133.96 C6.7 126.43, 13.24 118.9, 19.83 111.32 M0.15 133.96 C4.49 128.96, 8.84 123.97, 19.83 111.32 M-0.11 140.36 C4.64 134.89, 9.4 129.42, 20.23 116.96 M-0.11 140.36 C5.99 133.35, 12.08 126.33, 20.23 116.96 M0.29 146 C7.79 137.37, 15.29 128.74, 19.97 123.36 M0.29 146 C5.13 140.43, 9.97 134.86, 19.97 123.36 M0.02 152.4 C7.9 143.34, 15.77 134.29, 20.36 129 M0.02 152.4 C7.42 143.89, 14.81 135.39, 20.36 129 M-0.24 158.8 C7.49 149.91, 15.21 141.02, 20.1 135.4 M-0.24 158.8 C5.21 152.53, 10.66 146.26, 20.1 135.4 M0.16 164.44 C6.02 157.7, 11.88 150.96, 19.84 141.8 M0.16 164.44 C5.94 157.79, 11.72 151.14, 19.84 141.8 M-0.1 170.84 C7.68 161.88, 15.46 152.93, 20.23 147.44 M-0.1 170.84 C5.97 163.85, 12.05 156.85, 20.23 147.44 M0.29 176.48 C5.69 170.26, 11.1 164.05, 19.97 153.84 M0.29 176.48 C5.66 170.31, 11.02 164.13, 19.97 153.84 M0.03 182.88 C6.2 175.77, 12.38 168.67, 20.37 159.48 M0.03 182.88 C6.97 174.89, 13.91 166.91, 20.37 159.48 M-0.23 189.27 C7.61 180.25, 15.46 171.22, 20.11 165.88 M-0.23 189.27 C7.37 180.53, 14.97 171.79, 20.11 165.88 M0.16 194.92 C6.37 187.78, 12.58 180.63, 19.84 172.28 M0.16 194.92 C7.81 186.12, 15.46 177.32, 19.84 172.28 M-0.1 201.32 C5.18 195.25, 10.45 189.18, 20.24 177.92 M-0.1 201.32 C7.23 192.89, 14.56 184.46, 20.24 177.92 M0.3 206.96 C5.23 201.29, 10.16 195.61, 19.98 184.32 M0.3 206.96 C4.72 201.86, 9.15 196.77, 19.98 184.32 M0.03 213.36 C5.77 206.76, 11.51 200.15, 20.37 189.96 M0.03 213.36 C5.87 206.64, 11.71 199.93, 20.37 189.96 M-0.23 219.75 C3.86 215.06, 7.94 210.36, 20.11 196.36 M-0.23 219.75 C4.35 214.49, 8.93 209.22, 20.11 196.36 M0.17 225.4 C4.12 220.86, 8.06 216.31, 19.85 202.76 M0.17 225.4 C6.04 218.64, 11.92 211.87, 19.85 202.76 M-0.09 231.8 C6.35 224.38, 12.8 216.96, 20.24 208.4 M-0.09 231.8 C7.11 223.51, 14.31 215.23, 20.24 208.4 M0.3 237.44 C6.61 230.18, 12.92 222.92, 19.98 214.8 M0.3 237.44 C4.84 232.21, 9.39 226.98, 19.98 214.8 M0.04 243.84 C4.31 238.92, 8.58 234.01, 20.38 220.44 M0.04 243.84 C7.52 235.23, 15.01 226.62, 20.38 220.44 M-0.22 250.23 C6.03 243.05, 12.27 235.86, 20.12 226.84 M-0.22 250.23 C4.05 245.32, 8.32 240.41, 20.12 226.84 M0.17 255.88 C7.05 247.96, 13.94 240.04, 19.85 233.24 M0.17 255.88 C4.37 251.05, 8.57 246.22, 19.85 233.24 M-0.09 262.27 C7.74 253.26, 15.57 244.25, 20.25 238.88 M-0.09 262.27 C5.05 256.36, 10.19 250.45, 20.25 238.88 M0.3 267.92 C5.52 261.92, 10.74 255.92, 19.99 245.28 M0.3 267.92 C4.78 262.78, 9.25 257.63, 19.99 245.28 M0.04 274.32 C6.92 266.4, 13.8 258.49, 20.38 250.92 M0.04 274.32 C5.46 268.08, 10.88 261.85, 20.38 250.92 M-0.22 280.71 C6.79 272.65, 13.8 264.58, 20.12 257.32 M-0.22 280.71 C6.64 272.82, 13.5 264.93, 20.12 257.32 M0.18 286.36 C6.27 279.34, 12.37 272.33, 19.86 263.72 M0.18 286.36 C5.09 280.71, 10 275.06, 19.86 263.72 M-0.08 292.75 C4.73 287.21, 9.55 281.67, 20.25 269.36 M-0.08 292.75 C5.25 286.62, 10.58 280.48, 20.25 269.36 M0.31 298.4 C4.29 293.81, 8.28 289.23, 19.99 275.76 M0.31 298.4 C6.03 291.82, 11.74 285.24, 19.99 275.76 M0.05 304.8 C5.11 298.97, 10.17 293.15, 20.39 281.4 M0.05 304.8 C6.37 297.52, 12.7 290.24, 20.39 281.4 M-0.21 311.19 C5.45 304.68, 11.11 298.16, 20.12 287.8 M-0.21 311.19 C7.29 302.57, 14.79 293.94, 20.12 287.8 M0.18 316.84 C7.02 308.97, 13.85 301.11, 19.86 294.19 M0.18 316.84 C7.72 308.16, 15.26 299.48, 19.86 294.19 M-0.08 323.23 C7.22 314.83, 14.53 306.43, 20.26 299.84 M-0.08 323.23 C7.13 314.94, 14.33 306.66, 20.26 299.84 M0.31 328.88 C7.37 320.76, 14.42 312.65, 20 306.24 M0.31 328.88 C7.58 320.52, 14.84 312.16, 20 306.24 M0.05 335.27 C4.63 330.01, 9.21 324.74, 20.39 311.88 M0.05 335.27 C4.28 330.42, 8.5 325.56, 20.39 311.88 M-0.21 341.67 C7.27 333.07, 14.75 324.47, 20.13 318.28 M-0.21 341.67 C6.9 333.49, 14.01 325.31, 20.13 318.28 M0.19 347.32 C4.46 342.4, 8.73 337.49, 19.87 324.67 M0.19 347.32 C7.67 338.71, 15.15 330.1, 19.87 324.67 M-0.08 353.71 C6.43 346.23, 12.94 338.74, 20.26 330.32 M-0.08 353.71 C7.98 344.44, 16.04 335.17, 20.26 330.32 M0.32 359.36 C4.92 354.06, 9.53 348.76, 20 336.71 M0.32 359.36 C4.52 354.52, 8.72 349.69, 20 336.71 M0.06 365.75 C4.52 360.62, 8.99 355.48, 20.4 342.36 M0.06 365.75 C7.61 357.07, 15.16 348.38, 20.4 342.36 M3.08 368.38 C8.79 361.8, 14.51 355.22, 20.13 348.76 M3.08 368.38 C8.88 361.7, 14.68 355.03, 20.13 348.76 M8.06 368.74 C11.96 364.25, 15.86 359.77, 19.87 355.15 M8.06 368.74 C11.93 364.29, 15.8 359.84, 19.87 355.15 M13.71 368.34 C15.93 365.79, 18.15 363.23, 20.27 360.8 M13.71 368.34 C15.57 366.2, 17.43 364.07, 20.27 360.8" stroke="#ced4da" stroke-width="0.5" fill="none"></path><path d="M0 0 C6.27 0, 12.55 0, 18.7 0 M0 0 C7.29 0, 14.58 0, 18.7 0 M18.7 0 C18.7 90.54, 18.7 181.08, 18.7 366.21 M18.7 0 C18.7 82.34, 18.7 164.68, 18.7 366.21 M18.7 366.21 C12.07 366.21, 5.45 366.21, 0 366.21 M18.7 366.21 C14.38 366.21, 10.06 366.21, 0 366.21 M0 366.21 C0 236.66, 0 107.11, 0 0 M0 366.21 C0 221.16, 0 76.12, 0 0" stroke="#ffffff" stroke-width="1" fill="none"></path></g><g stroke-linecap="round" transform="translate(753.8941650390625 82.39431762695312) rotate(0 8.8846435546875 184.48135375976562)"><path d="M0 0 C0 0, 0 0, 0 0 M0 0 C0 0, 0 0, 0 0 M-0.26 6.4 C0.92 5.03, 2.11 3.67, 4.99 0.36 M-0.26 6.4 C1.5 4.38, 3.25 2.36, 4.99 0.36 M0.13 12.04 C2.66 9.14, 5.18 6.23, 10.63 -0.03 M0.13 12.04 C2.26 9.59, 4.39 7.14, 10.63 -0.03 M-0.13 18.44 C3.4 14.38, 6.93 10.32, 15.62 0.33 M-0.13 18.44 C5.42 12.05, 10.98 5.66, 15.62 0.33 M0.27 24.08 C7.25 16.04, 14.24 8.01, 19.95 1.44 M0.27 24.08 C7.96 15.23, 15.66 6.38, 19.95 1.44 M0 30.48 C5.71 23.92, 11.42 17.35, 19.69 7.84 M0 30.48 C5.4 24.28, 10.79 18.08, 19.69 7.84 M-0.26 36.88 C4.82 31.03, 9.9 25.19, 19.43 14.24 M-0.26 36.88 C5.91 29.78, 12.07 22.69, 19.43 14.24 M0.14 42.52 C7.13 34.47, 14.13 26.43, 19.82 19.88 M0.14 42.52 C7.67 33.86, 15.2 25.19, 19.82 19.88 M-0.12 48.92 C4.54 43.55, 9.21 38.18, 19.56 26.28 M-0.12 48.92 C6.25 41.58, 12.63 34.25, 19.56 26.28 M0.27 54.56 C4.45 49.75, 8.64 44.94, 19.95 31.92 M0.27 54.56 C7.23 46.56, 14.19 38.55, 19.95 31.92 M0.01 60.96 C6.67 53.3, 13.33 45.64, 19.69 38.32 M0.01 60.96 C5.29 54.89, 10.56 48.82, 19.69 38.32 M-0.25 67.36 C5.9 60.28, 12.04 53.21, 19.43 44.72 M-0.25 67.36 C4.7 61.66, 9.66 55.96, 19.43 44.72 M0.14 73 C7.38 64.68, 14.61 56.36, 19.82 50.36 M0.14 73 C5.68 66.63, 11.22 60.26, 19.82 50.36 M-0.12 79.4 C7.07 71.12, 14.27 62.85, 19.56 56.76 M-0.12 79.4 C6.44 71.85, 13 64.31, 19.56 56.76 M0.28 85.04 C5.99 78.47, 11.69 71.91, 19.96 62.4 M0.28 85.04 C7.95 76.22, 15.62 67.39, 19.96 62.4 M0.01 91.44 C6.74 83.7, 13.46 75.97, 19.7 68.8 M0.01 91.44 C4.83 85.9, 9.65 80.36, 19.7 68.8 M-0.25 97.84 C4.29 92.62, 8.82 87.4, 19.43 75.19 M-0.25 97.84 C5.86 90.81, 11.97 83.79, 19.43 75.19 M0.15 103.48 C5.47 97.36, 10.78 91.24, 19.83 80.84 M0.15 103.48 C4.54 98.43, 8.93 93.38, 19.83 80.84 M-0.11 109.88 C5.25 103.71, 10.61 97.54, 19.57 87.24 M-0.11 109.88 C4.81 104.21, 9.74 98.54, 19.57 87.24 M0.28 115.52 C5 110.09, 9.72 104.67, 19.96 92.88 M0.28 115.52 C6.11 108.81, 11.94 102.11, 19.96 92.88 M0.02 121.92 C5.13 116.04, 10.24 110.16, 19.7 99.28 M0.02 121.92 C6.08 114.94, 12.15 107.97, 19.7 99.28 M-0.24 128.32 C7.6 119.3, 15.43 110.28, 19.44 105.67 M-0.24 128.32 C5.32 121.92, 10.88 115.52, 19.44 105.67 M0.15 133.96 C7.91 125.03, 15.68 116.1, 19.83 111.32 M0.15 133.96 C5.51 127.8, 10.87 121.63, 19.83 111.32 M-0.11 140.36 C6.84 132.36, 13.79 124.37, 19.57 117.72 M-0.11 140.36 C7.59 131.5, 15.29 122.64, 19.57 117.72 M0.29 146 C4.99 140.59, 9.7 135.18, 19.97 123.36 M0.29 146 C4.65 140.97, 9.02 135.95, 19.97 123.36 M0.02 152.4 C7.33 144, 14.63 135.6, 19.71 129.76 M0.02 152.4 C4.39 147.38, 8.75 142.36, 19.71 129.76 M-0.24 158.8 C5.96 151.67, 12.16 144.53, 19.44 136.15 M-0.24 158.8 C6.21 151.38, 12.65 143.97, 19.44 136.15 M0.16 164.44 C7.6 155.88, 15.04 147.32, 19.84 141.8 M0.16 164.44 C7.33 156.19, 14.49 147.95, 19.84 141.8 M-0.1 170.84 C5.86 163.98, 11.82 157.12, 19.58 148.19 M-0.1 170.84 C4.8 165.19, 9.71 159.55, 19.58 148.19 M0.29 176.48 C7.38 168.33, 14.46 160.18, 19.97 153.84 M0.29 176.48 C8.16 167.43, 16.03 158.37, 19.97 153.84 M0.03 182.88 C4.81 177.38, 9.59 171.87, 19.71 160.24 M0.03 182.88 C6.69 175.21, 13.36 167.54, 19.71 160.24 M-0.23 189.27 C6.88 181.09, 14 172.91, 19.45 166.63 M-0.23 189.27 C5.68 182.48, 11.58 175.68, 19.45 166.63 M0.16 194.92 C6.75 187.33, 13.35 179.75, 19.84 172.28 M0.16 194.92 C4.83 189.55, 9.5 184.17, 19.84 172.28 M-0.1 201.32 C5.54 194.82, 11.19 188.33, 19.58 178.67 M-0.1 201.32 C4.37 196.17, 8.84 191.03, 19.58 178.67 M0.3 206.96 C6.94 199.31, 13.59 191.67, 19.98 184.32 M0.3 206.96 C5.76 200.67, 11.23 194.38, 19.98 184.32 M0.03 213.36 C5.93 206.58, 11.82 199.79, 19.72 190.72 M0.03 213.36 C6.6 205.8, 13.17 198.24, 19.72 190.72 M-0.23 219.75 C7.04 211.39, 14.31 203.03, 19.45 197.11 M-0.23 219.75 C5.35 213.34, 10.92 206.93, 19.45 197.11 M0.17 225.4 C4.55 220.35, 8.93 215.31, 19.85 202.76 M0.17 225.4 C7.32 217.17, 14.47 208.94, 19.85 202.76 M-0.09 231.8 C5.96 224.83, 12.02 217.86, 19.59 209.15 M-0.09 231.8 C7.13 223.48, 14.36 215.17, 19.59 209.15 M0.3 237.44 C6.97 229.77, 13.63 222.1, 19.98 214.8 M0.3 237.44 C5.22 231.78, 10.14 226.12, 19.98 214.8 M0.04 243.84 C7.71 235.01, 15.39 226.18, 19.72 221.19 M0.04 243.84 C6.62 236.27, 13.2 228.7, 19.72 221.19 M-0.22 250.23 C7.44 241.42, 15.1 232.6, 19.46 227.59 M-0.22 250.23 C6.04 243.03, 12.3 235.83, 19.46 227.59 M0.17 255.88 C4.35 251.07, 8.53 246.26, 19.85 233.24 M0.17 255.88 C5.67 249.55, 11.17 243.23, 19.85 233.24 M-0.09 262.27 C7.3 253.77, 14.7 245.26, 19.59 239.63 M-0.09 262.27 C5.48 255.86, 11.06 249.45, 19.59 239.63 M0.3 267.92 C6.82 260.43, 13.33 252.94, 19.99 245.28 M0.3 267.92 C7.94 259.14, 15.57 250.36, 19.99 245.28 M0.04 274.32 C7.09 266.21, 14.14 258.09, 19.73 251.67 M0.04 274.32 C4.99 268.63, 9.93 262.95, 19.73 251.67 M-0.22 280.71 C4.91 274.81, 10.04 268.92, 19.46 258.07 M-0.22 280.71 C6.4 273.1, 13.02 265.49, 19.46 258.07 M0.18 286.36 C5.23 280.54, 10.29 274.73, 19.86 263.72 M0.18 286.36 C6.44 279.15, 12.71 271.94, 19.86 263.72 M-0.08 292.75 C5.35 286.51, 10.78 280.26, 19.6 270.11 M-0.08 292.75 C5.65 286.16, 11.37 279.57, 19.6 270.11 M0.31 298.4 C5.24 292.72, 10.18 287.04, 19.99 275.76 M0.31 298.4 C7.64 289.97, 14.96 281.54, 19.99 275.76 M0.05 304.8 C4.2 300.01, 8.36 295.23, 19.73 282.15 M0.05 304.8 C6.15 297.77, 12.26 290.75, 19.73 282.15 M-0.21 311.19 C7.24 302.62, 14.69 294.05, 19.47 288.55 M-0.21 311.19 C5.5 304.62, 11.22 298.04, 19.47 288.55 M0.18 316.84 C5.29 310.96, 10.39 305.09, 19.86 294.19 M0.18 316.84 C6.9 309.11, 13.62 301.38, 19.86 294.19 M-0.08 323.23 C6.58 315.57, 13.24 307.91, 19.6 300.59 M-0.08 323.23 C6.64 315.51, 13.35 307.78, 19.6 300.59 M0.31 328.88 C7.66 320.43, 15.01 311.98, 20 306.24 M0.31 328.88 C4.71 323.82, 9.11 318.76, 20 306.24 M0.05 335.27 C5.71 328.77, 11.37 322.26, 19.73 312.63 M0.05 335.27 C7.61 326.58, 15.16 317.89, 19.73 312.63 M-0.21 341.67 C5 335.68, 10.22 329.68, 19.47 319.03 M-0.21 341.67 C5.42 335.2, 11.05 328.73, 19.47 319.03 M0.19 347.32 C4.96 341.82, 9.74 336.33, 19.87 324.67 M0.19 347.32 C5.46 341.25, 10.73 335.19, 19.87 324.67 M-0.08 353.71 C3.97 349.06, 8.02 344.4, 19.61 331.07 M-0.08 353.71 C6.78 345.82, 13.64 337.93, 19.61 331.07 M0.32 359.36 C5.83 353.02, 11.34 346.68, 20 336.71 M0.32 359.36 C4.92 354.07, 9.51 348.78, 20 336.71 M0.06 365.75 C4.52 360.62, 8.98 355.49, 19.74 343.11 M0.06 365.75 C6.39 358.46, 12.73 351.18, 19.74 343.11 M1.76 369.89 C7.7 363.06, 13.64 356.23, 19.48 349.51 M1.76 369.89 C7.29 363.53, 12.81 357.18, 19.48 349.51 M6.75 370.25 C10.92 365.45, 15.09 360.66, 19.87 355.15 M6.75 370.25 C9.47 367.12, 12.19 363.99, 19.87 355.15 M11.74 370.61 C13.33 368.77, 14.93 366.94, 19.61 361.55 M11.74 370.61 C14.29 367.67, 16.85 364.73, 19.61 361.55" stroke="#ced4da" stroke-width="0.5" fill="none"></path><path d="M0 0 C6.22 0, 12.44 0, 17.77 0 M0 0 C4.6 0, 9.2 0, 17.77 0 M17.77 0 C17.77 147.43, 17.77 294.86, 17.77 368.96 M17.77 0 C17.77 83.51, 17.77 167.01, 17.77 368.96 M17.77 368.96 C13.74 368.96, 9.71 368.96, 0 368.96 M17.77 368.96 C13.07 368.96, 8.37 368.96, 0 368.96 M0 368.96 C0 286.91, 0 204.86, 0 0 M0 368.96 C0 248.33, 0 127.7, 0 0" stroke="#ffffff" stroke-width="1" fill="none"></path></g><g stroke-linecap="round" transform="translate(15.33489990234375 115.689697265625) rotate(0 21.04638671875 20.167144775390625)"><path d="M42.09 20.17 C42.09 21.33, 41.98 22.52, 41.77 23.67 C41.56 24.82, 41.24 25.97, 40.82 27.06 C40.41 28.16, 39.88 29.24, 39.27 30.25 C38.66 31.26, 37.95 32.24, 37.17 33.13 C36.39 34.02, 35.51 34.87, 34.57 35.62 C33.64 36.37, 32.62 37.05, 31.57 37.63 C30.51 38.22, 29.39 38.72, 28.24 39.12 C27.1 39.52, 25.9 39.83, 24.7 40.03 C23.5 40.23, 22.26 40.33, 21.05 40.33 C19.83 40.33, 18.59 40.23, 17.39 40.03 C16.19 39.83, 14.99 39.52, 13.85 39.12 C12.7 38.72, 11.58 38.22, 10.52 37.63 C9.47 37.05, 8.45 36.37, 7.52 35.62 C6.58 34.87, 5.71 34.02, 4.92 33.13 C4.14 32.24, 3.43 31.26, 2.82 30.25 C2.21 29.24, 1.69 28.16, 1.27 27.06 C0.85 25.97, 0.53 24.82, 0.32 23.67 C0.11 22.52, 0 21.33, 0 20.17 C0 19, 0.11 17.81, 0.32 16.67 C0.53 15.52, 0.85 14.37, 1.27 13.27 C1.69 12.17, 2.21 11.09, 2.82 10.08 C3.43 9.07, 4.14 8.1, 4.92 7.2 C5.71 6.31, 6.58 5.47, 7.52 4.72 C8.45 3.97, 9.47 3.29, 10.52 2.7 C11.58 2.12, 12.7 1.62, 13.85 1.22 C14.99 0.82, 16.19 0.51, 17.39 0.31 C18.59 0.1, 19.83 0, 21.05 0 C22.26 0, 23.5 0.1, 24.7 0.31 C25.9 0.51, 27.1 0.82, 28.24 1.22 C29.39 1.62, 30.51 2.12, 31.57 2.7 C32.62 3.29, 33.64 3.97, 34.57 4.72 C35.51 5.47, 36.39 6.31, 37.17 7.2 C37.95 8.1, 38.66 9.07, 39.27 10.08 C39.88 11.09, 40.41 12.17, 40.82 13.27 C41.24 14.37, 41.56 15.52, 41.77 16.67 C41.98 17.81, 42.04 19.58, 42.09 20.17 C42.15 20.75, 42.15 19.58, 42.09 20.17" stroke="none" stroke-width="0" fill="#ffffff"></path><path d="M42.09 20.17 C42.09 21.33, 41.98 22.52, 41.77 23.67 C41.56 24.82, 41.24 25.97, 40.82 27.06 C40.41 28.16, 39.88 29.24, 39.27 30.25 C38.66 31.26, 37.95 32.24, 37.17 33.13 C36.39 34.02, 35.51 34.87, 34.57 35.62 C33.64 36.37, 32.62 37.05, 31.57 37.63 C30.51 38.22, 29.39 38.72, 28.24 39.12 C27.1 39.52, 25.9 39.83, 24.7 40.03 C23.5 40.23, 22.26 40.33, 21.05 40.33 C19.83 40.33, 18.59 40.23, 17.39 40.03 C16.19 39.83, 14.99 39.52, 13.85 39.12 C12.7 38.72, 11.58 38.22, 10.52 37.63 C9.47 37.05, 8.45 36.37, 7.52 35.62 C6.58 34.87, 5.71 34.02, 4.92 33.13 C4.14 32.24, 3.43 31.26, 2.82 30.25 C2.21 29.24, 1.69 28.16, 1.27 27.06 C0.85 25.97, 0.53 24.82, 0.32 23.67 C0.11 22.52, 0 21.33, 0 20.17 C0 19, 0.11 17.81, 0.32 16.67 C0.53 15.52, 0.85 14.37, 1.27 13.27 C1.69 12.17, 2.21 11.09, 2.82 10.08 C3.43 9.07, 4.14 8.1, 4.92 7.2 C5.71 6.31, 6.58 5.47, 7.52 4.72 C8.45 3.97, 9.47 3.29, 10.52 2.7 C11.58 2.12, 12.7 1.62, 13.85 1.22 C14.99 0.82, 16.19 0.51, 17.39 0.31 C18.59 0.1, 19.83 0, 21.05 0 C22.26 0, 23.5 0.1, 24.7 0.31 C25.9 0.51, 27.1 0.82, 28.24 1.22 C29.39 1.62, 30.51 2.12, 31.57 2.7 C32.62 3.29, 33.64 3.97, 34.57 4.72 C35.51 5.47, 36.39 6.31, 37.17 7.2 C37.95 8.1, 38.66 9.07, 39.27 10.08 C39.88 11.09, 40.41 12.17, 40.82 13.27 C41.24 14.37, 41.56 15.52, 41.77 16.67 C41.98 17.81, 42.04 19.58, 42.09 20.17 C42.15 20.75, 42.15 19.58, 42.09 20.17" stroke="#343a40" stroke-width="2" fill="none"></path></g><g transform="translate(20.33489990234375 124.35684204101562) rotate(0 16 11.5)"><text x="16" y="18" font-family="Helvetica, Segoe UI Emoji" font-size="20px" fill="#343a40" text-anchor="middle" style="white-space: pre;" direction="ltr">1</text></g><g stroke-linecap="round" transform="translate(16.83512369791663 261.89714558919275) rotate(0 21.04638671875 20.167144775390625)"><path d="M42.09 20.17 C42.09 21.33, 41.98 22.52, 41.77 23.67 C41.56 24.82, 41.24 25.97, 40.82 27.06 C40.41 28.16, 39.88 29.24, 39.27 30.25 C38.66 31.26, 37.95 32.24, 37.17 33.13 C36.39 34.02, 35.51 34.87, 34.57 35.62 C33.64 36.37, 32.62 37.05, 31.57 37.63 C30.51 38.22, 29.39 38.72, 28.24 39.12 C27.1 39.52, 25.9 39.83, 24.7 40.03 C23.5 40.23, 22.26 40.33, 21.05 40.33 C19.83 40.33, 18.59 40.23, 17.39 40.03 C16.19 39.83, 14.99 39.52, 13.85 39.12 C12.7 38.72, 11.58 38.22, 10.52 37.63 C9.47 37.05, 8.45 36.37, 7.52 35.62 C6.58 34.87, 5.71 34.02, 4.92 33.13 C4.14 32.24, 3.43 31.26, 2.82 30.25 C2.21 29.24, 1.69 28.16, 1.27 27.06 C0.85 25.97, 0.53 24.82, 0.32 23.67 C0.11 22.52, 0 21.33, 0 20.17 C0 19, 0.11 17.81, 0.32 16.67 C0.53 15.52, 0.85 14.37, 1.27 13.27 C1.69 12.17, 2.21 11.09, 2.82 10.08 C3.43 9.07, 4.14 8.1, 4.92 7.2 C5.71 6.31, 6.58 5.47, 7.52 4.72 C8.45 3.97, 9.47 3.29, 10.52 2.7 C11.58 2.12, 12.7 1.62, 13.85 1.22 C14.99 0.82, 16.19 0.51, 17.39 0.31 C18.59 0.1, 19.83 0, 21.05 0 C22.26 0, 23.5 0.1, 24.7 0.31 C25.9 0.51, 27.1 0.82, 28.24 1.22 C29.39 1.62, 30.51 2.12, 31.57 2.7 C32.62 3.29, 33.64 3.97, 34.57 4.72 C35.51 5.47, 36.39 6.31, 37.17 7.2 C37.95 8.1, 38.66 9.07, 39.27 10.08 C39.88 11.09, 40.41 12.17, 40.82 13.27 C41.24 14.37, 41.56 15.52, 41.77 16.67 C41.98 17.81, 42.04 19.58, 42.09 20.17 C42.15 20.75, 42.15 19.58, 42.09 20.17" stroke="none" stroke-width="0" fill="#ffffff"></path><path d="M42.09 20.17 C42.09 21.33, 41.98 22.52, 41.77 23.67 C41.56 24.82, 41.24 25.97, 40.82 27.06 C40.41 28.16, 39.88 29.24, 39.27 30.25 C38.66 31.26, 37.95 32.24, 37.17 33.13 C36.39 34.02, 35.51 34.87, 34.57 35.62 C33.64 36.37, 32.62 37.05, 31.57 37.63 C30.51 38.22, 29.39 38.72, 28.24 39.12 C27.1 39.52, 25.9 39.83, 24.7 40.03 C23.5 40.23, 22.26 40.33, 21.05 40.33 C19.83 40.33, 18.59 40.23, 17.39 40.03 C16.19 39.83, 14.99 39.52, 13.85 39.12 C12.7 38.72, 11.58 38.22, 10.52 37.63 C9.47 37.05, 8.45 36.37, 7.52 35.62 C6.58 34.87, 5.71 34.02, 4.92 33.13 C4.14 32.24, 3.43 31.26, 2.82 30.25 C2.21 29.24, 1.69 28.16, 1.27 27.06 C0.85 25.97, 0.53 24.82, 0.32 23.67 C0.11 22.52, 0 21.33, 0 20.17 C0 19, 0.11 17.81, 0.32 16.67 C0.53 15.52, 0.85 14.37, 1.27 13.27 C1.69 12.17, 2.21 11.09, 2.82 10.08 C3.43 9.07, 4.14 8.1, 4.92 7.2 C5.71 6.31, 6.58 5.47, 7.52 4.72 C8.45 3.97, 9.47 3.29, 10.52 2.7 C11.58 2.12, 12.7 1.62, 13.85 1.22 C14.99 0.82, 16.19 0.51, 17.39 0.31 C18.59 0.1, 19.83 0, 21.05 0 C22.26 0, 23.5 0.1, 24.7 0.31 C25.9 0.51, 27.1 0.82, 28.24 1.22 C29.39 1.62, 30.51 2.12, 31.57 2.7 C32.62 3.29, 33.64 3.97, 34.57 4.72 C35.51 5.47, 36.39 6.31, 37.17 7.2 C37.95 8.1, 38.66 9.07, 39.27 10.08 C39.88 11.09, 40.41 12.17, 40.82 13.27 C41.24 14.37, 41.56 15.52, 41.77 16.67 C41.98 17.81, 42.04 19.58, 42.09 20.17 C42.15 20.75, 42.15 19.58, 42.09 20.17" stroke="#343a40" stroke-width="2" fill="none"></path></g><g transform="translate(21.83512369791663 270.56429036458337) rotate(0 16 11.5)"><text x="16" y="18" font-family="Helvetica, Segoe UI Emoji" font-size="20px" fill="#343a40" text-anchor="middle" style="white-space: pre;" direction="ltr">2</text></g><g stroke-linecap="round" transform="translate(16.9619140625 387.70606486002606) rotate(0 21.04638671875 20.167144775390625)"><path d="M42.09 20.17 C42.09 21.33, 41.98 22.52, 41.77 23.67 C41.56 24.82, 41.24 25.97, 40.82 27.06 C40.41 28.16, 39.88 29.24, 39.27 30.25 C38.66 31.26, 37.95 32.24, 37.17 33.13 C36.39 34.02, 35.51 34.87, 34.57 35.62 C33.64 36.37, 32.62 37.05, 31.57 37.63 C30.51 38.22, 29.39 38.72, 28.24 39.12 C27.1 39.52, 25.9 39.83, 24.7 40.03 C23.5 40.23, 22.26 40.33, 21.05 40.33 C19.83 40.33, 18.59 40.23, 17.39 40.03 C16.19 39.83, 14.99 39.52, 13.85 39.12 C12.7 38.72, 11.58 38.22, 10.52 37.63 C9.47 37.05, 8.45 36.37, 7.52 35.62 C6.58 34.87, 5.71 34.02, 4.92 33.13 C4.14 32.24, 3.43 31.26, 2.82 30.25 C2.21 29.24, 1.69 28.16, 1.27 27.06 C0.85 25.97, 0.53 24.82, 0.32 23.67 C0.11 22.52, 0 21.33, 0 20.17 C0 19, 0.11 17.81, 0.32 16.67 C0.53 15.52, 0.85 14.37, 1.27 13.27 C1.69 12.17, 2.21 11.09, 2.82 10.08 C3.43 9.07, 4.14 8.1, 4.92 7.2 C5.71 6.31, 6.58 5.47, 7.52 4.72 C8.45 3.97, 9.47 3.29, 10.52 2.7 C11.58 2.12, 12.7 1.62, 13.85 1.22 C14.99 0.82, 16.19 0.51, 17.39 0.31 C18.59 0.1, 19.83 0, 21.05 0 C22.26 0, 23.5 0.1, 24.7 0.31 C25.9 0.51, 27.1 0.82, 28.24 1.22 C29.39 1.62, 30.51 2.12, 31.57 2.7 C32.62 3.29, 33.64 3.97, 34.57 4.72 C35.51 5.47, 36.39 6.31, 37.17 7.2 C37.95 8.1, 38.66 9.07, 39.27 10.08 C39.88 11.09, 40.41 12.17, 40.82 13.27 C41.24 14.37, 41.56 15.52, 41.77 16.67 C41.98 17.81, 42.04 19.58, 42.09 20.17 C42.15 20.75, 42.15 19.58, 42.09 20.17" stroke="none" stroke-width="0" fill="#ffffff"></path><path d="M42.09 20.17 C42.09 21.33, 41.98 22.52, 41.77 23.67 C41.56 24.82, 41.24 25.97, 40.82 27.06 C40.41 28.16, 39.88 29.24, 39.27 30.25 C38.66 31.26, 37.95 32.24, 37.17 33.13 C36.39 34.02, 35.51 34.87, 34.57 35.62 C33.64 36.37, 32.62 37.05, 31.57 37.63 C30.51 38.22, 29.39 38.72, 28.24 39.12 C27.1 39.52, 25.9 39.83, 24.7 40.03 C23.5 40.23, 22.26 40.33, 21.05 40.33 C19.83 40.33, 18.59 40.23, 17.39 40.03 C16.19 39.83, 14.99 39.52, 13.85 39.12 C12.7 38.72, 11.58 38.22, 10.52 37.63 C9.47 37.05, 8.45 36.37, 7.52 35.62 C6.58 34.87, 5.71 34.02, 4.92 33.13 C4.14 32.24, 3.43 31.26, 2.82 30.25 C2.21 29.24, 1.69 28.16, 1.27 27.06 C0.85 25.97, 0.53 24.82, 0.32 23.67 C0.11 22.52, 0 21.33, 0 20.17 C0 19, 0.11 17.81, 0.32 16.67 C0.53 15.52, 0.85 14.37, 1.27 13.27 C1.69 12.17, 2.21 11.09, 2.82 10.08 C3.43 9.07, 4.14 8.1, 4.92 7.2 C5.71 6.31, 6.58 5.47, 7.52 4.72 C8.45 3.97, 9.47 3.29, 10.52 2.7 C11.58 2.12, 12.7 1.62, 13.85 1.22 C14.99 0.82, 16.19 0.51, 17.39 0.31 C18.59 0.1, 19.83 0, 21.05 0 C22.26 0, 23.5 0.1, 24.7 0.31 C25.9 0.51, 27.1 0.82, 28.24 1.22 C29.39 1.62, 30.51 2.12, 31.57 2.7 C32.62 3.29, 33.64 3.97, 34.57 4.72 C35.51 5.47, 36.39 6.31, 37.17 7.2 C37.95 8.1, 38.66 9.07, 39.27 10.08 C39.88 11.09, 40.41 12.17, 40.82 13.27 C41.24 14.37, 41.56 15.52, 41.77 16.67 C41.98 17.81, 42.04 19.58, 42.09 20.17 C42.15 20.75, 42.15 19.58, 42.09 20.17" stroke="#343a40" stroke-width="2" fill="none"></path></g><g transform="translate(21.9619140625 396.3732096354167) rotate(0 16 11.5)"><text x="16" y="18" font-family="Helvetica, Segoe UI Emoji" font-size="20px" fill="#343a40" text-anchor="middle" style="white-space: pre;" direction="ltr">3</text></g><g stroke-linecap="round"><g transform="translate(105.5292155293562 115.77874632487726) rotate(0 91.36342363080007 0.20147828449773897)"><path d="M0 0 C30.45 0.07, 152.27 0.34, 182.73 0.4 M0 0 C30.45 0.07, 152.27 0.34, 182.73 0.4" stroke="#495057" stroke-width="1" fill="none"></path></g><g transform="translate(105.5292155293562 115.77874632487726) rotate(0 91.36342363080007 0.20147828449773897)"><path d="M8 0 C8 0.46, 7.96 0.93, 7.88 1.39 C7.8 1.85, 7.68 2.3, 7.52 2.74 C7.36 3.17, 7.16 3.6, 6.93 4 C6.7 4.4, 6.43 4.79, 6.13 5.14 C5.83 5.5, 5.5 5.83, 5.14 6.13 C4.79 6.43, 4.4 6.7, 4 6.93 C3.6 7.16, 3.17 7.36, 2.74 7.52 C2.3 7.68, 1.85 7.8, 1.39 7.88 C0.93 7.96, 0.46 8, 0 8 C-0.46 8, -0.93 7.96, -1.39 7.88 C-1.85 7.8, -2.3 7.68, -2.74 7.52 C-3.17 7.36, -3.6 7.16, -4 6.93 C-4.4 6.7, -4.79 6.43, -5.14 6.13 C-5.5 5.83, -5.83 5.5, -6.13 5.14 C-6.43 4.79, -6.7 4.4, -6.93 4 C-7.16 3.6, -7.36 3.17, -7.52 2.74 C-7.68 2.3, -7.8 1.85, -7.88 1.39 C-7.96 0.93, -8 0.46, -8 0 C-8 -0.46, -7.96 -0.93, -7.88 -1.39 C-7.8 -1.85, -7.68 -2.3, -7.52 -2.74 C-7.36 -3.17, -7.16 -3.6, -6.93 -4 C-6.7 -4.4, -6.43 -4.79, -6.13 -5.14 C-5.83 -5.5, -5.5 -5.83, -5.14 -6.13 C-4.79 -6.43, -4.4 -6.7, -4 -6.93 C-3.6 -7.16, -3.17 -7.36, -2.74 -7.52 C-2.3 -7.68, -1.85 -7.8, -1.39 -7.88 C-0.93 -7.96, -0.46 -8, 0 -8 C0.46 -8, 0.93 -7.96, 1.39 -7.88 C1.85 -7.8, 2.3 -7.68, 2.74 -7.52 C3.17 -7.36, 3.6 -7.16, 4 -6.93 C4.4 -6.7, 4.79 -6.43, 5.14 -6.13 C5.5 -5.83, 5.83 -5.5, 6.13 -5.14 C6.43 -4.79, 6.7 -4.4, 6.93 -4 C7.16 -3.6, 7.36 -3.17, 7.52 -2.74 C7.68 -2.3, 7.8 -1.85, 7.88 -1.39 C7.96 -0.93, 7.98 -0.23, 8 0 C8.02 0.23, 8.02 -0.23, 8 0" stroke="none" stroke-width="0" fill="#495057"></path></g><g transform="translate(105.5292155293562 115.77874632487726) rotate(0 91.36342363080007 0.20147828449773897)"><path d="M182.73 0.4 L169.12 6.71 L169.15 -5.97 L182.73 0.4" stroke="none" stroke-width="0" fill="#495057" fill-rule="evenodd"></path><path d="M182.73 0.4 C178.2 2.5, 173.68 4.6, 169.12 6.71 M182.73 0.4 C178.06 2.57, 173.4 4.73, 169.12 6.71 M169.12 6.71 C169.12 3.8, 169.13 0.89, 169.15 -5.97 M169.12 6.71 C169.12 4.07, 169.13 1.43, 169.15 -5.97 M169.15 -5.97 C171.98 -4.64, 174.82 -3.31, 182.73 0.4 M169.15 -5.97 C172.21 -4.53, 175.28 -3.09, 182.73 0.4 M182.73 0.4 C182.73 0.4, 182.73 0.4, 182.73 0.4 M182.73 0.4 C182.73 0.4, 182.73 0.4, 182.73 0.4" stroke="#495057" stroke-width="1" fill="none"></path></g></g><g stroke-linecap="round"><g transform="translate(280.3538487572023 159.22646968478574) rotate(0 -89.93343860095234 -0.0076586496295121265)"><path d="M0 0 C-29.98 0, -149.89 -0.01, -179.87 -0.02 M0 0 C-29.98 0, -149.89 -0.01, -179.87 -0.02" stroke="#495057" stroke-width="1" fill="none"></path></g><g transform="translate(280.3538487572023 159.22646968478574) rotate(0 -89.93343860095234 -0.0076586496295121265)"><path d="M8 0 C8 0.46, 7.96 0.93, 7.88 1.39 C7.8 1.85, 7.68 2.3, 7.52 2.74 C7.36 3.17, 7.16 3.6, 6.93 4 C6.7 4.4, 6.43 4.79, 6.13 5.14 C5.83 5.5, 5.5 5.83, 5.14 6.13 C4.79 6.43, 4.4 6.7, 4 6.93 C3.6 7.16, 3.17 7.36, 2.74 7.52 C2.3 7.68, 1.85 7.8, 1.39 7.88 C0.93 7.96, 0.46 8, 0 8 C-0.46 8, -0.93 7.96, -1.39 7.88 C-1.85 7.8, -2.3 7.68, -2.74 7.52 C-3.17 7.36, -3.6 7.16, -4 6.93 C-4.4 6.7, -4.79 6.43, -5.14 6.13 C-5.5 5.83, -5.83 5.5, -6.13 5.14 C-6.43 4.79, -6.7 4.4, -6.93 4 C-7.16 3.6, -7.36 3.17, -7.52 2.74 C-7.68 2.3, -7.8 1.85, -7.88 1.39 C-7.96 0.93, -8 0.46, -8 0 C-8 -0.46, -7.96 -0.93, -7.88 -1.39 C-7.8 -1.85, -7.68 -2.3, -7.52 -2.74 C-7.36 -3.17, -7.16 -3.6, -6.93 -4 C-6.7 -4.4, -6.43 -4.79, -6.13 -5.14 C-5.83 -5.5, -5.5 -5.83, -5.14 -6.13 C-4.79 -6.43, -4.4 -6.7, -4 -6.93 C-3.6 -7.16, -3.17 -7.36, -2.74 -7.52 C-2.3 -7.68, -1.85 -7.8, -1.39 -7.88 C-0.93 -7.96, -0.46 -8, 0 -8 C0.46 -8, 0.93 -7.96, 1.39 -7.88 C1.85 -7.8, 2.3 -7.68, 2.74 -7.52 C3.17 -7.36, 3.6 -7.16, 4 -6.93 C4.4 -6.7, 4.79 -6.43, 5.14 -6.13 C5.5 -5.83, 5.83 -5.5, 6.13 -5.14 C6.43 -4.79, 6.7 -4.4, 6.93 -4 C7.16 -3.6, 7.36 -3.17, 7.52 -2.74 C7.68 -2.3, 7.8 -1.85, 7.88 -1.39 C7.96 -0.93, 7.98 -0.23, 8 0 C8.02 0.23, 8.02 -0.23, 8 0" stroke="none" stroke-width="0" fill="#495057"></path></g><g transform="translate(280.3538487572023 159.22646968478574) rotate(0 -89.93343860095234 -0.0076586496295121265)"><path d="M-179.87 -0.02 L-166.27 -6.35 L-166.27 6.33 L-179.87 -0.02" stroke="none" stroke-width="0" fill="#495057" fill-rule="evenodd"></path><path d="M-179.87 -0.02 C-174.72 -2.42, -169.57 -4.82, -166.27 -6.35 M-179.87 -0.02 C-174.79 -2.38, -169.71 -4.75, -166.27 -6.35 M-166.27 -6.35 C-166.27 -2.38, -166.27 1.59, -166.27 6.33 M-166.27 -6.35 C-166.27 -1.66, -166.27 3.04, -166.27 6.33 M-166.27 6.33 C-169.03 5.04, -171.79 3.75, -179.87 -0.02 M-166.27 6.33 C-169.97 4.6, -173.68 2.87, -179.87 -0.02 M-179.87 -0.02 C-179.87 -0.02, -179.87 -0.02, -179.87 -0.02 M-179.87 -0.02 C-179.87 -0.02, -179.87 -0.02, -179.87 -0.02" stroke="#495057" stroke-width="1" fill="none"></path></g></g><g transform="translate(132.6370849609375 92.40560913085938) rotate(0 64.5 7.5)"><text x="64.5" y="12" font-family="Helvetica, Segoe UI Emoji" font-size="13.174452768165075px" fill="#495057" text-anchor="middle" style="white-space: pre;" direction="ltr">CRÉATION RECEIPT</text></g><g transform="translate(127.75390625 135.30917358398438) rotate(0 70 7.5)"><text x="70" y="12" font-family="Helvetica, Segoe UI Emoji" font-size="13.174452768165075px" fill="#495057" text-anchor="middle" style="white-space: pre;" direction="ltr">RETOUR DU RECEIPT</text></g><g stroke-linecap="round"><g transform="translate(106.74086032255245 230.99015652334748) rotate(0 200.1903021937236 0.12161919279835942)"><path d="M0 0 C66.73 0.04, 333.65 0.2, 400.38 0.24 M0 0 C66.73 0.04, 333.65 0.2, 400.38 0.24" stroke="#495057" stroke-width="1" fill="none"></path></g><g transform="translate(106.74086032255245 230.99015652334748) rotate(0 200.1903021937236 0.12161919279835942)"><path d="M8 0 C8 0.46, 7.96 0.93, 7.88 1.39 C7.8 1.85, 7.68 2.3, 7.52 2.74 C7.36 3.17, 7.16 3.6, 6.93 4 C6.7 4.4, 6.43 4.79, 6.13 5.14 C5.83 5.5, 5.5 5.83, 5.14 6.13 C4.79 6.43, 4.4 6.7, 4 6.93 C3.6 7.16, 3.17 7.36, 2.74 7.52 C2.3 7.68, 1.85 7.8, 1.39 7.88 C0.93 7.96, 0.46 8, 0 8 C-0.46 8, -0.93 7.96, -1.39 7.88 C-1.85 7.8, -2.3 7.68, -2.74 7.52 C-3.17 7.36, -3.6 7.16, -4 6.93 C-4.4 6.7, -4.79 6.43, -5.14 6.13 C-5.5 5.83, -5.83 5.5, -6.13 5.14 C-6.43 4.79, -6.7 4.4, -6.93 4 C-7.16 3.6, -7.36 3.17, -7.52 2.74 C-7.68 2.3, -7.8 1.85, -7.88 1.39 C-7.96 0.93, -8 0.46, -8 0 C-8 -0.46, -7.96 -0.93, -7.88 -1.39 C-7.8 -1.85, -7.68 -2.3, -7.52 -2.74 C-7.36 -3.17, -7.16 -3.6, -6.93 -4 C-6.7 -4.4, -6.43 -4.79, -6.13 -5.14 C-5.83 -5.5, -5.5 -5.83, -5.14 -6.13 C-4.79 -6.43, -4.4 -6.7, -4 -6.93 C-3.6 -7.16, -3.17 -7.36, -2.74 -7.52 C-2.3 -7.68, -1.85 -7.8, -1.39 -7.88 C-0.93 -7.96, -0.46 -8, 0 -8 C0.46 -8, 0.93 -7.96, 1.39 -7.88 C1.85 -7.8, 2.3 -7.68, 2.74 -7.52 C3.17 -7.36, 3.6 -7.16, 4 -6.93 C4.4 -6.7, 4.79 -6.43, 5.14 -6.13 C5.5 -5.83, 5.83 -5.5, 6.13 -5.14 C6.43 -4.79, 6.7 -4.4, 6.93 -4 C7.16 -3.6, 7.36 -3.17, 7.52 -2.74 C7.68 -2.3, 7.8 -1.85, 7.88 -1.39 C7.96 -0.93, 7.98 -0.23, 8 0 C8.02 0.23, 8.02 -0.23, 8 0" stroke="none" stroke-width="0" fill="#495057"></path></g><g transform="translate(106.74086032255245 230.99015652334748) rotate(0 200.1903021937236 0.12161919279835942)"><path d="M400.38 0.24 L386.78 6.57 L386.79 -6.1 L400.38 0.24" stroke="none" stroke-width="0" fill="#495057" fill-rule="evenodd"></path><path d="M400.38 0.24 C395.56 2.49, 390.73 4.74, 386.78 6.57 M400.38 0.24 C396.02 2.27, 391.66 4.3, 386.78 6.57 M386.78 6.57 C386.78 3.25, 386.79 -0.07, 386.79 -6.1 M386.78 6.57 C386.78 2.51, 386.79 -1.55, 386.79 -6.1 M386.79 -6.1 C389.86 -4.67, 392.94 -3.23, 400.38 0.24 M386.79 -6.1 C390.14 -4.54, 393.49 -2.98, 400.38 0.24 M400.38 0.24 C400.38 0.24, 400.38 0.24, 400.38 0.24 M400.38 0.24 C400.38 0.24, 400.38 0.24, 400.38 0.24" stroke="#495057" stroke-width="1" fill="none"></path></g></g><g transform="translate(160.37066650390625 207.4168497721354) rotate(0 130.5 7.5)"><text x="130.5" y="12" font-family="Helvetica, Segoe UI Emoji" font-size="13.174452768165075px" fill="#495057" text-anchor="middle" style="white-space: pre;" direction="ltr">APPEL MUTATION mobileSubscriptionVerify</text></g><g stroke-linecap="round"><g transform="translate(556.6790364928977 231.9546089550856) rotate(0 91.36342363080007 0.20147828449774252)"><path d="M0 0 C30.45 0.07, 152.27 0.34, 182.73 0.4 M0 0 C30.45 0.07, 152.27 0.34, 182.73 0.4" stroke="#495057" stroke-width="1" fill="none"></path></g><g transform="translate(556.6790364928977 231.9546089550856) rotate(0 91.36342363080007 0.20147828449774252)"><path d="M8 0 C8 0.46, 7.96 0.93, 7.88 1.39 C7.8 1.85, 7.68 2.3, 7.52 2.74 C7.36 3.17, 7.16 3.6, 6.93 4 C6.7 4.4, 6.43 4.79, 6.13 5.14 C5.83 5.5, 5.5 5.83, 5.14 6.13 C4.79 6.43, 4.4 6.7, 4 6.93 C3.6 7.16, 3.17 7.36, 2.74 7.52 C2.3 7.68, 1.85 7.8, 1.39 7.88 C0.93 7.96, 0.46 8, 0 8 C-0.46 8, -0.93 7.96, -1.39 7.88 C-1.85 7.8, -2.3 7.68, -2.74 7.52 C-3.17 7.36, -3.6 7.16, -4 6.93 C-4.4 6.7, -4.79 6.43, -5.14 6.13 C-5.5 5.83, -5.83 5.5, -6.13 5.14 C-6.43 4.79, -6.7 4.4, -6.93 4 C-7.16 3.6, -7.36 3.17, -7.52 2.74 C-7.68 2.3, -7.8 1.85, -7.88 1.39 C-7.96 0.93, -8 0.46, -8 0 C-8 -0.46, -7.96 -0.93, -7.88 -1.39 C-7.8 -1.85, -7.68 -2.3, -7.52 -2.74 C-7.36 -3.17, -7.16 -3.6, -6.93 -4 C-6.7 -4.4, -6.43 -4.79, -6.13 -5.14 C-5.83 -5.5, -5.5 -5.83, -5.14 -6.13 C-4.79 -6.43, -4.4 -6.7, -4 -6.93 C-3.6 -7.16, -3.17 -7.36, -2.74 -7.52 C-2.3 -7.68, -1.85 -7.8, -1.39 -7.88 C-0.93 -7.96, -0.46 -8, 0 -8 C0.46 -8, 0.93 -7.96, 1.39 -7.88 C1.85 -7.8, 2.3 -7.68, 2.74 -7.52 C3.17 -7.36, 3.6 -7.16, 4 -6.93 C4.4 -6.7, 4.79 -6.43, 5.14 -6.13 C5.5 -5.83, 5.83 -5.5, 6.13 -5.14 C6.43 -4.79, 6.7 -4.4, 6.93 -4 C7.16 -3.6, 7.36 -3.17, 7.52 -2.74 C7.68 -2.3, 7.8 -1.85, 7.88 -1.39 C7.96 -0.93, 7.98 -0.23, 8 0 C8.02 0.23, 8.02 -0.23, 8 0" stroke="none" stroke-width="0" fill="#495057"></path></g><g transform="translate(556.6790364928977 231.9546089550856) rotate(0 91.36342363080007 0.20147828449774252)"><path d="M182.73 0.4 L169.12 6.71 L169.15 -5.97 L182.73 0.4" stroke="none" stroke-width="0" fill="#495057" fill-rule="evenodd"></path><path d="M182.73 0.4 C177.48 2.84, 172.22 5.27, 169.12 6.71 M182.73 0.4 C178.09 2.55, 173.44 4.71, 169.12 6.71 M169.12 6.71 C169.13 2.75, 169.14 -1.21, 169.15 -5.97 M169.12 6.71 C169.13 1.92, 169.14 -2.87, 169.15 -5.97 M169.15 -5.97 C174.14 -3.62, 179.13 -1.28, 182.73 0.4 M169.15 -5.97 C172.2 -4.53, 175.26 -3.1, 182.73 0.4 M182.73 0.4 C182.73 0.4, 182.73 0.4, 182.73 0.4 M182.73 0.4 C182.73 0.4, 182.73 0.4, 182.73 0.4" stroke="#495057" stroke-width="1" fill="none"></path></g></g><g transform="translate(538.6625773111978 188.7037556966146) rotate(0 112 15)"><text x="112" y="12" font-family="Helvetica, Segoe UI Emoji" font-size="13.174452768165075px" fill="#495057" text-anchor="middle" style="white-space: pre;" direction="ltr">VÉRIFICATION DU RECEIPT</text><text x="112" y="27" font-family="Helvetica, Segoe UI Emoji" font-size="13.174452768165075px" fill="#495057" text-anchor="middle" style="white-space: pre;" direction="ltr">SERVER-TO-SERVER + STOCKAGE</text></g><g stroke-linecap="round"><g transform="translate(733.3091913678795 337.94530106499406) rotate(0 -89.93343860095234 -0.0076586496295121265)"><path d="M0 0 C-29.98 0, -149.89 -0.01, -179.87 -0.02 M0 0 C-29.98 0, -149.89 -0.01, -179.87 -0.02" stroke="#495057" stroke-width="1" fill="none"></path></g><g transform="translate(733.3091913678795 337.94530106499406) rotate(0 -89.93343860095234 -0.0076586496295121265)"><path d="M8 0 C8 0.46, 7.96 0.93, 7.88 1.39 C7.8 1.85, 7.68 2.3, 7.52 2.74 C7.36 3.17, 7.16 3.6, 6.93 4 C6.7 4.4, 6.43 4.79, 6.13 5.14 C5.83 5.5, 5.5 5.83, 5.14 6.13 C4.79 6.43, 4.4 6.7, 4 6.93 C3.6 7.16, 3.17 7.36, 2.74 7.52 C2.3 7.68, 1.85 7.8, 1.39 7.88 C0.93 7.96, 0.46 8, 0 8 C-0.46 8, -0.93 7.96, -1.39 7.88 C-1.85 7.8, -2.3 7.68, -2.74 7.52 C-3.17 7.36, -3.6 7.16, -4 6.93 C-4.4 6.7, -4.79 6.43, -5.14 6.13 C-5.5 5.83, -5.83 5.5, -6.13 5.14 C-6.43 4.79, -6.7 4.4, -6.93 4 C-7.16 3.6, -7.36 3.17, -7.52 2.74 C-7.68 2.3, -7.8 1.85, -7.88 1.39 C-7.96 0.93, -8 0.46, -8 0 C-8 -0.46, -7.96 -0.93, -7.88 -1.39 C-7.8 -1.85, -7.68 -2.3, -7.52 -2.74 C-7.36 -3.17, -7.16 -3.6, -6.93 -4 C-6.7 -4.4, -6.43 -4.79, -6.13 -5.14 C-5.83 -5.5, -5.5 -5.83, -5.14 -6.13 C-4.79 -6.43, -4.4 -6.7, -4 -6.93 C-3.6 -7.16, -3.17 -7.36, -2.74 -7.52 C-2.3 -7.68, -1.85 -7.8, -1.39 -7.88 C-0.93 -7.96, -0.46 -8, 0 -8 C0.46 -8, 0.93 -7.96, 1.39 -7.88 C1.85 -7.8, 2.3 -7.68, 2.74 -7.52 C3.17 -7.36, 3.6 -7.16, 4 -6.93 C4.4 -6.7, 4.79 -6.43, 5.14 -6.13 C5.5 -5.83, 5.83 -5.5, 6.13 -5.14 C6.43 -4.79, 6.7 -4.4, 6.93 -4 C7.16 -3.6, 7.36 -3.17, 7.52 -2.74 C7.68 -2.3, 7.8 -1.85, 7.88 -1.39 C7.96 -0.93, 7.98 -0.23, 8 0 C8.02 0.23, 8.02 -0.23, 8 0" stroke="none" stroke-width="0" fill="#495057"></path></g><g transform="translate(733.3091913678795 337.94530106499406) rotate(0 -89.93343860095234 -0.0076586496295121265)"><path d="M-179.87 -0.02 L-166.27 -6.35 L-166.27 6.33 L-179.87 -0.02" stroke="none" stroke-width="0" fill="#495057" fill-rule="evenodd"></path><path d="M-179.87 -0.02 C-176.82 -1.44, -173.76 -2.86, -166.27 -6.35 M-179.87 -0.02 C-176.41 -1.63, -172.96 -3.24, -166.27 -6.35 M-166.27 -6.35 C-166.27 -2.35, -166.27 1.65, -166.27 6.33 M-166.27 -6.35 C-166.27 -3.33, -166.27 -0.31, -166.27 6.33 M-166.27 6.33 C-169.66 4.75, -173.04 3.17, -179.87 -0.02 M-166.27 6.33 C-169.1 5.01, -171.92 3.69, -179.87 -0.02 M-179.87 -0.02 C-179.87 -0.02, -179.87 -0.02, -179.87 -0.02 M-179.87 -0.02 C-179.87 -0.02, -179.87 -0.02, -179.87 -0.02" stroke="#495057" stroke-width="1" fill="none"></path></g></g><g stroke-linecap="round"><g transform="translate(499.0453567324628 337.1333910715045) rotate(0 -197.6725845156659 -0.37793859754619774)"><path d="M0 0 C-65.89 -0.13, -329.45 -0.63, -395.35 -0.76 M0 0 C-65.89 -0.13, -329.45 -0.63, -395.35 -0.76" stroke="#495057" stroke-width="1" fill="none"></path></g><g transform="translate(499.0453567324628 337.1333910715045) rotate(0 -197.6725845156659 -0.37793859754619774)"><path d="M8 0 C8 0.46, 7.96 0.93, 7.88 1.39 C7.8 1.85, 7.68 2.3, 7.52 2.74 C7.36 3.17, 7.16 3.6, 6.93 4 C6.7 4.4, 6.43 4.79, 6.13 5.14 C5.83 5.5, 5.5 5.83, 5.14 6.13 C4.79 6.43, 4.4 6.7, 4 6.93 C3.6 7.16, 3.17 7.36, 2.74 7.52 C2.3 7.68, 1.85 7.8, 1.39 7.88 C0.93 7.96, 0.46 8, 0 8 C-0.46 8, -0.93 7.96, -1.39 7.88 C-1.85 7.8, -2.3 7.68, -2.74 7.52 C-3.17 7.36, -3.6 7.16, -4 6.93 C-4.4 6.7, -4.79 6.43, -5.14 6.13 C-5.5 5.83, -5.83 5.5, -6.13 5.14 C-6.43 4.79, -6.7 4.4, -6.93 4 C-7.16 3.6, -7.36 3.17, -7.52 2.74 C-7.68 2.3, -7.8 1.85, -7.88 1.39 C-7.96 0.93, -8 0.46, -8 0 C-8 -0.46, -7.96 -0.93, -7.88 -1.39 C-7.8 -1.85, -7.68 -2.3, -7.52 -2.74 C-7.36 -3.17, -7.16 -3.6, -6.93 -4 C-6.7 -4.4, -6.43 -4.79, -6.13 -5.14 C-5.83 -5.5, -5.5 -5.83, -5.14 -6.13 C-4.79 -6.43, -4.4 -6.7, -4 -6.93 C-3.6 -7.16, -3.17 -7.36, -2.74 -7.52 C-2.3 -7.68, -1.85 -7.8, -1.39 -7.88 C-0.93 -7.96, -0.46 -8, 0 -8 C0.46 -8, 0.93 -7.96, 1.39 -7.88 C1.85 -7.8, 2.3 -7.68, 2.74 -7.52 C3.17 -7.36, 3.6 -7.16, 4 -6.93 C4.4 -6.7, 4.79 -6.43, 5.14 -6.13 C5.5 -5.83, 5.83 -5.5, 6.13 -5.14 C6.43 -4.79, 6.7 -4.4, 6.93 -4 C7.16 -3.6, 7.36 -3.17, 7.52 -2.74 C7.68 -2.3, 7.8 -1.85, 7.88 -1.39 C7.96 -0.93, 7.98 -0.23, 8 0 C8.02 0.23, 8.02 -0.23, 8 0" stroke="none" stroke-width="0" fill="#495057"></path></g><g transform="translate(499.0453567324628 337.1333910715045) rotate(0 -197.6725845156659 -0.37793859754619774)"><path d="M-395.35 -0.76 L-381.74 -7.07 L-381.76 5.61 L-395.35 -0.76" stroke="none" stroke-width="0" fill="#495057" fill-rule="evenodd"></path><path d="M-395.35 -0.76 C-390.25 -3.12, -385.16 -5.48, -381.74 -7.07 M-395.35 -0.76 C-391.22 -2.67, -387.09 -4.58, -381.74 -7.07 M-381.74 -7.07 C-381.74 -4.09, -381.75 -1.12, -381.76 5.61 M-381.74 -7.07 C-381.75 -2.45, -381.76 2.17, -381.76 5.61 M-381.76 5.61 C-385.95 3.65, -390.13 1.69, -395.35 -0.76 M-381.76 5.61 C-387.08 3.12, -392.39 0.63, -395.35 -0.76 M-395.35 -0.76 C-395.35 -0.76, -395.35 -0.76, -395.35 -0.76 M-395.35 -0.76 C-395.35 -0.76, -395.35 -0.76, -395.35 -0.76" stroke="#495057" stroke-width="1" fill="none"></path></g></g><g transform="translate(189.64503802675193 315.767509691643) rotate(0 104 7.5)"><text x="104" y="12" font-family="Helvetica, Segoe UI Emoji" font-size="13.174452768165075px" fill="#495057" text-anchor="middle" style="white-space: pre;" direction="ltr">RETOURNE SI VÉRIFICATION OK</text></g><g stroke-linecap="round"><g transform="translate(732.8854834636415 270.4939997214809) rotate(0 -200.97941841866066 -0.3981208892128265)"><path d="M0 0 C-66.99 -0.13, -334.97 -0.66, -401.96 -0.8 M0 0 C-66.99 -0.13, -334.97 -0.66, -401.96 -0.8" stroke="#495057" stroke-width="1" fill="none"></path></g><g transform="translate(732.8854834636415 270.4939997214809) rotate(0 -200.97941841866066 -0.3981208892128265)"><path d="M8 0 C8 0.46, 7.96 0.93, 7.88 1.39 C7.8 1.85, 7.68 2.3, 7.52 2.74 C7.36 3.17, 7.16 3.6, 6.93 4 C6.7 4.4, 6.43 4.79, 6.13 5.14 C5.83 5.5, 5.5 5.83, 5.14 6.13 C4.79 6.43, 4.4 6.7, 4 6.93 C3.6 7.16, 3.17 7.36, 2.74 7.52 C2.3 7.68, 1.85 7.8, 1.39 7.88 C0.93 7.96, 0.46 8, 0 8 C-0.46 8, -0.93 7.96, -1.39 7.88 C-1.85 7.8, -2.3 7.68, -2.74 7.52 C-3.17 7.36, -3.6 7.16, -4 6.93 C-4.4 6.7, -4.79 6.43, -5.14 6.13 C-5.5 5.83, -5.83 5.5, -6.13 5.14 C-6.43 4.79, -6.7 4.4, -6.93 4 C-7.16 3.6, -7.36 3.17, -7.52 2.74 C-7.68 2.3, -7.8 1.85, -7.88 1.39 C-7.96 0.93, -8 0.46, -8 0 C-8 -0.46, -7.96 -0.93, -7.88 -1.39 C-7.8 -1.85, -7.68 -2.3, -7.52 -2.74 C-7.36 -3.17, -7.16 -3.6, -6.93 -4 C-6.7 -4.4, -6.43 -4.79, -6.13 -5.14 C-5.83 -5.5, -5.5 -5.83, -5.14 -6.13 C-4.79 -6.43, -4.4 -6.7, -4 -6.93 C-3.6 -7.16, -3.17 -7.36, -2.74 -7.52 C-2.3 -7.68, -1.85 -7.8, -1.39 -7.88 C-0.93 -7.96, -0.46 -8, 0 -8 C0.46 -8, 0.93 -7.96, 1.39 -7.88 C1.85 -7.8, 2.3 -7.68, 2.74 -7.52 C3.17 -7.36, 3.6 -7.16, 4 -6.93 C4.4 -6.7, 4.79 -6.43, 5.14 -6.13 C5.5 -5.83, 5.83 -5.5, 6.13 -5.14 C6.43 -4.79, 6.7 -4.4, 6.93 -4 C7.16 -3.6, 7.36 -3.17, 7.52 -2.74 C7.68 -2.3, 7.8 -1.85, 7.88 -1.39 C7.96 -0.93, 7.98 -0.23, 8 0 C8.02 0.23, 8.02 -0.23, 8 0" stroke="none" stroke-width="0" fill="#495057"></path></g><g transform="translate(732.8854834636415 270.4939997214809) rotate(0 -200.97941841866066 -0.3981208892128265)"><path d="M-401.96 -0.8 L-388.35 -7.11 L-388.38 5.57 L-401.96 -0.8" stroke="none" stroke-width="0" fill="#495057" fill-rule="evenodd"></path><path d="M-401.96 -0.8 C-397.75 -2.75, -393.55 -4.7, -388.35 -7.11 M-401.96 -0.8 C-396.72 -3.23, -391.47 -5.66, -388.35 -7.11 M-388.35 -7.11 C-388.36 -2.66, -388.37 1.78, -388.38 5.57 M-388.35 -7.11 C-388.36 -2.93, -388.37 1.24, -388.38 5.57 M-388.38 5.57 C-391.76 3.98, -395.15 2.4, -401.96 -0.8 M-388.38 5.57 C-392.46 3.66, -396.54 1.75, -401.96 -0.8 M-401.96 -0.8 C-401.96 -0.8, -401.96 -0.8, -401.96 -0.8 M-401.96 -0.8 C-401.96 -0.8, -401.96 -0.8, -401.96 -0.8" stroke="#495057" stroke-width="1" fill="none"></path></g></g><g transform="translate(388.9683209043561 249.05624667080966) rotate(0 136 7.5)"><text x="136" y="12" font-family="Helvetica, Segoe UI Emoji" font-size="13.174452768165075px" fill="#495057" text-anchor="middle" style="white-space: pre;" direction="ltr">VÉRIFICATION AUPRÈS DU FOURNISSEUR</text></g><g stroke-linecap="round"><g transform="translate(339.30479279917415 290.8736330118655) rotate(0 200.19030219372354 0.12161919279835942)"><path d="M0 0 C66.73 0.04, 333.65 0.2, 400.38 0.24 M0 0 C66.73 0.04, 333.65 0.2, 400.38 0.24" stroke="#495057" stroke-width="1" fill="none"></path></g><g transform="translate(339.30479279917415 290.8736330118655) rotate(0 200.19030219372354 0.12161919279835942)"><path d="M8 0 C8 0.46, 7.96 0.93, 7.88 1.39 C7.8 1.85, 7.68 2.3, 7.52 2.74 C7.36 3.17, 7.16 3.6, 6.93 4 C6.7 4.4, 6.43 4.79, 6.13 5.14 C5.83 5.5, 5.5 5.83, 5.14 6.13 C4.79 6.43, 4.4 6.7, 4 6.93 C3.6 7.16, 3.17 7.36, 2.74 7.52 C2.3 7.68, 1.85 7.8, 1.39 7.88 C0.93 7.96, 0.46 8, 0 8 C-0.46 8, -0.93 7.96, -1.39 7.88 C-1.85 7.8, -2.3 7.68, -2.74 7.52 C-3.17 7.36, -3.6 7.16, -4 6.93 C-4.4 6.7, -4.79 6.43, -5.14 6.13 C-5.5 5.83, -5.83 5.5, -6.13 5.14 C-6.43 4.79, -6.7 4.4, -6.93 4 C-7.16 3.6, -7.36 3.17, -7.52 2.74 C-7.68 2.3, -7.8 1.85, -7.88 1.39 C-7.96 0.93, -8 0.46, -8 0 C-8 -0.46, -7.96 -0.93, -7.88 -1.39 C-7.8 -1.85, -7.68 -2.3, -7.52 -2.74 C-7.36 -3.17, -7.16 -3.6, -6.93 -4 C-6.7 -4.4, -6.43 -4.79, -6.13 -5.14 C-5.83 -5.5, -5.5 -5.83, -5.14 -6.13 C-4.79 -6.43, -4.4 -6.7, -4 -6.93 C-3.6 -7.16, -3.17 -7.36, -2.74 -7.52 C-2.3 -7.68, -1.85 -7.8, -1.39 -7.88 C-0.93 -7.96, -0.46 -8, 0 -8 C0.46 -8, 0.93 -7.96, 1.39 -7.88 C1.85 -7.8, 2.3 -7.68, 2.74 -7.52 C3.17 -7.36, 3.6 -7.16, 4 -6.93 C4.4 -6.7, 4.79 -6.43, 5.14 -6.13 C5.5 -5.83, 5.83 -5.5, 6.13 -5.14 C6.43 -4.79, 6.7 -4.4, 6.93 -4 C7.16 -3.6, 7.36 -3.17, 7.52 -2.74 C7.68 -2.3, 7.8 -1.85, 7.88 -1.39 C7.96 -0.93, 7.98 -0.23, 8 0 C8.02 0.23, 8.02 -0.23, 8 0" stroke="none" stroke-width="0" fill="#495057"></path></g><g transform="translate(339.30479279917415 290.8736330118655) rotate(0 200.19030219372354 0.12161919279835942)"><path d="M400.38 0.24 L386.78 6.57 L386.79 -6.1 L400.38 0.24" stroke="none" stroke-width="0" fill="#495057" fill-rule="evenodd"></path><path d="M400.38 0.24 C396.45 2.07, 392.52 3.9, 386.78 6.57 M400.38 0.24 C397.49 1.59, 394.61 2.93, 386.78 6.57 M386.78 6.57 C386.79 1.68, 386.79 -3.22, 386.79 -6.1 M386.78 6.57 C386.78 2.55, 386.79 -1.48, 386.79 -6.1 M386.79 -6.1 C389.98 -4.62, 393.16 -3.13, 400.38 0.24 M386.79 -6.1 C390.2 -4.51, 393.62 -2.91, 400.38 0.24 M400.38 0.24 C400.38 0.24, 400.38 0.24, 400.38 0.24 M400.38 0.24 C400.38 0.24, 400.38 0.24, 400.38 0.24" stroke="#495057" stroke-width="1" fill="none"></path></g></g><g stroke-linecap="round"><g transform="translate(111.26769838032679 416.09514517667697) rotate(0 91.36342363080009 0.20147828449773897)"><path d="M0 0 C30.45 0.07, 152.27 0.34, 182.73 0.4 M0 0 C30.45 0.07, 152.27 0.34, 182.73 0.4" stroke="#495057" stroke-width="1" fill="none"></path></g><g transform="translate(111.26769838032679 416.09514517667697) rotate(0 91.36342363080009 0.20147828449773897)"><path d="M8 0 C8 0.46, 7.96 0.93, 7.88 1.39 C7.8 1.85, 7.68 2.3, 7.52 2.74 C7.36 3.17, 7.16 3.6, 6.93 4 C6.7 4.4, 6.43 4.79, 6.13 5.14 C5.83 5.5, 5.5 5.83, 5.14 6.13 C4.79 6.43, 4.4 6.7, 4 6.93 C3.6 7.16, 3.17 7.36, 2.74 7.52 C2.3 7.68, 1.85 7.8, 1.39 7.88 C0.93 7.96, 0.46 8, 0 8 C-0.46 8, -0.93 7.96, -1.39 7.88 C-1.85 7.8, -2.3 7.68, -2.74 7.52 C-3.17 7.36, -3.6 7.16, -4 6.93 C-4.4 6.7, -4.79 6.43, -5.14 6.13 C-5.5 5.83, -5.83 5.5, -6.13 5.14 C-6.43 4.79, -6.7 4.4, -6.93 4 C-7.16 3.6, -7.36 3.17, -7.52 2.74 C-7.68 2.3, -7.8 1.85, -7.88 1.39 C-7.96 0.93, -8 0.46, -8 0 C-8 -0.46, -7.96 -0.93, -7.88 -1.39 C-7.8 -1.85, -7.68 -2.3, -7.52 -2.74 C-7.36 -3.17, -7.16 -3.6, -6.93 -4 C-6.7 -4.4, -6.43 -4.79, -6.13 -5.14 C-5.83 -5.5, -5.5 -5.83, -5.14 -6.13 C-4.79 -6.43, -4.4 -6.7, -4 -6.93 C-3.6 -7.16, -3.17 -7.36, -2.74 -7.52 C-2.3 -7.68, -1.85 -7.8, -1.39 -7.88 C-0.93 -7.96, -0.46 -8, 0 -8 C0.46 -8, 0.93 -7.96, 1.39 -7.88 C1.85 -7.8, 2.3 -7.68, 2.74 -7.52 C3.17 -7.36, 3.6 -7.16, 4 -6.93 C4.4 -6.7, 4.79 -6.43, 5.14 -6.13 C5.5 -5.83, 5.83 -5.5, 6.13 -5.14 C6.43 -4.79, 6.7 -4.4, 6.93 -4 C7.16 -3.6, 7.36 -3.17, 7.52 -2.74 C7.68 -2.3, 7.8 -1.85, 7.88 -1.39 C7.96 -0.93, 7.98 -0.23, 8 0 C8.02 0.23, 8.02 -0.23, 8 0" stroke="none" stroke-width="0" fill="#495057"></path></g><g transform="translate(111.26769838032679 416.09514517667697) rotate(0 91.36342363080009 0.20147828449773897)"><path d="M182.73 0.4 L169.12 6.71 L169.15 -5.97 L182.73 0.4" stroke="none" stroke-width="0" fill="#495057" fill-rule="evenodd"></path><path d="M182.73 0.4 C178.44 2.39, 174.16 4.37, 169.12 6.71 M182.73 0.4 C178.14 2.53, 173.55 4.66, 169.12 6.71 M169.12 6.71 C169.13 1.85, 169.14 -3.02, 169.15 -5.97 M169.12 6.71 C169.13 3.61, 169.13 0.5, 169.15 -5.97 M169.15 -5.97 C174.07 -3.66, 179 -1.35, 182.73 0.4 M169.15 -5.97 C174.33 -3.53, 179.52 -1.1, 182.73 0.4 M182.73 0.4 C182.73 0.4, 182.73 0.4, 182.73 0.4 M182.73 0.4 C182.73 0.4, 182.73 0.4, 182.73 0.4" stroke="#495057" stroke-width="1" fill="none"></path></g></g><g transform="translate(104.98622455018943 388.089693936435) rotate(0 92.5 7.5)"><text x="92.5" y="12" font-family="Helvetica, Segoe UI Emoji" font-size="13.174452768165075px" fill="#495057" text-anchor="middle" style="white-space: pre;" direction="ltr">CONFIRMATION DU RECEIPT</text></g></svg>