<svg xmlns="http://www.w3.org/2000/svg" width="131" height="40" viewBox="0 0 131 40">
  <defs>
    <linearGradient id="mytf1-colored-a" x1="50%" x2="50%" y1="100%" y2="0%">
      <stop offset="0%" stop-color="#0000F0"/>
      <stop offset="90%" stop-color="#0004B9"/>
      <stop offset="100%" stop-color="#0000AF"/>
    </linearGradient>
  </defs>
  <path fill="url(#mytf1-colored-a)" fill-rule="evenodd" d="M131,0 L124.720371,3.23021286 L124.720371,37.0583736 L131,40 L131,0 Z M0,0 L0,40 L6.27981049,37.0583736 L6.27981049,3.23021286 L0,0 Z M106.826344,12.3150734 L106.826344,30.7357234 L113.185892,30.7357234 L113.185892,9.26427657 L106.826344,12.3150734 Z M89.542607,10.5113176 L89.542607,30.7357234 L95.7357781,30.7357234 L95.7357781,23.1859473 L102.799157,23.1859473 L102.799157,18.6605353 L95.7357781,18.6605353 L95.7357781,15.0369106 L103.851181,15.0369106 L103.851181,10.5113176 L89.542607,10.5113176 Z M68.5172115,10.5113176 L68.5172115,15.2762527 L74.4827954,15.2762527 L74.4827954,30.7357234 L80.6459969,30.7357234 L80.6459969,15.2762527 L86.611944,15.2762527 L86.611944,10.5113176 L68.5172115,10.5113176 Z M55.6015881,10.5113176 L52.0564576,18.3580083 L48.5118721,10.5113176 L41.9610638,10.5113176 L48.9748569,24.798338 L48.9748569,30.7357234 L55.13824,30.7357234 L55.13824,24.798338 L62.1522148,10.5113176 L55.6015881,10.5113176 Z M35.001216,10.5113176 L28.9304661,17.978175 L23.0013907,10.5113176 L17.8141081,10.5113176 L17.8141081,30.7357234 L23.3154357,30.7357234 L23.3154357,19.2474846 L28.914664,25.6979528 L34.4644878,19.428168 L34.4644878,30.7357234 L39.9656338,30.7357234 L39.9656338,10.5113176 L35.001216,10.5113176 Z"/>
</svg>
