<svg version="1.1" xmlns="http://www.w3.org/2000/svg" viewBox="0 0 906.0234375 311.53125" width="1812.046875" height="623.0625">
  <!-- svg-source:excalidraw -->
  
  <defs>
    <style>
      @font-face {
        font-family: "Virgil";
        src: url("https://excalidraw.com/Virgil.woff2");
      }
      @font-face {
        font-family: "Cascadia";
        src: url("https://excalidraw.com/Cascadia.woff2");
      }
    </style>
  </defs>
  <rect x="0" y="0" width="906.0234375" height="311.53125" fill="#ffffff"></rect><g stroke-linecap="round" transform="translate(10 58.57421875) rotate(0 443.01171875 69.6875)"><path d="M0 0 C0 0, 0 0, 0 0 M0 0 C0 0, 0 0, 0 0 M0.26 5.76 C1.6 4.49, 2.89 3.77, 4.92 0.2 M-0.45 6.73 C1.88 4.17, 3.45 2.01, 4.66 0.73 M0.92 11.63 C1.41 9.29, 5.1 5.83, 9.46 0.16 M0.5 12.6 C3.3 6.96, 7.52 3.58, 10.6 -0.61 M-1.15 20.19 C4.55 12.58, 12.5 7.38, 15.09 -0.48 M-0.31 17.47 C4.49 12.94, 9.3 9.38, 15.43 0.02 M0.17 25.42 C8.19 14.26, 15.5 6.02, 23.03 -0.3 M0.05 23.82 C4.69 18.12, 10.22 12.3, 22.14 0.45 M-1.55 31.69 C6.92 21.38, 17.41 11.58, 27.53 0.81 M0.6 29.93 C9.45 19.46, 19.8 9.3, 26.74 0.45 M-1.68 35.98 C6.38 26.05, 17.41 17.94, 31.75 0.88 M-0.84 35.98 C5.84 29, 13.3 21.81, 30.99 -0.43 M-1.18 43.75 C7.4 30.22, 16.94 19.36, 37.32 1.8 M0.41 43.07 C12.36 29.77, 24.61 14.44, 36.02 0.66 M-1.3 47.06 C10.62 35.48, 22.52 25.55, 42.86 1.09 M0.82 49.08 C12.21 35.59, 23.58 23.23, 43.51 0.37 M2.12 53.1 C14.78 40.8, 23.1 28.13, 45.86 1.74 M1.16 53.97 C12.09 41.66, 21.53 28.09, 47.32 0.84 M0.67 62.02 C18.81 40.44, 38 16.15, 53.14 -0.02 M0.12 61.39 C14.73 44.24, 28.49 29.44, 52.68 0.21 M-0.91 67.49 C19.18 42.95, 41.15 19.06, 58.78 -0.85 M-1.12 68.04 C14.43 51.55, 27.59 34.85, 57.83 0.28 M0.49 74.76 C15.95 58.55, 29.06 41.17, 62.56 1.46 M-0.05 73.5 C18.43 51.75, 36.8 31.45, 63.16 -0.95 M1.63 80.72 C24.12 53.9, 44.99 24.18, 67.91 1.84 M-0.79 79.08 C14.07 61.89, 29.09 44.66, 68.88 0.38 M0.63 84.47 C24.46 61.38, 45.37 32.61, 76.32 -0.28 M-0.68 84.15 C22.58 59.65, 45.64 31.3, 74.2 0.5 M0.93 91.11 C29.94 56.03, 62.11 20.27, 81.31 0.9 M0.45 90.74 C26.06 59.97, 52.93 29.51, 78.95 -0.33 M-0.9 98.35 C19.6 74.86, 37.81 51.2, 86.85 1.26 M-0.26 97.9 C27.61 63.7, 57.54 28.98, 84.74 -1.26 M0.02 104.52 C33.96 60.73, 71.99 20.88, 89.28 0.69 M-0.78 102.52 C28.22 71.1, 55.29 39.89, 90.65 0.77 M-1.87 110.66 C25.12 81.75, 50.61 51.61, 95.78 -1.18 M0.81 109.19 C28.94 76.73, 58.29 42.62, 96.34 -0.42 M-0.82 117.08 C28.3 83.28, 55.11 49.63, 102.29 0.87 M0.77 115.53 C32.05 78.83, 65.91 41.47, 99.73 -0.6 M-1.82 121.16 C36.19 83.18, 71.62 38.44, 107.96 1.45 M-0.66 121.82 C32.08 84.53, 64.58 47.59, 106.19 -0.58 M1.22 129.95 C29.82 91.36, 61.13 57.39, 113.07 -1.63 M-0.69 128.27 C34.53 89.85, 70.74 49.15, 112.1 -0.59 M-1.4 134.17 C34.3 96.27, 67.6 56.94, 116.83 1.22 M0.9 134.93 C43.57 86.12, 85.92 35.62, 115.47 1.05 M0.81 139.59 C29.66 108.38, 57 77.46, 122.56 1.41 M0.36 139.79 C31.35 102.26, 65.96 65.1, 122.79 -0.24 M4.19 139.24 C41.55 98.47, 74.26 56.22, 124.98 0.24 M5.46 140.77 C50.32 90.11, 93.84 39.92, 127 -0.41 M10.41 139.14 C43.2 101.5, 79.93 63.89, 133.91 -0.53 M11.6 140.23 C54.45 88.08, 100.12 36.53, 132.97 -0.5 M16.74 141.23 C40.83 109.39, 68.45 74.96, 138.27 1.13 M15.89 139.7 C42.49 109.18, 68.75 80.29, 138.22 0.03 M21.3 141.2 C46.54 109.28, 71.03 81.27, 142.48 1.33 M21.02 140.47 C51.44 106.79, 78.91 75.65, 142.97 0.81 M24.98 138.34 C60.68 104.26, 90.92 68.15, 146.43 2.08 M26.94 139.24 C66.13 97.18, 103.61 53.12, 148.9 1.23 M33.85 139.3 C68.01 101, 104.28 59.26, 153.88 1.06 M32.05 138.66 C59.54 106.77, 86.44 75.3, 153.24 -0.04 M37.14 139.99 C77.49 93.86, 113.08 52.1, 160.42 -0.48 M36.77 138.98 C77.39 95.46, 117.37 49.2, 159.45 -0.36 M41.64 141.28 C74.87 105.34, 102.48 67.74, 165.91 -0.01 M42.78 138.59 C67.89 108.41, 94.79 78.17, 165.38 0.35 M49.65 138.9 C93.57 87, 141.03 31.19, 170.4 2.18 M48.65 139.64 C88.21 93.27, 130.17 44.39, 169.91 0.33 M53.45 139.22 C86.25 101.83, 119.68 62.68, 174.59 0.73 M52.96 138.63 C101.96 83.12, 149.69 28.01, 175.13 -0.53 M57.17 141.07 C88.97 103.46, 122.96 68.75, 179.76 1.08 M58.02 140.01 C101.26 91.37, 143.58 40.98, 180.96 -0.02 M63.3 139.52 C88.49 110.32, 115.34 81.26, 184.19 1.2 M64.96 138.77 C92.11 105.82, 121.55 71.82, 185.37 -0.07 M70.57 139.77 C109.71 93.28, 146.65 48.61, 191.12 -0.5 M69.43 140.02 C114.92 89.89, 159.64 37.58, 190.94 -0.12 M75.77 141.6 C121.8 85.89, 166.37 34.79, 197.16 0.57 M74.12 140.36 C117.66 89.66, 162.42 36.93, 197.12 0.45 M78.94 141.55 C123.39 88.62, 169.26 36.52, 200.28 -0.98 M79.61 139.7 C120.25 95.61, 157.86 50.4, 200.8 0.93 M86.62 140.9 C126.65 92.07, 170.84 40.68, 208.19 1.3 M84.41 140.12 C117.49 101.8, 150.32 65.12, 206.54 -1.14 M91.59 140.26 C120.34 103.5, 151.45 70.17, 210.31 1.49 M90.4 140.19 C129.49 94.42, 169.95 47.83, 211.16 0.63 M96.85 139.4 C139.3 86.97, 187.07 33.26, 218.18 -0.86 M95.49 139.61 C141.42 85.76, 189.37 31.75, 217.93 -0.92 M100.05 139.02 C149.73 83.39, 198.21 30.92, 221.46 -0.94 M101.78 138.74 C128.94 105.98, 158.14 72.85, 223.25 0.1 M105.37 140.61 C150.74 88.67, 197.88 36.17, 228.26 1.12 M106.26 139.26 C134.95 107.06, 166.13 70.63, 228.75 0.18 M112.06 140.22 C144.89 103.39, 174.07 67.44, 233.21 0.12 M110.9 139.7 C149.1 96.69, 186.22 52.34, 233.98 -0.94 M118.28 140.32 C154.7 99.74, 191.57 56.73, 237.11 0.3 M117.33 140.1 C153.97 97.53, 192.09 53.78, 237.9 0.05 M121.6 139.55 C158.54 98.75, 192.95 56.95, 242.26 -0.61 M123.01 139.55 C156.27 97.91, 191.93 56.9, 242.86 0.86 M126.9 140.61 C174.85 86.47, 226.03 30.34, 249.61 -1.25 M127.89 140.8 C166.14 97.26, 204.43 52.97, 249.44 -0.54 M134.84 139.98 C157.41 112.16, 182.48 81.88, 252.54 -0.16 M132.53 139.85 C178.97 86.07, 224.58 33.34, 255.06 -0.58 M137.77 139.82 C185.03 88.77, 230.62 33.69, 258.87 2.1 M138.81 140.59 C178.69 93.37, 220.83 45.59, 259.57 -0.47 M144.19 137.73 C175.9 100.74, 207.42 67.29, 265.19 -1.27 M144.02 140.3 C173.9 105.81, 201.85 73.44, 264.41 0.32 M150.67 138.6 C195.24 88.62, 242.36 34.43, 270.89 -1.49 M149.58 140.35 C193.06 90.94, 233.95 42.72, 270.29 -0.26 M154.28 140.36 C180.3 109.83, 204.36 80.33, 276.55 1.6 M155.16 139.7 C198.94 89.42, 244.48 35.93, 276.34 -0.3 M160.57 137.86 C193.05 103.97, 222.14 67.13, 281.89 1.4 M159.35 139.56 C190.51 103.96, 221.04 66.27, 279.75 -0.31 M163.95 140.65 C203.34 94.47, 241.8 50.09, 288.21 0.28 M165.79 138.94 C213.58 85.11, 260.45 30.1, 286.94 -0.66 M171.67 140.8 C206.34 100.7, 242.39 59.46, 292.31 -0.52 M169.88 139.29 C199.69 104.7, 227.91 72.56, 291.23 0.07 M176.25 138.7 C222.86 87.52, 269.3 33.29, 296.95 -1.13 M174.88 140.04 C212.76 93.91, 250.53 51.13, 297.96 -0.37 M179.4 138.9 C210.68 105.45, 241.28 70.7, 300.79 -1.24 M180.61 139.25 C208.8 107.82, 236.4 74.11, 302.17 -0.29 M184.46 139.88 C225.37 98.52, 262 51.44, 308.8 -0.25 M185.55 139.13 C220.01 100.38, 253.06 62.83, 307.76 0.55 M192.38 137.91 C228.76 94.36, 267.36 50.82, 314.22 0.51 M191.58 140.73 C220.37 106.21, 249.57 73.72, 313.13 0.51 M197.43 141.59 C230.75 98.09, 269.67 57.02, 316.98 1.6 M195.4 140.19 C221.35 110.57, 245.56 81.15, 318.35 0.7 M202.48 139.88 C228.17 106.74, 256.06 75.82, 321.68 -0.72 M202.5 139.65 C227.55 112.07, 251.87 83.41, 322.82 0.52 M208.19 140.25 C240.8 97.52, 275.74 59.81, 327.95 1.35 M206.13 141.06 C252.13 90.71, 295.84 39.71, 328.39 0.3 M210.78 141.14 C249.46 96.22, 287.35 53.26, 332.48 0.92 M211.72 139.53 C257.28 91.07, 300.69 40.75, 333.08 0.87 M216.01 141.84 C256.27 95.52, 296.02 50.37, 339.38 0.24 M216.62 140.94 C267.13 83.36, 315.2 29.05, 340.18 0.16 M221.57 138.28 C269.72 86.88, 311.72 36.01, 346.15 0.54 M223.2 140.5 C257.08 101.91, 289.99 64.09, 343.91 0.81 M227.04 140.85 C271.73 88.26, 316.27 37.25, 349.49 -1.46 M228.55 140.39 C263.66 99.54, 300.64 57.44, 349.98 -0.53 M232.35 138.2 C268.96 101.71, 301.32 64.88, 354.44 0.54 M233.59 140.31 C282.34 83.45, 329.52 28.2, 354.44 0.69 M239.67 139.05 C269.3 103.31, 303.03 65.61, 361.7 -1.49 M238.74 139.09 C268.59 105.48, 298.48 72.54, 359.69 -0.25 M243.87 140.05 C293.48 85.57, 341.96 29.81, 367.32 0.61 M245.13 139.3 C284.31 93.53, 322.6 46.51, 365.94 -1.01 M250.47 139.51 C275.79 107.48, 304.03 72.76, 370.69 -0.99 M250.15 140.81 C288.27 95.16, 328.47 47.65, 369.87 0.41 M254.07 141.28 C293.46 94.08, 328.93 52.16, 374.97 -0.29 M254.73 139.43 C295.03 92.04, 337.05 44.69, 376.82 -0.73 M260.27 140.55 C301.89 90.88, 343.63 45.06, 383 -1.63 M260.88 140.45 C292.44 102.6, 322.28 66.6, 381.38 0.7 M264.13 139.63 C303.57 95.2, 341.73 49.01, 385.79 -1.92 M264.93 139.28 C293.4 105.13, 323.74 70.52, 387.62 -0.76 M272.09 141.81 C298.57 106.52, 330.52 71.61, 390.4 1.23 M271.16 139 C302.42 104, 332.63 68.56, 391.71 -0.51 M276.42 139.11 C313.35 96.51, 352.81 49.9, 396.41 -0.75 M276.93 139.01 C314.38 92.25, 355.08 47.16, 398.06 -0.32 M281.17 138.17 C309.93 108.09, 340.13 72.48, 403.85 0.5 M280.38 140.58 C323.31 92.81, 362.64 46.87, 402 0.26 M288.57 140 C327.63 92.18, 368.83 46.05, 409.66 0.03 M287.54 139.43 C316.34 106.6, 346.79 73.28, 407.95 -0.5 M292.99 137.83 C336.23 86.66, 384.44 33.1, 411.58 -0.6 M292.05 139.39 C321.87 103.5, 353.44 68.73, 414.03 0.09 M299.38 140.89 C322.74 110.47, 350.33 79.71, 420.62 0.5 M298.24 138.92 C332.8 99.86, 367.5 60.27, 418.27 0.71 M301.22 140.24 C328.01 112.71, 353.63 84.07, 424.99 1.39 M302.84 138.76 C344.16 92.97, 387.16 44.99, 423.22 0.67 M306.26 141.37 C342.41 98.04, 376.84 58.58, 430.55 -1.96 M307.46 139.25 C347.69 92.93, 388.63 46.25, 430.13 -0.56 M313.78 138.16 C337.63 110.56, 361.73 82.28, 432.72 0.24 M313.55 140.14 C347.35 100.55, 380.88 61.62, 433.62 -0.7 M317.78 141.07 C360.33 94.75, 403.23 44.95, 440.95 1.3 M318.28 139.52 C356.59 95.46, 395.52 50.89, 439.8 -1.09 M322.78 139.6 C363.74 90.33, 409 40.24, 446.63 1.98 M324.12 140.06 C363.89 96, 402.62 50.23, 444.94 -0.09 M327.76 138.17 C357.95 105.52, 387.35 72.79, 451.55 0.2 M329.43 139.71 C369.89 93.52, 408.01 49.46, 451.66 0.48 M334.57 137.87 C378.72 89.98, 421.8 42.22, 455.8 -1.06 M334.64 139.19 C367.65 101.17, 399.96 65.29, 455.53 0.01 M339.91 140.36 C375.84 100.7, 409.56 58.53, 462.27 -0.03 M338.92 140.67 C375.58 98.9, 409.93 57.25, 461.26 0.59 M343.71 141.57 C371.18 110.29, 395.76 81.44, 464.52 -0.27 M344.32 139.29 C381.48 99.52, 416.85 58.03, 467.35 -0.27 M349.14 139.62 C382.54 100.86, 415.73 64.25, 470.61 -0.16 M350.44 139.82 C391.27 89.62, 433.6 41.89, 471.61 0.57 M354.97 140.56 C388.66 102.51, 418.65 65.82, 478.3 -0.78 M356.54 140.22 C394.71 95.84, 432.1 51.85, 477.04 0.81 M359.59 138.22 C390.55 107.87, 415.35 77.62, 480.27 0.1 M360.29 140.24 C391.64 104.47, 423.3 67.06, 482.84 0.56 M365.36 139.99 C407.04 90.86, 446.51 45.99, 485.88 0.59 M365.8 138.98 C395.54 103.53, 424.26 69.73, 486.85 -0.39 M370.61 138.68 C403.92 101.28, 439.73 59.74, 491.16 0.54 M370.41 139.57 C415.85 90.29, 460.8 39.3, 493.26 1.11 M378.08 138.29 C404.6 110.73, 426.42 83.83, 497.2 1.28 M376.75 138.66 C413.05 95.67, 451.98 53.42, 497.7 0.09 M382.8 141.85 C429.52 83.38, 477.64 31.22, 504.11 -0.49 M381.42 139.09 C412.09 106.91, 442.9 71.6, 502.96 1.11 M388.58 141.19 C425.57 97.22, 465.03 51.18, 509.44 -0.97 M387.16 139.45 C430.65 91.67, 472.49 41.83, 508.12 0.81 M391.93 140.81 C417.85 109.19, 447.75 76.27, 514.14 0.63 M393.52 140.69 C424.66 102.04, 458.38 63.1, 514.19 -0.45 M398.5 139.66 C428.71 100.3, 463.03 66.48, 520.99 -2.16 M398.98 139.68 C435.94 97.39, 472.24 55.33, 519.3 -0.05 M403.02 138.96 C436.63 102.63, 465.76 69.4, 524.51 -1.21 M403.61 139.85 C435.75 105.14, 465.95 70.45, 524.32 0.54 M409.73 140 C449.91 93.77, 491.86 46.29, 529.44 -2 M409.26 138.75 C450.1 91.68, 492.3 42.32, 530.06 0.3 M412.31 139.96 C444.63 104.33, 476.17 68.56, 536.66 -1.82 M414.18 140.67 C458.75 90.52, 502.85 39.25, 534.88 0.3 M418.35 137.75 C462.15 87.92, 504.14 39.51, 541.63 -1.92 M419.21 140.2 C461.92 93.25, 501.8 45.93, 539.87 0.26 M425.24 137.77 C457.05 104.31, 486.88 70.23, 544.3 -1.73 M424.4 138.87 C454.51 105.39, 483.86 71.78, 546.52 0.16 M428.01 140.51 C455.83 108.47, 486.82 72.35, 551.6 0.95 M428.53 139.43 C470.96 90.75, 513.97 41.99, 551.84 -1.17 M434.49 138.6 C477.58 88.77, 521.15 38.1, 555.33 -0.2 M435.05 138.76 C471.63 98.54, 507.34 58.15, 556.05 -0.45 M438.56 138.88 C470.61 109.09, 496.84 75.68, 562.62 -0.26 M441.02 139.67 C489.99 83.96, 537.25 27.18, 561.72 0.63 M445.94 138.96 C482.37 96.33, 520.83 53.23, 565.86 -1.21 M445.58 140.27 C489.39 87.95, 536.42 35.4, 567.41 1.02 M452.09 141.04 C482.87 101.23, 516.61 63.5, 573.16 -0.15 M451.65 139.54 C483.73 103.32, 517.14 65.15, 572.88 -1.11 M456.69 139.66 C498.2 92.36, 537.81 46.6, 578.24 0.55 M457.06 139.94 C494.08 96.43, 532.01 55.4, 578.69 -0.77 M461.56 139.64 C490.03 108.21, 521.76 74.12, 582.27 1.76 M462.2 139.01 C495.47 100.18, 527.14 61.66, 582.72 1.19 M465.09 139.77 C508.29 92.99, 546.56 48.85, 587.03 1.67 M467.2 139.92 C512.11 87.22, 556.56 34.54, 589.1 -0.07 M472.17 138.67 C510.74 93.68, 546.83 51.67, 594.18 -0.09 M471.57 139.14 C516.63 90.96, 559.4 40.11, 594.2 -0.53 M476.66 138.63 C504.36 105.74, 532.93 73.13, 597.01 0.02 M477.35 138.96 C501.62 108.61, 528.21 80.04, 598.02 -0.99 M483.3 139.37 C531.24 84.36, 577.76 31.92, 604.38 1.34 M482.81 139.13 C521.76 92.82, 561.46 48.06, 602.97 -0.46 M490.17 137.88 C522.58 106.02, 554.15 69.5, 609.17 0.75 M487.53 139.43 C528.63 95.01, 568.94 47.5, 609.95 -0.57 M494.59 138.25 C524.77 101.3, 560.18 62.72, 616.22 0.57 M494.13 139.27 C523.5 104.54, 554.22 69.58, 615 1.06 M499.61 139.44 C535.9 94.76, 574.57 52.55, 618.73 -1.7 M499.37 140.3 C545.85 86.54, 593.12 31.9, 619.53 0.31 M503.88 141.13 C540.63 98.66, 577.2 57.29, 626.27 -1.56 M503.84 139.98 C539.11 100.11, 572.16 60.91, 624.88 -0.7 M508.17 139.51 C547 95.94, 582.94 56.92, 629.13 -1.64 M509.13 140.16 C549.38 94.52, 587.66 49.46, 630.54 -0.16 M513.23 141.1 C546.05 101.01, 581.86 61.09, 634.34 0.05 M515.44 140.75 C561.28 86.02, 607.74 33.72, 636.82 0.14 M518.28 138.56 C551.9 105.72, 580.25 72.49, 642.03 -0.05 M520.75 140.21 C546.24 111.17, 573.41 81.37, 640.93 0.33 M526.91 140.52 C573.97 83.51, 622.05 30.34, 645.43 0.78 M524.52 139.22 C554.69 106.54, 581.86 72.3, 645.71 1.08 M529.57 139.36 C554.8 109.54, 582.3 79.5, 651.28 1.34 M530.79 139.24 C556.16 110.14, 580.87 82.2, 651.75 -0.8 M537.43 141.05 C572.08 100.57, 604.42 62.34, 655.77 0.3 M535.85 140.12 C578.04 90.84, 619.32 43.13, 658.06 0.21 M540.24 141.7 C583.95 87.93, 628.08 40.04, 660.99 -1.93 M540.78 139.43 C566.3 110.87, 592.54 80.06, 662.21 -0.02 M547.5 141.62 C591.57 91.68, 632.8 43.77, 666.83 0.56 M546.33 140.29 C580.87 98.88, 615.36 58.1, 667.02 -0.75 M551.69 141.4 C580.98 106.88, 611.04 71.37, 671.46 1 M550.88 140.28 C600.48 85.64, 648.5 30.3, 672.67 -0.69 M556.05 140.44 C589.26 101.18, 620.35 63.95, 679.26 -0.21 M557.98 139.69 C592.78 98.62, 628.97 58.31, 677.39 0.52 M562.54 140.81 C608.56 89.03, 654.63 37.67, 685.23 -1.76 M562.92 140.19 C597.94 97.91, 634.15 57.18, 683.6 -0.06 M568.24 141.01 C598.4 106.41, 630.14 69.4, 690.95 -1.51 M566.98 140.37 C600.26 100.61, 632.41 62.31, 688.6 -0.07 M573.32 139.82 C600.4 104.59, 629.86 72.18, 693.04 1.19 M572.02 140.39 C610.04 98.2, 645.43 55.84, 694.65 -0.27 M577.44 138.1 C607.63 106.44, 636.83 74.32, 699.02 1.45 M578.66 139.51 C624.12 87.67, 669.37 33.97, 699.72 0.04 M583.75 138.6 C615.46 105.43, 645.4 68.74, 703.19 -0.71 M582.94 140.73 C628.07 91.46, 669.89 42.23, 704.92 -0.6 M587.25 139.77 C619.89 106.04, 646.3 74.67, 709.79 -0.24 M588.47 140.38 C616.98 105.58, 645.48 72.88, 710.48 -1.01 M594.79 139.59 C624.98 101.1, 656.17 63.52, 714.2 -1 M593.09 140.68 C626.83 101.63, 661.9 62.49, 714.64 0.51 M601.47 141.36 C623.37 111.8, 650.18 82.23, 720.79 0.77 M599.01 139.37 C635.82 94.15, 674.67 49.97, 720.22 -0.48 M602.6 141.53 C655.4 84.38, 703.04 31.51, 724.8 -1.7 M603.5 140.3 C632.9 104.77, 664.3 71.61, 726.21 1.02 M610.13 139.49 C636.92 105.57, 663.68 76.11, 730.8 -1.9 M611.02 138.99 C657.51 86.1, 702.65 33.76, 730.96 0.02 M616.57 141.41 C638.67 111.24, 666.43 79.52, 734.62 1.74 M615.87 139.28 C650.71 100.89, 686.62 58.26, 735.82 1.21 M619.48 138.05 C649.49 103.86, 680.61 68.08, 741.8 1.68 M620.38 138.85 C647.03 111.89, 670.01 83.5, 742.32 -0.54 M625.32 140.55 C647.51 111.85, 675.5 83.92, 745.5 -0.89 M625.52 139.89 C651.83 109.94, 675.98 80.92, 747.8 -0.51 M629.98 138.24 C680.69 83.18, 726.33 30.01, 752.98 -0.3 M631.11 138.65 C664.77 101.38, 698.58 63.08, 752.58 0.41 M634.66 138.49 C664.05 107.86, 694.63 73.42, 759.5 -0.5 M636.42 140.04 C669.9 103.12, 701.05 67.45, 757.62 -0.63 M642.33 140.5 C670.46 105.83, 698.52 73.35, 762.78 0.65 M642.37 139.23 C677.69 97.9, 714.49 56.51, 763.66 0.08 M645.64 139.11 C684.08 99.55, 720.79 54.37, 768.9 1.29 M646.17 140.24 C678.64 103.9, 708.79 67.8, 768.9 0.48 M651.42 138.6 C689.29 95.12, 731.4 47.01, 774.81 -0.72 M653.47 139.52 C688.04 98.03, 722.37 58.15, 774.13 -0.73 M656.53 140.54 C690.11 105.98, 716.04 72.9, 778.2 -1.88 M657.02 140.59 C693.15 101.68, 728.68 59.9, 778.4 -0.45 M663.72 138.31 C697.78 103.85, 728.88 66.82, 783.95 -1.36 M662.18 140.33 C695.24 103.09, 725.06 67.89, 784.17 -0.61 M668.8 141.19 C710.52 88.25, 755.73 36.4, 790.11 0.92 M668.85 139.83 C713.57 86.69, 760.03 32.48, 789 -0.58 M673.88 140.42 C703.18 103.14, 730.43 71.82, 794.27 0.04 M672.41 140.29 C716.47 91.42, 757.62 42.14, 794.65 -0.54 M677.15 137.76 C706.32 106.04, 737.46 75.57, 799.56 -0.08 M678.21 140.29 C708.61 106.14, 737.04 73.09, 800.76 0.05 M682.81 139.29 C715.84 101.41, 751.74 59.64, 805.06 1.1 M683.22 139.43 C719.12 98.87, 753.95 57.32, 806.02 -0.89 M691.51 139.23 C724.98 100.35, 757.2 61.8, 811.72 -1.4 M689.24 138.91 C730.67 93.11, 769.49 47.37, 811.83 -0.5 M694.29 141.77 C742.69 86.61, 789.21 32, 816.18 -1.56 M694.49 139.12 C737.57 90.39, 778.34 42.2, 816.77 0.35 M699.02 140.86 C746.5 86.12, 793.35 33.25, 819.95 -0.26 M700.78 140.25 C743.83 89.05, 790.6 37.08, 821.55 0.93 M704.32 138.03 C732.27 111.09, 761.75 76.21, 824.67 -1.26 M705.2 139.85 C752.06 85.65, 797.65 30.61, 826.97 -0.5 M710.02 138.19 C752.69 89.52, 792.69 42.29, 831.85 -0.61 M711.26 139.47 C739.41 103.92, 769.89 70.49, 831.37 -0.37 M715.1 139.49 C740.88 110.42, 769.16 75.74, 838.83 1.19 M716.52 140.21 C762.95 86.51, 809.27 32.23, 837.36 0.79 M720.1 141.05 C764.12 90.34, 804.02 44.11, 843.22 0.91 M721.77 139.34 C759.22 96.96, 794.81 55.28, 841.89 -0.02 M725.09 140.86 C758.1 100.14, 792.68 59.7, 846.82 0.51 M726.71 139.89 C765.66 94, 804.66 48.61, 846.99 0.29 M732.06 139.53 C768.09 99.5, 805.16 55.93, 852.09 0.9 M731.06 139.24 C761.67 104.74, 791.35 70.19, 853.85 0.49 M738.92 138.14 C765.91 103.72, 798.59 69.1, 858.05 1.73 M736.23 140.72 C774.59 96.7, 811.26 53.92, 857.54 -0.33 M741.89 138.03 C783.97 94.19, 824.99 46.39, 864.72 -0.74 M742.48 140.17 C772.05 105.1, 801.8 73.39, 863.12 0.77 M749.47 138.62 C778.92 104.3, 810.81 70.79, 869.1 2.13 M748.62 139.6 C775.58 106.9, 804.46 74.89, 868.34 -0.78 M752.84 141.21 C789.88 98.02, 825.41 53.45, 873.57 1.18 M753.06 139.72 C779.19 109.78, 804.5 80.84, 873.74 0.52 M759.84 138.83 C804.15 85.64, 850.34 32.24, 877.81 1.29 M757.6 139.58 C798.5 91.71, 838.97 46.19, 879.35 0.84 M765.36 140.01 C795.98 103.29, 823.36 68.85, 887.31 -0.87 M764.45 139.11 C805.71 91.76, 846.75 43.75, 884.85 0.58 M769.33 138.63 C810.47 89.49, 855.56 37.65, 887.26 1.31 M768.01 138.79 C797.65 106.75, 825.4 72.28, 888.22 3.29 M774.46 138.43 C814.08 92.94, 854.02 48.71, 889.65 7.14 M773.28 140.91 C818.25 87.15, 865.46 35.35, 888.55 8.19 M779.47 139.13 C818.65 97.68, 856.46 53.06, 889.15 15.9 M778.85 139.48 C812.53 103.12, 843.65 66.31, 888.63 14.25 M786.34 140.46 C822.37 95.11, 859.49 48.41, 886.98 22.47 M784.81 141.04 C823.64 94.79, 862.67 49.25, 888.56 21.61 M792.02 140.73 C816.88 107.17, 845.39 74.34, 889.48 25.64 M790.25 139 C812.13 112.12, 835.34 85.27, 888.99 26.63 M796.44 140.65 C815.7 115.86, 839.76 89.02, 889.24 34.15 M795.95 140.28 C817.43 113.44, 841.81 86.49, 888.05 33.73 M798.93 141.11 C831.67 107.26, 858.13 74.69, 886.96 39.24 M800.48 138.83 C829.97 103.59, 860.5 68.87, 887.84 38.75 M806.11 139.07 C824.55 115.24, 844.24 94.27, 889.33 44.51 M804.91 140.29 C828.07 114.58, 849.32 91.59, 888.09 44.56 M812.39 141.25 C832.48 115.02, 854.26 91.08, 886.85 50.43 M810.94 139.54 C832.71 113.77, 854.93 87.15, 888.69 50.33 M815.88 140.07 C830.81 125.1, 846.82 105.83, 887.03 56.43 M815.56 139.33 C843.8 107.16, 872.21 75.81, 888.56 57.46 M822.81 139.38 C840.29 117.72, 862.91 91.7, 889.61 64.97 M821.2 139.82 C838.79 120.39, 856.15 100.45, 887.65 62.4 M827.51 138.3 C849.41 110.35, 872.32 83.6, 890.34 68.06 M826.39 139.25 C845.31 120.69, 862.84 99.13, 888.44 68.94 M832.8 141.02 C843.9 122.67, 859.48 106.3, 888.92 75.15 M831.94 139.47 C846.64 123.94, 860.09 108.31, 888.54 74.88 M837.98 140.66 C854.32 120.51, 872.19 103.3, 888.81 83.59 M837.55 140.55 C857.52 117.37, 876.5 95.55, 888.24 82.32 M843.22 140.99 C856.5 121.69, 872.48 108.89, 888.38 86.78 M843.99 140.38 C858.72 120.39, 875.55 102.05, 888.43 86.54 M849.51 140.36 C863.51 121.99, 879.37 104.21, 890.2 92.21 M847.8 139.29 C860.39 125.24, 874.34 109.1, 887.54 93.82 M855.11 141.38 C863.63 126.31, 875.67 111.24, 886.77 97.99 M853.34 139.58 C865.05 127.72, 874.39 114.28, 888.05 98.77 M859.5 138.87 C865.52 131.64, 873.79 121.08, 886.5 106.69 M859.56 140.17 C870.73 126.87, 881.53 112.69, 888.13 105.98 M863.76 137.55 C874.87 129.21, 881.47 118.28, 887.45 113.9 M864.09 140.18 C872.65 131.07, 880.94 121.67, 888.13 111.31 M870.59 139.95 C873.96 134.56, 878.71 130.86, 890.58 118.28 M869.91 139.5 C873.61 135.37, 879.01 129.31, 889.56 117.74 M876.67 140.16 C877.74 136.95, 882.97 130.41, 886.96 125.67 M875.5 138.42 C878.51 134.16, 882.71 130.41, 888.99 124.25 M880.5 139.69 C882.71 136.24, 887.09 134.21, 889.27 131 M879.77 140.04 C883.01 136.58, 886.91 133.04, 889.27 130.06 M885.63 140.56 C886.6 138.66, 887.34 137.95, 888.64 136.51 M884.98 139.94 C886.27 138.95, 887.07 137.66, 888.27 136.15" stroke="#15aabf" stroke-width="0.5" fill="none"></path><path d="M-0.01 0.52 C279.92 1.55, 559.93 1.36, 885.54 -0.62 M-0.23 0.07 C246.85 3.65, 494.04 3.09, 886.05 0.25 M885.73 -0.35 C887.71 51.3, 886.62 104.75, 887.4 139.57 M885.05 0.32 C885.5 48.26, 886.38 96.61, 885.16 140.13 M885.34 139.62 C559.97 135.96, 234.56 136.59, 0.22 139.47 M885.63 139.59 C606.81 142.27, 327.48 142.76, -0.08 139.2 M-0.27 140.37 C0.2 91.01, -0.62 41.06, -0.62 -0.93 M-0.02 139.39 C0.11 92.88, 1.2 46.06, -0.17 0.91" stroke="#000000" stroke-width="1" fill="none"></path></g><g stroke-linecap="round" transform="translate(18.52734375 72.58203125) rotate(0 57.072265625 53.22265625)"><path d="M0.33 -0.14 C25.63 -2.43, 50.91 1.28, 112.97 -1.8 M0.57 -0.9 C30.87 -1.04, 62.7 -0.64, 113.49 0.62 M112.57 0.44 C114.88 21.8, 111.83 41.38, 114.68 107.55 M113.23 -0.85 C115.31 31.38, 114.19 63.58, 113.55 105.52 M114.96 106.79 C82.06 106.42, 46.82 108.21, 1.89 106.77 M114.7 107.43 C70.59 107.04, 25.13 108.37, 0.93 105.71 M1.73 104.8 C1.24 62.78, 0.79 20.69, 1.77 -1.19 M-0.79 106.26 C0.79 65.91, 0.36 24.08, 0.33 0.53" stroke="#000000" stroke-width="1" fill="none"></path></g><g transform="translate(56.099609375 100.8046875) rotate(0 19.5 25)"><text x="19.5" y="18" font-family="Virgil, Segoe UI Emoji" font-size="20px" fill="#000000" text-anchor="middle" style="white-space: pre;" direction="ltr">S1</text><text x="19.5" y="43" font-family="Virgil, Segoe UI Emoji" font-size="20px" fill="#000000" text-anchor="middle" style="white-space: pre;" direction="ltr">TS:1</text></g><g stroke-linecap="round" transform="translate(146.001953125 71.671875) rotate(0 57.072265625 53.22265625)"><path d="M1.2 1.31 C40.25 -1.09, 80.45 -1.57, 113.93 -0.17 M-0.62 -0.03 C35.19 -0.28, 69.81 1.36, 114.68 0.04 M112.73 -1.76 C112.64 30.36, 115.58 60.61, 116.1 105.55 M113.98 -0.56 C113.33 38.92, 114 78.05, 113.56 106.58 M114.97 106.81 C80.24 107.35, 49.54 106.48, 1.23 104.67 M113.34 106.48 C87.52 106.73, 61.88 106.54, -0.59 105.5 M-0.15 104.52 C1.79 79.79, -0.69 54.11, 1.99 0.89 M0.11 107.06 C-1.25 83.27, -1.91 61.73, 1 -0.3" stroke="#000000" stroke-width="1" fill="none"></path></g><g transform="translate(179.57421875 99.89453125) rotate(0 23.5 25)"><text x="23.5" y="18" font-family="Virgil, Segoe UI Emoji" font-size="20px" fill="#000000" text-anchor="middle" style="white-space: pre;" direction="ltr">S2</text><text x="23.5" y="43" font-family="Virgil, Segoe UI Emoji" font-size="20px" fill="#000000" text-anchor="middle" style="white-space: pre;" direction="ltr">TS:3</text></g><g stroke-linecap="round" transform="translate(275.689453125 72.29296875) rotate(0 57.072265625 53.22265625)"><path d="M-0.87 0.07 C33.04 -0.32, 68.37 -1.43, 113.92 0.29 M-0.11 -0.17 C37.32 -1.71, 72.1 0.02, 114.5 -0.23 M114.96 0.51 C113.56 26.08, 114.37 54.21, 112.52 107.23 M113.5 0.37 C115.02 35.54, 113.88 71.51, 114.48 107.44 M115.94 106.44 C76.26 109.29, 40.75 107.19, -1.9 107 M113.91 106.23 C83.84 106.51, 53.63 107.13, -0.3 105.93 M-1.64 106.67 C-1.57 75.21, -1.29 46, -1.39 1.73 M-0.6 106.44 C0.56 65.06, -0.88 25.63, 0.12 0.64" stroke="#000000" stroke-width="1" fill="none"></path></g><g transform="translate(309.76171875 100.515625) rotate(0 23 25)"><text x="23" y="18" font-family="Virgil, Segoe UI Emoji" font-size="20px" fill="#000000" text-anchor="middle" style="white-space: pre;" direction="ltr">S3</text><text x="23" y="43" font-family="Virgil, Segoe UI Emoji" font-size="20px" fill="#000000" text-anchor="middle" style="white-space: pre;" direction="ltr">TS:4</text></g><g stroke-linecap="round" transform="translate(403.271484375 72.1796875) rotate(0 57.072265625 53.22265625)"><path d="M-0.09 1.9 C44.29 -1.09, 88.49 1.71, 113.73 -1.7 M0.58 -0.5 C26.29 -0.02, 53.39 0.71, 114.26 0.73 M113.65 -0.52 C112.31 29.99, 113.81 59.77, 113.33 108.02 M114.85 0.98 C114.76 32.44, 115.53 63.7, 114.26 106.81 M112.66 107.79 C76.28 106.51, 39.8 104.16, 0.94 104.9 M113.32 107.1 C90.78 106.64, 68.14 107.76, -0.96 107.15 M-1.91 106.03 C-0.35 68.48, 0.94 31.13, -1.47 -0.73 M-0.72 105.48 C0.64 78.6, 1.31 52.9, -0.53 0.33" stroke="#000000" stroke-width="1" fill="none"></path></g><g transform="translate(437.84375 100.40234375) rotate(0 22.5 25)"><text x="22.5" y="18" font-family="Virgil, Segoe UI Emoji" font-size="20px" fill="#000000" text-anchor="middle" style="white-space: pre;" direction="ltr">S4</text><text x="22.5" y="43" font-family="Virgil, Segoe UI Emoji" font-size="20px" fill="#000000" text-anchor="middle" style="white-space: pre;" direction="ltr">TS:5</text></g><g stroke-linecap="round" transform="translate(536.841796875 70.44921875) rotate(0 57.072265625 53.22265625)"><path d="M1.18 -1.42 C34.2 0.4, 64.8 -1.71, 114.7 -0.94 M0.09 0.14 C26.91 1.14, 53.92 0.72, 115.06 -0.81 M113.42 0.51 C113.32 27.68, 113.05 55.39, 113.59 107.47 M113.54 -0.51 C114.1 34.94, 113.12 69.03, 115.09 107.33 M114.29 104.79 C85.81 108.23, 53.94 105.53, -1.05 106.19 M114.65 107.39 C80.66 107.28, 46.75 107.06, -0.75 107.42 M1.98 107.2 C-0.86 85.27, 0.54 62.61, -1.97 1.87 M0.12 106.22 C1.14 75.26, 0.71 42.57, -0.32 0.97" stroke="#000000" stroke-width="1" fill="none"></path></g><g transform="translate(570.9140625 98.671875) rotate(0 23 25)"><text x="23" y="18" font-family="Virgil, Segoe UI Emoji" font-size="20px" fill="#000000" text-anchor="middle" style="white-space: pre;" direction="ltr">S5</text><text x="23" y="43" font-family="Virgil, Segoe UI Emoji" font-size="20px" fill="#000000" text-anchor="middle" style="white-space: pre;" direction="ltr">TS:6</text></g><g stroke-linecap="round"><g transform="translate(15.85546875 251.2265625) rotate(0 248.25451064609922 0.39676514681539743)"><path d="M0.02 -0.62 C83.08 -0.69, 415.15 -0.91, 497.94 -0.87 M-1.43 1.67 C81.51 1.8, 413.6 0.54, 497.01 0.41" stroke="#000000" stroke-width="1" fill="none"></path></g><g transform="translate(15.85546875 251.2265625) rotate(0 248.25451064609922 0.39676514681539743)"><path d="M467.82 10.83 C475.58 6.13, 483.83 4.68, 496.17 -1.28 M469.36 11.04 C475.12 7.54, 482.43 5.95, 496.2 1.13" stroke="#000000" stroke-width="1" fill="none"></path></g><g transform="translate(15.85546875 251.2265625) rotate(0 248.25451064609922 0.39676514681539743)"><path d="M467.76 -9.69 C475.46 -8.93, 483.72 -4.93, 496.17 -1.28 M469.3 -9.48 C474.95 -7.78, 482.27 -4.17, 496.2 1.13" stroke="#000000" stroke-width="1" fill="none"></path></g></g><g transform="translate(33.66015625 276.53125) rotate(0 376.5 12.5)"><text x="0" y="18" font-family="Virgil, Segoe UI Emoji" font-size="20px" fill="#000000" text-anchor="start" style="white-space: pre;" direction="ltr">Missed events if (current_timestamp - TS) &lt; 1s, so result = S1, S2, S3, S4</text></g><g transform="translate(15.359375 10) rotate(0 114.5 12.5)"><text x="0" y="18" font-family="Virgil, Segoe UI Emoji" font-size="20px" fill="#000000" text-anchor="start" style="white-space: pre;" direction="ltr">current_timestamp = 6</text></g><g stroke-linecap="round" transform="translate(667.958984375 71.0078125) rotate(0 57.072265625 53.22265625)"><path d="M0.96 1.52 C25.71 -2.66, 52.25 -0.58, 113.11 -1.9 M0.44 -0.1 C23.45 -0.47, 46.89 0.45, 115.02 0.72 M114.58 -1.62 C114.93 29.56, 111.94 62.19, 113.82 105.7 M113.15 0.51 C113.71 24.92, 113.63 52.21, 114.73 106.04 M113.58 106.9 C77.34 105.01, 35.72 104.52, -1.07 106.92 M114.75 106.13 C77.89 105.11, 41.51 106.78, 0.23 107.38 M-1.01 107.72 C0.39 75.52, 0.23 46.79, -0.97 -0.21 M0.5 106.73 C0.71 80.24, 0.3 53.03, -0.35 -0.58" stroke="#000000" stroke-width="1" fill="none"></path></g><g transform="translate(703.03125 99.23046875) rotate(0 22 25)"><text x="22" y="18" font-family="Virgil, Segoe UI Emoji" font-size="20px" fill="#000000" text-anchor="middle" style="white-space: pre;" direction="ltr">S5</text><text x="22" y="43" font-family="Virgil, Segoe UI Emoji" font-size="20px" fill="#000000" text-anchor="middle" style="white-space: pre;" direction="ltr">TS:7</text></g></svg>