<svg version="1.1" xmlns="http://www.w3.org/2000/svg" viewBox="0 0 650.66796875 429.3671875" width="650.66796875" height="429.3671875">
  <!-- svg-source:excalidraw -->
  
  <defs>
    <style>
      @font-face {
        font-family: "Virgil";
        src: url("https://excalidraw.com/Virgil.woff2");
      }
      @font-face {
        font-family: "Cascadia";
        src: url("https://excalidraw.com/Cascadia.woff2");
      }
    </style>
  </defs>
  <rect x="0" y="0" width="650.66796875" height="429.3671875" fill="#ffffff"></rect><g stroke-linecap="round" transform="translate(10 10) rotate(0 315.333984375 204.68359375)"><path d="M0 0 C0 0, 0 0, 0 0 M0 0 C0 0, 0 0, 0 0 M-0.17 6.83 C0.1 5.47, 1.43 4, 4.45 0.59 M-0.48 6.79 C2.13 3.76, 3.75 1.44, 5.26 0.05 M0.69 13.11 C3.52 9.31, 8.33 2.56, 9.66 1.53 M-0.48 12.49 C3.16 8.16, 7.2 4, 11.09 0.71 M-1.21 16.69 C7.08 13.08, 11.35 6.97, 14.19 -0.79 M-0.05 19.26 C5.09 11.91, 12.92 5.03, 16.4 1.2 M-0.51 25.21 C5.87 16.7, 11.42 9.71, 21.72 1.56 M-0.24 24.14 C7.01 15.77, 15.1 7.81, 20.74 -0.74 M-0.29 31.33 C4.77 22.04, 13.24 18.09, 25.37 -1.14 M-0.76 31.34 C7 20.81, 16.73 12.07, 26.67 0.42 M0.93 36.77 C7.54 25.43, 18.26 17.49, 32.3 0.15 M-0.9 37.51 C9.9 24.13, 21.15 11.41, 31.8 0.03 M-1.69 42.95 C11.57 31.21, 21.29 15.32, 35.16 1.76 M-0.65 41.57 C10.4 29.92, 22.49 16.05, 37.69 -0.08 M-0.4 47.29 C15.31 27.38, 35.25 9.67, 44.22 1.28 M-0.64 49.44 C15.43 32.01, 28.26 16.52, 42.19 -0.11 M0.74 54 C16.09 33.75, 33.49 15.58, 47.15 1.7 M-0.48 54.22 C12.49 41.29, 24.09 26.69, 48.13 0.17 M1.53 62.17 C16.68 41.44, 30.53 26.72, 53.11 1.42 M-0.02 60.72 C17.77 40.71, 33.46 21.4, 53.68 -1.15 M1.13 68.58 C11.32 51.64, 26.68 38.49, 56.52 -1.65 M0.3 67.6 C16.01 48.36, 31.15 29.61, 59.09 0.43 M1.05 71.99 C20.44 51.91, 35.48 32.78, 65.19 -0.04 M-0.49 72.16 C19.4 50.59, 38.7 28.92, 62.99 -0.81 M-1.87 79.46 C17.15 61.21, 34.58 40.28, 68.05 -0.68 M-0.83 80.04 C14.24 62.81, 29.16 45.41, 69.16 -0.25 M2.05 83.19 C24.41 56.77, 49.22 28.53, 75.3 1.19 M-0.03 84.4 C25.36 55.97, 49.58 27.96, 74.79 0.48 M1.03 90.56 C24.63 63.46, 45.46 37.72, 78.12 2.08 M-0.44 91.44 C27.51 57.7, 56.28 26.28, 79.33 0 M-0.63 96.92 C19.6 75.83, 39.34 51.88, 84.85 0.31 M-0.86 97.6 C23 69.31, 48.13 43.72, 84.7 0.61 M-1.61 103.94 C26.46 72.24, 52.71 41.2, 88.68 0.06 M0.54 103.25 C27.74 72.61, 54.92 41.59, 90.1 0.83 M-0.58 107.93 C26.71 78.61, 53.68 50.24, 95.84 1.43 M0.27 109.48 C25.91 79.92, 52.03 49.88, 96.3 -1.23 M-0.67 114.59 C31.19 81.64, 61.73 43.51, 101.29 0.55 M1.13 116.22 C25.93 83.77, 54.69 52.23, 100.4 0.69 M-1.79 123.16 C33.33 84.46, 69.29 43.09, 104.89 -0.43 M-0.95 122.8 C22.9 93.62, 46.45 66.9, 106.12 0.41 M-1.07 129.16 C27.12 97.93, 52.28 69.14, 111.11 -1.22 M0.64 128.12 C28.34 96.06, 56.02 65.17, 110.59 -0.18 M2.04 132.71 C36.73 91.01, 75.32 49.02, 116.55 -0.61 M-0.7 133.37 C37.27 89.88, 75.16 46.55, 115.98 1.07 M-1.18 140.92 C41.8 92.59, 82.08 43.45, 120.89 -0.15 M0.29 139.78 C25.91 108.88, 53.14 78.57, 121.52 -0.71 M0.76 144.58 C36 105.9, 70.47 65.07, 127.9 2.2 M-0.69 145.8 C42.64 96.53, 86.9 45, 126.63 0.31 M1.14 152.34 C42.79 106, 87.37 55.49, 131.11 0.72 M0.28 152.57 C42.45 104.81, 82.22 58.12, 133.38 -0.08 M1.03 159.34 C28.16 124.2, 59.25 89.98, 138.55 0.48 M0.08 159.19 C47.67 104.06, 93.69 48.82, 136.89 1.14 M1.58 165.8 C29.16 127.63, 62.03 95.22, 141.49 0.5 M-0.4 164.48 C37.14 118.31, 75.87 75.01, 143.19 -0.58 M-0.27 169.71 C30.37 133.97, 61.51 100.39, 147.93 0.84 M-0.66 171.32 C49.3 112.54, 101.15 53.83, 148.75 0.51 M-1.23 175.6 C47.87 121.59, 96.25 67.33, 153.36 -1.69 M-0.21 175.8 C59.7 108.98, 120.33 40.86, 153.02 -0.85 M0.24 181.62 C62.35 109.43, 125.75 38.35, 159.03 -0.77 M-0.28 182.17 C40.64 134.72, 81.22 88.93, 159.01 0.17 M1.09 188.09 C40.22 142.92, 83.35 93.62, 164.23 -1.78 M-0.1 188.6 C59.94 119.14, 122.1 49.24, 165.02 -0.72 M-0.62 194.64 C55.14 130.27, 112.74 64.76, 170.22 1.03 M-0.43 194.9 C65.07 120.64, 129.73 48.09, 168.82 0.32 M0.86 202.61 C54.15 137.3, 110.75 73.68, 176.34 0.54 M0.14 201.14 C46.07 146.67, 93.74 91.61, 174.33 -0.21 M1.81 208.28 C44.67 156.01, 88.53 104.02, 180.53 -0.81 M0.14 207.48 C49.28 150.4, 98.09 94.07, 180.71 0.55 M-0.83 212.19 C62.08 145.73, 122.75 74.79, 185.22 0.89 M0.39 213.47 C67.18 138.07, 131.87 62.86, 186.21 -0.25 M-1.37 218.32 C77.16 134.2, 149.36 47.25, 191.07 -1.23 M-0.8 219.45 C56.05 154.76, 112 90.4, 190.09 0.74 M-0.54 224.07 C69.85 146.25, 138.36 66.39, 197.01 -1.67 M0.36 225.16 C42.71 174.53, 85.8 124.97, 196 -0.32 M-0.38 230.44 C57.19 166.96, 111.58 101.03, 200.33 -0.96 M-0.81 232.47 C52.9 169, 106.4 107.83, 201.63 0.28 M-0.53 236.61 C44.1 189.53, 85.48 137.76, 208.21 -0.9 M-0.25 236.8 C64.89 163.46, 127.46 90.17, 207.06 -0.84 M0.02 244.58 C51.29 185.65, 106.37 122.76, 211.61 1.36 M-0.65 243.61 C43 193.62, 87.34 143.75, 211.67 0.25 M1.05 251.15 C80.28 158.75, 159.83 66.17, 216.91 0.31 M-0.33 249.82 C81.64 155.95, 162.83 62.46, 217.85 -0.92 M0.04 254.6 C69.86 175.91, 141.33 94.3, 222.77 -0.54 M0.57 256.28 C90.37 154.87, 178.13 52.85, 222.39 -0.26 M0.21 262.01 C51 202.34, 104.78 142.56, 229.06 0.72 M0.29 262.84 C45.78 208.52, 93.99 153.44, 228.62 -0.6 M-0.41 266.78 C69.71 184.43, 141.27 103.28, 233.65 0.17 M0.03 267.47 C73.76 185.52, 145.86 102.35, 233.69 -0.5 M0.94 273.27 C59.79 205.49, 115.52 140.77, 237.51 -0.04 M0.57 274.39 C81.35 182.52, 161.41 90.43, 238.61 0.69 M-1.05 279.76 C78.89 191.43, 156.31 101.81, 244.48 -0.02 M-0.72 280.17 C70.04 197.47, 141.82 115.4, 244.22 -0.32 M0.32 285.89 C51.31 227.39, 103.1 165.97, 249.88 -0.83 M0.16 285.79 C76.85 197.57, 152.74 110.52, 249.31 0.6 M-0.06 293.71 C69.34 214.81, 138.3 134.07, 254.63 0.01 M-0.59 292.9 C67.96 214.12, 137.67 134.9, 254.59 -0.55 M-0.31 297.74 C95.75 187.59, 190.89 77.68, 260.19 1.26 M0.47 298.33 C102.74 181.14, 205.76 62.4, 259.89 0.17 M1 303.98 C94.31 195.26, 190.93 84.82, 266.15 -0.56 M0.4 305.15 C69.07 227.36, 136.35 149.9, 265.28 -0.08 M-0.14 310.49 C84.77 211.74, 168.44 114.78, 270.37 0.27 M-0.18 311.22 C84.76 211.67, 171.66 112.43, 270.48 0.12 M1.14 317.84 C108.99 192.67, 217.47 69.01, 275.71 -0.84 M-0.23 316.33 C62.78 244.98, 127.31 171.94, 276.13 0.05 M0.48 322.8 C76.93 234.31, 155.1 146.69, 280.8 -0.42 M0.18 322.91 C88.45 220.32, 177.84 118.34, 280.87 -0.12 M0.36 329 C74.74 246.82, 146.79 162.1, 286.99 0.37 M0.33 328.91 C74.95 241.09, 150.71 153.58, 285.97 -0.34 M-0.15 336.02 C68.43 258.46, 136.37 179.92, 291.56 0.97 M0.44 335.74 C74.8 250.59, 148.86 165.44, 291.14 0.35 M-0.23 341.72 C71.6 259.83, 139.88 181.49, 296.51 -0.38 M0.06 341.21 C61.14 269.66, 123.35 199.21, 297.2 -0.32 M0.23 348.22 C64.06 277.25, 126 204, 301.59 0.13 M-0.26 347.37 C100.5 233.15, 200.55 117.52, 302.03 0.3 M-0.81 353.65 C99.33 241.05, 195.98 129.29, 307.22 0.05 M-0.17 353.31 C116.5 219.67, 232.81 84.88, 307.18 -0.35 M0.14 360.06 C118.22 225.36, 233.84 91.87, 313.4 -0.17 M0.02 359.17 C120.49 222.99, 238.43 87.2, 312.55 -0.01 M0.01 365.69 C91.23 258.4, 184.44 153.07, 317.43 0.25 M-0.31 365.85 C91.96 259.91, 184.15 154.18, 318.49 -0.66 M0.5 372.34 C109.73 246.03, 219.1 120.41, 322.98 0.53 M0.07 372.28 C112.36 240.09, 226.21 109.41, 323.37 0.36 M-0.34 377.91 C71.45 294.09, 143.25 211.28, 329.26 -0.54 M-0.02 377.85 C108.11 254.7, 214.47 131.75, 329.13 -0.12 M-0.63 383.97 C90.09 281.44, 179.2 177.53, 333.27 0.22 M-0.04 384.42 C79.43 292.1, 159.72 199.49, 333.6 0.13 M0.5 389.54 C129.37 243.92, 255.96 97.22, 339.27 -0.28 M0.39 389.6 C84.27 293, 168.64 195.63, 339.39 0 M0.51 395.59 C128.84 249.15, 256.32 102.59, 344.26 0.22 M-0.15 396.61 C126.05 251.89, 251.05 108.05, 344.62 -0.35 M0.02 402.16 C116.71 270.66, 231.76 137.96, 350.17 0.91 M-0.21 402.78 C106.61 278.37, 213.69 155.34, 349.57 0.62 M0.43 407.48 C137.84 248.18, 276 90.36, 355.87 -0.65 M0.49 407.99 C94.48 301.31, 188.1 193.5, 355.52 0.32 M3.33 411.22 C89.55 314.91, 173.78 216.28, 359.6 0.21 M2.62 411.72 C117.96 277.07, 233.55 144.15, 359.96 0.46 M7.81 412.05 C124.79 279.76, 241.41 146.07, 365.48 -0.41 M8.5 411.17 C90.44 318.14, 170.32 225.94, 366.02 0.32 M13.63 411.36 C141.87 264.02, 269.75 117.06, 371.49 0.65 M12.94 411.5 C85.06 325.86, 158.73 241.35, 370.43 0.23 M17.78 411.51 C130.72 282.66, 243.72 152.15, 376.67 0.48 M18.27 411.91 C144.6 268.95, 269.55 124.49, 375.99 -0.3 M23.1 412.35 C147.13 271.28, 268.16 132.23, 381.86 0.87 M24.15 411.88 C107.94 315.93, 191.3 219.59, 381.12 0.02 M29.48 411.93 C152.88 266.53, 278.87 123.51, 387.29 -0.06 M29.21 411.64 C127.32 299.24, 226.33 185.57, 386.71 0.04 M34.02 411.63 C153.6 276.23, 271.98 140.41, 391.76 -0.16 M34.07 411.88 C168.24 257.28, 302.6 102.67, 392.12 0.41 M39.76 412.63 C165.28 265.12, 293.53 116.98, 398.21 -0.15 M39.73 411.53 C133.87 302.73, 229.54 192.5, 398.02 0.07 M45.31 412.25 C142.65 298.01, 241.29 183.66, 403.28 0.93 M44.75 411.61 C176.24 260.48, 308.02 108.18, 402.33 0.52 M50.37 411.7 C165.3 280.11, 278.96 148.07, 407.73 0.44 M50.09 412.12 C164.39 279.65, 279.74 146.8, 407.94 -0.01 M54.95 410.78 C130.28 325.32, 203.71 240.36, 413.95 -0.15 M55.56 411.13 C143.55 311.53, 230.5 211.9, 413.02 -0.01 M60.09 412.41 C188.57 266.86, 313.92 120.93, 418.81 -0.5 M60.55 412.07 C157.83 303.3, 253.54 192.72, 418.69 -0.45 M67.12 410.97 C193.92 262.3, 323.3 113.99, 423.95 -0.12 M66.11 411.6 C210.19 248.94, 352.93 85.34, 424.22 0.17 M71.93 411.19 C153.79 315.95, 236.78 220.65, 430.23 -0.39 M71.72 411.75 C164.02 305.22, 255.5 200.22, 429.86 0.02 M77.06 411.73 C171.07 303.08, 266.24 195.51, 435.27 -0.12 M77.35 411.72 C190.84 280.7, 304.44 149.84, 434.38 -0.27 M82.75 411.24 C175.84 303.3, 269.85 194.18, 440.62 -0.73 M81.82 412.07 C179.13 300.56, 276.11 188.49, 440.41 -0.23 M87.84 411.14 C175.12 312.99, 260.97 214.71, 444.55 -0.17 M87.24 411.29 C181.49 302.77, 274.8 195.02, 445.51 -0.14 M92.04 412.11 C167.86 324.02, 243.38 237.42, 450.83 0.19 M92.62 411.63 C175.21 315.73, 257.97 220.37, 450.7 -0.49 M98.38 412.03 C209.57 284.44, 319.06 158.2, 455.08 0.11 M98.29 411.63 C232.37 256.02, 365.62 101.87, 455.59 -0.14 M102.73 412.11 C237.67 256.06, 371.66 100.81, 461.57 0 M103.49 411.97 C203.13 295.12, 302.96 180.6, 461.26 -0.56 M109.02 411.61 C210.9 295.16, 310.73 180.12, 466.37 0.65 M109.22 411.19 C244.22 257.14, 378.54 102.69, 466.21 -0.03 M113.99 412.33 C224.4 284.61, 334.93 157.64, 471.91 0.28 M114.19 411.54 C217.82 291.69, 320.6 173.5, 471.76 0.47 M119.15 411.82 C216.94 300.35, 311.91 190.19, 476.58 0.13 M119.31 411.52 C217.45 299.52, 313.89 188.46, 477.31 0.13 M125.21 411.01 C232.34 287.24, 338.58 163.73, 482.74 1.09 M124.44 411.71 C255.26 261.91, 385.67 112.67, 482.39 -0.06 M128.94 411.36 C263.15 257.49, 396.72 103.26, 488.1 0.03 M129.79 412.06 C214.64 314.77, 299.14 217.67, 487.64 -0.4 M135.25 412.36 C241.71 290.8, 346.28 170.7, 492.02 -0.09 M135.16 411.57 C256.84 273.94, 376.93 135.44, 492.79 0.57 M139.56 411.39 C282.82 249.38, 424.66 85.25, 498.76 0.54 M140.41 412.31 C259.05 273.92, 378.84 135.99, 498.31 -0.22 M146.38 411.33 C277.64 260.35, 409.61 107.89, 502.99 0.65 M145.64 411.54 C243.74 300, 340.61 188.73, 503.4 -0.13 M150.05 411.33 C270.96 274.17, 392.64 135.95, 509.02 -0.14 M150.76 411.93 C226.01 325.86, 300.1 240.62, 509.22 -0.25 M157.12 412.07 C250.12 301.96, 344.97 192.75, 513.13 0.77 M156.35 411.33 C284.56 264.07, 413.36 114.86, 513.68 0.03 M160.74 411.38 C260.95 298, 362.3 182.08, 519.59 -0.27 M161.65 412.17 C294.58 259.67, 427.71 106.83, 519.46 -0.05 M166.23 411.05 C258.53 307.43, 348.74 203.76, 524.58 0.09 M166.96 411.2 C247.13 317.41, 329.33 223.82, 524.83 0.4 M171.82 412.51 C282.69 283.71, 393.71 154.98, 530.62 -0.16 M171.67 412.17 C290.75 277.13, 408.51 141.69, 530.08 0.11 M178.29 410.75 C265.75 308.31, 355.99 206.23, 535.29 0 M177.49 411.51 C258.74 320.67, 338.84 228.65, 535.47 0.22 M182.48 412.46 C260.87 322.15, 337.8 232.74, 540.87 0.27 M182.4 411.81 C277.05 306.03, 369.92 198.34, 540.53 -0.31 M188.54 410.77 C303.97 276.24, 421.85 140.6, 546.26 -0.55 M187.96 411.54 C305.17 276.7, 423.69 141.11, 545.98 -0.14 M193.39 411.34 C324.86 259.63, 455.83 108.04, 551.78 -0.95 M193.21 412.08 C307.92 278.14, 423.03 144.89, 551.43 -0.14 M199.63 411.9 C340.48 248.22, 481.64 85.51, 555.93 0.54 M198.78 411.49 C290.56 305.38, 383.99 198.97, 556.52 0.41 M204.22 412.39 C288.78 312.61, 373.32 214.47, 561.79 -0.64 M204.03 411.5 C331.83 265.68, 458.79 118.91, 561.79 -0.07 M209.69 412.08 C319.05 284.63, 429.6 157.05, 567.36 -0.24 M209.52 411.29 C336.67 265.58, 462.4 120.19, 567.43 0.06 M214.5 411.65 C323.07 287.6, 429.07 165.13, 571.99 -0.83 M214.18 412.1 C348.44 256.72, 483.53 101.55, 572.59 -0.69 M219.44 412.01 C354.32 257.13, 488.87 102.23, 577.88 -0.07 M220.15 410.98 C319.28 296.6, 419.75 181.49, 578.06 0.15 M224.39 411.51 C332.94 286.05, 441.21 161.48, 583.06 0.75 M225.16 411.82 C326.16 293.93, 428.03 176.18, 582.55 0.29 M231.48 411.16 C312.99 313.82, 397.76 218.2, 587.82 -0.14 M230.6 411.1 C353.12 270.55, 475.95 129.57, 588.69 -0.08 M235.48 411.9 C310.46 323.57, 387.34 234.31, 593.88 0.47 M235.47 411.33 C365.04 263.47, 494.23 115.19, 593.52 0.6 M241.41 411.76 C379.07 253.44, 516.14 95.05, 598.18 -0.09 M241.22 411.55 C375.15 257.71, 507.21 106.15, 598.64 0.13 M246.82 411.14 C349.84 293.95, 452.58 176.24, 603.19 0.51 M246.55 411.22 C373 264.98, 500.96 117.94, 603.79 -0.02 M250.83 412.36 C346.76 302.88, 440.76 195.41, 609.77 -0.4 M251.63 411.87 C330.69 320.78, 410.22 229.22, 609.75 0.26 M257.27 411.51 C387.5 259.94, 516.96 109.86, 614.64 0.3 M256.87 411.6 C333.25 322.09, 409.83 233.78, 614.26 -0.09 M262.75 412 C388.99 267.1, 515.92 122.19, 620.86 0.01 M262.24 411.87 C364.48 292.4, 469.11 173.46, 620.5 -0.29 M267.95 412.04 C409.35 248.14, 550.86 85.23, 625.71 -0.41 M267.85 411.68 C393.58 266.23, 518.33 122.76, 625.03 0.01 M272.04 412.35 C374.04 295.79, 474.86 180.23, 631.15 -0.2 M272.27 411.73 C413.11 249.78, 552.9 87.7, 631.11 -0.21 M278.21 410.93 C390.98 284.73, 501.84 155.41, 631.27 6.96 M277.89 411.82 C405.01 265.3, 531.01 120.39, 630.53 6.04 M283.27 412.3 C395.24 282.77, 508.5 151.56, 630.48 11.25 M283.57 411.82 C379.25 301.02, 475.37 190.03, 631.09 12.22 M289.63 411.13 C412.03 268.76, 534.82 128.18, 630.07 18.89 M289.18 411.47 C397.15 286.04, 504.87 162.55, 630.4 18.24 M293.24 411.08 C395.96 296.38, 497.68 179.54, 630.45 24.02 M293.95 412.18 C402.1 286.84, 511.23 161.78, 630.5 24.84 M298.83 411.59 C418.52 274.92, 536.96 139.53, 630.34 30.21 M299.31 411.21 C391.36 304.95, 484.04 198.01, 630.73 30.14 M304.6 412.32 C393.31 308.89, 483.62 205.71, 629.99 35.92 M304.85 411.43 C383 322.47, 461.4 231.94, 630.61 36.81 M309.44 411.16 C384.81 325.95, 459.82 240.16, 630.51 42.12 M310.42 411.55 C433.79 270.71, 557.88 128.1, 630.74 42.64 M315.44 411.96 C395.64 318.8, 476.9 225.97, 630.7 49.49 M315.24 411.87 C429.76 279.42, 545.23 146.19, 630.94 49.1 M320.2 411.1 C416.76 302.46, 512.51 191.93, 631.11 54.51 M320.83 411.73 C428.94 286.25, 537.5 162.34, 630.16 55.04 M326.51 411.95 C418.65 307.16, 511.13 200.99, 630.63 61.49 M326.15 411.94 C438.99 282.51, 550.45 153.62, 630.55 60.96 M332.26 411.04 C452.34 275.31, 570.66 137.27, 631.41 67.2 M331.01 411.63 C442.19 285.45, 550.99 159.53, 630.78 67.48 M337.07 411.26 C399.17 340.78, 460.67 269.23, 630.99 72.6 M336.87 411.24 C436.39 294.82, 537.81 179.19, 631.4 72.85 M342.79 411.42 C434.53 305.79, 523.17 201.89, 631.51 80 M341.79 411.52 C401.91 343.46, 461.68 274.42, 630.99 78.89 M347.53 412.13 C410.93 337.06, 475.67 262.64, 631.41 86.5 M347.05 411.52 C436.87 310.1, 527.21 206.57, 630.87 85.98 M353.4 410.67 C451.12 294.92, 550.46 180.95, 630.55 92.22 M352.85 411.64 C444.15 304.84, 536.37 199.21, 630.63 90.91 M358.72 411.36 C455.04 301.83, 550.83 190.4, 631.14 97.61 M357.3 411.32 C453.7 300.3, 548.79 190.13, 630.26 97.64 M362.94 413.08 C423.94 341.05, 486.73 269.07, 631.17 102.41 M362.28 412.35 C462.51 296.91, 561.58 183.17, 631.18 103.45 M368.57 411.19 C422.59 349.74, 475.88 285.46, 630.21 110.8 M367.76 411.25 C429.43 342.86, 489.14 274.18, 630.88 109.33 M373.1 412.1 C460.22 311.41, 546.72 209.67, 631.58 117.11 M373.04 411.54 C437.11 342.19, 498.55 271.68, 630.24 115.61 M379.73 412.53 C474.02 298.43, 570.61 187.7, 631.62 122.6 M378.6 411.67 C472.09 306.82, 563.49 201.86, 630.6 121.2 M383.38 410.84 C450.99 334.75, 515.59 258.27, 630.86 128.92 M384.3 412.2 C440.82 346.58, 497.59 281.33, 630.04 127.71 M389.49 410.8 C462.9 324.61, 536.32 239.3, 629.97 133.82 M389.34 411.93 C462.19 325.23, 536.09 240.02, 631.53 133.32 M395.04 412.13 C463.76 328.74, 536.55 246.27, 631.16 139.74 M394.23 411.75 C471.47 326.39, 547.02 238.19, 631 139.7 M400.23 411.49 C482.48 316.73, 563.78 224.41, 630.9 147.39 M400.69 412.1 C451.61 352.28, 504.33 290.22, 630.57 147.04 M403.94 412.56 C479.78 326.05, 553.87 237.83, 629.6 152.88 M404.94 411.64 C462.05 344.85, 520.49 277.38, 631.05 152.15 M411.09 412.3 C481.64 328.27, 555.44 244.62, 630.73 158.92 M411.41 411.12 C462.94 350.66, 516.02 288.82, 631.24 158.7 M414.61 410.85 C485.74 329.33, 555.84 247.65, 631.45 164.58 M415.78 412.07 C475.73 342.37, 534.95 273.37, 630.46 163.86 M421.47 411.11 C465.66 359.39, 507.82 309.7, 631.08 169.9 M421.44 411.48 C478.95 346.06, 536.96 279.68, 630.13 171.29 M426.34 412.58 C480.28 347.64, 535.72 286.11, 629.76 176.15 M426.31 412.39 C505.09 319.06, 585.45 226.43, 631.01 177.26 M432.59 410.51 C512.68 319.31, 589.66 228.47, 629.93 184.1 M431.39 411.89 C509.64 321.96, 588.49 231.63, 630.96 182.94 M436.49 412.3 C478.24 365.91, 520.77 317.73, 630.85 190.36 M437.11 411.71 C491.75 347.49, 548.32 283.8, 630.89 189.31 M443.27 411.18 C486.34 358.3, 535.08 303.76, 630.71 195.16 M443.47 411.87 C497.13 348.14, 551.09 283.41, 630.8 195.07 M447.84 411.3 C490.27 360.92, 536.13 312.02, 629.52 199.77 M447.64 411.14 C492.29 360.17, 538.61 306.47, 631.15 200.74 M454.16 409.89 C515.82 339.53, 580.65 265.08, 631.67 208.98 M453.11 411.07 C522.38 328.6, 592.1 247.75, 629.9 206.8 M458.52 411.02 C507.69 352.02, 558.83 295.18, 630.6 214.76 M458.45 411.83 C494.77 368.62, 531.54 326.23, 630.56 212.56 M463.27 410.17 C509.2 358.08, 556.53 307.47, 629.29 218.55 M464.78 411.79 C525.11 342.53, 585.49 274.73, 630.97 220.27 M469.32 411.39 C524.19 347.64, 579.21 283.24, 631.85 226.59 M468.9 412.43 C523.06 350.58, 575.06 290.45, 631.77 224.56 M473.87 411.76 C533.17 341.54, 593.93 271.27, 632.16 231.67 M474.3 411.86 C532.39 347.59, 588.59 281.69, 631.15 231.83 M479.1 412.23 C511.56 373.03, 546.41 331, 630.57 237 M479.48 411.22 C538.13 345.96, 594.87 280.81, 630.32 238.3 M486.04 412.46 C518.18 373.92, 551.32 333.39, 629.67 244.15 M484.91 412.4 C517.37 374.64, 549.67 338.4, 631.74 244.07 M489.73 411.5 C546.26 348.44, 602.16 283.63, 631.54 251.66 M489.4 412.22 C542.9 351.91, 597.21 289.29, 631.05 249.98 M493.57 413.56 C547.63 354.49, 597.83 294.78, 631.97 255.49 M496.02 412.63 C532.23 369.87, 569.54 326.29, 629.58 256.95 M501.19 410.31 C551.21 355.32, 601.97 297.22, 631.39 262.2 M500.91 410.68 C552.91 353.6, 603.69 294.92, 629.93 262.56 M506.23 412.51 C552.23 359.47, 599.62 307.17, 630.13 268.15 M506.69 411.58 C544.33 367.78, 582.57 322.97, 630.88 268.81 M513.03 412.23 C552.67 364.54, 592.37 319.19, 629.09 276.03 M511.32 411.65 C541.85 376.92, 573.11 341.26, 629.9 275 M515.33 411.91 C558.38 364, 601.15 316.47, 632.6 279.79 M517.28 411.47 C539.32 383.54, 563 356.82, 630.44 279.93 M522.21 412.6 C551.54 379.6, 582.47 344.36, 632.08 287.3 M522.96 412.4 C558.05 372.59, 591.6 333.07, 629.48 286.17 M527.77 412.02 C558.73 376.73, 588.17 343.6, 629.09 292.67 M526.42 412.09 C558.04 376.35, 590.3 338.42, 631.61 292.77 M533.34 412.66 C556.46 383.17, 580.81 355.24, 632.21 298.58 M532.71 410.91 C559.25 378.55, 587.77 348.41, 630.04 299.01 M537.19 411.79 C564.73 379.64, 588.73 347.55, 630.67 305.06 M537.62 411.45 C563.29 382.8, 589.15 352.09, 631.3 305.56 M544.65 409.56 C572.63 377.6, 600.11 345.43, 631.95 311.59 M542.95 410.96 C572.01 379.68, 600.21 347.09, 630.95 312.01 M549.86 411.06 C572.68 385.96, 596.71 357.83, 631.38 317.89 M548.32 410.86 C566.53 393.43, 581.93 373.55, 630.23 318.06 M553.93 410.37 C575.7 384.08, 600.55 359.77, 629.05 322.23 M554.46 411.14 C570.85 390.6, 588.95 369.2, 631.15 323.22 M558.64 412.61 C576.55 391.78, 592.46 376.82, 628.81 329.76 M558.94 411.91 C580.35 386.83, 601.55 362.31, 630.53 329.57 M564.6 410.04 C586.41 386.49, 605.13 361.33, 629.81 335.29 M565.5 411.8 C580.97 393.55, 597.67 373.19, 631.59 335.95 M568.97 412.1 C583.07 398.04, 596.36 382.9, 630.16 343.4 M569.82 411.49 C584.9 394.97, 597.39 379.08, 630.8 342.46 M575.64 409.46 C588.87 396.19, 597.59 384.05, 630.5 347.22 M574.78 412.13 C597.99 386.01, 619.04 361.68, 629.47 348.61 M580.91 412.11 C598.18 391.13, 615.42 368.78, 628.91 352.74 M580.28 410.82 C598.38 390.46, 618.06 368.22, 629.79 354.12 M587.66 409.39 C597.8 394.49, 612.13 383.31, 629.95 361.13 M586.47 411.08 C601.72 392.63, 618.53 372.11, 629.93 360.6 M591.07 412.11 C598.21 401.77, 607.81 391.52, 630.12 365.56 M591.58 412.36 C604.12 396.97, 618.04 381.46, 630.65 364.77 M596.16 413.28 C606.1 400.8, 612.34 394.5, 631.6 373.27 M596.52 411.18 C605.46 401, 615.49 388.63, 631.09 371.92 M602.7 410.5 C608.56 401.77, 614 396.24, 631.77 378.35 M601.95 410.91 C608.53 403.01, 616.23 395.24, 631.38 379.14 M608.25 410.21 C611.84 402.43, 620.05 396.18, 632.15 384.07 M606.32 412.48 C614.15 404.19, 620.28 395.95, 631.7 383.06 M611.62 410.56 C619.93 405.18, 626.27 396.92, 629.42 391.21 M611.54 412.55 C618.5 404.76, 622.66 399.75, 630.36 390.54 M616.63 413.43 C623.01 407.03, 625.72 402.11, 630.9 396.85 M617.73 412.08 C621.69 405.79, 626.34 400.47, 631.43 396.87 M623.66 410.91 C625.13 408.35, 627.58 405.07, 630.42 402.45 M623.21 411.61 C625.51 408.49, 627.87 405.18, 631.15 402.37 M627.87 411.77 C629.1 410.85, 630.07 409.78, 630.53 408.81 M627.96 411.94 C628.37 411.03, 629.35 410.39, 630.56 408.73" stroke="#ced4da" stroke-width="0.5" fill="none"></path><path d="M0.17 0.36 C140.48 1.71, 282.48 1.63, 630.67 0.21 M0.2 0.08 C184.13 1.17, 368.84 1.06, 630.36 -0.12 M630.58 -0.32 C630.88 129.51, 630.02 260.1, 631.01 409.47 M630.3 -0.23 C628.87 140.45, 628.61 280.02, 630.4 408.85 M631.24 409.05 C485.18 406.7, 340.12 407.09, 0.45 410.05 M630.77 409.72 C485.2 409.31, 339.73 409.59, -0.05 408.99 M0.37 408.66 C0.54 318.1, 0.16 227.48, 0.51 -0.16 M0.55 409.75 C-1.57 257.62, -1.19 106.72, -0.35 -0.38" stroke="#000000" stroke-width="1" fill="none"></path></g><g transform="translate(30.548828125 25.98828125) rotate(0 59 12.5)"><text x="0" y="18" font-family="Virgil, Segoe UI Emoji" font-size="20px" fill="#000000" text-anchor="start" style="white-space: pre;" direction="ltr">SCHEDULER</text></g><g stroke-linecap="round" transform="translate(193.044921875 24.515625) rotate(0 160.955078125 23.86328125)"><path d="M-0.33 -0.71 C77.43 1.17, 155.62 1.66, 321.82 0.33 M0.03 -0.34 C74.04 0.82, 147.71 0.71, 321.85 -0.68 M321.83 -0.25 C321.16 13.3, 322.15 24.89, 320.12 48.98 M322.36 0.08 C320.81 14.59, 321.69 27.45, 322.51 48.01 M320.8 48.43 C220.35 48.02, 115.04 49.16, 0.46 48.72 M322.34 47.74 C215.8 47.84, 109.19 47.68, 0.59 47.98 M-1.38 46.82 C-1.76 33.15, -2 15.03, -0.04 1.63 M0.35 48.54 C-0.55 30.02, 0.12 12.22, 0.9 -0.64" stroke="#0b7285" stroke-width="1" fill="none"></path></g><g transform="translate(225 35.87890625) rotate(0 129 12.5)"><text x="129" y="18" font-family="Virgil, Segoe UI Emoji" font-size="20px" fill="#000000" text-anchor="middle" style="white-space: pre;" direction="ltr">MISSED EVENT HANDLER</text></g><g stroke-linecap="round" transform="translate(196.10546875 91.57421875) rotate(0 160.955078125 23.86328125)"><path d="M1.09 -1.23 C99.28 -1.34, 202.11 -3.19, 322.38 -0.42 M0.03 -0.65 C114.63 0.88, 230.63 1.44, 321.51 -0.65 M320.59 -0.64 C321.65 12.96, 323.58 25.73, 322.57 48.57 M322.48 -0.31 C321.43 18.86, 321.05 36.45, 322.18 47.87 M321.18 47.2 C225.57 45.34, 130.67 45.33, -1.3 48.94 M321.35 47.4 C232.65 47.03, 143.56 45.75, -0.6 48.4 M-1.52 47.85 C-0.69 31.89, 0.89 14.95, -1.22 -0.86 M-0.85 47.46 C-0.75 32.93, 0.65 19.49, -0.08 -0.46" stroke="#a61e4d" stroke-width="1" fill="none"></path></g><g transform="translate(244.255859375 102.9375) rotate(0 112.5 12.5)"><text x="112.5" y="18" font-family="Virgil, Segoe UI Emoji" font-size="20px" fill="#000000" text-anchor="middle" style="white-space: pre;" direction="ltr">LIVE EVENT HANDLER</text></g><g stroke-linecap="round" transform="translate(196.5078125 226.1015625) rotate(0 160.955078125 23.86328125)"><path d="M0.43 -0.16 C118.8 -0.93, 238.53 -1.07, 322.93 -1.39 M-0.62 0.11 C111.99 -1.74, 224.75 -2.29, 322.38 0.19 M322.07 1.65 C323.2 12.33, 320.8 22.34, 322.38 48.67 M322.54 0.35 C322.43 17.94, 321.66 37, 321.59 47.94 M323.1 47.56 C256.77 47.78, 189.72 47.02, -0.07 47.8 M321.64 47.74 C215.27 47.57, 108.38 46.91, -0.66 47.52 M-1.44 46.81 C-1.37 27.88, 0.61 12.42, 1.42 -0.85 M-0.49 47.9 C0.12 35.06, 0.64 22.64, -0.19 0.86" stroke="#087f5b" stroke-width="1" fill="none"></path></g><g transform="translate(221.697265625 237.85546875) rotate(0 133.5 12.5)"><text x="133.5" y="18" font-family="Virgil, Segoe UI Emoji" font-size="20px" fill="#000000" text-anchor="middle" style="white-space: pre;" direction="ltr">PARTITION CONTROLLER</text></g><g stroke-linecap="round" transform="translate(194.296875 160.05859375) rotate(0 160.955078125 23.86328125)"><path d="M-0.38 0.46 C90.63 -0.75, 180.48 0.81, 320.98 0.2 M-0.51 0.33 C118.57 -0.96, 237.09 -0.88, 321.54 0.1 M322.6 1.27 C323.15 15.74, 323.23 31.47, 320.52 47.17 M322.12 -0.74 C322.29 18, 322.77 37.11, 321.99 48.3 M322.61 46.82 C211.49 49.09, 100.11 46.74, 0.31 47.21 M322.28 47.52 C195.44 45.78, 69.18 45.98, 0.11 47.32 M-1.53 47.13 C1.8 31.31, -0.69 12.12, 1.11 -1.61 M-0.32 47.43 C0.49 29.94, -0.34 11.41, -0.52 0.95" stroke="#a61e4d" stroke-width="1" fill="none"></path></g><g transform="translate(304.966796875 172.95703125) rotate(0 41 12.5)"><text x="41" y="18" font-family="Virgil, Segoe UI Emoji" font-size="20px" fill="#000000" text-anchor="middle" style="white-space: pre;" direction="ltr">TIMERS</text></g><g stroke-linecap="round" transform="translate(198.9453125 292.08203125) rotate(0 160.955078125 23.86328125)"><path d="M0.03 0.77 C123.7 2.02, 248.99 1.97, 321.47 -0.41 M0.35 -0.37 C105.8 1.56, 210.38 1.69, 321.79 0.21 M320.86 0.54 C320.88 11.22, 322.06 20.4, 321.92 49.44 M322.15 -0.03 C322.32 17.37, 321 34.12, 322.24 47.95 M322.37 48.14 C203.97 49.97, 87.72 49.84, 1.01 49.03 M321.27 48.25 C250.08 48.28, 179.16 47.48, 0.67 48.41 M-1.73 49.65 C-0.79 30.92, 0.12 10.23, -1.95 -1.28 M0.58 47.87 C0.05 34.96, -0.83 20.32, 0.66 -0.39" stroke="#364fc7" stroke-width="1" fill="none"></path></g><g transform="translate(305.849609375 305.5546875) rotate(0 39.5 12.5)"><text x="39.5" y="18" font-family="Virgil, Segoe UI Emoji" font-size="20px" fill="#000000" text-anchor="middle" style="white-space: pre;" direction="ltr">TICKER</text></g><g stroke-linecap="round" transform="translate(198.046875 354.93359375) rotate(0 160.955078125 23.86328125)"><path d="M0.48 -0.34 C98.29 -0.53, 194.53 -2.15, 322.85 -0.6 M0.16 0.38 C120.39 -0.25, 241.02 -0.74, 322.51 0.46 M322.4 -0.18 C322.71 16.69, 320.74 34.52, 323.5 47.91 M321.61 -0.94 C322.11 10.28, 321.72 23.21, 321.19 48.22 M323.02 47.14 C231.03 48.89, 141.59 46.9, -0.34 47.76 M322.08 47.07 C254.34 48.99, 186.43 49.32, 0.53 48.19 M0.91 49.1 C-1.52 34.95, -1.69 22.97, 0.74 1.97 M-0.32 48.44 C0.41 36.19, -0.54 25.99, 0.01 0.64" stroke="#c92a2a" stroke-width="1" fill="none"></path></g><g transform="translate(295.232421875 365.171875) rotate(0 51.5 12.5)"><text x="51.5" y="18" font-family="Virgil, Segoe UI Emoji" font-size="20px" fill="#000000" text-anchor="middle" style="white-space: pre;" direction="ltr">REST API</text></g></svg>