<svg version="1.1" xmlns="http://www.w3.org/2000/svg" viewBox="0 0 826.6874695612469 1498.292217236326" width="2480.0624086837406" height="4494.876651708978">
  <!-- svg-source:excalidraw -->
  
  <defs>
    <style class="style-fonts">
      @font-face {
        font-family: "Virgil";
        src: url("https://excalidraw.com/Virgil.woff2");
      }
      @font-face {
        font-family: "Cascadia";
        src: url("https://excalidraw.com/Cascadia.woff2");
      }
    </style>
    
  </defs>
  <g stroke-linecap="round" transform="translate(10 52.92559379788918) rotate(0 239.69825814743558 717.6833117192184)"><path d="M32 0 M32 0 C141.17 0, 250.33 0, 447.4 0 M447.4 0 C468.73 0, 479.4 10.67, 479.4 32 M479.4 32 C479.4 403.35, 479.4 774.7, 479.4 1403.37 M479.4 1403.37 C479.4 1424.7, 468.73 1435.37, 447.4 1435.37 M447.4 1435.37 C333.84 1435.37, 220.28 1435.37, 32 1435.37 M32 1435.37 C10.67 1435.37, 0 1424.7, 0 1403.37 M0 1403.37 C0 916.18, 0 429, 0 32 M0 32 C0 10.67, 10.67 0, 32 0" stroke="#1e1e1e" stroke-width="1.5" fill="none" stroke-dasharray="8 9"></path></g><g transform="translate(183.66687270974057 10) rotate(0 65.3857421875 11.5)"><text x="65.3857421875" y="0" font-family="Helvetica, Segoe UI Emoji" font-size="20px" fill="#1e1e1e" text-anchor="middle" style="white-space: pre;" direction="ltr" dominant-baseline="text-before-edge">Workflow VOD</text></g><g stroke-linecap="round" transform="translate(123.9562879584978 80.54257566431988) rotate(0 123 28)"><path d="M15.37 1.29 L234.59 -0.22 L242.94 3.04 L247.05 9.44 L246.28 45.74 L244.33 53.78 L237.88 56.07 L233.66 55.94 L10.47 55.82 L3.88 52.43 L0.25 49.08 L-0.68 12.77 L1.75 8.93 L3.62 2.67 L7.7 2.74 L12.8 -1.03" stroke="none" stroke-width="0" fill="#000000"></path><path d="M14 0 M14 0 C71.24 -0.46, 126.84 1.59, 232 0 M14 0 C78.62 -0.7, 144.26 -0.06, 232 0 M232 0 C239.63 -0.35, 245.76 5.39, 246 14 M232 0 C241.79 -1.53, 248.14 2.92, 246 14 M246 14 C245.75 22.96, 244.77 36.11, 246 42 M246 14 C247.03 22.01, 247.01 30.52, 246 42 M246 42 C247.73 50.62, 242.13 55.64, 232 56 M246 42 C245.18 50.14, 241.95 55.54, 232 56 M232 56 C186.99 57.93, 144.28 55.72, 14 56 M232 56 C169.65 55.64, 107.54 55.04, 14 56 M14 56 C5.7 55.8, -1.31 53.28, 0 42 M14 56 C2.92 57.18, -2.01 52.39, 0 42 M0 42 C-1.58 36.88, -0.92 31.09, 0 14 M0 42 C0.55 34.31, -0.37 26.71, 0 14 M0 14 C1.17 5.2, 4.96 1.85, 14 0 M0 14 C1.96 6.96, 5.25 0.67, 14 0" stroke="#1e1e1e" stroke-width="2" fill="none"></path></g><g transform="translate(190.2668348334978 85.54257566431988) rotate(0 56.689453125 23)"><text x="56.689453125" y="0" font-family="Helvetica, Segoe UI Emoji" font-size="20px" fill="#ffffff" text-anchor="middle" style="white-space: pre;" direction="ltr" dominant-baseline="text-before-edge">Check</text><text x="56.689453125" y="23" font-family="Helvetica, Segoe UI Emoji" font-size="20px" fill="#ffffff" text-anchor="middle" style="white-space: pre;" direction="ltr" dominant-baseline="text-before-edge">Fichier vidéo</text></g><g stroke-linecap="round" transform="translate(124.3598564635372 192.09252810382628) rotate(0 123 28)"><path d="M15.48 0.62 L236.26 0.74 L240.74 1.96 L244.1 7.28 L245.47 45 L240.82 51.01 L238.96 56.19 L231.87 54.18 L12.08 57.31 L2.67 51.58 L2.54 46.56 L-1.57 12.2 L-0.32 7.28 L2.07 4.32 L6.41 -0.73 L13.18 0.56" stroke="none" stroke-width="0" fill="#000000"></path><path d="M14 0 M14 0 C71.09 1.55, 130.91 2.82, 232 0 M14 0 C72.31 -1.93, 129.81 -2.24, 232 0 M232 0 C241.76 1.64, 247.57 6.37, 246 14 M232 0 C240.72 2.22, 246.22 3.78, 246 14 M246 14 C247.09 23.27, 244.15 32.69, 246 42 M246 14 C245.25 21.48, 245.09 30.43, 246 42 M246 42 C245.92 52.76, 242.09 55.44, 232 56 M246 42 C246.68 52.02, 242.18 54.46, 232 56 M232 56 C181.38 54.49, 133.36 53.31, 14 56 M232 56 C156.21 55.03, 78.64 54.55, 14 56 M14 56 C4.97 57.2, -0.79 53.26, 0 42 M14 56 C3.46 55.91, 1.91 49.2, 0 42 M0 42 C-0.95 34.52, 1.35 30.2, 0 14 M0 42 C-0.08 36.24, -0.25 30.01, 0 14 M0 14 C0.49 3.36, 5.2 1.8, 14 0 M0 14 C0.79 4.11, 6.47 0.47, 14 0" stroke="#1e1e1e" stroke-width="2" fill="none"></path></g><g transform="translate(199.5668877135372 197.09252810382628) rotate(0 47.79296875 23)"><text x="47.79296875" y="0" font-family="Helvetica, Segoe UI Emoji" font-size="20px" fill="#ffffff" text-anchor="middle" style="white-space: pre;" direction="ltr" dominant-baseline="text-before-edge">Check</text><text x="47.79296875" y="23" font-family="Helvetica, Segoe UI Emoji" font-size="20px" fill="#ffffff" text-anchor="middle" style="white-space: pre;" direction="ltr" dominant-baseline="text-before-edge">Sous-titres</text></g><g stroke-linecap="round" transform="translate(24.210446841730118 308.84442961443295) rotate(0 67 28)"><path d="M14.18 -1.53 L128.07 0.24 L131.41 5.78 L133.14 11.47 L132.61 48.28 L128.09 54.69 L120.85 57.7 L9.43 53.74 L2.1 51.85 L-1.1 46.14 L-1.46 10.81 L0.53 5.76 L6.16 1.74 L13.15 0.51" stroke="none" stroke-width="0" fill="#000000"></path><path d="M14 0 M14 0 C50.23 0.39, 87.14 1.43, 120 0 M14 0 C40.93 -0.94, 69 -0.71, 120 0 M120 0 C129.81 -0.7, 132.59 5.91, 134 14 M120 0 C127.92 -0.57, 132.58 6.6, 134 14 M134 14 C132.36 19.97, 132.57 26.11, 134 42 M134 14 C133.1 20.88, 132.96 27.42, 134 42 M134 42 C132.83 51.16, 131.32 55.32, 120 56 M134 42 C136.28 53.5, 129.69 54.09, 120 56 M120 56 C80.71 57.4, 42.94 53.88, 14 56 M120 56 C89.91 57.46, 58.64 56.71, 14 56 M14 56 C6.57 57.21, -1.35 49.46, 0 42 M14 56 C6.69 56.52, 0.93 51.14, 0 42 M0 42 C-0.52 31.81, -1.75 20.68, 0 14 M0 42 C0.96 33.89, 0.48 23.61, 0 14 M0 14 C0.2 3.49, 6.5 1.75, 14 0 M0 14 C-2.05 6.8, 3.96 1.45, 14 0" stroke="#1e1e1e" stroke-width="2" fill="none"></path></g><g transform="translate(42.29443121673012 313.84442961443295) rotate(0 48.916015625 23)"><text x="48.916015625" y="0" font-family="Helvetica, Segoe UI Emoji" font-size="20px" fill="#ffffff" text-anchor="middle" style="white-space: pre;" direction="ltr" dominant-baseline="text-before-edge">Storyboard</text><text x="48.916015625" y="23" font-family="Helvetica, Segoe UI Emoji" font-size="20px" fill="#ffffff" text-anchor="middle" style="white-space: pre;" direction="ltr" dominant-baseline="text-before-edge">SD</text></g><g stroke-linecap="round" transform="translate(182.6096641311458 307.84152239359054) rotate(0 67 28)"><path d="M14.93 1.21 L126.55 -0.63 L132.4 4.71 L134.02 9.4 L131.41 47.52 L126.72 52.82 L119.67 56.37 L9 56.31 L0.2 49.71 L-1.19 45.82 L0.56 9.85 L0.77 5.3 L6.54 3.85 L14.67 -1.66" stroke="none" stroke-width="0" fill="#000000"></path><path d="M14 0 M14 0 C46.36 -2.87, 81.22 -2.49, 120 0 M14 0 C45.39 -1.6, 74.91 -1.8, 120 0 M120 0 C130.35 1.41, 133.44 5.27, 134 14 M120 0 C130.37 0.42, 132.6 4.61, 134 14 M134 14 C132.4 23.99, 134.5 31.84, 134 42 M134 14 C133.83 21.41, 133.32 30.03, 134 42 M134 42 C132.65 51.46, 129.91 56.51, 120 56 M134 42 C133.11 50.07, 131 57.32, 120 56 M120 56 C84.5 55.84, 47.77 55.97, 14 56 M120 56 C92.77 56.29, 65.89 55.83, 14 56 M14 56 C3.69 57.84, 0.32 50.67, 0 42 M14 56 C5.06 54.46, 1.18 52.03, 0 42 M0 42 C1.75 34.88, -1.56 25.98, 0 14 M0 42 C0.62 33.51, -0.11 25.36, 0 14 M0 14 C-1.47 6.32, 4.65 -1.16, 14 0 M0 14 C0.43 4.81, 2.77 1.93, 14 0" stroke="#1e1e1e" stroke-width="2" fill="none"></path></g><g transform="translate(200.6936485061458 312.84152239359054) rotate(0 48.916015625 23)"><text x="48.916015625" y="0" font-family="Helvetica, Segoe UI Emoji" font-size="20px" fill="#ffffff" text-anchor="middle" style="white-space: pre;" direction="ltr" dominant-baseline="text-before-edge">Storyboard</text><text x="48.916015625" y="23" font-family="Helvetica, Segoe UI Emoji" font-size="20px" fill="#ffffff" text-anchor="middle" style="white-space: pre;" direction="ltr" dominant-baseline="text-before-edge">HD</text></g><g stroke-linecap="round" transform="translate(336.13230538848234 308.00390362725665) rotate(0 67 28)"><path d="M12.23 0.76 L125.84 -0.99 L131.16 6.19 L132.8 9.98 L131.83 46.65 L130.19 54.02 L118.84 56.37 L8 53.48 L3.64 51.67 L1.48 44.37 L1.92 11.1 L0.17 7.07 L7.19 0.33 L12.38 -0.02" stroke="none" stroke-width="0" fill="#000000"></path><path d="M14 0 M14 0 C49.17 -1.35, 85.3 2.06, 120 0 M14 0 C36.06 -1.02, 58.75 -1.43, 120 0 M120 0 C130.8 0.29, 135.12 3.09, 134 14 M120 0 C127.65 -0.47, 135.34 5.46, 134 14 M134 14 C132.71 24.37, 135.77 30.48, 134 42 M134 14 C134.44 20.96, 134.09 26.24, 134 42 M134 42 C132.59 51.83, 128.11 56.16, 120 56 M134 42 C134.07 49.1, 128.9 56.34, 120 56 M120 56 C90.5 56.23, 63.41 58.61, 14 56 M120 56 C79.73 56.2, 38.27 57.33, 14 56 M14 56 C4.35 55.46, 1.13 50.69, 0 42 M14 56 C4.4 53.98, -1.33 52.58, 0 42 M0 42 C-0.26 34.3, -1.47 24.56, 0 14 M0 42 C0.54 33.64, -0.51 23.17, 0 14 M0 14 C-0.69 6.18, 4.17 -0.97, 14 0 M0 14 C2.1 4.37, 4.67 1.26, 14 0" stroke="#1e1e1e" stroke-width="2" fill="none"></path></g><g transform="translate(356.44285226348234 313.00390362725665) rotate(0 46.689453125 23)"><text x="46.689453125" y="0" font-family="Helvetica, Segoe UI Emoji" font-size="20px" fill="#ffffff" text-anchor="middle" style="white-space: pre;" direction="ltr" dominant-baseline="text-before-edge">Thumbnail</text><text x="46.689453125" y="23" font-family="Helvetica, Segoe UI Emoji" font-size="20px" fill="#ffffff" text-anchor="middle" style="white-space: pre;" direction="ltr" dominant-baseline="text-before-edge">JPG</text></g><g stroke-linecap="round"><g transform="translate(244.24149899680856 143.33134231529402) rotate(0 0.747443489457396 19.82709299965458)"><path d="M1.49 0.58 C-0.64 10.71, 2.7 17.15, 0.39 38.73 M0.01 0.44 C-0.15 12.06, 1.58 25.67, 1.36 39.22" stroke="#1e1e1e" stroke-width="1" fill="none"></path></g><g transform="translate(244.24149899680856 143.33134231529402) rotate(0 0.747443489457396 19.82709299965458)"><path d="M-4.19 21.58 C-5.3 26.83, -0.9 28.52, -0.33 38.99 M-5.64 21.44 C-4.05 26.38, -0.78 33.31, 0.62 39.46" stroke="#1e1e1e" stroke-width="1" fill="none"></path></g><g transform="translate(244.24149899680856 143.33134231529402) rotate(0 0.747443489457396 19.82709299965458)"><path d="M9.15 21.33 C4.96 26.77, 6.27 28.52, -0.33 38.99 M7.7 21.19 C5.01 26.31, 4 33.32, 0.62 39.46" stroke="#1e1e1e" stroke-width="1" fill="none"></path></g></g><mask></mask><g stroke-linecap="round"><g transform="translate(233.8735318960646 257.9703358413292) rotate(0 -69.07840842037592 21.091139609823472)"><path d="M-1.85 1.6 C-33.25 7.81, -71.27 20.15, -139.04 42.55 M0.88 -0.36 C-47.18 14.84, -93.6 27.56, -138.23 41.14" stroke="#1e1e1e" stroke-width="1" fill="none"></path></g><g transform="translate(233.8735318960646 257.9703358413292) rotate(0 -69.07840842037592 21.091139609823472)"><path d="M-115.98 24.87 C-118.63 25.83, -128.13 32.42, -138.45 42.69 M-113.25 22.91 C-123.01 30.15, -131.12 35.14, -137.64 41.28" stroke="#1e1e1e" stroke-width="1" fill="none"></path></g><g transform="translate(233.8735318960646 257.9703358413292) rotate(0 -69.07840842037592 21.091139609823472)"><path d="M-110.13 44.54 C-114.06 40.59, -125.01 42.28, -138.45 42.69 M-107.4 42.58 C-119.13 43.27, -129.18 41.69, -137.64 41.28" stroke="#1e1e1e" stroke-width="1" fill="none"></path></g></g><mask></mask><g stroke-linecap="round"><g transform="translate(246.2977331348061 257.68986835864257) rotate(0 0.5061305733447625 21.640884718058714)"><path d="M1.89 0.24 C1.38 12.12, 0.24 19.37, -0.88 43.47 M-0.85 -0.18 C-0.62 13.39, 0.6 29.24, 1.78 43.3" stroke="#1e1e1e" stroke-width="1" fill="none"></path></g><g transform="translate(246.2977331348061 257.68986835864257) rotate(0 0.5061305733447625 21.640884718058714)"><path d="M-5.51 23.47 C-3.87 29.83, -3.06 31.5, 0.12 42.63 M-8.25 23.05 C-5.23 28.79, -1.31 36.9, 2.78 42.47" stroke="#1e1e1e" stroke-width="1" fill="none"></path></g><g transform="translate(246.2977331348061 257.68986835864257) rotate(0 0.5061305733447625 21.640884718058714)"><path d="M9.53 22.26 C7.68 28.79, 4.99 30.74, 0.12 42.63 M6.8 21.84 C4.97 28.12, 4.04 36.61, 2.78 42.47" stroke="#1e1e1e" stroke-width="1" fill="none"></path></g></g><mask></mask><g stroke-linecap="round"><g transform="translate(260.10500184285 258.39278998712587) rotate(0 66.64309224994031 17.703598773691624)"><path d="M-0.7 -1.04 C30.98 7.11, 60.8 17.9, 132.11 35.79 M0.74 -0.28 C38.5 10.42, 79.26 22.57, 133.99 36.45" stroke="#1e1e1e" stroke-width="1" fill="none"></path></g><g transform="translate(260.10500184285 258.39278998712587) rotate(0 66.64309224994031 17.703598773691624)"><path d="M103.41 38.17 C111.45 37.5, 117.93 39.6, 132.69 36.45 M104.86 38.93 C112.11 37.68, 122.57 38.55, 134.57 37.11" stroke="#1e1e1e" stroke-width="1" fill="none"></path></g><g transform="translate(260.10500184285 258.39278998712587) rotate(0 66.64309224994031 17.703598773691624)"><path d="M108.63 18.32 C115.65 22.12, 120.95 28.69, 132.69 36.45 M110.07 19.08 C115.91 23.6, 124.84 30.28, 134.57 37.11" stroke="#1e1e1e" stroke-width="1" fill="none"></path></g></g><mask></mask><g stroke-linecap="round" transform="translate(25.646494289139355 397.6205826580508) rotate(0 221 16.5)"><path d="M7.08 0.75 L432.26 1.78 L438.47 1.74 L440.17 3.18 L441.57 24.51 L439.68 30.99 L431.95 31.42 L8.58 33.25 L3.35 30.92 L1.39 24.46 L1.96 4.5 L2.82 2.25 L7.83 -1.79" stroke="none" stroke-width="0" fill="#868e96"></path><path d="M8.25 0 M8.25 0 C141.72 -1.26, 275.4 -1.54, 433.75 0 M8.25 0 C98.2 -0.48, 188.51 -0.58, 433.75 0 M433.75 0 C440.46 -1.16, 440.14 4.13, 442 8.25 M433.75 0 C441.48 -0.58, 441.2 0.76, 442 8.25 M442 8.25 C442.12 14.32, 441.14 20.43, 442 24.75 M442 8.25 C442.1 12.43, 442.89 16.81, 442 24.75 M442 24.75 C440.24 29.47, 438.31 34.07, 433.75 33 M442 24.75 C442.78 28.99, 440.27 32.61, 433.75 33 M433.75 33 C340.93 33.39, 247.87 33.91, 8.25 33 M433.75 33 C330.09 31.69, 227 32.53, 8.25 33 M8.25 33 C3.88 33.6, -1.39 30.6, 0 24.75 M8.25 33 C1.22 34.11, -1.64 31.21, 0 24.75 M0 24.75 C-1.09 18.85, -0.13 11.64, 0 8.25 M0 24.75 C0.48 19, 0.84 15.48, 0 8.25 M0 8.25 C0.63 3.18, 1.4 -0.99, 8.25 0 M0 8.25 C1.18 4.64, 3.74 -0.2, 8.25 0" stroke="#868e96" stroke-width="2" fill="none"></path></g><g transform="translate(122.14454116413935 402.6205826580508) rotate(0 124.501953125 11.5)"><text x="124.501953125" y="0" font-family="Helvetica, Segoe UI Emoji" font-size="20px" fill="#ffffff" text-anchor="middle" style="white-space: pre;" direction="ltr" dominant-baseline="text-before-edge">Attente fin des trois activités</text></g><g stroke-linecap="round" transform="translate(24.45717812887301 482.72755289433337) rotate(0 67 28)"><path d="M14.66 -0.06 L125.16 2.39 L131.36 3.99 L134.35 11.45 L131.48 47.68 L127.96 53.46 L120.33 57.18 L5.89 56.53 L2.46 50.39 L1.64 44.06 L-1 9.05 L3.42 5.41 L5.31 3.65 L14.56 1.64" stroke="none" stroke-width="0" fill="#000000"></path><path d="M14 0 M14 0 C51.94 0.26, 86.94 -0.58, 120 0 M14 0 C41.81 1.79, 68.35 -0.03, 120 0 M120 0 C128.75 -0.73, 134.78 3.71, 134 14 M120 0 C130.63 1.72, 131.88 4.31, 134 14 M134 14 C135.38 25.04, 133.18 32.5, 134 42 M134 14 C133.06 22.94, 135.02 30.71, 134 42 M134 42 C134.62 52.33, 128.57 55.74, 120 56 M134 42 C132.03 49.27, 129.55 56.92, 120 56 M120 56 C88.24 54.79, 55.61 54.45, 14 56 M120 56 C85.44 57.49, 48.89 56.42, 14 56 M14 56 C4.18 55.11, -0.51 52.95, 0 42 M14 56 C6.32 55.44, -2.18 52.37, 0 42 M0 42 C-0.28 35.15, 0.81 26.11, 0 14 M0 42 C-0.2 33.93, -0.74 27.8, 0 14 M0 14 C1.57 4.69, 5.88 0.47, 14 0 M0 14 C-1.95 3.17, 6.47 -1.25, 14 0" stroke="#1e1e1e" stroke-width="2" fill="none"></path></g><g transform="translate(52.18471719137301 487.72755289433337) rotate(0 39.2724609375 23)"><text x="39.2724609375" y="0" font-family="Helvetica, Segoe UI Emoji" font-size="20px" fill="#ffffff" text-anchor="middle" style="white-space: pre;" direction="ltr" dominant-baseline="text-before-edge">WebVTT</text><text x="39.2724609375" y="23" font-family="Helvetica, Segoe UI Emoji" font-size="20px" fill="#ffffff" text-anchor="middle" style="white-space: pre;" direction="ltr" dominant-baseline="text-before-edge">SD</text></g><g stroke-linecap="round" transform="translate(182.85639541828846 481.36620688221603) rotate(0 67 28)"><path d="M13.33 -1.48 L126.7 1.6 L130.39 5.02 L133.21 10.15 L133.45 49.31 L126.54 55.44 L120.49 55.85 L9.3 53.9 L0.75 48.86 L1.67 45.22 L0.06 12.4 L2.53 7.11 L6.46 3.27 L13.92 0.91" stroke="none" stroke-width="0" fill="#000000"></path><path d="M14 0 M14 0 C46.05 0.55, 78.31 1.8, 120 0 M14 0 C55.58 0.55, 98.14 0.44, 120 0 M120 0 C130.46 1.5, 132.16 4.36, 134 14 M120 0 C130.73 -0.92, 136.25 6.38, 134 14 M134 14 C133.89 24.03, 134.9 31.47, 134 42 M134 14 C134.58 24.44, 133.89 33.74, 134 42 M134 42 C132.29 49.54, 129.52 56.8, 120 56 M134 42 C133.89 53.11, 128.81 55.44, 120 56 M120 56 C94.03 57.24, 68.17 57.07, 14 56 M120 56 C80.47 55.17, 41.17 56.43, 14 56 M14 56 C6.1 55.51, -1.89 52.23, 0 42 M14 56 C4.3 56.76, 0.44 51.12, 0 42 M0 42 C-0.75 31.29, -1.21 21.51, 0 14 M0 42 C1.02 35.16, 0.84 28.52, 0 14 M0 14 C-1.7 3.37, 6.24 -1.09, 14 0 M0 14 C-2.25 6.04, 4.27 1.04, 14 0" stroke="#1e1e1e" stroke-width="2" fill="none"></path></g><g transform="translate(210.58393448078846 486.36620688221603) rotate(0 39.2724609375 23)"><text x="39.2724609375" y="0" font-family="Helvetica, Segoe UI Emoji" font-size="20px" fill="#ffffff" text-anchor="middle" style="white-space: pre;" direction="ltr" dominant-baseline="text-before-edge">WebVTT</text><text x="39.2724609375" y="23" font-family="Helvetica, Segoe UI Emoji" font-size="20px" fill="#ffffff" text-anchor="middle" style="white-space: pre;" direction="ltr" dominant-baseline="text-before-edge">HD</text></g><g stroke-linecap="round" transform="translate(336.379036675625 481.88702690715706) rotate(0 67 28)"><path d="M12.36 -0.45 L125.55 0.3 L132.36 6.65 L131.79 12.13 L133.61 47.98 L129.96 52.81 L118.78 54.33 L9.32 55.07 L1.81 52.21 L0.78 46.92 L1.21 12.02 L1.89 6.38 L5.68 0.84 L13.38 -0.89" stroke="none" stroke-width="0" fill="#000000"></path><path d="M14 0 M14 0 C48.88 -0.39, 78.23 -1.36, 120 0 M14 0 C42.48 1.26, 68.91 0.36, 120 0 M120 0 C130.55 -0.8, 135.95 6.15, 134 14 M120 0 C130.42 -0.82, 132.05 4.66, 134 14 M134 14 C135.24 24.78, 134 32.28, 134 42 M134 14 C133.04 22.9, 133.99 34, 134 42 M134 42 C133.9 52.88, 128.87 55.52, 120 56 M134 42 C132.88 49.21, 127.84 56.79, 120 56 M120 56 C79.4 56.47, 35.25 56.45, 14 56 M120 56 C93.62 56.62, 64.87 57.31, 14 56 M14 56 C4.35 56.66, 0.38 51.15, 0 42 M14 56 C5.93 57.04, 0.02 50.61, 0 42 M0 42 C-0.95 32.97, 1.83 28.91, 0 14 M0 42 C-1.02 32.92, 0.62 24.59, 0 14 M0 14 C-1.96 5.86, 4.32 0.91, 14 0 M0 14 C2.2 4.74, 2.88 -1.5, 14 0" stroke="#1e1e1e" stroke-width="2" fill="none"></path></g><g transform="translate(367.812630425625 486.88702690715706) rotate(0 35.56640625 23)"><text x="35.56640625" y="0" font-family="Helvetica, Segoe UI Emoji" font-size="20px" fill="#ffffff" text-anchor="middle" style="white-space: pre;" direction="ltr" dominant-baseline="text-before-edge">Preview</text><text x="35.56640625" y="23" font-family="Helvetica, Segoe UI Emoji" font-size="20px" fill="#ffffff" text-anchor="middle" style="white-space: pre;" direction="ltr" dominant-baseline="text-before-edge">MP4</text></g><g stroke-linecap="round"><g transform="translate(93.09330217640195 372.2700041653544) rotate(0 74.47091445173612 8.41457699777834)"><path d="M1.57 -0.98 C58.84 7.12, 118.02 11.43, 148.47 17.81 M0.47 -0.56 C53.35 6.95, 107.38 11.89, 147.55 15.49" stroke="#ffffff" stroke-width="1" fill="none"></path></g><g transform="translate(93.09330217640195 372.2700041653544) rotate(0 74.47091445173612 8.41457699777834)"><path d="M120.11 22.14 C130.21 20.81, 142.44 15.72, 149.05 17.31 M119.01 22.56 C128.26 21.27, 138.87 17.51, 148.13 14.98" stroke="#ffffff" stroke-width="1" fill="none"></path></g><g transform="translate(93.09330217640195 372.2700041653544) rotate(0 74.47091445173612 8.41457699777834)"><path d="M121.99 1.7 C131.54 8.51, 143.01 11.55, 149.05 17.31 M120.9 2.13 C129.64 8.35, 139.57 12.12, 148.13 14.98" stroke="#ffffff" stroke-width="1" fill="none"></path></g></g><mask></mask><g stroke-linecap="round"><g transform="translate(239.11236221703507 439.973506084537) rotate(0 -88.79631649532928 17.520702621303315)"><path d="M1.57 0.71 C-67.52 10.66, -132.35 25.76, -179.16 33.91 M0.68 0.78 C-56.92 11.01, -112.19 22.39, -177.44 34.33" stroke="#1e1e1e" stroke-width="1" fill="none"></path></g><g transform="translate(239.11236221703507 439.973506084537) rotate(0 -88.79631649532928 17.520702621303315)"><path d="M-150.05 19.75 C-162.71 23.19, -171.15 30.93, -178.76 33.08 M-150.94 19.82 C-160.4 24.49, -167.55 29.57, -177.03 33.51" stroke="#1e1e1e" stroke-width="1" fill="none"></path></g><g transform="translate(239.11236221703507 439.973506084537) rotate(0 -88.79631649532928 17.520702621303315)"><path d="M-146.26 39.92 C-160.28 35.86, -170.13 36.11, -178.76 33.08 M-147.16 39.99 C-157.79 38.26, -166.14 36.95, -177.03 33.51" stroke="#1e1e1e" stroke-width="1" fill="none"></path></g></g><mask></mask><g stroke-linecap="round"><g transform="translate(244.50107568391104 438.8101053919313) rotate(0 -0.900766600588895 21.284140776106312)"><path d="M-1.43 1.23 C-1.03 12.88, 1.54 26.88, -1.71 42.51 M-0.82 0.06 C-0.67 11.45, -1.01 23.41, -0.87 40.11" stroke="#1e1e1e" stroke-width="1" fill="none"></path></g><g transform="translate(244.50107568391104 438.8101053919313) rotate(0 -0.900766600588895 21.284140776106312)"><path d="M-9.32 22.16 C-6.44 26.27, -1.44 32.77, -2.62 41.77 M-8.71 20.99 C-6.51 26.44, -4.92 32.41, -1.78 39.37" stroke="#1e1e1e" stroke-width="1" fill="none"></path></g><g transform="translate(244.50107568391104 438.8101053919313) rotate(0 -0.900766600588895 21.284140776106312)"><path d="M4.65 22.13 C2.7 26.31, 2.86 32.82, -2.62 41.77 M5.27 20.97 C3.59 26.3, 1.31 32.27, -1.78 39.37" stroke="#1e1e1e" stroke-width="1" fill="none"></path></g></g><mask></mask><g stroke-linecap="round"><g transform="translate(250.8243040753964 443.02341048450535) rotate(0 76.06367659063153 14.434803695576363)"><path d="M-1.89 -0.41 C54.19 13.6, 111.22 21.93, 153.78 28.69 M1 -0.72 C44.72 6.76, 91.21 17.25, 154.02 29.59" stroke="#1e1e1e" stroke-width="1" fill="none"></path></g><g transform="translate(250.8243040753964 443.02341048450535) rotate(0 76.06367659063153 14.434803695576363)"><path d="M122.47 33.67 C133.88 34.22, 146.39 30.26, 152.95 28.22 M125.35 33.36 C132.22 31.58, 141.89 31.92, 153.18 29.12" stroke="#1e1e1e" stroke-width="1" fill="none"></path></g><g transform="translate(250.8243040753964 443.02341048450535) rotate(0 76.06367659063153 14.434803695576363)"><path d="M126.52 13.55 C136.57 21.22, 147.64 24.41, 152.95 28.22 M129.4 13.24 C135.11 17.41, 143.6 23.66, 153.18 29.12" stroke="#1e1e1e" stroke-width="1" fill="none"></path></g></g><mask></mask><g stroke-linecap="round" transform="translate(26.494426919172383 559.0221594856725) rotate(0 221 16.5)"><path d="M8.5 -1.14 L434.15 -1.21 L437.3 2.49 L440.52 6.47 L440.99 24.23 L441.56 29.26 L434.39 31.67 L9.3 33.4 L0.54 32.46 L-1.43 25.63 L0.89 5.34 L4.36 1.78 L8.8 -0.47" stroke="none" stroke-width="0" fill="#868e96"></path><path d="M8.25 0 M8.25 0 C100.75 0.9, 192.76 0.59, 433.75 0 M8.25 0 C115.3 0.83, 222.28 0.88, 433.75 0 M433.75 0 C440.03 0.59, 441.71 1.34, 442 8.25 M433.75 0 C437.16 -2.24, 442.58 3.35, 442 8.25 M442 8.25 C442.09 12.41, 441.76 17.21, 442 24.75 M442 8.25 C441.2 14.06, 441.62 19.29, 442 24.75 M442 24.75 C443.37 28.89, 439.14 32.86, 433.75 33 M442 24.75 C443.8 32.49, 438.6 33.77, 433.75 33 M433.75 33 C299.77 32.53, 167.82 33.98, 8.25 33 M433.75 33 C284.63 32.8, 136.02 32.58, 8.25 33 M8.25 33 C4.75 31.97, 0.92 29.76, 0 24.75 M8.25 33 C3.19 34.03, -1.75 28.81, 0 24.75 M0 24.75 C-1.09 20.71, -0.04 14.11, 0 8.25 M0 24.75 C-0.86 18.08, -0.9 12.89, 0 8.25 M0 8.25 C1.25 1.13, 3.91 -1.97, 8.25 0 M0 8.25 C0.95 3.85, 2.55 0.28, 8.25 0" stroke="#868e96" stroke-width="2" fill="none"></path></g><g transform="translate(122.99247379417238 564.0221594856725) rotate(0 124.501953125 11.5)"><text x="124.501953125" y="0" font-family="Helvetica, Segoe UI Emoji" font-size="20px" fill="#ffffff" text-anchor="middle" style="white-space: pre;" direction="ltr" dominant-baseline="text-before-edge">Attente fin des trois activités</text></g><g stroke-linecap="round" transform="translate(125.86925694488014 641.6217304397741) rotate(0 123 28)"><path d="M12.98 -1.46 L236.19 -1.03 L242.99 4.73 L244.85 7.62 L245.26 47.22 L241.38 52.53 L236.87 56.51 L232.86 55.18 L10.15 54.77 L3.94 53.94 L1.87 48.96 L0.73 13.75 L2.06 7.59 L4.66 3.26 L7.96 -0.02 L15.44 -0.24" stroke="none" stroke-width="0" fill="#000000"></path><path d="M14 0 M14 0 C79.16 0.07, 145.35 -3.23, 232 0 M14 0 C84.54 1.15, 156.07 1.15, 232 0 M232 0 C240.02 -1.76, 245.59 6.06, 246 14 M232 0 C242.65 1.25, 248.03 3.84, 246 14 M246 14 C247.29 21.33, 244.98 32.49, 246 42 M246 14 C246.52 22.76, 246.02 30.87, 246 42 M246 42 C245.41 50.1, 241.77 57.41, 232 56 M246 42 C244.01 53.22, 239.82 54.88, 232 56 M232 56 C153.02 56.1, 78.46 59.52, 14 56 M232 56 C146.12 56.65, 60.47 57.8, 14 56 M14 56 C5.72 55.86, 1.38 53.14, 0 42 M14 56 C6.15 56.1, -1.97 53.06, 0 42 M0 42 C-0.33 33.1, 0.87 22, 0 14 M0 42 C0.32 35.19, 0.29 27.99, 0 14 M0 14 C0.18 5.72, 5.01 -1.81, 14 0 M0 14 C1.87 6.94, 6.49 0.08, 14 0" stroke="#1e1e1e" stroke-width="2" fill="none"></path></g><g transform="translate(155.49523350738014 646.6217304397741) rotate(0 93.3740234375 23)"><text x="93.3740234375" y="0" font-family="Helvetica, Segoe UI Emoji" font-size="20px" fill="#ffffff" text-anchor="middle" style="white-space: pre;" direction="ltr" dominant-baseline="text-before-edge">File Manager</text><text x="93.3740234375" y="23" font-family="Helvetica, Segoe UI Emoji" font-size="20px" fill="#ffffff" text-anchor="middle" style="white-space: pre;" direction="ltr" dominant-baseline="text-before-edge">Déplacement fichiers</text></g><g stroke-linecap="round" transform="translate(126.77673105953431 744.6092889521864) rotate(0 123 28)"><path d="M14.06 -0.84 L234.35 -0.47 L241.3 1.97 L244.71 9.4 L246.23 44.18 L244.19 54.4 L237.66 53.24 L232.76 54.76 L12.02 53.87 L4.38 53.23 L2.52 49.24 L-1.21 12.77 L0.04 9.67 L3.43 1.64 L7.03 -0.07 L12.44 -1.59" stroke="none" stroke-width="0" fill="#000000"></path><path d="M14 0 M14 0 C97.85 -0.12, 179.6 -1.5, 232 0 M14 0 C74.76 -0.54, 133.77 -0.51, 232 0 M232 0 C242.13 0.89, 247.2 6.6, 246 14 M232 0 C239.2 0.23, 247.71 6.28, 246 14 M246 14 C244.38 24.05, 245.06 32.02, 246 42 M246 14 C245.98 21.08, 244.86 27.74, 246 42 M246 42 C245.1 51.76, 240.13 54.17, 232 56 M246 42 C245.67 53.52, 243.09 57.79, 232 56 M232 56 C169.2 56.54, 104.24 56.52, 14 56 M232 56 C184.71 55.02, 136.15 53.81, 14 56 M14 56 C4.73 56.55, 0.41 52.21, 0 42 M14 56 C3.62 56.21, -0.84 52.5, 0 42 M0 42 C-0.23 32.3, -0.87 23.6, 0 14 M0 42 C-0.43 31.35, -0.27 20.85, 0 14 M0 14 C-0.6 5.54, 4.73 0.89, 14 0 M0 14 C-1.72 6.13, 3.5 1.73, 14 0" stroke="#1e1e1e" stroke-width="2" fill="none"></path></g><g transform="translate(137.4818091845343 749.6092889521864) rotate(0 112.294921875 23)"><text x="112.294921875" y="0" font-family="Helvetica, Segoe UI Emoji" font-size="20px" fill="#ffffff" text-anchor="middle" style="white-space: pre;" direction="ltr" dominant-baseline="text-before-edge">Transcoding</text><text x="112.294921875" y="23" font-family="Helvetica, Segoe UI Emoji" font-size="20px" fill="#ffffff" text-anchor="middle" style="white-space: pre;" direction="ltr" dominant-baseline="text-before-edge">Demande de transcodate</text></g><g stroke-linecap="round" transform="translate(123.43579701216618 839.68870946389) rotate(0 123 28)"><path d="M15.12 0.3 L233.5 2 L243.83 2.2 L246.55 7.67 L246.16 45.02 L240.84 54.23 L239.22 55.27 L231.45 55.15 L11.33 55.11 L3.04 52.8 L-0.76 47.51 L1.72 12.14 L1.01 8.97 L4.9 1.79 L9.85 0.82 L12.32 -0.93" stroke="none" stroke-width="0" fill="#000000"></path><path d="M14 0 M14 0 C60.32 1.05, 107.87 -0.19, 232 0 M14 0 C70.22 0.98, 128.02 0.79, 232 0 M232 0 C241.19 -1.12, 246.85 5.57, 246 14 M232 0 C243.43 1.87, 243.95 2.37, 246 14 M246 14 C245.99 23.35, 247.34 35.85, 246 42 M246 14 C245.59 21.43, 246.18 29.3, 246 42 M246 42 C244.4 51.91, 240.62 54.81, 232 56 M246 42 C245.23 53.38, 242.83 56.08, 232 56 M232 56 C148.6 57.02, 66.19 57.77, 14 56 M232 56 C166.55 57.22, 100.82 56.63, 14 56 M14 56 C5.13 57.74, 1.43 50.33, 0 42 M14 56 C3.9 56.85, 0.75 52.23, 0 42 M0 42 C1.64 35.26, 0.93 30.6, 0 14 M0 42 C0.8 31.99, -0.85 23.3, 0 14 M0 14 C1.59 3.58, 4.85 -1.93, 14 0 M0 14 C0.27 5.86, 5.02 -1.75, 14 0" stroke="#1e1e1e" stroke-width="2" fill="none"></path></g><g transform="translate(162.50025013716618 844.68870946389) rotate(0 83.935546875 23)"><text x="83.935546875" y="0" font-family="Helvetica, Segoe UI Emoji" font-size="20px" fill="#ffffff" text-anchor="middle" style="white-space: pre;" direction="ltr" dominant-baseline="text-before-edge">Transcoding</text><text x="83.935546875" y="23" font-family="Helvetica, Segoe UI Emoji" font-size="20px" fill="#ffffff" text-anchor="middle" style="white-space: pre;" direction="ltr" dominant-baseline="text-before-edge">Polling - Attente fin</text></g><g stroke-linecap="round"><g transform="translate(246.63212425004713 603.4716880163422) rotate(0 0.8339618856847437 16.608799949596573)"><path d="M1.13 1.6 C-0.05 13.69, 1.33 23.77, 1.76 33.32 M0.24 -0.1 C0.38 7.26, -0.96 12.57, 0.9 31.37" stroke="#1e1e1e" stroke-width="1" fill="none"></path></g><g transform="translate(246.63212425004713 603.4716880163422) rotate(0 0.8339618856847437 16.608799949596573)"><path d="M-4.61 18.19 C-3.17 23.61, 0.38 27.39, 2.08 32.73 M-5.31 16.85 C-3.81 20.46, -3.56 22.42, 1.4 31.19" stroke="#1e1e1e" stroke-width="1" fill="none"></path></g><g transform="translate(246.63212425004713 603.4716880163422) rotate(0 0.8339618856847437 16.608799949596573)"><path d="M6.17 17.45 C3.34 23.09, 2.6 27.16, 2.08 32.73 M5.47 16.11 C4.68 19.84, 2.66 21.96, 1.4 31.19" stroke="#1e1e1e" stroke-width="1" fill="none"></path></g></g><mask></mask><g stroke-linecap="round"><g transform="translate(246.31187892726803 708.4601055954446) rotate(0 -0.5404573454923138 14.581971697927088)"><path d="M-0.65 -0.42 C-1.07 9.79, 0.23 23.71, -0.15 28.89 M-0.64 -0.53 C-1.02 5.9, -1.22 14.69, -0.63 29.69" stroke="#1e1e1e" stroke-width="1" fill="none"></path></g><g transform="translate(246.31187892726803 708.4601055954446) rotate(0 -0.5404573454923138 14.581971697927088)"><path d="M-6.64 15.42 C-4.44 19.68, -0.92 26.78, 0.21 28.85 M-6.64 15.33 C-5.38 18.21, -4.04 22.84, -0.15 29.46" stroke="#1e1e1e" stroke-width="1" fill="none"></path></g><g transform="translate(246.31187892726803 708.4601055954446) rotate(0 -0.5404573454923138 14.581971697927088)"><path d="M3.62 15.13 C1.8 19.57, 1.3 26.78, 0.21 28.85 M3.63 15.05 C2.53 17.96, 1.51 22.65, -0.15 29.46" stroke="#1e1e1e" stroke-width="1" fill="none"></path></g></g><mask></mask><g stroke-linecap="round"><g transform="translate(245.63174528175296 807.6729156332418) rotate(0 -0.05578838814130904 15.126667425608048)"><path d="M-0.94 1.56 C-1.21 6.96, -1.68 13.66, 1.04 28.82 M0.87 0.95 C0.45 10.27, 1.09 21.65, -0.09 29.3" stroke="#1e1e1e" stroke-width="1" fill="none"></path></g><g transform="translate(245.63174528175296 807.6729156332418) rotate(0 -0.05578838814130904 15.126667425608048)"><path d="M-4.48 16.72 C-3.8 18.96, -3.26 22.14, 0.5 29.63 M-3.19 16.29 C-2.19 20.48, -0.4 26.15, -0.3 29.97" stroke="#1e1e1e" stroke-width="1" fill="none"></path></g><g transform="translate(245.63174528175296 807.6729156332418) rotate(0 -0.05578838814130904 15.126667425608048)"><path d="M5.19 17.53 C3.51 19.64, 1.69 22.63, 0.5 29.63 M6.48 17.1 C3.88 21.07, 2.06 26.44, -0.3 29.97" stroke="#1e1e1e" stroke-width="1" fill="none"></path></g></g><mask></mask><g stroke-linecap="round" transform="translate(121.78076918404395 936.5972364191724) rotate(0 123 28)"><path d="M14.93 -1.3 L234.36 -1.02 L243.11 2.3 L245.98 9.7 L244.58 45.31 L242.93 53.89 L236.27 55.43 L230.09 56.22 L10.3 56.02 L1.94 54.26 L-0.75 47.22 L-1.61 12.13 L0.98 6.74 L2.68 1.65 L8.53 1.08 L12.34 -0.67" stroke="none" stroke-width="0" fill="#000000"></path><path d="M14 0 M14 0 C59.82 -0.52, 105.6 -2.05, 232 0 M14 0 C63.49 -0.89, 115.25 -0.3, 232 0 M232 0 C241.9 1.77, 245.52 6.35, 246 14 M232 0 C243.27 -0.73, 246.09 5.61, 246 14 M246 14 C247.62 22.03, 244.98 33.46, 246 42 M246 14 C245.3 23.74, 245.67 34.55, 246 42 M246 42 C247.38 50.2, 240.78 57.38, 232 56 M246 42 C244.56 53.31, 241.23 55.12, 232 56 M232 56 C147.08 58.34, 59.15 56, 14 56 M232 56 C167.52 54.34, 104.07 55, 14 56 M14 56 C4.61 54.9, -1.41 50.5, 0 42 M14 56 C6.81 56.3, -1.89 51.92, 0 42 M0 42 C-1.33 31.42, 0.41 23.01, 0 14 M0 42 C0.38 36.54, -0.46 30.35, 0 14 M0 14 C1.24 3.54, 6.2 1.85, 14 0 M0 14 C-0.74 6.37, 4.24 0.82, 14 0" stroke="#1e1e1e" stroke-width="2" fill="none"></path></g><g transform="translate(155.84033949654395 941.5972364191724) rotate(0 88.9404296875 23)"><text x="88.9404296875" y="0" font-family="Helvetica, Segoe UI Emoji" font-size="20px" fill="#ffffff" text-anchor="middle" style="white-space: pre;" direction="ltr" dominant-baseline="text-before-edge">DRM</text><text x="88.9404296875" y="23" font-family="Helvetica, Segoe UI Emoji" font-size="20px" fill="#ffffff" text-anchor="middle" style="white-space: pre;" direction="ltr" dominant-baseline="text-before-edge">Génération des clés</text></g><g stroke-linecap="round"><g transform="translate(244.98882751374845 902.325432274664) rotate(0 -0.3046837046405244 13.781791648978583)"><path d="M-0.58 -1.83 C0.19 9.99, -0.43 21.88, -0.84 27.63 M0.31 -0.68 C0.4 8.96, -1.12 18.62, -0.9 29.39" stroke="#1e1e1e" stroke-width="1" fill="none"></path></g><g transform="translate(244.98882751374845 902.325432274664) rotate(0 -0.3046837046405244 13.781791648978583)"><path d="M-6.13 14.03 C-3.39 19.77, -1.75 25.59, -0.73 27.94 M-5.47 14.88 C-3.65 19.57, -3.05 24.27, -0.77 29.24" stroke="#1e1e1e" stroke-width="1" fill="none"></path></g><g transform="translate(244.98882751374845 902.325432274664) rotate(0 -0.3046837046405244 13.781791648978583)"><path d="M4 14.22 C2.92 19.95, 0.74 25.69, -0.73 27.94 M4.66 15.07 C3.33 19.68, 0.78 24.31, -0.77 29.24" stroke="#1e1e1e" stroke-width="1" fill="none"></path></g></g><mask></mask><g stroke-linecap="round" transform="translate(121.63689475903084 1035.3361507993245) rotate(0 123 28)"><path d="M12.51 -1.07 L237.16 -1.62 L241.14 4.63 L244.52 6.83 L247.43 45.95 L243.66 52.37 L237.49 56.41 L230.67 55.46 L12.64 57.15 L3.21 53.51 L2.66 46.16 L0.39 14.43 L2.57 6.94 L4.61 1.87 L6.6 -0.19 L12.62 0.14" stroke="none" stroke-width="0" fill="#000000"></path><path d="M14 0 M14 0 C82.2 -1.82, 149.54 -1.45, 232 0 M14 0 C78.05 -0.6, 142.51 -1.31, 232 0 M232 0 C243.32 -0.05, 246.25 4.19, 246 14 M232 0 C242.8 0.81, 246.1 3.35, 246 14 M246 14 C247.54 24.73, 244.81 31.1, 246 42 M246 14 C246.47 21.92, 245.39 29.07, 246 42 M246 42 C246.63 50.73, 241.89 57.98, 232 56 M246 42 C244.01 49.44, 241.53 57.69, 232 56 M232 56 C183.63 57.47, 138.44 59.29, 14 56 M232 56 C183.74 56.96, 133.58 56.06, 14 56 M14 56 C3.89 54.08, -0.4 53.2, 0 42 M14 56 C4.01 57.52, 0.94 52.04, 0 42 M0 42 C-1.7 33.9, -0.25 23.32, 0 14 M0 42 C-0.91 32.62, -0.3 24.4, 0 14 M0 14 C-1.83 6.33, 3.85 0.91, 14 0 M0 14 C0.04 6.13, 3.44 -0.25, 14 0" stroke="#1e1e1e" stroke-width="2" fill="none"></path></g><g transform="translate(197.93767600903084 1040.3361507993245) rotate(0 46.69921875 23)"><text x="46.69921875" y="0" font-family="Helvetica, Segoe UI Emoji" font-size="20px" fill="#ffffff" text-anchor="middle" style="white-space: pre;" direction="ltr" dominant-baseline="text-before-edge">Packaging</text><text x="46.69921875" y="23" font-family="Helvetica, Segoe UI Emoji" font-size="20px" fill="#ffffff" text-anchor="middle" style="white-space: pre;" direction="ltr" dominant-baseline="text-before-edge">USP</text></g><g stroke-linecap="round"><g transform="translate(244.56637336795166 999.5198203180693) rotate(0 -0.2930315543025017 15.710749897883147)"><path d="M-0.61 0.21 C-1.1 10.13, -1.13 22.72, -0.14 31.21 M0.36 0.62 C0.31 8.47, 0.04 14.98, 0.27 30.7" stroke="#1e1e1e" stroke-width="1" fill="none"></path></g><g transform="translate(244.56637336795166 999.5198203180693) rotate(0 -0.2930315543025017 15.710749897883147)"><path d="M-5.42 16.82 C-4.06 21.23, -2.39 27.6, -0.44 31.65 M-4.69 17.13 C-3.48 20.81, -2.49 23.52, -0.13 31.27" stroke="#1e1e1e" stroke-width="1" fill="none"></path></g><g transform="translate(244.56637336795166 999.5198203180693) rotate(0 -0.2930315543025017 15.710749897883147)"><path d="M4.83 16.75 C2.46 21.12, 0.39 27.52, -0.44 31.65 M5.55 17.05 C4.13 20.84, 2.48 23.57, -0.13 31.27" stroke="#1e1e1e" stroke-width="1" fill="none"></path></g></g><mask></mask><g stroke-linecap="round" transform="translate(123.87362293345655 1132.4323752237897) rotate(0 123 28)"><path d="M15.87 -1.44 L234.12 1.29 L243.68 3.67 L247.03 8.14 L245.11 43.96 L242.16 53.5 L237.82 55.56 L233.35 57.24 L9.07 53.83 L2.36 51.78 L0.93 46.61 L-1.2 15.74 L-0.89 6.88 L1.95 3.02 L6.92 0.04 L15.79 -0.15" stroke="none" stroke-width="0" fill="#000000"></path><path d="M14 0 M14 0 C91.82 0.88, 172.9 1.25, 232 0 M14 0 C63.87 0.52, 115.08 0.34, 232 0 M232 0 C242.92 -1.75, 246.96 6.34, 246 14 M232 0 C242.53 -1.46, 246.79 4.99, 246 14 M246 14 C246.25 21.68, 244.55 30.19, 246 42 M246 14 C246.01 21.71, 246.06 30.9, 246 42 M246 42 C245.08 52.45, 243.19 57.58, 232 56 M246 42 C248.13 49.78, 242.1 56.61, 232 56 M232 56 C184.74 56.33, 135.49 56.59, 14 56 M232 56 C180.57 57.85, 128.39 58.18, 14 56 M14 56 C5.06 55.65, -1.62 52.59, 0 42 M14 56 C4.86 54.92, -0.33 50.17, 0 42 M0 42 C0.17 35.23, -1.42 30.87, 0 14 M0 42 C0.39 33.82, 0.5 24.39, 0 14 M0 14 C1.57 3.35, 3.42 0.92, 14 0 M0 14 C-1.98 4.31, 4.75 -1.14, 14 0" stroke="#1e1e1e" stroke-width="2" fill="none"></path></g><g transform="translate(197.40584949595655 1148.9323752237897) rotate(0 49.4677734375 11.5)"><text x="49.4677734375" y="0" font-family="Helvetica, Segoe UI Emoji" font-size="20px" fill="#ffffff" text-anchor="middle" style="white-space: pre;" direction="ltr" dominant-baseline="text-before-edge">Check final</text></g><g stroke-linecap="round" transform="translate(123.99106869183152 1231.4911978263808) rotate(0 123 28)"><path d="M13.53 1 L235.27 -0.37 L244.41 2.63 L245.69 8.44 L245.81 46.78 L242.3 53 L239.53 55.4 L231.05 55.07 L8.94 57.77 L1.84 52.94 L0.23 47.59 L0.4 15.11 L-0.74 7.7 L2.15 5.34 L9.44 1.4 L15.17 -0.24" stroke="none" stroke-width="0" fill="#000000"></path><path d="M14 0 M14 0 C77.71 1.87, 141.2 1.95, 232 0 M14 0 C91.56 -1.6, 169.74 -1.47, 232 0 M232 0 C239.45 0.28, 244.65 6.37, 246 14 M232 0 C243.16 -0.45, 246.63 5.08, 246 14 M246 14 C244.42 19.48, 246.86 27.86, 246 42 M246 14 C246.26 22.32, 245.3 28.4, 246 42 M246 42 C246.92 49.63, 242.45 54.35, 232 56 M246 42 C245.01 50.99, 243.47 55.47, 232 56 M232 56 C185.95 58.7, 140.96 57.31, 14 56 M232 56 C172.65 57.18, 111.88 57.18, 14 56 M14 56 C4.2 57.61, 0.82 50.35, 0 42 M14 56 C5.77 55.58, 1.9 51.21, 0 42 M0 42 C-1.59 33.98, 1.54 28.02, 0 14 M0 42 C-0.17 33.54, 0.05 22.79, 0 14 M0 14 C0.52 3.93, 3.72 1.62, 14 0 M0 14 C1.01 2.77, 4.89 1.68, 14 0" stroke="#1e1e1e" stroke-width="2" fill="none"></path></g><g transform="translate(175.10142025433152 1236.4911978263808) rotate(0 71.8896484375 23)"><text x="71.8896484375" y="0" font-family="Helvetica, Segoe UI Emoji" font-size="20px" fill="#ffffff" text-anchor="middle" style="white-space: pre;" direction="ltr" dominant-baseline="text-before-edge">File Manager</text><text x="71.8896484375" y="23" font-family="Helvetica, Segoe UI Emoji" font-size="20px" fill="#ffffff" text-anchor="middle" style="white-space: pre;" direction="ltr" dominant-baseline="text-before-edge">Upload AWS S3</text></g><g stroke-linecap="round"><g transform="translate(243.75895063414055 1096.94694243605) rotate(0 -0.0435759369038351 15.786130920219648)"><path d="M0.2 1.46 C-1.25 13.19, 1.02 21.85, 0.62 32.31 M0.56 -0.74 C0.11 8.76, -1.19 18.27, -0.6 30.35" stroke="#1e1e1e" stroke-width="1" fill="none"></path></g><g transform="translate(243.75895063414055 1096.94694243605) rotate(0 -0.0435759369038351 15.786130920219648)"><path d="M-5.91 16.9 C-4.71 22.4, -0.56 25.47, 0.65 31.26 M-5.63 15.18 C-4.13 19.68, -3.27 24.19, -0.3 29.73" stroke="#1e1e1e" stroke-width="1" fill="none"></path></g><g transform="translate(243.75895063414055 1096.94694243605) rotate(0 -0.0435759369038351 15.786130920219648)"><path d="M4.75 16.8 C1.89 22.26, 1.98 25.36, 0.65 31.26 M5.02 15.09 C3.34 19.62, 1.01 24.16, -0.3 29.73" stroke="#1e1e1e" stroke-width="1" fill="none"></path></g></g><mask></mask><g stroke-linecap="round"><g transform="translate(244.04090135832212 1192.3660252501036) rotate(0 -0.2518651589466572 16.25001625464131)"><path d="M-1.77 0.23 C-0.26 7.41, -1.25 13.81, 1.27 32.25 M0.67 -0.44 C-0.71 6.66, 0.44 13.08, -0.44 32.94" stroke="#1e1e1e" stroke-width="1" fill="none"></path></g><g transform="translate(244.04090135832212 1192.3660252501036) rotate(0 -0.2518651589466572 16.25001625464131)"><path d="M-6.97 17.91 C-4.6 21.42, -4.17 24.26, 1.05 33.08 M-5.01 17.38 C-4.89 20.78, -2.75 23.63, -0.32 33.62" stroke="#1e1e1e" stroke-width="1" fill="none"></path></g><g transform="translate(244.04090135832212 1192.3660252501036) rotate(0 -0.2518651589466572 16.25001625464131)"><path d="M4 18.19 C3.98 21.57, 2.02 24.36, 1.05 33.08 M5.96 17.65 C3.69 20.99, 3.44 23.78, -0.32 33.62" stroke="#1e1e1e" stroke-width="1" fill="none"></path></g></g><mask></mask><g stroke-linecap="round" transform="translate(125.67239034645627 1323.5479744315248) rotate(0 123 28)"><path d="M13.89 -0.62 L234.71 0.89 L241.82 3.58 L243.23 9.42 L245.48 45.73 L243.3 50.69 L236.37 55.97 L232.38 57.79 L9.17 56.09 L5.49 52.73 L-0.98 48.68 L-0.88 12.07 L2.35 9.87 L5.06 4.08 L6.75 0.61 L13.42 1.69" stroke="none" stroke-width="0" fill="#000000"></path><path d="M14 0 M14 0 C69.66 1.93, 126.96 0.29, 232 0 M14 0 C67.3 1.16, 120.9 2.6, 232 0 M232 0 C239.36 -0.94, 246.54 6.12, 246 14 M232 0 C240.72 -1.85, 245.19 5.29, 246 14 M246 14 C246.65 20.18, 247.65 31.09, 246 42 M246 14 C246.85 20.19, 246.01 28.89, 246 42 M246 42 C244.99 52.02, 241.61 54.84, 232 56 M246 42 C243.89 49.97, 241.3 57.62, 232 56 M232 56 C153.46 57.12, 74.41 57.27, 14 56 M232 56 C165.57 54.1, 101.39 54.82, 14 56 M14 56 C5.12 55.27, 0.36 52.41, 0 42 M14 56 C2.56 55.08, 0.48 49.19, 0 42 M0 42 C-1.17 33.5, -0.19 27.95, 0 14 M0 42 C0.88 30.99, 0.89 22.37, 0 14 M0 14 C-0.14 6.39, 3.77 -0.35, 14 0 M0 14 C-1.39 6.32, 5.87 1.09, 14 0" stroke="#1e1e1e" stroke-width="2" fill="none"></path></g><g transform="translate(162.52981222145627 1328.5479744315248) rotate(0 86.142578125 23)"><text x="86.142578125" y="0" font-family="Helvetica, Segoe UI Emoji" font-size="20px" fill="#ffffff" text-anchor="middle" style="white-space: pre;" direction="ltr" dominant-baseline="text-before-edge">Updater</text><text x="86.142578125" y="23" font-family="Helvetica, Segoe UI Emoji" font-size="20px" fill="#ffffff" text-anchor="middle" style="white-space: pre;" direction="ltr" dominant-baseline="text-before-edge">Mise à jour delivery</text></g><g stroke-linecap="round" transform="translate(126.63096887261895 1411.788235829957) rotate(0 123 28)"><path d="M12.87 0.21 L233.94 -0.05 L244.34 3.53 L246.23 7.04 L246.58 44.98 L242.09 52.61 L239.17 53.25 L232.26 54.14 L9.25 54.33 L5.43 51.64 L0.81 48.62 L0.09 13.32 L-0.53 7.71 L2.45 4.68 L6.43 1.61 L13.38 1.55" stroke="none" stroke-width="0" fill="#000000"></path><path d="M14 0 M14 0 C63.11 0.95, 114.24 0.92, 232 0 M14 0 C87.01 1.1, 158.16 0.04, 232 0 M232 0 C239.83 1.47, 245.21 4.93, 246 14 M232 0 C241.4 -0.4, 243.94 4.09, 246 14 M246 14 C244.47 21.59, 247.31 27.87, 246 42 M246 14 C246.41 21.6, 245.76 27.23, 246 42 M246 42 C245.02 50.75, 240.68 57.58, 232 56 M246 42 C246.29 53.42, 241.07 57.4, 232 56 M232 56 C158.76 57.66, 81.54 57.62, 14 56 M232 56 C148.29 57.13, 65.8 57.15, 14 56 M14 56 C5.34 55.8, 0.56 49.44, 0 42 M14 56 C3.44 55.1, 0.33 53.41, 0 42 M0 42 C-0.63 36.99, -0.68 27.6, 0 14 M0 42 C-0.44 32.59, 0.33 21.6, 0 14 M0 14 C-1.28 3.86, 4.1 -1.32, 14 0 M0 14 C-0.17 5.88, 5.33 -1.2, 14 0" stroke="#1e1e1e" stroke-width="2" fill="none"></path></g><g transform="translate(180.16319543511895 1416.788235829957) rotate(0 69.4677734375 23)"><text x="69.4677734375" y="0" font-family="Helvetica, Segoe UI Emoji" font-size="20px" fill="#ffffff" text-anchor="middle" style="white-space: pre;" direction="ltr" dominant-baseline="text-before-edge">Callback</text><text x="69.4677734375" y="23" font-family="Helvetica, Segoe UI Emoji" font-size="20px" fill="#ffffff" text-anchor="middle" style="white-space: pre;" direction="ltr" dominant-baseline="text-before-edge">Fin de workflow</text></g><g stroke-linecap="round"><g transform="translate(239.8557332200403 1291.3667991741868) rotate(0 -0.8800755398046931 15.259526351176419)"><path d="M-1.71 1.83 C-1.96 8.14, 0.5 13.6, -2.72 29.58 M0.96 0.57 C0.6 11.75, -0.95 21.26, -1.87 29.95" stroke="#1e1e1e" stroke-width="1" fill="none"></path></g><g transform="translate(239.8557332200403 1291.3667991741868) rotate(0 -0.8800755398046931 15.259526351176419)"><path d="M-6.45 17.13 C-5.63 19.92, -2.78 22.09, -3.09 30.33 M-4.52 16.22 C-3.25 21.72, -2.83 26, -2.47 30.6" stroke="#1e1e1e" stroke-width="1" fill="none"></path></g><g transform="translate(239.8557332200403 1291.3667991741868) rotate(0 -0.8800755398046931 15.259526351176419)"><path d="M3.42 18.3 C1.7 20.81, 2 22.68, -3.09 30.33 M5.36 17.38 C2.89 22.44, -0.41 26.28, -2.47 30.6" stroke="#1e1e1e" stroke-width="1" fill="none"></path></g></g><mask></mask><g stroke-linecap="round"><g transform="translate(236.3230564994126 1384.0628528636662) rotate(0 -0.49317968856746575 13.038648478305277)"><path d="M0.09 -0.95 C-0.9 7.28, -1.69 19.3, -0.87 26.44 M-0.82 0.23 C0.6 5.94, 0.3 11.89, -0.13 27.02" stroke="#1e1e1e" stroke-width="1" fill="none"></path></g><g transform="translate(236.3230564994126 1384.0628528636662) rotate(0 -0.49317968856746575 13.038648478305277)"><path d="M-4.32 13.65 C-3.71 17.46, -3.02 23.78, -1.28 26.75 M-4.93 14.44 C-3.2 17.13, -2.61 19.98, -0.78 27.14" stroke="#1e1e1e" stroke-width="1" fill="none"></path></g><g transform="translate(236.3230564994126 1384.0628528636662) rotate(0 -0.49317968856746575 13.038648478305277)"><path d="M4.86 13.89 C2.43 17.54, 0.08 23.77, -1.28 26.75 M4.25 14.69 C4 17.33, 2.6 20.13, -0.78 27.14" stroke="#1e1e1e" stroke-width="1" fill="none"></path></g></g><mask></mask><g stroke-linecap="round" transform="translate(598.9900299158639 769.9961545383761) rotate(0 108 44)"><path d="M157.22 4.91 C170.32 6.82, 181.83 11.02, 191.11 15.68 C200.4 20.35, 208.85 26.95, 212.91 32.9 C216.97 38.84, 217.93 45.48, 215.49 51.37 C213.05 57.26, 206.41 63.28, 198.27 68.23 C190.14 73.19, 178.91 77.76, 166.68 81.12 C154.45 84.47, 139.3 87.37, 124.9 88.38 C110.51 89.39, 94.55 89.02, 80.32 87.19 C66.08 85.36, 50.85 81.39, 39.51 77.38 C28.18 73.37, 18.92 68.3, 12.29 63.14 C5.66 57.99, 0.67 52.25, -0.25 46.45 C-1.17 40.64, 1.57 33.73, 6.77 28.31 C11.98 22.9, 20.73 18.36, 30.97 13.98 C41.22 9.59, 54.61 4.41, 68.22 2.01 C81.84 -0.38, 96.94 -0.91, 112.68 -0.4 C128.43 0.11, 153.69 3.78, 162.68 5.07 C171.67 6.36, 167.74 6.52, 166.64 7.35 M81.22 2.33 C94.29 0.55, 112.62 1.4, 126.96 2.14 C141.29 2.88, 155.35 3.88, 167.23 6.77 C179.11 9.66, 190.1 14.11, 198.23 19.49 C206.36 24.86, 213.9 32.95, 216.02 39.04 C218.14 45.13, 215 50.3, 210.95 56.01 C206.9 61.72, 201.09 68.53, 191.71 73.3 C182.34 78.07, 167.82 82.02, 154.7 84.65 C141.58 87.28, 127.48 89.15, 112.99 89.07 C98.5 88.99, 81.5 86.65, 67.75 84.18 C54 81.71, 40.74 78.27, 30.49 74.27 C20.25 70.28, 11.18 65.74, 6.3 60.21 C1.42 54.68, 0.25 47, 1.21 41.09 C2.18 35.18, 5.46 30.23, 12.07 24.73 C18.67 19.23, 29.1 12.26, 40.84 8.11 C52.59 3.96, 75.81 0.83, 82.55 -0.18 C89.28 -1.18, 81.06 1.03, 81.27 2.07" stroke="none" stroke-width="0" fill="#7950f2"></path><path d="M84.37 0.1 C97.69 -1.85, 115 -0.9, 129.51 0.46 C144.02 1.83, 159.46 4.66, 171.43 8.31 C183.39 11.96, 194.01 17.18, 201.3 22.38 C208.59 27.57, 213.36 33.77, 215.15 39.47 C216.94 45.16, 216.25 50.97, 212.03 56.55 C207.81 62.12, 199.76 68.27, 189.81 72.93 C179.86 77.59, 165.62 82.01, 152.32 84.52 C139.02 87.03, 124.7 87.95, 110.03 87.98 C95.35 88.02, 77.73 87.28, 64.26 84.76 C50.79 82.23, 38.93 77.23, 29.21 72.84 C19.49 68.44, 10.71 64.01, 5.95 58.39 C1.18 52.77, -0.58 45.27, 0.61 39.11 C1.79 32.94, 5.81 26.33, 13.04 21.41 C20.27 16.49, 30.72 13.1, 43.97 9.61 C57.22 6.12, 83.15 1.82, 92.54 0.49 C101.93 -0.84, 100 0.86, 100.34 1.62 M154.95 5.18 C168.14 6.94, 182.85 10.43, 192.18 14.69 C201.52 18.96, 207.35 25.07, 210.96 30.77 C214.57 36.48, 215.78 43.04, 213.83 48.92 C211.88 54.81, 207.03 60.88, 199.26 66.1 C191.49 71.31, 179.21 76.79, 167.21 80.21 C155.21 83.63, 141.43 85.58, 127.25 86.64 C113.08 87.7, 96.5 88.15, 82.15 86.57 C67.8 84.99, 52.82 80.67, 41.15 77.16 C29.48 73.65, 18.99 70.65, 12.13 65.52 C5.28 60.4, 1.14 52.7, 0 46.41 C-1.13 40.12, 0.41 33.15, 5.32 27.8 C10.22 22.45, 18.94 18.51, 29.44 14.32 C39.94 10.13, 54.44 4.87, 68.31 2.67 C82.17 0.47, 98.25 0.87, 112.63 1.14 C127 1.41, 147.45 3.59, 154.54 4.28 C161.64 4.96, 155.81 4.47, 155.21 5.24" stroke="#868e96" stroke-width="1" fill="none"></path></g><g transform="translate(651.3510131727169 802.383456166168) rotate(0 55.771484375 11.5)"><text x="55.771484375" y="0" font-family="Helvetica, Segoe UI Emoji" font-size="20px" fill="#ffffff" text-anchor="middle" style="white-space: pre;" direction="ltr" dominant-baseline="text-before-edge">Transcodeur</text></g><g stroke-linecap="round"><g transform="translate(383.2568693557889 771.9826194205582) rotate(0 104.63374645890372 15.768394914608109)"><path d="M0.25 0.23 C57.64 10.98, 120.46 18, 209.02 31.31" stroke="#1e1e1e" stroke-width="1.5" fill="none" stroke-dasharray="1.5 7"></path></g><g transform="translate(383.2568693557889 771.9826194205582) rotate(0 104.63374645890372 15.768394914608109)"><path d="M179.94 37.71 C186.03 37.2, 198.13 33.8, 208.49 32.93" stroke="#1e1e1e" stroke-width="1.5" fill="none" stroke-dasharray="1.5 5"></path></g><g transform="translate(383.2568693557889 771.9826194205582) rotate(0 104.63374645890372 15.768394914608109)"><path d="M182.86 17.4 C188.04 22.64, 199.32 25, 208.49 32.93" stroke="#1e1e1e" stroke-width="1.5" fill="none" stroke-dasharray="1.5 5"></path></g></g><mask></mask><g stroke-linecap="round"><g transform="translate(378.1231008614011 867.51739507122) rotate(0 107.68459042691666 -22.788090654275436)"><path d="M0.84 1.53 C49.84 -10.93, 101.29 -23.76, 214.53 -47.1" stroke="#1e1e1e" stroke-width="1.5" fill="none" stroke-dasharray="1.5 7"></path></g><g transform="translate(378.1231008614011 867.51739507122) rotate(0 107.68459042691666 -22.788090654275436)"><path d="M190.06 -29.45 C194.03 -33.5, 200.75 -39.12, 213.65 -46.62" stroke="#1e1e1e" stroke-width="1.5" fill="none" stroke-dasharray="1.5 5"></path></g><g transform="translate(378.1231008614011 867.51739507122) rotate(0 107.68459042691666 -22.788090654275436)"><path d="M185.79 -49.52 C190.83 -48.86, 198.56 -49.74, 213.65 -46.62" stroke="#1e1e1e" stroke-width="1.5" fill="none" stroke-dasharray="1.5 5"></path></g></g><mask></mask><g stroke-linecap="round" transform="translate(597.3926508403588 921.2553911225338) rotate(0 108 44)"><path d="M58.87 4.73 C70.54 1.79, 87.05 1.13, 101.52 0.97 C115.99 0.81, 132.12 1.87, 145.7 3.76 C159.27 5.66, 172.46 8.41, 182.99 12.33 C193.51 16.26, 203.44 21.65, 208.86 27.32 C214.29 33, 216.28 40.28, 215.52 46.39 C214.76 52.5, 210.62 58.85, 204.29 63.98 C197.96 69.12, 188.92 73.59, 177.55 77.2 C166.18 80.8, 150.35 83.97, 136.08 85.61 C121.8 87.25, 106.12 87.79, 91.9 87.03 C77.68 86.27, 63 84.16, 50.78 81.05 C38.57 77.94, 26.77 73.23, 18.59 68.39 C10.41 63.56, 4.17 58.08, 1.7 52.04 C-0.78 46.01, 0.22 38.02, 3.74 32.17 C7.26 26.32, 12.67 21.6, 22.8 16.93 C32.93 12.26, 56.66 6.45, 64.52 4.17 C72.37 1.88, 69.32 2.59, 69.92 3.23 M155.7 4.65 C169.05 6.28, 180.3 10.15, 189.63 14.8 C198.96 19.44, 207.31 26.54, 211.65 32.51 C216 38.49, 217.44 44.66, 215.68 50.64 C213.92 56.62, 208.91 63.59, 201.1 68.41 C193.29 73.22, 180.87 76.39, 168.83 79.52 C156.8 82.65, 143.13 86.09, 128.88 87.18 C114.64 88.27, 97.8 87.26, 83.36 86.06 C68.91 84.86, 54.13 83.25, 42.21 79.99 C30.3 76.73, 19.08 71.81, 11.87 66.51 C4.66 61.2, 0.04 54.47, -1.03 48.15 C-2.09 41.82, 0.27 34.17, 5.49 28.56 C10.71 22.96, 20.33 18.8, 30.3 14.52 C40.27 10.24, 52.01 5.18, 65.32 2.88 C78.64 0.58, 95.36 0.61, 110.2 0.71 C125.04 0.8, 147.28 2.72, 154.38 3.43 C161.48 4.14, 153.47 4.24, 152.79 4.98" stroke="none" stroke-width="0" fill="#7950f2"></path><path d="M131.46 2.06 C145.31 2.63, 160.1 4.65, 171.74 7.92 C183.39 11.19, 194.01 16.49, 201.34 21.68 C208.67 26.86, 214.21 33.11, 215.74 39.03 C217.27 44.96, 215.24 51.26, 210.51 57.21 C205.79 63.16, 197.51 70.05, 187.39 74.75 C177.26 79.45, 163.38 83.21, 149.79 85.4 C136.19 87.58, 120.31 88.19, 105.83 87.87 C91.36 87.55, 76.21 85.86, 62.94 83.48 C49.66 81.1, 35.88 78.04, 26.16 73.59 C16.44 69.13, 8.97 62.39, 4.62 56.75 C0.26 51.1, -1.83 45.46, 0.05 39.72 C1.93 33.99, 8.43 27.58, 15.89 22.32 C23.35 17.06, 32.99 11.64, 44.81 8.15 C56.64 4.67, 70.57 2.28, 86.84 1.43 C103.1 0.58, 131.55 2.66, 142.39 3.05 C153.23 3.43, 152.36 3.34, 151.85 3.74 M70.86 2.29 C83.2 -0.12, 100.71 0.58, 115.42 0.87 C130.13 1.16, 146.12 1.24, 159.13 4.02 C172.14 6.8, 184.48 12.78, 193.48 17.54 C202.47 22.29, 209.38 26.74, 213.09 32.56 C216.79 38.39, 218.09 46.42, 215.72 52.48 C213.34 58.54, 207.35 64.36, 198.84 68.93 C190.32 73.5, 177.01 76.93, 164.6 79.88 C152.19 82.84, 138.69 85.84, 124.38 86.69 C110.06 87.53, 92.92 86.69, 78.69 84.97 C64.45 83.25, 50.39 80.19, 38.97 76.36 C27.56 72.53, 16.58 67.26, 10.18 62 C3.79 56.74, 0.97 50.38, 0.59 44.8 C0.2 39.22, 2.5 33.69, 7.88 28.53 C13.26 23.37, 22.58 18.06, 32.87 13.86 C43.15 9.65, 63.34 4.99, 69.61 3.31 C75.89 1.63, 69.61 3.09, 70.5 3.76" stroke="#868e96" stroke-width="1" fill="none"></path></g><g transform="translate(667.1803919097117 953.6426927503256) rotate(0 38.3447265625 11.5)"><text x="38.3447265625" y="0" font-family="Helvetica, Segoe UI Emoji" font-size="20px" fill="#ffffff" text-anchor="middle" style="white-space: pre;" direction="ltr" dominant-baseline="text-before-edge">Services</text></g><g stroke-linecap="round"><g transform="translate(374.47924844871795 965.2506717177774) rotate(0 107.06198694473846 -1.6215116149401751)"><path d="M-1.7 -1.52 C46.1 -1.85, 88.17 -1.7, 215.83 -1.59" stroke="#1e1e1e" stroke-width="1.5" fill="none" stroke-dasharray="1.5 7"></path></g><g transform="translate(374.47924844871795 965.2506717177774) rotate(0 107.06198694473846 -1.6215116149401751)"><path d="M185.67 6.89 C195 5.9, 197.69 4.6, 213.97 -0.35" stroke="#1e1e1e" stroke-width="1.5" fill="none" stroke-dasharray="1.5 5"></path></g><g transform="translate(374.47924844871795 965.2506717177774) rotate(0 107.06198694473846 -1.6215116149401751)"><path d="M185.69 -13.63 C194.86 -10.39, 197.54 -7.46, 213.97 -0.35" stroke="#1e1e1e" stroke-width="1.5" fill="none" stroke-dasharray="1.5 5"></path></g></g><mask></mask><g stroke-linecap="round" transform="translate(600.6874695612469 1214.4458496727616) rotate(0 108 44)"><path d="M138.02 2.54 C151.89 3.74, 167.02 7.41, 178.36 11.17 C189.7 14.93, 199.76 20, 206.07 25.09 C212.38 30.18, 215.89 35.89, 216.2 41.71 C216.52 47.52, 213.54 54.22, 207.97 59.99 C202.4 65.76, 193.5 71.93, 182.77 76.33 C172.05 80.73, 157.4 84.3, 143.62 86.38 C129.83 88.47, 114.54 89.4, 100.08 88.84 C85.62 88.29, 69.85 86.13, 56.84 83.04 C43.83 79.95, 30.89 74.95, 22.03 70.31 C13.16 65.67, 6.94 60.85, 3.64 55.19 C0.33 49.53, -0.18 42.32, 2.19 36.35 C4.55 30.39, 9.52 24.52, 17.82 19.42 C26.11 14.31, 39.33 8.77, 51.93 5.74 C64.53 2.7, 78.39 1.87, 93.4 1.21 C108.41 0.55, 133.14 1.48, 142 1.79 C150.86 2.1, 147.16 2.36, 146.57 3.06 M152.94 4.68 C166.41 6.38, 181.91 9.54, 191.5 14.22 C201.1 18.9, 206.76 26.63, 210.49 32.75 C214.22 38.87, 215.39 45.31, 213.86 50.95 C212.33 56.59, 208.57 61.97, 201.31 66.6 C194.05 71.24, 182.75 75.24, 170.31 78.74 C157.87 82.25, 141.29 86.47, 126.66 87.65 C112.04 88.83, 96.62 87.31, 82.54 85.8 C68.46 84.29, 53.52 81.91, 42.19 78.6 C30.87 75.28, 21.76 71.11, 14.6 65.9 C7.44 60.69, 0.81 53.25, -0.78 47.32 C-2.37 41.39, 0.22 35.83, 5.07 30.31 C9.92 24.8, 18.1 18.57, 28.33 14.23 C38.57 9.88, 52.55 6.37, 66.49 4.25 C80.44 2.13, 97.19 1.34, 112 1.51 C126.81 1.67, 148.22 4.67, 155.35 5.25 C162.47 5.83, 155.88 4.44, 154.77 5" stroke="none" stroke-width="0" fill="#7950f2"></path><path d="M58.94 5.25 C70.49 1.97, 88.35 -0.34, 103.17 -0.68 C117.98 -1.03, 134.28 0.96, 147.83 3.17 C161.37 5.38, 174.17 8.49, 184.43 12.59 C194.7 16.69, 204.33 22.04, 209.43 27.76 C214.53 33.48, 216 40.86, 215.02 46.92 C214.03 52.97, 210.14 58.75, 203.54 64.09 C196.94 69.44, 186.94 75.2, 175.41 78.98 C163.89 82.77, 148.55 85.3, 134.39 86.8 C120.24 88.3, 104.82 89.15, 90.48 87.98 C76.14 86.8, 60.47 83.16, 48.34 79.75 C36.21 76.33, 25.47 72.48, 17.71 67.49 C9.95 62.49, 4.07 55.8, 1.79 49.8 C-0.5 43.79, 0.1 37.06, 4 31.46 C7.91 25.87, 14 20.88, 25.23 16.23 C36.46 11.57, 61.61 5.97, 71.36 3.51 C81.11 1.04, 82.98 0.81, 83.71 1.45 M123.82 -0.73 C137.91 -0.6, 153.54 3.57, 166.23 6.97 C178.93 10.36, 192.1 14.71, 200.01 19.63 C207.92 24.55, 211.78 30.55, 213.67 36.5 C215.56 42.46, 215.09 49.36, 211.34 55.38 C207.59 61.4, 200.36 67.98, 191.17 72.64 C181.99 77.3, 169.28 80.91, 156.24 83.33 C143.2 85.76, 127.49 86.84, 112.92 87.21 C98.34 87.58, 82.56 87.61, 68.79 85.56 C55.03 83.52, 40.71 79.44, 30.33 74.94 C19.95 70.44, 11.46 63.95, 6.53 58.55 C1.6 53.15, -0.16 48.45, 0.75 42.53 C1.66 36.6, 5.51 28.57, 11.98 22.98 C18.45 17.4, 28.3 12.73, 39.56 9.01 C50.82 5.29, 65.38 2.15, 79.53 0.67 C93.67 -0.81, 116.97 -0.13, 124.42 0.12 C131.86 0.37, 124.52 1.5, 124.2 2.18" stroke="#868e96" stroke-width="1" fill="none"></path></g><g transform="translate(671.3980621930998 1246.8331513005533) rotate(0 37.421875 11.5)"><text x="37.421875" y="0" font-family="Helvetica, Segoe UI Emoji" font-size="20px" fill="#ffffff" text-anchor="middle" style="white-space: pre;" direction="ltr" dominant-baseline="text-before-edge">AWS S3</text></g><g stroke-linecap="round"><g transform="translate(379.0554529811302 1256.5194261238926) rotate(0 106.53493954344151 -1.2189292236761275)"><path d="M-1.41 0.07 C58.52 -2.33, 119.55 -0.98, 214.48 -2.5" stroke="#1e1e1e" stroke-width="1.5" fill="none" stroke-dasharray="1.5 7"></path></g><g transform="translate(379.0554529811302 1256.5194261238926) rotate(0 106.53493954344151 -1.2189292236761275)"><path d="M184.78 8.11 C193.1 3.93, 202.76 3.18, 212.64 -3.18" stroke="#1e1e1e" stroke-width="1.5" fill="none" stroke-dasharray="1.5 5"></path></g><g transform="translate(379.0554529811302 1256.5194261238926) rotate(0 106.53493954344151 -1.2189292236761275)"><path d="M184.57 -12.41 C193.16 -10.96, 202.87 -6.07, 212.64 -3.18" stroke="#1e1e1e" stroke-width="1.5" fill="none" stroke-dasharray="1.5 5"></path></g></g><mask></mask><g stroke-linecap="round" transform="translate(596.4694004298044 1392.34118259563) rotate(0 108 44)"><path d="M140.4 2.47 C154.4 3.47, 168.68 7.67, 179.73 11.48 C190.79 15.28, 200.8 19.93, 206.74 25.3 C212.67 30.67, 215.26 37.73, 215.35 43.71 C215.43 49.69, 212.89 55.62, 207.24 61.19 C201.6 66.76, 192.1 72.99, 181.49 77.15 C170.89 81.31, 157.51 84.34, 143.59 86.16 C129.67 87.98, 112.87 88.77, 97.98 88.08 C83.09 87.39, 67.06 85.02, 54.23 82.02 C41.41 79.02, 29.71 74.94, 21.02 70.1 C12.34 65.25, 5.18 58.79, 2.15 52.96 C-0.88 47.14, -0.22 40.93, 2.84 35.13 C5.89 29.33, 12.3 23.05, 20.5 18.16 C28.71 13.27, 39.52 8.63, 52.05 5.8 C64.58 2.97, 80.1 1.64, 95.69 1.17 C111.29 0.7, 136.35 2.45, 145.62 2.99 C154.89 3.52, 151.96 3.54, 151.32 4.38 M153.81 4.5 C167.01 6.13, 181.58 9.76, 190.98 14.36 C200.39 18.96, 206.23 26.19, 210.25 32.11 C214.28 38.03, 216.98 44.06, 215.15 49.89 C213.32 55.72, 206.81 61.93, 199.29 67.1 C191.77 72.28, 182.15 77.31, 170.01 80.92 C157.86 84.53, 141.08 87.64, 126.42 88.76 C111.76 89.89, 96.11 89.22, 82.05 87.68 C68 86.14, 53.5 83.49, 42.1 79.52 C30.69 75.55, 20.49 69.49, 13.63 63.86 C6.77 58.24, 2.01 51.69, 0.92 45.78 C-0.17 39.86, 2.2 33.63, 7.1 28.36 C11.99 23.1, 20.41 18.29, 30.29 14.19 C40.17 10.08, 52.72 6.12, 66.36 3.73 C80.01 1.34, 97.53 -0.1, 112.15 -0.14 C126.77 -0.17, 147.17 2.63, 154.07 3.52 C160.98 4.41, 154.14 4.16, 153.58 5.18" stroke="none" stroke-width="0" fill="#7950f2"></path><path d="M138.99 1.09 C152.84 2.24, 168.81 6.99, 180.1 11.19 C191.38 15.39, 200.79 20.9, 206.71 26.29 C212.64 31.68, 215.6 37.7, 215.65 43.53 C215.69 49.35, 212.64 55.62, 206.97 61.23 C201.3 66.84, 192.37 73.26, 181.62 77.19 C170.87 81.12, 156.27 83.12, 142.48 84.81 C128.69 86.5, 113.49 87.84, 98.87 87.32 C84.25 86.8, 67.79 84.51, 54.77 81.68 C41.74 78.86, 29.53 75.17, 20.72 70.37 C11.92 65.57, 4.97 58.76, 1.94 52.88 C-1.09 47.01, -0.53 40.84, 2.54 35.1 C5.61 29.36, 12.09 23.13, 20.36 18.44 C28.63 13.76, 39.63 9.95, 52.18 7.01 C64.72 4.07, 79.37 1.55, 95.62 0.8 C111.86 0.05, 138.94 1.52, 149.64 2.51 C160.33 3.5, 160.38 5.75, 159.79 6.75 M86.97 0.18 C100.15 -1.52, 115.34 -0.74, 129.68 0.88 C144.01 2.5, 160.71 6.36, 172.98 9.93 C185.25 13.49, 196.35 17.48, 203.31 22.28 C210.27 27.08, 213.72 32.57, 214.73 38.72 C215.75 44.87, 213.78 53.43, 209.41 59.21 C205.03 64.99, 198.13 69.24, 188.48 73.4 C178.83 77.56, 165.03 81.56, 151.5 84.15 C137.96 86.74, 121.96 88.77, 107.25 88.94 C92.53 89.12, 76.63 87.97, 63.21 85.2 C49.8 82.43, 36.23 77.09, 26.76 72.32 C17.28 67.56, 10.65 62.35, 6.38 56.6 C2.11 50.84, -0.22 43.45, 1.14 37.79 C2.5 32.14, 7.24 27.57, 14.53 22.67 C21.83 17.78, 33.1 11.85, 44.91 8.42 C56.71 4.99, 78.56 3.17, 85.38 2.09 C92.2 1, 85.17 1.59, 85.84 1.89" stroke="#868e96" stroke-width="1" fill="none"></path></g><g transform="translate(633.7669071241573 1413.2284842234221) rotate(0 70.8349609375 23)"><text x="70.8349609375" y="0" font-family="Helvetica, Segoe UI Emoji" font-size="20px" fill="#ffffff" text-anchor="middle" style="white-space: pre;" direction="ltr" dominant-baseline="text-before-edge">Client à l'origine</text><text x="70.8349609375" y="23" font-family="Helvetica, Segoe UI Emoji" font-size="20px" fill="#ffffff" text-anchor="middle" style="white-space: pre;" direction="ltr" dominant-baseline="text-before-edge">de l'exécution</text></g><g stroke-linecap="round"><g transform="translate(379.52105597041736 1437.504468376586) rotate(0 105.83536134353506 -1.1437803911159108)"><path d="M-0.86 -1.47 C74.05 1.19, 148.69 0.03, 212.53 -2.34" stroke="#1e1e1e" stroke-width="1.5" fill="none" stroke-dasharray="1.5 7"></path></g><g transform="translate(379.52105597041736 1437.504468376586) rotate(0 105.83536134353506 -1.1437803911159108)"><path d="M183.67 7.05 C193.72 5.81, 203.39 1.43, 212.77 -2.66" stroke="#1e1e1e" stroke-width="1.5" fill="none" stroke-dasharray="1.5 5"></path></g><g transform="translate(379.52105597041736 1437.504468376586) rotate(0 105.83536134353506 -1.1437803911159108)"><path d="M183.08 -13.46 C193.18 -7.47, 203.05 -4.64, 212.77 -2.66" stroke="#1e1e1e" stroke-width="1.5" fill="none" stroke-dasharray="1.5 5"></path></g></g><mask></mask></svg>