<svg version="1.1" xmlns="http://www.w3.org/2000/svg" viewBox="0 0 959.2109375 163.71875" width="959.2109375" height="163.71875">
  <!-- svg-source:excalidraw -->
  
  <defs>
    <style>
      @font-face {
        font-family: "Virgil";
        src: url("https://excalidraw.com/Virgil.woff2");
      }
      @font-face {
        font-family: "Cascadia";
        src: url("https://excalidraw.com/Cascadia.woff2");
      }
    </style>
  </defs>
  <rect x="0" y="0" width="959.2109375" height="163.71875" fill="#ffffff"></rect><g stroke-linecap="round" transform="translate(10 10) rotate(0 469.60546875 71.859375)"><path d="M0 0 C0 0, 0 0, 0 0 M0 0 C0 0, 0 0, 0 0 M0.48 7.09 C0.67 4.88, 3.67 2.62, 5.24 -0.37 M-0.29 6.24 C1.61 4.62, 2.95 2.79, 5.1 0.68 M0.66 11.3 C4.05 8.74, 5.33 4.81, 10.74 -0.45 M-0.11 11.81 C2.44 9.1, 5.49 6.36, 10.65 0.17 M-1.88 16.49 C3.74 11.55, 10.91 6.99, 15.31 -1.65 M0.11 17.59 C4.72 13.58, 7.85 8.75, 15.9 0.14 M-1.27 24.07 C8.05 17.36, 15.74 6.81, 22.73 1.16 M-0.02 23.79 C6.88 16.64, 12.5 10.24, 20.83 0.38 M1.09 28.91 C11.13 21.24, 16.97 8.41, 26.37 1.48 M0.44 31.14 C6.43 24.21, 12.93 16.38, 25.96 1.27 M-0.4 34.98 C8.43 29.15, 14.43 17.15, 30.75 -0.53 M-0.93 36.76 C10.43 25.34, 20.15 12.77, 31.3 -0.06 M-1.25 42.36 C7.44 34.36, 18.68 21.04, 36.4 -1.15 M-0.49 42.35 C14.32 27.51, 27.32 12.15, 37.51 -0.57 M1.17 48.4 C8.09 38, 17.96 26.41, 41.13 1.82 M0.02 49.49 C14.15 30.23, 30.77 14.14, 42.66 0.63 M0.29 55.43 C11.54 43.34, 20.28 30.54, 48.88 1.99 M-0.53 54.39 C17.26 34.75, 35.42 13.15, 47.41 -0.57 M1.16 59.7 C15.65 41.15, 33.57 20.55, 55.05 -0.71 M0.61 60.97 C13.45 46.58, 26.21 30.28, 53.78 0.63 M1.12 67.06 C13.65 51.79, 28.16 32.32, 59.24 0.98 M0.1 67.62 C20.24 44.4, 39.02 21.04, 58.31 1.06 M1.85 74.12 C19.17 50.49, 39.51 26.25, 62.62 0.51 M1.05 72.45 C17.62 51.82, 37.08 31.32, 62.84 -0.44 M-0.47 79.52 C12.44 60.52, 26.86 45.94, 68.76 -1.47 M0.46 79.61 C26.3 47.67, 52.12 17.25, 69.66 0.05 M-0.58 85.49 C27.19 52.95, 58.52 18.73, 72.87 1.75 M0.35 85.07 C20.26 61.6, 39.37 38.36, 74.31 -0.48 M-1.25 92.93 C20.21 65.4, 44 41.91, 78.67 -0.07 M-0.08 90.63 C29.59 58.96, 57.94 24.44, 78.72 1.09 M1.31 98.98 C24.32 67.9, 51.65 39.08, 83.7 0.82 M0.67 97.72 C31.52 64.49, 60.62 28.72, 85.97 0.03 M-0.42 104.26 C21.89 81.54, 40.44 57.88, 88.1 -0.92 M-0.17 103.66 C35.92 62.2, 72.04 21.7, 89.51 0.81 M-1.18 110.08 C34.04 67.37, 70.5 27.28, 95.94 -0.82 M-1.08 108.97 C20.87 86.07, 42.81 61.9, 95.88 -0.91 M1.72 114.07 C25.85 87.11, 53.51 55.82, 100.06 0.44 M-0.2 116.12 C35.64 75.1, 68.1 37.39, 99.9 0.81 M1.21 123.16 C35.14 78.17, 74.24 36.84, 107.32 -0.16 M-0.13 122.6 C35.59 80.17, 71.49 39.08, 105.41 0.15 M1.11 129.26 C23.9 97.41, 50.57 65.72, 111.49 1.09 M0.12 127.66 C32.46 90.82, 65.12 54.27, 110.51 0.63 M0.27 134.42 C32.24 94.96, 66.11 54.83, 117.83 2.19 M-0.31 133.6 C29 98.65, 60.34 62.46, 115.57 -0.15 M-1.41 142.06 C29.07 107.31, 57.05 76.4, 123.23 0.7 M-0.68 140.08 C36.16 96.44, 73.68 53.83, 121.78 0.77 M1.04 145.13 C39.77 99.56, 76.98 56.56, 126.31 0.91 M1.72 144.38 C47.95 91.57, 93.9 40.58, 126.62 0.03 M8.47 145.04 C49.71 98.52, 88.52 48.74, 134.03 -0.47 M5.82 145.4 C39.26 105.55, 73.97 66.24, 132.94 -0.32 M12.36 146.39 C38.62 114.66, 68.82 78.81, 136.56 0.59 M11.95 144.54 C45.54 105.57, 81.91 64.23, 137.16 1.26 M15.45 144.13 C56.56 102.86, 90.95 59.57, 142.55 0.43 M17.82 143.87 C47.45 110.46, 75.14 77.62, 143.02 0.77 M23.88 145.23 C60.71 98.26, 103.13 52.47, 149.94 -1.38 M23.11 145.98 C54.69 105.73, 89.78 67.15, 147.76 0.79 M27.84 144.39 C60.02 108.65, 89.06 71.91, 153.33 -1.14 M27.5 144.72 C61.89 106.66, 94.65 69.56, 153.85 -0.6 M34.38 144.98 C73.57 93.48, 118.77 45.04, 158.72 -0.01 M31.92 144.25 C67.8 105.37, 100.85 66.84, 159.25 0.32 M36.76 145.95 C66.13 113.15, 94.14 81.17, 162.85 0.86 M39.27 145.08 C88.72 89.2, 137.33 32, 165.05 -0.14 M43.2 146.81 C89.08 93.66, 134.65 42.23, 168.05 -0.7 M43.58 145.09 C71.5 114.08, 98.38 79.56, 169.78 1.02 M50.26 146.52 C72.9 115.78, 97.87 84.94, 173.48 1.06 M48.83 145.55 C87.82 101.53, 125.58 58.16, 175.05 0.44 M55.59 144.47 C88.35 104.22, 125.07 60.97, 182.01 -1.27 M54.07 144.2 C99.17 91.02, 146.08 37.84, 179.8 0.51 M59.29 143.4 C94.33 102.37, 128.99 64.59, 187.49 0.69 M60.2 145.2 C87.09 112.84, 112.98 83.5, 186.04 0.34 M64.69 146.32 C104.4 98.39, 144.15 53.73, 189.59 2.05 M65.16 144.25 C106.67 97.7, 146.45 51.67, 191.04 -0.15 M71.7 143.49 C108.31 100.43, 143.38 60.16, 197.08 1.58 M70.67 144.53 C117.64 90.3, 164.57 36.42, 197.06 -1.26 M73.58 145.32 C117.16 93.36, 161.92 41.13, 202.67 0.64 M75.43 145.83 C103.99 113.14, 131.03 80.31, 201.55 0.57 M82.26 145.31 C128.86 89.39, 175.23 36.05, 206.32 0.14 M81.85 144.49 C108.03 116.16, 133.65 85.69, 206.91 -0.24 M85.2 145 C128.17 98.71, 168.71 48.88, 210.04 -0.54 M85.26 144.51 C133.05 88.29, 182.38 34.1, 212.66 -0.36 M90.64 144.92 C125.32 105.3, 160.17 67.18, 217.22 1.38 M90.63 145.51 C137.22 89.21, 185.3 37.7, 217.19 -0.53 M96.45 145.5 C137.43 97, 180.65 49.85, 223.41 -0.93 M95.81 145.8 C122.68 111.5, 150.53 81.42, 221.99 0.49 M103.41 146.02 C147.78 94.73, 191.15 45.51, 227.67 0.92 M102.21 144.43 C134.32 106.87, 167.19 70.79, 227.32 -1.09 M108.08 145.55 C135.48 113.61, 166 77.41, 231.38 1.61 M108.05 144.18 C149.58 95.63, 194.43 47.4, 232.48 0 M112.05 145.88 C160.62 86.6, 212.04 32.54, 236.84 -0.3 M113.07 143.59 C153.44 100.27, 191.97 55.27, 238.83 -0.19 M118.79 144.47 C149.24 105.48, 185.88 65.74, 245.46 0.85 M117.74 144.05 C151.28 106.89, 183.21 68.16, 243.34 -0.5 M122.95 145.38 C153.82 106.32, 186.21 70.7, 249.75 -0.99 M124 143.76 C167.04 94.53, 209.27 47.1, 249.04 0.6 M127.17 144.19 C169.91 99.27, 210.05 53.39, 254.07 0.11 M128.45 144.8 C163.71 106.02, 197.09 66.55, 255.11 -0.22 M134.75 143.72 C179.34 95.28, 222.12 40.43, 259.37 -1.02 M134.43 145.91 C179 91.87, 225.19 39.7, 260.09 -0.08 M137.72 143.21 C180.21 94.78, 223.18 46.27, 264.54 -1.68 M138.53 145.74 C188.36 90.18, 235.97 35.53, 264.6 0.09 M142.96 145.47 C177.22 109.32, 207.46 74.95, 271.21 1.61 M144.06 145.21 C188.84 91.01, 236.58 39.02, 270.56 0.62 M150.83 146.63 C192.49 92.04, 238.22 43.17, 277.09 0.03 M150.13 145.17 C196.3 92.9, 242.02 41.54, 275.91 -0.89 M154.02 147.03 C204.95 86.96, 254.17 32.69, 280.73 1.45 M153.89 144.55 C202.08 91.11, 249.18 35.57, 279.84 -0.52 M160.82 144.16 C198.09 100.12, 237.34 55.19, 286.87 1.33 M160.21 145.31 C201.51 96.74, 242.07 50.82, 285.48 -0.01 M165.95 143.64 C210.57 90.88, 255.62 38.83, 291.25 -0.32 M165.92 144.51 C213.97 89, 259.81 35.21, 291.13 0.27 M169.9 144.09 C222.49 89.44, 272.72 30.41, 297.91 -0.04 M171.52 145.34 C212.94 95.66, 255.78 47.16, 297 -0.67 M177.68 144.14 C217.25 97.58, 256.35 49.34, 300.03 2.06 M175.4 145.14 C224.09 90.96, 269.91 36.22, 302.4 0.67 M182.19 143.3 C218.68 100.38, 255.84 60.09, 309.18 1.22 M181.59 144.41 C228.99 90.11, 275.61 35.5, 308.48 0.19 M187.01 144.96 C227.38 98.87, 263.99 53.97, 312.21 0.95 M185.91 144.91 C229.14 98, 271.57 50.99, 313.43 -0.65 M193.72 145.28 C237.23 92.69, 282.07 40.57, 316.51 0 M191.77 144.61 C220.72 113.85, 249.35 81.26, 319.22 -0.92 M196.69 144.14 C238.24 100.8, 277.44 52.61, 322.86 1.29 M196.32 145.78 C229.26 108.49, 262.58 70.24, 322.79 0.91 M202.43 146.1 C235.79 107.61, 264.42 71.84, 330.68 -1.18 M202.2 143.98 C246.71 96.8, 290.46 46.75, 328.82 -1.06 M208.36 143.3 C238.6 107.27, 275 69.47, 334.94 -1.37 M207.77 144.14 C245.79 99.56, 286.71 53.87, 332.87 0.91 M214.15 144.42 C244.85 104.7, 279.07 69.94, 339.36 -2.26 M212.82 145.53 C239.24 115.04, 265.99 85.57, 340.18 0.19 M216.54 145.64 C266.88 86.44, 319.41 30.96, 345.32 1.1 M218.74 145.84 C255.15 103.26, 290.63 61.6, 344.83 0.86 M224.64 143.51 C247.06 115.73, 273.97 84.44, 348.46 1.22 M224.35 144.19 C271.14 92.68, 315.8 40.36, 349.83 0.46 M230.71 145.97 C263.68 105.78, 295.86 64.24, 354.78 -0.57 M229.98 145.19 C269.4 97.83, 312.67 48.81, 355.63 -0.75 M233.53 145.22 C277.7 94.39, 323.13 45.22, 358.77 1.03 M235.32 143.89 C278.98 92.18, 326.12 40.39, 359.58 0.55 M241.2 144.7 C268.08 114.02, 297.25 81.69, 366.01 0.95 M239.54 143.93 C269.33 109.42, 299.67 75.68, 365.04 0.47 M245.75 144.76 C279.02 105.51, 314.23 67.29, 372.03 -1.23 M244.41 145.23 C278.08 104.39, 312.39 65.59, 371.56 -0.02 M249.29 145.83 C283.04 106.75, 318.97 65.99, 377.59 -0.43 M249.77 144.29 C293.64 95.96, 335.63 48.67, 376.63 -0.09 M256.06 145.65 C302.94 89.96, 351.27 31.45, 379.53 0.93 M256.05 145.5 C295.42 96.33, 336.33 49.82, 381.86 1 M261.14 142.94 C313.25 86.79, 362.64 30.99, 386.03 1.81 M260.32 143.91 C310.97 87.24, 361.06 29.93, 386.74 -1.1 M267.18 146.3 C296.25 110.98, 327.28 75.06, 391.47 1.55 M265.5 144.24 C298.03 107.96, 331.28 69.69, 392.84 0.26 M269.82 145.21 C307.23 106.76, 340.33 67.77, 395.71 0.76 M271.12 144.92 C316.9 90.73, 362.25 37.79, 397.53 -0.3 M278.4 146.93 C324.35 88.7, 374.37 32.44, 402.95 0.3 M276.49 145.16 C304.42 112.11, 332.23 81.13, 402.19 -0.1 M281.32 143.42 C324.06 95.08, 367.88 47.19, 408.97 -1.86 M281.43 144.89 C307.59 115.91, 334.27 85.48, 407.95 0.57 M286.88 144.35 C333.29 95.13, 377.5 41.91, 411.99 0.41 M287.51 145.92 C318.83 110.17, 347.12 75.35, 413.89 0.51 M292.53 143.95 C336.94 95.02, 375.51 48.39, 420 -1.77 M292.77 143.84 C319.99 111.93, 348.97 79.39, 418.76 0.67 M297.72 146 C330.7 106.69, 365.5 67.91, 425.51 -1.28 M298.89 145.15 C339.3 97.34, 379.64 49.54, 423.2 0.13 M305.23 142.76 C351.62 89.54, 396.85 36.13, 428.93 -2.09 M303.98 145.24 C352.58 88.88, 401.56 31.74, 429.49 -0.85 M309.93 143.89 C353.55 89.38, 403.9 34.7, 433.33 -0.33 M307.73 145.43 C336.16 111.88, 363.89 79.57, 433.7 -0.76 M316.13 143.4 C342.4 111.96, 372.69 76.99, 439.79 0.67 M314.19 145.02 C339.9 113.47, 368.53 82.75, 439.48 0.11 M318.4 144.6 C367.72 87.9, 418.27 32.85, 446.18 1.29 M318.94 144.29 C349.14 110.38, 380.86 74.91, 444.24 -0.21 M322.84 143.02 C360.88 104.39, 397.19 63.3, 450.51 -1.42 M325.83 144.56 C357.67 107.44, 387.73 71.7, 450.88 -0.42 M327.94 143.36 C367.8 99.98, 407.46 55.22, 457.7 1.19 M330.21 145.21 C378.66 89.52, 426.34 34.76, 456 0.17 M333.86 146.38 C386.45 88.75, 433.69 31.61, 462.94 -1.69 M335.62 143.69 C382.47 90.25, 429.88 33.96, 461.62 0.57 M339.26 145.94 C392.28 89.27, 438.13 32.3, 466.44 -1.4 M341.05 144.62 C376.2 106.21, 408.68 68.68, 465.42 0.24 M346.61 143.82 C390.87 94.9, 438.19 42.66, 472.15 -0.13 M345.59 143.71 C391.35 92.94, 436.99 40.66, 471.77 0.78 M351 146.74 C378.01 112.32, 409.85 81.58, 477.83 0.31 M351.74 144.91 C400.15 90.04, 450.49 32.7, 477.27 0.29 M357.43 145.25 C394.11 100.84, 433.8 56.89, 483.13 -0.38 M356.05 144.35 C392.06 105.46, 426.48 64.45, 481.19 0.61 M361.67 146.73 C388.6 114.55, 416.49 82.25, 486.25 -1.27 M362.38 145.43 C393.49 107.8, 426.83 71.1, 487.59 0.09 M366.87 146.98 C407.48 100.65, 446.83 51.5, 492.77 0.75 M365.96 145.57 C400.22 108.26, 433.21 70.17, 492.53 0.67 M371.71 143.49 C410.11 100.44, 446.12 57.65, 496.94 1.86 M371.86 145.48 C403.92 109.48, 434.83 73.16, 498.74 -0.15 M376.4 146.6 C425.05 91.85, 469.94 37.86, 502.53 0.3 M376.54 145.49 C425.5 89.85, 475.51 32.34, 502.92 -0.23 M381.46 145.18 C412.31 111.2, 444.03 73.59, 508.09 -0.72 M382.87 145.29 C429.5 90.79, 475.45 37.98, 508.37 -0.79 M386.4 145.59 C435.44 88.27, 483.34 30.94, 515.79 -0.09 M388.36 145.98 C437.84 86.85, 488.32 31.91, 514.28 0.67 M393.16 144.57 C439.58 94.64, 483.9 42.65, 520.75 0.18 M392.88 145.07 C431.66 103.51, 469.17 60.42, 520.41 0.31 M396.83 144.25 C427.26 112.6, 454.87 81.24, 523.83 -0.18 M398.9 144.58 C438.64 95.09, 481.85 48.72, 524.32 1.09 M404.98 145.02 C449.6 94.28, 491.85 40.86, 528.93 -0.67 M405.18 143.98 C443.46 99.76, 481.56 56.91, 530.1 0.71 M408.52 144.5 C441.05 107.26, 476.34 67.99, 535.83 0.85 M408.98 144.31 C451.06 96.32, 492.26 49.45, 535.57 0.7 M412.97 146.46 C454.21 100.8, 492.65 56.54, 541.49 -0.89 M415.83 145.12 C463.11 91.75, 509.52 37.61, 540.99 0.43 M421.26 143.81 C444.2 114.01, 470.63 87.1, 544.88 -1.6 M419.7 144.61 C449.87 109.97, 479.77 76.86, 546.32 0.13 M425.09 143.45 C465.4 101.07, 502.02 54.96, 552.24 -0.52 M424.72 144.56 C458.59 104.95, 494.36 65.08, 551.91 -1.06 M431.7 145.29 C468.72 100.37, 505.33 57.3, 557.97 0.5 M431.45 144.42 C476.16 91.92, 523.5 37.18, 555.7 -0.05 M435.21 143.12 C478.93 94.59, 525.57 41.18, 561.88 -0.01 M436.52 144.3 C470.01 104.93, 502.46 65.77, 561.98 0.18 M439.43 143.61 C480.2 100.66, 518.99 56.49, 566.02 1.75 M440.92 145.08 C487.67 92.73, 535.22 37.63, 566.59 -0.31 M445.13 143.19 C483.36 100.58, 523.22 57.67, 572 -2.19 M447.68 145.32 C475.84 110.58, 504.07 79.51, 573.64 -0.47 M452.91 143.05 C496.33 93.45, 541.16 40.78, 577.82 1.35 M452.11 145.42 C495.94 93.88, 539.17 45.35, 576.71 0.83 M458.5 146 C501.11 96.59, 545.11 46.71, 582.47 -1.58 M457.48 144.54 C494.61 101.59, 531.01 57.91, 582.95 -0.43 M463.55 143.49 C490.67 111.71, 519.86 76.14, 590.1 1.09 M463.29 144.71 C501.85 100.14, 542.45 52.19, 587.54 -0.19 M466.94 144.46 C502.3 104.64, 534.12 68.87, 592.03 -1.33 M468.97 143.82 C495.62 112.7, 524.02 79.06, 593.24 0.08 M471.63 146.38 C515.89 95.1, 558.27 48.18, 597.47 -0.64 M472.07 145.67 C522.21 88.1, 572.36 30.75, 599.39 -0.98 M479.27 144.84 C503.59 115.77, 531.59 83.76, 604.32 1.23 M477.35 145.75 C512.18 106.17, 546.17 66.91, 604.18 -0.45 M484.35 144.79 C524.32 96.66, 563.48 53.3, 610.47 1.13 M484.3 145.49 C531.23 88.11, 582.01 31.8, 610.35 -0.2 M490.22 145.72 C531.72 95.78, 575.47 46.56, 612.6 1.64 M489.6 145.6 C523.16 107.43, 555.48 68.89, 615.39 1.19 M493.82 145.36 C523.34 109.1, 552.46 77.54, 621.52 -0.01 M495.18 144.79 C543.38 89.46, 592.15 33, 619.3 -0.55 M498.44 144.58 C544.14 89.14, 590.7 35.74, 624.99 -0.99 M499.5 144.86 C542.55 93.75, 587.24 42.51, 624.77 0.64 M503.05 146.35 C529.43 116.08, 556.32 83.36, 630.97 0.09 M504.18 144.66 C532.33 112.56, 559.16 81.54, 630.93 0.2 M511.14 144.69 C536.19 112.6, 559.86 85.99, 634.53 2.07 M509.3 145.21 C543.23 108.2, 576.94 69.36, 635.54 0.99 M515.96 143.58 C557.94 98.44, 597.5 50.31, 641.07 -1.8 M516.07 145.64 C557.49 94.39, 600.95 45.17, 640.72 0.27 M521.44 145.94 C558.52 101.52, 598.55 54.85, 645.19 -0.89 M520.06 144.29 C550.62 112.33, 577.57 79.3, 647.2 -0.19 M527.38 144.51 C574.96 89.34, 619.8 33.71, 653.97 1.68 M525.92 144.71 C573.68 90.51, 619.68 35.57, 651.96 -1.18 M530.37 146.82 C579.02 92.43, 625.57 37.62, 657.81 0.04 M530.6 144.7 C563.5 108.62, 596.13 70.21, 656.54 0.09 M537.03 146.14 C577.53 93.7, 623.61 47.57, 661.72 -1.53 M536.08 144.32 C582.68 90.97, 629.05 39.88, 662.71 -1.07 M540.87 146.4 C586.97 90, 637.67 31.01, 668.15 -1.65 M542.57 144.98 C578.31 103.99, 614.63 63.13, 668.68 -0.71 M547.55 145.11 C579.8 110.35, 607.48 77.3, 672.29 -0.89 M547.23 145.37 C588.25 96, 628.36 48.83, 672.85 0.69 M551.77 146.34 C580.07 113.13, 605.54 79.62, 676.89 1.14 M551.4 144.62 C579.3 112.26, 606.8 82.16, 678.01 0.34 M558.49 143.62 C597.06 102.77, 632.74 55.88, 683.56 -1.25 M557.32 144.21 C595.42 99.27, 634.39 53.55, 683.05 0.1 M563.83 144.91 C591.75 109.83, 621.32 77.41, 687.6 -0.91 M563.33 145.08 C597.71 106.8, 631.06 67.66, 689.21 0.58 M568.3 143.49 C599.98 110.84, 625.54 81.13, 693.29 -0.9 M568.61 143.63 C605.59 101.17, 643.92 57.3, 693.78 0.12 M573.69 142.96 C605.82 109.33, 634.72 75.18, 700.75 0.47 M574.39 144.76 C603.32 110.78, 633.87 75.93, 700.29 0.85 M580.32 144.12 C615.64 101.37, 652.28 58.98, 704.53 -0.74 M578.65 143.9 C621.24 93.73, 664.74 44.17, 703.64 0.44 M583.91 145.94 C632.25 91.98, 678.11 36.11, 711.75 1.16 M583.39 144.03 C614.66 111.44, 642.16 78.05, 709.53 0.42 M588.18 145.25 C624.37 105.42, 658.84 63.14, 714.17 -1.37 M588.64 144.48 C618.93 109.92, 648.1 76.56, 715 -0.58 M592.97 145.9 C641.69 89.33, 692.9 33.22, 720.87 -1.39 M594.97 144.19 C637.39 96.38, 679.91 47.63, 720.5 0 M600.34 145.97 C639.9 99.31, 674.16 55.9, 727.05 -0.53 M599.03 146.02 C648.94 89.51, 697.36 33.24, 725.08 -0.36 M605.22 143.46 C650.92 92.07, 699.17 35.9, 731.33 -2.1 M606.54 144.5 C651.27 95.18, 695.29 43.93, 731.1 0.78 M610.23 143.21 C658.64 87.65, 706.48 33.38, 736.58 1.89 M610.6 145.89 C657.86 89.06, 703.95 34.04, 735.51 -0.13 M616.96 145.86 C649.54 106.57, 683.35 66.9, 743.22 1.66 M615.33 145.18 C650.37 106.78, 681.89 70.75, 742.5 -0.62 M620.83 146.76 C663.85 92.64, 709.97 42.43, 746.06 -1.41 M622.11 144.17 C651.27 112.67, 680.66 77.58, 746.75 0.85 M626.36 144.92 C666.34 99.38, 707.62 50.38, 751.56 0.15 M627.33 144.41 C668.63 97.25, 710.88 49.76, 752.17 -1.1 M630.02 145.98 C660.41 107.99, 694.61 73.87, 758.71 0.86 M632.58 145.36 C673.53 97.59, 715.05 51.13, 757.06 0.28 M635.51 143.07 C685.06 86.77, 737.4 30.86, 764.27 1.2 M638.37 145.31 C672.01 106.85, 703.8 67.87, 762.88 -0.13 M640.6 143.83 C685.94 91.98, 732.77 38.09, 767.65 0.58 M642.35 145.46 C675.49 107.55, 708.6 71.22, 767.47 -0.23 M648.41 143.3 C688.73 99.99, 727.62 51.07, 772.17 0.25 M649.05 144.94 C675.07 114.03, 701.64 83.99, 773.71 -0.72 M654.26 146.88 C679.51 114.88, 706.55 82.81, 777.91 0.24 M654.05 144.88 C702.95 89.43, 750.16 33.11, 778.82 -0.06 M656.97 143.24 C700.09 95.7, 742.01 49.84, 782.99 -1.68 M657.77 145.35 C702.86 94.49, 745.81 44.41, 785.02 -0.43 M665.63 143.28 C706.12 99.62, 746.37 51.47, 788.42 -1.08 M663.61 145.5 C701.32 99.56, 741.58 54.3, 788.76 -0.69 M670.98 145.06 C693.43 115.03, 719.59 87.67, 795.37 0.04 M669.74 144.51 C710.86 97.48, 751.07 49.62, 795.47 -0.36 M676.2 144.77 C714.6 99.98, 753.58 56.71, 802.02 -1.74 M675.25 145.67 C722.76 86.98, 773.85 30.56, 800.72 -0.6 M680.18 145.58 C721.3 97.46, 763.99 49.1, 804.86 -0.38 M679.95 145.37 C708.52 113.62, 736.47 81.68, 805.01 -0.16 M684.39 144.69 C726.44 98.48, 766.17 52.91, 811.47 0.55 M684.5 145.17 C710.31 115.15, 736.3 82.89, 810.94 -0.35 M692.17 146.17 C722.36 109.11, 754.13 72.68, 817.24 -0.38 M690.2 144.8 C737.36 88.83, 784.54 34.97, 815.26 -0.27 M695.53 143.97 C721.88 111.02, 751.53 75.24, 821.41 -1.36 M695.17 144.23 C733.88 101.26, 772.7 56.57, 821.43 0.47 M702.49 142.81 C739.6 98.99, 777.24 52.06, 825.18 1.93 M702.08 144.65 C743.35 96.52, 784.2 48.56, 827.07 0.05 M707.86 145.15 C743.05 105.73, 777.84 65.1, 830.4 -2.04 M706.37 144.56 C739.98 105.88, 773.64 66.09, 833.03 0.21 M711.91 144.83 C740.01 112.49, 766.95 83.6, 838.3 -1.69 M711.32 145.48 C756.83 92.54, 800.21 43.4, 837.63 0.27 M718.5 146.33 C762.17 88.56, 809.92 33.11, 840.9 -1.43 M717.52 144.29 C746.68 111.81, 774.49 78.64, 842.36 0.18 M723.09 145.9 C756.18 105.76, 792.24 64.85, 847.76 1.34 M721.42 144.52 C755.17 107.24, 787.56 69.46, 848.09 0.56 M725.5 143.25 C757.79 113.7, 782.26 79.04, 853.3 1.1 M727.33 145.04 C769.71 94.31, 812.46 44.83, 852.83 -0.34 M730.62 146.52 C775.23 95.97, 821.01 42.76, 859.63 -0.79 M732.7 145.22 C782.57 87.55, 831.58 30.3, 857.9 -0.49 M737.81 143.19 C785.67 89.75, 836.29 34.65, 863.86 0.79 M738.8 144.85 C781.11 95.8, 824.32 45.79, 863.68 -1.15 M741.65 145.05 C782.02 99.06, 821.46 55.99, 868.9 1.7 M743.95 145.24 C778.73 105.71, 814.04 65.14, 869.8 -0.78 M749.29 143.08 C777.96 113.44, 807.18 77.58, 874.78 1.45 M748.24 145.22 C798.05 85.62, 848.57 28.54, 874.9 -0.07 M753.24 144.44 C794.86 94.55, 839.72 44, 881.45 -1.83 M752.75 144.19 C796.79 94.51, 841.39 43.51, 878.82 0.19 M760.7 143.4 C811.08 89.96, 858.53 33.58, 884.13 1.5 M760.25 144.12 C785.35 112.34, 812.53 82.76, 886.32 0.02 M762.36 146.24 C806.11 94.2, 848.42 49.18, 892.08 -0.42 M764.45 144.63 C791.14 113.09, 818.51 81.4, 891.29 0.4 M769.71 146.23 C807.37 103.13, 841.15 64.8, 895.92 -0.05 M770.71 144.97 C812.91 95.51, 855.65 46.07, 896.53 0.2 M775.87 144.57 C799.72 115.37, 827.01 85.68, 902.48 0.51 M775.24 145.08 C798.43 115.14, 824.59 86.1, 901.86 0.28 M780.88 145.28 C832.95 87.25, 880.62 28.45, 906.05 -1.58 M779.83 143.61 C816.88 104.76, 851.23 64.53, 905.94 0.49 M784.55 144.17 C835.59 90.68, 884.08 33.68, 911.26 1.09 M785.07 144.99 C813.63 114.69, 840.71 83.36, 912.43 -0.29 M791.72 143.8 C817.02 113.67, 844.11 83.63, 916.33 -0.91 M791.09 145.38 C839.66 90.28, 887.81 33.73, 917.75 -1.12 M797.1 146.37 C845 88.28, 892.95 31.98, 923.94 1.08 M796.72 145.79 C827.92 108.28, 860.6 71.16, 921.25 -0.97 M802.59 144.68 C837.67 102.32, 874.66 62.55, 928.48 -1.24 M802.28 144.05 C844.02 93.83, 886.36 45.27, 926.96 0.3 M806.09 143.07 C851.67 90.62, 897.71 39.47, 930.93 1.82 M806.75 145.86 C847.86 96.81, 889.34 50.01, 933.82 0.01 M810.79 144.37 C855.96 93.44, 901.72 45.89, 937.46 -0.42 M812.49 144.83 C847.33 102.94, 882.81 61.63, 938.71 0.4 M818.03 146.8 C845.48 114.7, 869.12 86.2, 939.58 2.49 M816.5 145.52 C859.07 98, 901.68 48.64, 942 3.18 M823.88 143.69 C847.81 116.02, 874.14 85.08, 941.54 7.55 M822.44 146.17 C858.35 102.96, 894.89 61.99, 941.34 7.06 M827.31 144.65 C857.54 114.35, 882.94 83.4, 941.58 13.18 M827.14 144.05 C868.53 98.01, 910.92 49.69, 942.35 13.76 M832.26 146.78 C862.18 111.14, 893.23 77.37, 939.48 21.74 M832.11 145.69 C866.33 105.85, 901.03 66.69, 940.56 20.56 M838.25 144.33 C869.68 109.25, 904.09 70.2, 942.58 26.19 M838.61 144.68 C859.74 119.6, 880.59 94.98, 940.81 26.09 M843.29 143.65 C864.46 119.5, 883.13 97.89, 941.87 31.29 M843.83 145.71 C863.63 121.71, 881.96 99.16, 941.79 33.62 M851.07 144.12 C875.02 114.76, 897.83 87.43, 940.64 37.25 M848.67 145.6 C871.11 120.2, 892.79 94.17, 942.07 37.78 M853.89 145.12 C878.49 120.2, 899.85 93.45, 943.29 44.71 M853.88 145.29 C879.29 118.71, 903.91 89.78, 941.36 45.68 M859.88 142.92 C888.98 110.65, 914.81 80.43, 940.03 50.4 M859.85 144.94 C888.71 112.35, 916.13 79.83, 940.5 51.63 M863.88 145.64 C894.2 111.57, 921.38 79.4, 942.9 56.35 M864.8 145.91 C895.86 109.2, 925.06 73.85, 942.05 56.41 M870.71 146.2 C896.38 115.68, 923.62 86.18, 939.93 65.05 M870.5 143.81 C898.93 111.73, 927.42 80.95, 941.71 63.63 M874 145.23 C890.37 128.45, 909.79 106.16, 941.76 69.16 M876.48 144.52 C894.13 123.8, 913.82 101.66, 941.44 69.42 M879.5 144.03 C900.26 123.87, 916.33 101.52, 940.45 74.44 M881.76 145.23 C902.65 119.7, 923.11 95.52, 941.64 74.51 M887.89 143.51 C903.17 127.22, 917.39 109.39, 940.17 81.44 M887.07 144.5 C907.72 120.04, 929.49 96.26, 942.24 82.01 M890.08 145.1 C910.56 126.11, 924.02 106.04, 943.26 88.67 M892.57 145.23 C910.67 123.27, 931.23 99.8, 942.18 87.67 M898.08 145.7 C906.62 132.84, 917.31 120.91, 942.33 93.82 M896.04 144.72 C914.5 124.27, 931.65 105.42, 941.93 93.19 M904.21 142.65 C916.83 126.29, 933.56 107.01, 940.92 97.41 M902.65 143.73 C916.67 129.19, 930.35 112.95, 941.54 98.97 M908.02 144.61 C920.58 129.44, 933.12 115.32, 942.34 103.78 M907.13 144.47 C920.08 131.07, 932.06 117.07, 941.84 105.19 M911.53 144.53 C918.92 135.84, 927.27 130.36, 942.27 112.7 M913.53 143.65 C921.67 134.81, 932.19 123.25, 940.54 112.5 M918.08 146.62 C925.34 134.44, 934.75 126.32, 940.9 116.64 M917.4 144.52 C926.67 133.69, 936.98 124.02, 942.71 117.42 M923.61 143.21 C930.25 138.85, 936.18 131.93, 941.01 123.91 M923.55 143.85 C928.69 139.51, 931.47 134.51, 942.28 124.52 M927.51 145.76 C930.74 140.27, 934.48 138.55, 942.6 128.33 M928.21 144.06 C932.65 140.13, 936.2 135.53, 941.11 130.25 M935.24 145.16 C936.75 141.65, 938.6 139.37, 941.71 136.21 M934.64 144.29 C936.17 143.21, 937.67 141.41, 941.39 136.62" stroke="#4c6ef5" stroke-width="0.5" fill="none"></path><path d="M-0.53 -0.76 C343.86 1.7, 687.46 1.78, 938.86 -0.4 M-0.03 0.03 C274.31 3.06, 549.37 3.13, 939.53 0.26 M939.09 1.15 C941.53 55.38, 942.06 115.91, 941.02 143.5 M939.29 0.8 C938.39 51.76, 938.15 104.41, 939.53 143.19 M939 143.6 C662.31 144.4, 387.12 143.33, -0.41 144.45 M939.19 144.05 C628.01 146.04, 315.97 145.55, 0.39 143.5 M-1.45 143.74 C-1.17 95.53, -0.72 44.96, 1.26 1.34 M0.97 144.47 C-1.14 96.48, 0.07 48.32, -0.55 0" stroke="#000000" stroke-width="1" fill="none"></path></g><g stroke-linecap="round" transform="translate(28.046875 31.6484375) rotate(0 73.3828125 48.701171875)"><path d="M0 0 C0 0, 0 0, 0 0 M0 0 C0 0, 0 0, 0 0 M-0.19 5.73 C0.97 4.83, 3.13 2.63, 4.81 0.09 M-0.18 6.74 C1.58 4.71, 3.62 2.62, 5.04 0.1 M-0.51 12.65 C3.83 7.17, 6.02 4.66, 9.8 -0.35 M-0.21 12 C3.62 8.18, 5.51 5.69, 11.04 0.18 M0.49 17.05 C6.24 12.4, 9.22 6.77, 14.89 0.52 M-0.52 18.58 C4.7 12.74, 8.58 7.99, 15.13 0.39 M-1.45 22.63 C6.56 18.27, 11.18 8.74, 23.15 -1.82 M-0.28 25 C5.13 18.77, 9.83 11.54, 22 0.87 M-0.26 30.3 C7.4 21.13, 14.54 14, 24.63 -1.61 M-0.94 30.5 C9.96 19.14, 18.24 9.93, 27.15 -0.11 M0.91 35.27 C10.81 23.2, 21.76 11.96, 31.3 1.25 M-0.12 37.86 C9.26 25.36, 19.94 14.2, 31.65 -0.35 M0.52 43.47 C9.33 32.36, 15.42 23.06, 38.55 -0.87 M0.43 42.09 C12.86 27.99, 27.11 12.09, 36.11 -0.2 M-0.39 49.91 C8.84 39.3, 17.58 30.14, 43.37 0.81 M-0.14 48.18 C11.19 36.5, 21.85 24.24, 41.88 -0.09 M-0.69 55.46 C15.6 36.98, 33.87 17.32, 46.04 1.47 M0.84 54.27 C10.8 41.8, 21.03 29.35, 46.89 0.97 M-1.47 60.92 C13.04 47.12, 21.28 35.67, 52.31 -1.21 M-0.66 61.15 C16.23 43.99, 31.23 27.91, 52.92 -0.2 M-0.5 67.84 C15.41 52.32, 28.58 35.45, 59.09 -0.97 M-0.71 67.48 C13.51 50.51, 27.59 35.85, 57.36 0.57 M0.76 72.81 C14.2 55.38, 32.01 37.87, 64.64 1.04 M-0.4 73.49 C19.62 50.06, 40.39 26.51, 64.48 -0.75 M0.07 79.82 C14.09 64.36, 29.73 44.84, 70.27 -1.63 M0.23 79.73 C22.96 52.97, 47.7 25.21, 69.28 1.07 M2 87 C23.15 61.14, 42 36.8, 74.49 -0.7 M-0.14 85.23 C26.04 57.48, 49.98 29.06, 74.7 -1.01 M1.59 90.76 C30.44 57.12, 59.02 21.32, 78.74 0.93 M0.6 92.05 C22.13 64.66, 45.98 39.74, 79.42 -0.8 M-0.11 96.56 C29.23 65.64, 54.4 31.71, 85.56 1.23 M-0.34 97.43 C16.52 77.8, 35.13 56.34, 85.17 -0.45 M4.16 97.17 C29.45 69.51, 54.25 40.18, 88.27 1.08 M4.67 96.5 C29.88 69.66, 54.96 39.74, 90.48 1.03 M9.12 97.15 C44.58 59.61, 75.58 20.27, 97.16 0.38 M10.95 98.12 C33.79 68.55, 57.22 41.61, 95.96 0.25 M14.21 95.47 C47.51 62.88, 76.65 25.65, 101.21 0.07 M15.93 97.97 C46.33 63.14, 75.72 29.2, 100.11 0.9 M20.03 97.72 C43.44 73.52, 64.69 46.06, 106.21 -1.79 M21.66 98.06 C54.73 57.44, 89.01 19.92, 106.57 0.22 M26.52 96.05 C48.82 69.86, 73.03 43.74, 112.51 0.07 M26.09 97.18 C55.98 62.54, 85.61 29.85, 111.92 0.47 M30.68 99.33 C60 64.64, 89.12 32.82, 116.52 -1.13 M30.84 98.44 C51.89 73.94, 72.04 51.71, 116.3 0.14 M36.71 97.14 C62.61 67.37, 84.68 40.05, 123.71 -1.85 M36.53 97.62 C65.22 64.49, 93.1 33.41, 122.46 -0.33 M41.74 97.92 C61.8 79.14, 78.93 57.3, 127.52 0.1 M42.5 96.77 C61.62 78.01, 77.9 56.25, 127.87 0.21 M45.99 96.91 C78.54 59.87, 112.49 24.43, 132.95 0.31 M48.11 96.56 C71.15 72.58, 92.65 46.71, 132.26 -0.25 M54.47 98.34 C70.67 75.89, 90.1 51.95, 136.22 -0.14 M52.57 97.85 C84.92 62.1, 116.13 26.87, 138.5 -0.31 M59.17 95.41 C84.28 65.77, 111.05 35.57, 144.96 -0.58 M58.14 98.08 C79.25 75.31, 97.84 52.54, 142.78 0.24 M64.74 96.37 C82.27 77.67, 102.56 54.1, 149.24 -0.01 M63.97 96.79 C86.24 71.02, 109.47 45.42, 146.84 1.66 M70.66 96.6 C99.49 63.54, 127.73 33.48, 147.15 8.06 M69.36 98.06 C90.16 72.51, 111.15 49.03, 147.54 6.76 M72.98 96.67 C96.42 70.41, 123.62 45.02, 148.28 14.05 M73.55 97.98 C98.06 69.34, 121.55 42.57, 147.49 13.78 M78.45 98.37 C107.05 65.29, 129.95 39.78, 148.11 18.2 M78.98 97.15 C102.28 73.22, 123.32 47.15, 147.56 19.7 M86.24 98.81 C102.64 73.46, 123.81 49.43, 147.63 25.62 M85.12 98.12 C101.45 78.3, 117.17 60.42, 147.51 25.65 M90.12 98.48 C108.61 78.77, 125.32 56.48, 146.25 32.63 M89.68 97.84 C106.59 79.64, 122.31 63.14, 147.08 30.69 M96.16 99.28 C113.71 77.35, 130.43 54.02, 147.36 35.51 M94.45 97.18 C108.39 83.84, 119.82 69.45, 148.58 36.95 M100.87 96.62 C115.89 78.58, 129.37 61.23, 148.01 44.63 M100.56 97.37 C117 79.96, 132.52 60.41, 146.71 43.2 M104.96 97.46 C113.56 87.42, 122.09 79.27, 148.45 49.19 M106.25 97.47 C120.26 82.54, 132 66.63, 147.17 49.95 M111.46 96.38 C122 86.82, 127.04 77.71, 149.09 55.61 M112.19 96.82 C121.62 86.93, 129.49 76.28, 147.7 55.26 M115.47 97.65 C124.85 90.19, 131.83 83.15, 149.48 63.78 M117.2 96.56 C125.87 88.41, 134.39 77.87, 148.18 61.43 M121.62 96.01 C129.09 86.6, 138.23 78.2, 147.8 65.9 M120.94 98.79 C130.24 88.53, 136.84 80.83, 148.23 67.19 M129.11 99.04 C133.94 88.2, 143.64 79.63, 148.61 74.55 M126.92 98.33 C133.76 90.63, 141.01 83.26, 148 74.23 M130.62 99.41 C136.73 94.62, 138.78 88.76, 146.35 81.48 M132.59 97.43 C136.72 92.81, 140.71 88.99, 147.78 81.36 M139.4 97.65 C141.33 93.28, 143.75 88.64, 148.16 85.97 M137.22 97.82 C141.65 93.64, 144.72 88.98, 148.02 85.45 M143.08 98.06 C143.4 97.21, 145.19 95.96, 147.53 92.65 M143.1 97.82 C144.02 96.23, 145.62 94.59, 147.25 92.36" stroke="#fa5252" stroke-width="0.5" fill="none"></path><path d="M0.31 0.37 C43.34 -1.19, 84.48 0.22, 147.03 0.78 M-0.73 0.7 C57.07 -1.6, 114.76 -1.64, 147.27 0.65 M146.55 0.1 C146.64 27.74, 145.54 59.12, 144.9 99.33 M146.41 0.52 C147.45 37.29, 146.01 75.44, 146.16 98.06 M146.4 98.51 C92.65 97.21, 36.46 98.9, 1.51 98.54 M147.24 96.63 C102.54 98.8, 58.05 99.35, -0.45 97.37 M-0.87 99.29 C-1.92 61.73, 1.02 22.61, 1.05 0.57 M-0.5 97.21 C0.7 67.14, -0.35 37.61, 0.76 0.21" stroke="#000000" stroke-width="1" fill="none"></path></g><g transform="translate(92.4296875 55.349609375) rotate(0 9 25)"><text x="9" y="18" font-family="Virgil, Segoe UI Emoji" font-size="20px" fill="#000000" text-anchor="middle" style="white-space: pre;" direction="ltr">S1</text><text x="9" y="43" font-family="Virgil, Segoe UI Emoji" font-size="20px" fill="#000000" text-anchor="middle" style="white-space: pre;" direction="ltr">V1</text></g><g stroke-linecap="round" transform="translate(204.18359375 31.857421875) rotate(0 73.3828125 48.701171875)"><path d="M0 0 C0 0, 0 0, 0 0 M0 0 C0 0, 0 0, 0 0 M-0.88 7.01 C0.69 4.78, 3.69 2.26, 4.9 0.51 M-0.1 6.36 C0.92 4.84, 2.36 3.95, 4.61 0.06 M-1.34 12.52 C3.67 8.85, 6.26 3.99, 11.97 0.25 M0.73 11.33 C3.03 9.35, 5.06 6.02, 10.01 0.64 M-0.48 18.37 C4.14 13.89, 7.58 7.84, 14.5 1.51 M0.37 18.34 C3.87 14.82, 6.33 9.3, 15.95 1.16 M2.16 25.81 C9.01 15.53, 15.35 4.76, 22.74 0 M0.61 23.91 C6.78 18.11, 12.59 10.91, 21.08 -0.84 M1.13 31.83 C7.26 25.61, 9.36 15.6, 27.45 2.23 M0.01 30.96 C6.36 23.34, 13.59 15.15, 26.65 0.63 M1.45 36.2 C11.67 23.82, 20.06 12.38, 32.28 1.36 M-0.98 37.86 C8.07 28.31, 16.28 18.88, 32.05 -0.9 M1.27 41.94 C11.97 28.22, 25.42 11.5, 35.78 -0.64 M0.16 42.95 C10.84 29.82, 22.49 15.91, 36.41 -0.7 M0.79 49.63 C11.75 32.21, 26.09 19.14, 41.61 -0.95 M-0.88 48.3 C11.51 35.05, 23.91 20.99, 41.87 -0.36 M-0.2 54.21 C9.62 42.85, 21.6 28.71, 48.23 -1.77 M-0.64 54.89 C12.43 40.78, 23.08 27.88, 47.41 -0.31 M-0.61 59.08 C13.09 45.39, 26.86 28.83, 55.06 1.64 M-0.11 60.1 C19.93 37.09, 40.61 13.41, 54.09 0.62 M-0.52 68.85 C10.04 52.69, 22 38.65, 56.18 -0.88 M-0.07 66.93 C17.35 46.27, 36.69 24.25, 58.82 0.67 M-0.25 71.69 C23.69 50.08, 45.14 24.18, 62.52 1.6 M-0.08 73.69 C12.7 57.06, 27.01 42.02, 63.71 -0.35 M-1.35 79.67 C18.86 55.52, 40.43 30.47, 67.57 -0.8 M-0.37 78.75 C17.57 58.08, 34.2 39.92, 69.75 0.38 M0.92 83.51 C17.76 62.49, 40.41 38.92, 73.5 1.28 M-0.24 84.76 C24.84 55.96, 49.9 27.2, 74.19 -0.83 M1.28 92.69 C24.97 60.76, 52.46 32.68, 80.93 -1.47 M0.71 91.09 C28.89 58.67, 56.94 26.66, 80.25 -0.73 M-0.07 98.24 C32.56 57.21, 67.14 18.75, 83.07 -1.03 M0.24 98.07 C31.31 60.52, 64.44 22.3, 84.45 -0.63 M6.83 99.02 C22.56 78.25, 39.95 57.19, 91.41 -1.9 M4.76 97.67 C23.92 74.02, 43.38 51.36, 90.34 1.07 M10.85 98.15 C32.93 73.84, 54.75 49.49, 93.93 -1.14 M10.64 97.35 C33.9 71.82, 58.05 45.01, 95.85 -0.71 M17.11 97.71 C39.76 67.88, 64.03 43.17, 100.74 1.8 M16.59 97.09 C35.61 73.88, 55.98 51.71, 100.99 -0.18 M19.37 98.83 C52.85 62.49, 84.4 26.79, 106.34 1.04 M20.19 97.02 C38.93 77.59, 56.38 56.2, 107.21 -0.28 M26.27 97.76 C57.27 61.72, 86.87 27.63, 111.24 -1.59 M27.2 97.75 C46.12 74.84, 65.5 53.22, 111.11 0.85 M30.95 95.95 C56.16 72.84, 75.06 47.95, 115.53 0.25 M31.27 97.98 C52.38 73.06, 73.87 47.92, 117.14 1.03 M37.3 96.06 C56.35 76.91, 74.06 54.03, 123.83 -0.35 M37.3 96.83 C55.21 74.25, 75.13 53.33, 122.59 -0.2 M41.62 96.09 C64.26 73.01, 84.84 48.16, 128.27 0.88 M43.17 97.42 C73.64 60.57, 106.27 22.23, 127.69 1.12 M46.81 97.38 C81.23 60.32, 114.06 18.92, 132.02 -1.89 M47.05 97.28 C76.27 64.88, 103.89 33.69, 133.23 -0.41 M52.03 98.73 C72.97 74.79, 95.97 50.5, 136.96 -0.48 M53.17 97.83 C86.34 58.59, 120.29 20.81, 137.37 0.93 M58.96 96.4 C90.57 63.12, 117.69 27.88, 143.91 1.31 M59.08 96.87 C80.25 73.8, 100.36 49.6, 143.84 -0.55 M65.4 98.24 C93.56 62.36, 127.94 25.56, 147.6 0.61 M63.47 98.01 C86.12 74.26, 105.1 49.96, 148.16 1.23 M67.54 95.71 C95.98 66.16, 122.65 37.81, 146.3 8.46 M69.44 97.16 C94.66 67.01, 120.69 37.91, 147.23 6.68 M73.56 97.94 C96.32 71.67, 119.27 45.74, 149.25 12.36 M74.26 98.02 C95.27 70.86, 117.68 45.88, 147.95 13.37 M77.91 95.81 C100.28 73.72, 120.46 52.49, 147.14 18.13 M80.66 96.51 C101.39 71.27, 124.61 46.61, 147.74 19.36 M82.93 96.02 C107.3 69.98, 132.06 42.23, 147.59 24.96 M84.65 98.26 C101.18 77.88, 117.8 60.77, 147.14 24.63 M89.05 97.1 C108.4 78.75, 125.07 59, 148.21 31.75 M90.72 97.07 C105.22 78.68, 121.2 62.51, 146.92 30.81 M96.51 95.57 C106.96 82.43, 121.31 69.06, 146.05 37.86 M95.72 98.4 C107.36 83.24, 120.16 69.75, 148.7 36.39 M99.51 97.9 C113.05 81.69, 127.84 68.58, 147.35 45.22 M102.04 97.8 C119.1 77.67, 134.62 59, 146.71 44.19 M107.92 98.63 C115.39 87.44, 123.54 73.6, 149.01 51.14 M105.5 98.42 C118.67 83.3, 131.71 68.77, 146.43 50.59 M113.44 96.41 C123.04 81.16, 137.17 67.32, 147.62 54.59 M112.51 97.44 C123.08 84.33, 132.47 72.96, 147.65 55.21 M115.34 96.09 C130.15 83.64, 140.84 70.45, 146.39 60.55 M115.97 97.58 C128.27 84.58, 138 72.72, 146.53 61.7 M121.93 97.51 C131.57 87.52, 141.37 76.17, 146.69 66.79 M121.8 98.28 C130.59 88.74, 137.42 79.23, 147.23 67.88 M127.57 97.8 C133.96 90.67, 135.25 86.54, 147.75 75.99 M128.07 97.46 C131.37 92.85, 134.94 87.03, 146.7 74.27 M131.63 99.72 C138.12 92.88, 141.2 85.63, 146.17 78.45 M133.01 98.18 C137.77 91.12, 143.56 84.65, 148.26 80.26 M137.99 98.2 C140.13 94.94, 142.57 91.95, 147.13 84.9 M138.5 97.03 C140.35 94.68, 143.11 90.59, 147.75 86.66 M142.89 97.74 C144.08 95.76, 145.89 95.36, 147.77 91.89 M143.21 97.84 C144.22 96.72, 145 95.21, 147.85 92.45" stroke="#12b886" stroke-width="0.5" fill="none"></path><path d="M1.5 -1.62 C32.64 0.29, 62.76 0.86, 148.31 -0.6 M-0.52 -0.19 C29.4 -0.15, 59.98 0.81, 147.46 -0.18 M146.71 -1.17 C147.37 36.91, 147.44 73.43, 148.22 98.72 M146.19 -0.6 C147.07 31.79, 146.63 63.68, 146.47 96.71 M147.54 96.39 C107.04 97.11, 66.57 96.07, -1.57 98.31 M147.39 97.58 C99.85 98.59, 52.75 98.53, -0.87 98.08 M-1.09 95.83 C-2.07 69.76, -0.19 45.74, -1.71 1.96 M-0.89 97.87 C0.12 74.1, 0.36 52.3, -0.7 0.62" stroke="#000000" stroke-width="1" fill="none"></path></g><g transform="translate(264.56640625 55.55859375) rotate(0 13 25)"><text x="13" y="18" font-family="Virgil, Segoe UI Emoji" font-size="20px" fill="#000000" text-anchor="middle" style="white-space: pre;" direction="ltr">S2</text><text x="13" y="43" font-family="Virgil, Segoe UI Emoji" font-size="20px" fill="#000000" text-anchor="middle" style="white-space: pre;" direction="ltr">V1</text></g><g stroke-linecap="round" transform="translate(380.33984375 31.568359375) rotate(0 73.3828125 48.701171875)"><path d="M0 0 C0 0, 0 0, 0 0 M0 0 C0 0, 0 0, 0 0 M-0.07 6.62 C1.58 4.63, 3.11 2.74, 4.91 0.81 M-0.14 6.18 C1.85 4.19, 3.56 2.08, 4.79 0.35 M0.23 11.97 C2.24 9.81, 7.37 5.29, 11.67 0.43 M0.71 12.25 C4.01 7.93, 6.58 4.59, 10.58 -0.56 M-0.8 19.66 C3.86 14.84, 6.01 10.8, 14.48 -0.05 M-0.42 19.07 C4.49 14.18, 7.12 8.8, 15.13 1.12 M0.29 24.33 C4.2 16.71, 9.5 12.75, 19.66 1.34 M0.98 24.1 C5.02 18.36, 9.49 13.42, 20.97 -0.17 M-1.8 32.27 C7.3 21.13, 18.21 10.14, 24.74 0.86 M0.78 31.03 C7.48 20.87, 15.23 13.41, 25.98 0.4 M-0.22 37.49 C11.89 20.28, 24.32 6.4, 32.34 -1.96 M-0.34 37.84 C11.97 23.37, 23.85 7.95, 30.93 -0.3 M0.1 42.92 C8.15 33.07, 13.67 25.7, 37.27 -1.22 M-0.18 42.24 C13.28 26.14, 27.88 12.08, 37.66 0.6 M0.59 47.6 C9.11 39.02, 17.85 24.87, 41.85 0.24 M0.41 49.88 C11.81 34.73, 24.51 20.24, 42.83 -1.07 M-0.33 56.34 C11.37 40.47, 23.62 26.99, 46.69 1.85 M0.65 54.17 C19.28 32.32, 36.87 11.31, 48.11 -0.41 M-0.44 62.69 C12.03 44.68, 26.32 29.18, 54.02 -1.84 M0.04 60.29 C15.77 44.49, 29.64 25.94, 53.89 -0.49 M0.95 66.61 C23.67 40.99, 45.84 16.16, 58.5 1.83 M-0.61 66.99 C22.91 41.09, 44.5 14.14, 57.55 -0.27 M1.07 73.64 C14.23 58.17, 24.33 44.51, 62.54 0.57 M0.36 72.85 C16.43 56.72, 30.68 39.04, 63.1 0.38 M1.82 80.13 C24.84 51.04, 50.74 20.82, 67.12 0.06 M-0.08 79.58 C22.17 53.63, 45.32 27.64, 69.49 0.78 M-1.59 84.89 C16.92 66.19, 30.96 50.27, 75.06 0.87 M0.44 84.78 C24.7 58.21, 47.53 30.05, 74.25 0.41 M0.15 90.17 C24.49 63.49, 46.05 35.12, 77.88 1.46 M0.92 91 C25.85 60.97, 53.6 30.47, 79.76 1 M-0.87 97.28 C23.2 67.46, 49.78 39.94, 83.09 -0.96 M-0.99 98.51 C32.79 59.28, 66.31 20.4, 84.94 -0.53 M3.57 97.8 C32.46 69.83, 55.25 39.57, 89.01 0.57 M4.8 96.51 C28.14 69.39, 53.38 42.58, 89.48 0.07 M12.14 98.87 C32.11 72.9, 55.58 47.51, 96.07 -0.35 M10.56 97.59 C42.7 59.94, 75.98 23.05, 95.55 -0.67 M16.39 98.72 C49.69 58.53, 81.84 19.13, 101.64 -0.5 M15.52 97.33 C46.91 61.27, 78.2 26.45, 100.05 0.14 M22.3 99.72 C53.95 60.4, 83.45 25.97, 107.33 -2.14 M20.9 98.43 C51.94 59.94, 84.82 23.61, 106.28 -1.25 M25.59 97.26 C48.97 70.42, 73.31 43.54, 109.82 1.97 M27.57 97.69 C57.76 62.45, 89.33 26.86, 112.19 0.82 M30.54 98.69 C55.52 70.82, 76.52 44.08, 115.48 2.2 M32.31 98.08 C55.2 69.2, 79.92 42.83, 115.43 1.19 M37.28 96.3 C66.15 64.23, 95.45 32.2, 122.5 -0.72 M37.5 97.73 C69.65 61.39, 99.14 26.01, 122.89 0.16 M40.66 98.2 C68.14 69.22, 95.91 40.52, 124.97 1.5 M41.36 98.01 C72.11 61.17, 103.73 26.03, 127.12 0.79 M49.5 97.32 C66.17 75.51, 84.9 53.35, 133.53 0.35 M47.65 96.53 C67.26 74.81, 86.92 51.74, 132.46 -0.35 M53.42 98.29 C85.64 61.45, 115.91 21.61, 136.21 -0.52 M51.91 97.18 C79.69 64.86, 108.9 32.47, 138.25 -0.1 M58.17 98.4 C85.26 67.63, 106.37 40.99, 143.68 1.66 M59.16 97.15 C86.14 63.17, 115.22 30.94, 143.51 -0.73 M64.43 98.56 C87.73 71.3, 113.53 40.24, 149.5 2.43 M64.13 96.99 C83.15 74.71, 104.13 52.57, 147.54 1.86 M71.14 96.2 C96 66.95, 121.64 34.92, 148.71 8.09 M68.96 97.58 C89.31 74.89, 107.06 53.94, 148.02 7.21 M74.26 96.24 C89.67 82.26, 102.93 62.83, 146.53 15.05 M73.46 98.27 C101.9 66.09, 129.93 33.48, 147.99 13.74 M78.15 95.99 C100.36 75.96, 118.96 51.95, 145.85 20.58 M80.79 97.78 C94.18 82.2, 107.33 66.16, 146.84 18.59 M86.34 96.14 C107.24 71.72, 132.38 43.12, 147.93 26.75 M85.68 98.34 C98.07 81.98, 109.27 67.34, 147.39 25.67 M88.85 97.62 C109.05 78.74, 125.23 57.64, 146.49 31.61 M90.17 96.65 C106.38 77.11, 124.02 58.98, 147.37 31.93 M97.03 96.65 C107.2 82.74, 122.78 67.51, 146.38 38.86 M95.82 97.95 C106.28 84.94, 117.06 73.21, 148.5 37.1 M102.81 97.55 C112.67 85.19, 125.25 72.58, 146.36 44.81 M101.43 97.04 C111.87 85.15, 123.46 71.97, 146.73 43.76 M105.59 95.77 C119.7 83.45, 130.44 69, 145.8 48.04 M105.24 98.31 C114.07 88.73, 123.44 78.24, 147.25 49.13 M111.49 98.8 C122.15 87.64, 128.51 77.38, 146.75 56.63 M112.69 96.76 C125.78 81.84, 139.8 65.24, 148.02 55.31 M116.2 97.09 C126.33 87.45, 131.49 80.81, 146.01 61.31 M116.59 98.08 C125.46 87.09, 134.52 75.81, 148.28 62.59 M123.61 97.77 C132.31 88.39, 141.08 78.89, 147.85 67.14 M122.22 98.35 C131.02 85.32, 143.23 74.14, 148.6 68.24 M127.93 95.8 C131.03 90.5, 137.73 85.52, 148.76 74.51 M126.81 98.38 C133.69 90.47, 139.2 83.83, 148.1 73.52 M133.75 99.19 C138.51 90.9, 143.32 84.18, 146.13 78.74 M132.05 96.99 C136.08 92.25, 140.02 86.96, 146.51 80.46 M137.05 96.85 C140.12 92.9, 144.65 89.77, 146.71 87.03 M138.09 97.68 C140.42 94.47, 143.18 91.41, 148.45 85.37 M143.46 98.06 C144.48 96.77, 145.48 95.74, 147.31 92.01 M142.96 97.88 C145.01 95.63, 146.51 93.8, 147.7 92.31" stroke="#fa5252" stroke-width="0.5" fill="none"></path><path d="M-1.19 0.08 C57 0.46, 113.56 0.44, 145.93 0.37 M0.53 0.29 C53.88 0.48, 108.45 0.13, 147.55 -0.34 M145.69 -0.66 C147.76 27.9, 146.82 55.11, 147.93 98.62 M147.55 0.03 C145.11 20.42, 146.38 40.45, 146.83 96.76 M145.58 97.92 C91.97 94.66, 35.08 96.88, -0.19 96.59 M146.85 97.54 C113.96 97.14, 81.41 97.49, -0.62 97.27 M0.71 95.64 C0.42 73.42, 0.31 50.64, -1.46 -1.88 M-0.82 97.86 C0.14 65.78, -0.57 32.84, -0.63 -0.33" stroke="#000000" stroke-width="1" fill="none"></path></g><g transform="translate(441.22265625 55.26953125) rotate(0 12.5 25)"><text x="12.5" y="18" font-family="Virgil, Segoe UI Emoji" font-size="20px" fill="#000000" text-anchor="middle" style="white-space: pre;" direction="ltr">S1</text><text x="12.5" y="43" font-family="Virgil, Segoe UI Emoji" font-size="20px" fill="#000000" text-anchor="middle" style="white-space: pre;" direction="ltr">V2</text></g><g stroke-linecap="round" transform="translate(555.95703125 32.435546875) rotate(0 73.3828125 48.701171875)"><path d="M0 0 C0 0, 0 0, 0 0 M0 0 C0 0, 0 0, 0 0 M0.51 5.91 C1.35 4.33, 2.74 3.17, 4.24 -0.12 M0.09 6.3 C0.83 4.98, 2.07 3.2, 5.31 0.75 M-0.5 12.56 C2.34 6.65, 6.75 5.16, 9.63 -0.76 M0.83 11.63 C3.82 7.42, 7.79 3.33, 9.96 -0.21 M-1.46 19.7 C4.88 13.56, 5.54 11.2, 14.99 1.86 M-0.5 19.14 C2.88 15.13, 6.59 10.54, 16.44 1.18 M-0.46 24.26 C4.94 17.31, 7.36 12.58, 20.34 -2.04 M0.58 24.57 C5.8 16.78, 11.86 10.69, 21.65 -0.66 M-0.3 31.91 C8.79 21.73, 15.62 13.07, 27.42 1.68 M0.37 29.85 C5.7 23.76, 10.49 17.28, 26.2 0.61 M0.1 37.34 C13.08 23.24, 26.43 8.85, 33.14 -1.85 M-0.33 37.13 C7.71 27, 17.14 18.37, 32.45 0.07 M-0.39 43.6 C10.04 31.13, 17.42 20.18, 38.19 0.34 M-0.5 43.08 C14.31 25.39, 28.24 8.99, 37.55 0.59 M-1 47.28 C12.38 35.91, 24.03 22.11, 44.28 -0.1 M-0.4 48.1 C15.3 30.53, 32.1 11.87, 42.18 0.77 M1.61 54.17 C14.86 38.31, 28.19 21.4, 46.99 0.18 M0.45 55.1 C11.44 42.38, 21.19 30.58, 47.75 0.05 M-1.86 60.26 C18.86 39.8, 40.6 13.29, 53.12 -0.92 M0.54 60.58 C16.14 42.7, 31.93 24.81, 53.13 0.69 M-0.68 67.37 C20.37 43.34, 43.77 17.89, 57.42 2.1 M0.41 67.37 C16.32 47.55, 32.43 29.66, 57.86 0.85 M-0.01 72.35 C16.79 52.55, 36.47 30.85, 63.97 1.16 M1.12 73.9 C20.11 48.58, 41.78 25.2, 62.88 0.57 M1.21 78.29 C25.26 49.7, 52.81 19.55, 66.96 -0.38 M-0.18 78.53 C13.95 62.99, 28.18 46.01, 69.74 0.84 M0.91 84.17 C21.36 61.7, 41.54 41.08, 76.03 -0.81 M0.76 85.3 C18.93 62.51, 38.08 40.62, 75.32 -0.41 M0.7 91.85 C27.37 59.7, 58.55 22.95, 81.03 0.85 M-0.51 91.97 C29.48 58.59, 59.23 24.15, 79.05 0.78 M0.53 99.71 C21.26 71.69, 43.37 49.87, 85.39 -0.18 M0.01 97.77 C24.45 72.06, 48.75 42.76, 85.62 0.37 M6.02 95.8 C30.7 66.86, 58.58 36.2, 90.92 -1.52 M5.4 97.71 C38.01 59.18, 70.59 21.42, 90.23 -0.59 M8.84 97.2 C36.37 67.86, 61.15 38.72, 95.08 1.3 M10.69 97.9 C33.35 70.76, 54.5 45.02, 95.26 0 M15.07 95.52 C42.78 66.52, 70.47 35.27, 99.85 -0.2 M16.59 98.26 C34.78 74.11, 55.19 52.44, 101.53 0.41 M20.78 95.9 C43.47 68.23, 69.15 41.02, 105.01 -0.53 M21.48 97.62 C47.1 69.21, 70.57 40.96, 107 -0.98 M25.37 95.99 C47.88 73.19, 70.61 47.83, 112.96 0.71 M26.14 97.66 C53.26 66.08, 78.82 36.16, 112 -0.58 M32.34 98.82 C49.76 74.11, 70.99 53.25, 117.36 -1.48 M30.97 98.03 C61.47 64.35, 88.9 31.84, 117.27 1.17 M38.64 95.78 C57.24 74.88, 75.09 55.02, 123.25 -0.32 M36.68 98.32 C69.81 61.33, 101.36 22.56, 122.48 -0.96 M43.44 99.56 C74.94 61.67, 105.79 24.81, 125.15 1.96 M41.56 97.14 C73.51 62.03, 103.46 27.08, 127.73 -0.62 M49.47 99.05 C77.4 59.48, 108.58 24.82, 133.68 -0.22 M48.15 98.12 C69.5 74.22, 89.68 48.8, 132.6 -0.19 M51.86 96.32 C72.84 73.52, 96.46 46.46, 138.38 -0.83 M52.46 96.95 C71.72 75.47, 90.75 51.81, 138.39 -0.68 M59.39 97.53 C80.71 71.17, 104.56 45.19, 143.07 -1.31 M58.75 97.4 C80.7 72.25, 102.65 45.61, 143.81 -0.77 M63.34 97.89 C91.8 67.69, 117.64 32.61, 147.94 1.13 M62.67 98.38 C97.9 59.2, 131.34 20.14, 146.56 0.07 M70.81 96.57 C96.64 69.67, 120.65 38.87, 146.27 5.45 M70.03 97.94 C84.62 78.65, 100.31 60.32, 148.43 7.54 M73.5 97.66 C96.71 73.06, 116.5 49.45, 147.08 12.19 M73.98 98.33 C90.12 78.34, 107.68 59.42, 147.3 13.02 M81.05 97.1 C105.69 67.62, 129.7 39.85, 148.6 20.17 M79.79 97.99 C95.3 80.41, 110.32 62.68, 147.14 20.4 M85.86 95.61 C102.32 77.6, 122.33 55.7, 149 24.45 M83.98 96.64 C99.6 79, 115.96 61.74, 148.02 25.09 M92.35 97.64 C106.37 78.85, 122.67 62.43, 146.5 33.5 M91.14 97.25 C107.33 77.16, 124.01 58.01, 146.67 31.36 M93.85 96.31 C107.5 80.44, 120.11 65.32, 147.97 36.9 M95.07 97.11 C111.45 79.04, 128.51 58.08, 148.55 37 M101.84 96.32 C117.12 78.67, 132.7 63.99, 145.8 42.25 M101.51 97.85 C118.01 78.72, 134.52 59.17, 147 44.49 M106.82 98.93 C117.08 84.1, 129.86 72.38, 146.5 50.88 M105.41 98.47 C118.72 84.55, 130.28 69.99, 147.39 49.67 M111.57 96.86 C118.81 88.1, 126.91 77.45, 146.86 55.04 M111.6 97.39 C124.99 81.78, 138.6 65.96, 147.54 55.06 M116.01 99.24 C122.79 88.87, 128.53 80.64, 147.98 61.07 M116.01 97.44 C124.95 87.72, 133.86 79.53, 147.29 62.19 M121.83 99.3 C130.61 85.59, 140.04 75.27, 145.96 67.1 M121.76 98.69 C128.28 89.46, 135.72 82.25, 147.51 67.28 M128.58 95.57 C134.37 89.79, 140.74 80.79, 146.72 74 M127.63 97.67 C135 89.35, 143.26 80.18, 148.35 73.39 M131.78 99.06 C136.82 91.35, 141.86 86.14, 148.63 79.02 M131.6 97.74 C137.49 91.28, 144.88 82.98, 148.27 80.09 M137.67 98.52 C139.66 95.01, 142.1 90.88, 148.42 86.79 M137.88 96.92 C140.45 93.36, 143.42 91.4, 147.63 85.86 M142.44 97.61 C144.18 96.97, 144.36 96.01, 147.09 92.2 M142.98 97.57 C144.36 96.46, 145.63 94.33, 147.32 92.68" stroke="#fa5252" stroke-width="0.5" fill="none"></path><path d="M1.26 0.91 C30.64 -1.36, 58.98 -0.53, 148.36 -0.91 M0.12 -0.75 C37.48 -0.8, 76.68 -0.82, 147.47 -0.65 M146.81 -0.47 C145.79 25.64, 147.26 53.52, 146.57 98.13 M147.66 -0.91 C146.55 19.66, 146.13 38.3, 147.05 97.31 M147.86 96.79 C108.63 98.17, 74.99 98.01, 0.22 99.31 M147.07 97.28 C88.55 97.17, 31.55 97.65, -0.93 98.34 M1.93 97.13 C2.4 58.67, 0.68 21.65, -0.39 -1.96 M0.2 97.58 C-0.57 72.59, 0.02 49.53, -0.74 0.69" stroke="#000000" stroke-width="1" fill="none"></path></g><g transform="translate(617.33984375 56.13671875) rotate(0 12 25)"><text x="12" y="18" font-family="Virgil, Segoe UI Emoji" font-size="20px" fill="#000000" text-anchor="middle" style="white-space: pre;" direction="ltr">S1</text><text x="12" y="43" font-family="Virgil, Segoe UI Emoji" font-size="20px" fill="#000000" text-anchor="middle" style="white-space: pre;" direction="ltr">V3</text></g><g stroke-linecap="round" transform="translate(730.921875 30.201171875) rotate(0 73.3828125 48.701171875)"><path d="M0 0 C0 0, 0 0, 0 0 M0 0 C0 0, 0 0, 0 0 M-1.04 6.12 C1.67 5.07, 2.55 3.07, 5.52 0.2 M-0.3 6.3 C1.41 4.17, 2.8 2.19, 5.06 0.58 M-0.68 12.43 C3.48 9.32, 6.67 2.95, 9.14 -0.59 M-0.31 12.03 C1.93 9.46, 4.07 7.67, 11.06 -0.34 M0.27 18.39 C6.68 13.81, 8.45 6.97, 15.19 0.34 M-0.24 18.08 C4.49 13.93, 6.47 10, 16.27 0.34 M1.25 23.53 C6.98 17.91, 9.99 11.25, 21.11 -0.72 M-0.34 24.18 C5.58 19.04, 10.29 14.1, 22.24 0.83 M1.04 28.68 C8.72 23.67, 16.11 13.68, 27.58 -0.82 M-0.02 29.58 C7.69 20.18, 16.24 11.4, 26.19 -0.57 M-1.72 38.83 C10.77 25.22, 17.94 16.78, 32.52 -0.98 M0.64 37.68 C10.83 23.16, 23.44 9.94, 32.37 0.16 M-0.66 44.34 C11.75 30.38, 24.99 17.07, 37.56 0.67 M-0.7 43.33 C9.52 32.1, 18.03 20.56, 36.36 0.79 M0.46 48.22 C11.81 35.26, 23.03 23.88, 43.3 1.73 M0.85 49.09 C14.3 32.25, 27.84 15.42, 42.77 -0.2 M-1.67 55.72 C17.01 36.22, 32.3 15.64, 48.14 -1.42 M0.48 55.01 C10.07 43.48, 21.73 31.22, 47.51 0.49 M0.99 61.36 C13.99 43.36, 31.02 24.93, 51.61 -0.77 M-0.07 60.66 C17.86 41.36, 33.94 22.57, 53.46 -0.08 M-1.58 66.53 C20.97 45.52, 40.04 19.91, 57.18 -1.7 M0.46 66.96 C12.92 51.7, 26.79 36.69, 58.7 1.04 M0.65 74.75 C16.12 55.9, 31.56 40.43, 63.55 -2.07 M0.47 72.36 C14.43 56.81, 28.27 41.02, 64.25 -0.35 M1.87 80.8 C23.67 49.66, 50.56 22.48, 67.48 -1.23 M-0.08 80.23 C20.33 55.54, 40.15 32.87, 68.25 0.44 M1.09 86.47 C20.7 59.57, 42.29 35.74, 75.11 0.85 M0.39 85.58 C14.93 68.22, 30.27 50.66, 73.73 0.05 M-1.09 93.42 C33 54.59, 61.69 19.33, 80.75 -1.44 M0.36 92.11 C27.29 61.52, 54.93 28.96, 78.79 1.1 M-1.77 98.96 C28.52 63.37, 60.28 28.06, 86.2 1.59 M-0.79 96.96 C30.84 62.95, 60.59 28.13, 84.33 -0.83 M5.55 99.09 C36.69 60.15, 73.2 22.41, 91.59 1.83 M5.01 98.01 C28.56 71.24, 51.02 45.1, 90.26 0.9 M9.36 97.91 C38.04 64.82, 68.68 32.27, 94.63 -1.66 M10.24 98.23 C29 74.33, 49.95 53.12, 95.23 -1.03 M14.49 99.12 C39.8 66.58, 69.29 37.54, 101.5 0.31 M16.62 97.35 C39.16 69.05, 64.03 42.63, 100.86 0.18 M19.72 99.03 C48.39 63.77, 78.18 29.96, 106.11 -0.08 M20.1 97.98 C47.36 67.95, 73.55 35.47, 105.44 0.41 M25.07 95.47 C50.59 68.28, 78.15 36.65, 112.92 -0.65 M26.52 96.56 C59.09 57.55, 94.19 19.78, 112.14 0.72 M30.61 98.78 C62.53 64.17, 87.96 33.45, 115.61 0.44 M31.88 97.45 C61.11 62.45, 91.42 28.51, 116.09 1.11 M35.78 96.66 C59.16 73.72, 79.89 47.39, 123.16 -0.12 M38.05 97.95 C63.07 68.05, 87.38 40.69, 121.9 0.78 M42.21 97.21 C70.93 65.44, 95.28 34.92, 127.97 -1.61 M42.96 98.31 C59.67 75.88, 79.54 55.27, 126.1 -0.58 M49.03 97.79 C71.48 69.62, 92.9 42.31, 134.46 0.42 M48.37 96.8 C73.25 69.42, 95.76 42.61, 133.25 0.03 M51.65 95.98 C78.42 67.55, 104.28 38.88, 135.96 -0.91 M52.03 97.7 C74.3 74.98, 95.23 50.47, 137.18 -0.11 M57.12 98.55 C76.07 77.08, 94.28 55.66, 143.95 -0.9 M59.43 96.34 C86.93 64.37, 115.39 31.79, 143.62 0.63 M62.92 96.34 C92.77 64.47, 119.83 33.05, 148.27 2.47 M64.04 97.19 C89.05 68.23, 112.6 40.25, 146.87 2.01 M68.27 97.24 C96.16 63.07, 125.07 33.15, 147.78 6.43 M68.98 96.77 C87.73 76.37, 106.38 54.3, 147.81 6.96 M72.95 97.12 C93.59 71.98, 116.73 52, 146.97 14.85 M73.28 97.82 C95.96 72.31, 117.58 47.02, 146.97 13.05 M80.6 96.75 C100.81 74.79, 121.81 51.12, 147.53 20.95 M79.57 96.22 C98.84 75.3, 117.81 54.8, 147.47 20.34 M85.56 96.76 C101.45 78.32, 118.68 58.5, 149.04 23.26 M84.32 97.1 C104.19 76.08, 123.42 52.46, 148.09 25.36 M92.14 98.56 C104.11 78.89, 122.44 60.87, 146.99 32.78 M89.53 97.79 C108.38 76.98, 127.61 54.85, 146.81 31.46 M93.48 99.28 C106.21 82.94, 117.62 70.57, 147.54 38.66 M95.01 97.95 C108.33 83.22, 120.12 69.73, 147.82 36.53 M102.83 96.73 C112.58 82.49, 124.07 71.17, 146.25 43.17 M102.01 96.51 C115.66 79.89, 131.19 63.23, 147.78 43.05 M104.36 96.31 C120.28 80.53, 134.21 65.02, 146.79 51.34 M105.52 97.77 C120.42 81.58, 133.76 64.83, 146.87 49.88 M112.5 95.94 C118.16 86.16, 127.04 77.96, 146.99 54.2 M111.94 96.39 C121.96 85.64, 131.72 73.83, 148.28 56.52 M114.73 97.05 C126.29 87.02, 137.71 72.64, 146.97 61.93 M117.31 97.42 C126.3 87.21, 137.3 74.98, 146.72 62.42 M122.24 98.21 C130.88 88.65, 136.53 80.06, 149.77 67.56 M122.39 98.13 C126.96 91.23, 133.38 84.71, 148.49 67.73 M128.04 98.32 C135.56 90.52, 139.89 80.33, 146.19 75.92 M128.13 98.2 C130.77 91.54, 136.38 88.2, 146.68 74.36 M131.02 97.87 C134.41 91.61, 138.76 89.52, 147.42 79.28 M132.21 97.12 C135.14 93.74, 138.56 91.12, 147.25 80.75 M136.98 98.24 C140.77 93.04, 146.06 88.59, 148.81 86.48 M137.27 97 C140.75 93.66, 143.93 90.62, 147.58 85.37 M142.52 97.18 C144.39 95.81, 147.13 94, 146.87 91.86 M142.98 97.48 C144.75 95.55, 146.67 93.74, 147.57 92.25" stroke="#12b886" stroke-width="0.5" fill="none"></path><path d="M0.36 1.65 C40.56 -1.53, 79.7 -0.53, 146.04 0.18 M-0.59 -0.46 C46.01 0.87, 94.84 1.71, 147.08 0.49 M145.53 0.78 C144.73 30.79, 144.19 63.42, 146.46 98.83 M146.09 0.58 C147.12 35.89, 145.78 74.74, 147.13 96.77 M145.12 97.31 C99.95 99.01, 50.92 97.11, 0.36 97.87 M147.49 98.03 C99.32 97.65, 53.34 97.13, -0.07 97.66 M0.65 98.52 C0.95 71.81, 0.33 48.14, -0.53 1.08 M-0.16 98.06 C0.21 67.6, -0.42 36.12, -0.63 0.56" stroke="#000000" stroke-width="1" fill="none"></path></g><g transform="translate(791.8046875 53.90234375) rotate(0 12.5 25)"><text x="12.5" y="18" font-family="Virgil, Segoe UI Emoji" font-size="20px" fill="#000000" text-anchor="middle" style="white-space: pre;" direction="ltr">s2</text><text x="12.5" y="43" font-family="Virgil, Segoe UI Emoji" font-size="20px" fill="#000000" text-anchor="middle" style="white-space: pre;" direction="ltr">v1</text></g><g transform="translate(911.5 63.0859375) rotate(0 8 12.5)"><text x="0" y="18" font-family="Virgil, Segoe UI Emoji" font-size="20px" fill="#000000" text-anchor="start" style="white-space: pre;" direction="ltr">...</text></g></svg>